<?xml version="1.0" encoding="utf-8"?>
<!-- Generator: Adobe Illustrator 25.0.0, SVG Export Plug-In . SVG Version: 6.00 Build 0)  -->
<svg version="1.1" id="Layer_1" xmlns="http://www.w3.org/2000/svg" xmlns:xlink="http://www.w3.org/1999/xlink" x="0px" y="0px"
	 viewBox="0 0 600 600" style="enable-background:new 0 0 600 600;" xml:space="preserve">
<style type="text/css">
	.st0{fill-rule:evenodd;clip-rule:evenodd;fill:#E51719;}
	.st1{fill-rule:evenodd;clip-rule:evenodd;fill:#FFFFFF;}
</style>
<path class="st0" d="M300,13.1c158.5,0,287,128.5,287,287S458.5,586.9,300,586.9S13,458.5,13,300.1S141.5,13.1,300,13.1z"/>
<path class="st1" d="M128.9,261.5h80.3V149.9C168.4,174.7,139.4,215,128.9,261.5z M209.1,300.6h-84.5c0,36,11.2,71.1,32,100.4
	c-4.2,2.6-23.8,16.7-32.2,22.2c-25.4-36-39-79-38.9-123.1c0-100.5,69.2-184.9,162.3-208.1v416c-13.3-3.3-26.3-7.9-38.7-13.7
	L209.1,300.6L209.1,300.6z"/>
<path class="st1" d="M300,66.1c129.1,0,233.8,104.8,233.8,234c0,129.1-104.8,233.8-233.8,233.8c-129.2,0-233.8-104.8-233.8-233.8
	C66.2,170.9,170.8,66.1,300,66.1z M300,27.2c150.7,0,272.9,122.2,272.9,272.9c0,150.5-122.2,272.7-272.9,272.7
	S27.1,450.6,27.1,300.1C27.1,149.4,149.3,27.2,300,27.2z"/>
<path class="st1" d="M352.6,92.2v40.5c-17-5.2-34.6-7.9-52.3-8.1v137H353v39.1h-52.6v198.1H300v15.7c-13.1,0.1-26.1-1.1-38.9-3.5
	v-39.8l0.4,0.2V89.2C291.7,83.5,322.8,84.6,352.6,92.2z"/>
<path class="st1" d="M365.9,95.8c69.2,22.6,122.4,78.5,141.4,148.8L469.6,255c-10.2-38.4-33.1-72.2-65-95.8V441
	c30.8-22.9,53.2-55.3,63.9-92.1l37.7,9.9c-19.6,68.8-72.2,123.3-140.3,145.4v-22.5h-0.2C365.7,353.1,365.7,224.5,365.9,95.8z"/>
</svg>
