<?xml version="1.0" encoding="utf-8"?>
<!-- Generator: Adobe Illustrator 23.0.1, SVG Export Plug-In . SVG Version: 6.00 Build 0)  -->
<svg version="1.1" id="Layer_1" xmlns="http://www.w3.org/2000/svg" xmlns:xlink="http://www.w3.org/1999/xlink" x="0px" y="0px"
	 viewBox="0 0 400 400" style="enable-background:new 0 0 400 400;" xml:space="preserve">
<style type="text/css">
	.st0{fill:#EC1C24;}
	.st1{fill:#FFFFFF;}
	.st2{fill:#B94F38;}
	.st3{fill:#B62025;}
</style>
<g>
	<path class="st0" d="M161.5,381.5c-1.3-0.7-2.9-1.4-4.9-2.1c-2-0.7-3.8-1.5-5.3-2.2c-2.5-1.1-3.6-2.5-3.6-4.2
		c0.1-2.7,1.8-3.9,5.8-4c0.1,0,0.1,0,0.2,0c3,0,4.4,1.1,4.8,3.3l0.1,1.6l0,0.7v0.4h6.8v-1c0-3.4-0.7-5.9-2.4-7.2
		c-2-1.5-5.2-2.3-9.4-2.3c-3.5,0-6.3,0.5-8.4,1.6c-2.8,1.3-4.3,3.7-4.3,7c0,3,1.3,5.3,3.8,6.9c1.2,0.8,2.7,1.5,4.4,2.2l4.4,1.8
		c1.4,0.6,2.7,1.2,3.7,1.8c1.4,0.9,2,2,2.1,3.5c-0.1,2.3-1.1,3.5-3.2,4.2c-0.9,0.3-2,0.4-3.1,0.4c-0.1,0-0.1,0-0.2,0
		c0,0-0.1,0-0.1,0c-3.2,0-4.9-1-5.4-2.9c-0.2-0.7-0.4-1.4-0.4-2.2c0-0.1,0-0.1,0-0.2v-2.2h-0.4h-6.4v1.7l0.1,2.6
		c0.2,2.6,1.6,4.7,4,6c2,1.1,4.8,1.7,8.4,1.7c0.1,0,0.1,0,0.2,0c0,0,0.1,0,0.1,0c8.6,0.1,13.2-3.1,13.3-9.2
		C166.1,385.8,164.5,383.2,161.5,381.5z"/>
	<path class="st0" d="M179.3,365l-0.1,0.3L169,397.8h6.7l2.1-7.3h11.1l2.1,7.3h7.2L187.8,365H179.3z M187.6,386.1h-8.5l4.4-15.1
		L187.6,386.1z"/>
	<path class="st0" d="M223.6,381.5c-1.3-0.7-2.9-1.4-4.9-2.1c-2-0.7-3.8-1.5-5.3-2.2c-2.5-1.1-3.6-2.5-3.6-4.2
		c0.1-2.7,1.8-3.9,5.8-4c0.1,0,0.1,0,0.2,0c3,0,4.4,1.1,4.8,3.3l0.1,1.6l0,0.7v0.4h6.8v-1c0-3.4-0.7-5.9-2.4-7.2
		c-2-1.5-5.2-2.3-9.4-2.3c-3.5,0-6.3,0.5-8.4,1.6c-2.8,1.3-4.3,3.7-4.3,7c0,3,1.3,5.3,3.8,6.9c1.2,0.8,2.7,1.5,4.4,2.2l4.4,1.8
		c1.4,0.6,2.7,1.2,3.7,1.8c1.4,0.9,2,2,2.1,3.5c-0.1,2.3-1.1,3.5-3.2,4.2c-0.9,0.3-2,0.4-3.1,0.4c-0.1,0-0.1,0-0.2,0
		c0,0-0.1,0-0.1,0c-3.2,0-4.9-1-5.4-2.9c-0.2-0.7-0.4-1.4-0.4-2.2c0-0.1,0-0.1,0-0.2v-2.2h-0.4h-6.4v1.7l0.1,2.6
		c0.2,2.6,1.6,4.7,4,6c2,1.1,4.8,1.7,8.4,1.7c0.1,0,0.1,0,0.2,0c0,0,0.1,0,0.1,0c8.6,0.1,13.2-3.1,13.3-9.2
		C228.2,385.8,226.7,383.2,223.6,381.5z"/>
	<path class="st0" d="M290.6,369.8c-0.9-2.1-2.8-3.5-5.5-4.3c-2-0.6-4.2-0.9-6.5-0.9c-2.3,0-4.5,0.3-6.5,0.9
		c-2.8,0.8-4.7,2.3-5.6,4.3c-0.6,1.3-0.8,3.3-0.8,5.9l0.4,0h-0.4v10.7c0,0.1,0,0.1,0,0.2c0,4.1,0.7,6.9,2.1,8.5
		c2,2.1,5.6,3.1,11,3.1c7.3,0,11.6-2.2,12.4-6.7c0.2-1.4,0.3-3.1,0.3-5.1v-10.7C291.5,373.1,291.2,371.1,290.6,369.8z M278.5,393.8
		C278.5,393.8,278.5,393.8,278.5,393.8c-1.2,0-2.3-0.2-3.3-0.6c-1.1-0.4-1.8-1-2.1-1.7c-0.4-0.7-0.6-2.4-0.6-5.1v-10.7
		c0-0.2,0-0.3,0-0.5c0-0.9,0.1-1.7,0.2-2.4c0.2-1.7,1.2-2.8,3-3.4c0.9-0.3,1.9-0.5,2.9-0.5c0,0,0,0,0.1,0c2.7,0,4.4,0.7,5.2,2.1
		c0.5,0.8,0.8,2.3,0.8,4.4c0,0.1,0,0.2,0,0.2v10.7c0,1.4-0.1,2.6-0.2,3.5c-0.2,1.6-1.1,2.7-2.9,3.3c-0.9,0.4-1.9,0.5-2.9,0.5
		C278.7,393.8,278.6,393.8,278.5,393.8C278.6,393.8,278.6,393.8,278.5,393.8z"/>
	<path class="st0" d="M247,364.6c-5,0-8.6,1.1-10.6,3.4c-0.9,1-1.5,2.3-1.7,3.8c-0.2,1.1-0.3,2.3-0.3,3.5c0,0.1,0,0.3,0,0.4l0,12.7
		c0,5.3,2.7,8.5,7.8,9.4c1.4,0.3,2.9,0.4,4.4,0.4c0.1,0,0.2,0,0.3,0c1.9,0,3.7-0.2,5.3-0.6c1.4-0.3,2.6-0.9,3.7-1.7
		c1.7-1.3,2.7-3.3,2.9-5.8l0.1-2l0-1.5H252v1.5l-0.2,2c-0.4,2.5-1.9,3.7-5,3.7c-2.4,0-3.9-0.7-4.8-1.9c-0.4-0.5-0.7-1.9-0.7-4.2
		v-12.6l0.1-2.6c0-0.5,0.3-1.1,0.7-1.7c0.8-1.2,2.5-1.8,5.3-1.9c0,0,0,0,0.1,0c3.1,0.1,4.5,1.1,4.6,3.4l0,1.5v0.8v0.4h6.8v-1.7
		c0-1-0.1-1.8-0.2-2.6C258.1,366.7,254.1,364.6,247,364.6z"/>
	<path class="st0" d="M127.9,365.5c-2-0.6-4.2-0.9-6.5-0.9c-2.3,0-4.5,0.3-6.5,0.9c-2.8,0.8-4.7,2.3-5.6,4.3
		c-0.6,1.3-0.8,3.3-0.8,5.9l0.4,0h-0.4v10.7c0,0.1,0,0.1,0,0.2c0,4.1,0.7,6.9,2.1,8.5c2,2.1,5.6,3.1,11,3.1c7.3,0,11.6-2.2,12.4-6.7
		c0.2-1.4,0.3-3.1,0.3-5.1v-10.7c0-2.7-0.3-4.6-0.9-5.9C132.6,367.8,130.7,366.3,127.9,365.5z M121.3,393.8c-1.1,0-2.2-0.2-3.2-0.7
		c-1.1-0.4-1.8-1-2.1-1.7c-0.4-0.7-0.6-2.4-0.6-5.1v-10.7c0-0.2,0-0.3,0-0.5c0-0.9,0.1-1.7,0.2-2.4c0.2-1.7,1.2-2.8,3-3.4
		c0.9-0.3,1.9-0.5,2.9-0.5c0,0,0,0,0.1,0c2.7,0,4.4,0.7,5.2,2.1c0.5,0.8,0.8,2.3,0.8,4.4c0,0.1,0,0.2,0,0.2v10.7
		c0,1.4-0.1,2.6-0.2,3.5c-0.2,1.6-1.1,2.7-2.9,3.3c-0.9,0.4-1.9,0.5-2.9,0.5c0,0-0.1,0-0.1,0C121.4,393.8,121.4,393.8,121.3,393.8
		C121.3,393.8,121.3,393.8,121.3,393.8z"/>
	<polyline class="st0" points="327.3,1.7 392.8,90.5 200,354.8 7.2,90.5 72.7,1.7 327.3,1.7 	"/>
	<polygon class="st1" points="324.6,7.1 75.4,7.1 13.8,90.5 200,345.7 386.2,90.5 324.6,7.1 	"/>
	<polygon class="st2" points="78.4,13.1 21.3,90.6 188.5,319.8 188.5,13.1 	"/>
	<polygon class="st0" points="378.7,90.6 321.6,13.1 211.5,13.1 211.5,319.8 	"/>
	<polyline class="st3" points="188.5,13.1 188.5,319.8 21.3,90.6 78.4,13.1 188.5,13.1 	"/>
	<polygon class="st0" points="78.7,255 28.7,178.1 28.3,177.4 371.7,177.4 321.3,255 78.7,255 	"/>
	<polygon class="st1" points="79.1,254.2 320.9,254.2 370.2,178.3 29.7,178.3 79.1,254.2 	"/>
	<polygon class="st0" points="359.8,183.9 40.2,183.9 82.2,248.5 317.8,248.5 359.8,183.9 	"/>
	<polygon class="st1" points="334.8,126 334.8,126.8 334.8,132.6 342.9,132.6 342.9,126 	"/>
	<path class="st1" d="M338.1,54.5l-17.5-13h-69.8l-17.5,13v65l17.5,13h69.8l17.5-13V54.5z M303.2,110.9h-34.9V63.2h34.9V110.9z"/>
	<polygon class="st1" points="163.3,126.8 163.3,132.6 171.4,132.6 171.4,126 163.3,126 	"/>
	<polygon class="st1" points="166.6,77.3 108.4,77.3 108.4,97.9 131.7,97.9 131.7,110.9 96.8,110.9 96.8,63.2 131.7,63.2 
		131.7,69.7 166.6,69.7 166.6,54.5 149.2,41.5 79.4,41.5 61.9,54.5 61.9,119.5 79.4,132.6 149.2,132.6 166.6,119.5 	"/>
	<g>
		<path class="st1" d="M115.8,192.9c-0.8-0.9-1.9-1.3-3.2-1.3H94.8v5.4l0.4,0c0.4,0,0.8,0,1.2,0c1.7,0,2.9,0.1,3.7,0.4
			c0.8,0.3,1,0.5,1,0.8c0,0.1,0,0.2-0.1,0.4h0c-0.3,0.9-5.6,14.6-15.8,40.9L85,240h10.2l4.1-11.2h20.1l4,11.2h11l-17.1-44.2
			C116.8,194.4,116.3,193.5,115.8,192.9z M102.3,220.9l7.4-19.8l7.1,19.8H102.3z"/>
		<path class="st1" d="M210.7,195.1c-3.7-2.4-9.6-3.5-17.6-3.5h-14v0l-0.8,0h-9.6c-1.6,0-2.8,0.3-3.7,1.1c-0.9,0.8-1.3,1.9-1.3,3.3
			v23.9c-0.1,8.8-3.2,12.9-9.7,13c-6.8,0-10.1-4.2-10.2-13.3v-28h-10.1v28c0,7,1.7,12.4,5.1,16c3.4,3.6,8.6,5.4,15.3,5.4
			c0,0,0,0,0,0c6.7,0,11.7-1.7,15.1-5.3c3.4-3.5,5.1-8.8,5.1-15.7v-20.6c0-1.2,0.4-1.8,1-2.1c0.5-0.2,1.4-0.4,2.9-0.4h0.4h0.5v43
			h13.3c8.2,0,14.3-1.2,18.2-3.7c7-4.4,10.6-11.3,10.5-20.6C221.1,206.4,217.6,199.5,210.7,195.1z M206.3,227.6
			c-2.8,2.8-6.8,4.3-12,4.3h-5v-32.4h4.7c5.4,0,9.5,1.4,12.3,4.1c2.8,2.7,4.2,6.7,4.2,12C210.5,220.8,209.1,224.7,206.3,227.6z"/>
		<path class="st1" d="M249.6,192.9c-0.8-0.9-1.9-1.3-3.2-1.3h-17.9v5.4l0.4,0c0.4,0,0.8,0,1.2,0c1.7,0,2.9,0.1,3.7,0.4
			c0.8,0.3,1,0.5,1,0.8c0,0.1,0,0.2-0.1,0.4h0c-0.2,0.7-5.5,14.4-15.8,41l-0.2,0.6H229l4.1-11.2h20.1l4,11.2h11l-17.1-44.2
			C250.5,194.4,250.1,193.5,249.6,192.9z M236,220.9l7.4-19.8l7.1,19.8H236z"/>
		<path class="st1" d="M298.2,214.5l15.2-23h-11.2l-9.6,17.5l-7.5-13.3c-0.5-0.9-0.9-1.6-1.2-2c-0.3-0.5-0.4-0.7-0.5-0.9
			c-0.7-0.8-1.7-1.3-3-1.3H269v5.3h3.4c0.8,0,1.5,0.2,2.1,0.7c0.3,0.3,0.8,0.9,1.5,2l10,15l-17,25.4h11.3l11.4-19.3l11.2,19.3h12
			L298.2,214.5z"/>
	</g>
</g>
</svg>
