<?xml version="1.0" encoding="UTF-8"?>
<svg id="Layer_1" xmlns="http://www.w3.org/2000/svg" version="1.1" viewBox="0 0 300 300">
  <!-- Generator: Adobe Illustrator 29.1.0, SVG Export Plug-In . SVG Version: 2.1.0 Build 142)  -->
  <defs>
    <style>
      .st0 {
        fill: #fbfbfb;
      }

      .st1 {
        fill: #030303;
      }
    </style>
  </defs>
  <path class="st1" d="M102.5,273.8c-38.1-25.6-68.7-66.7-79.4-111.7s-3.8-16.4-2.9-17.7,4.3-3.7,5.3-4.7c19.9-21.6,24.6-41.6,1.7-63-1.7-1.6-6.5-3.8-5.2-6.3,9.7-10.7,18.6-22.3,28.6-32.8s.5-.9.6-1.4h.8c7.1,7.6,20.6,10.8,29.3,4.1s6.4-15.7,5.9-24.2C115.2,2.5,149.8.9,180.2,6.3c12.3,2.2,25.1,5.6,35.9,12.1.3,7-1.8,13.9,1.9,20.4,6.6,11.4,24.6,10,32.7.8h.8c8.7,11.9,18.5,23.4,27.8,34.9.3.5.6,1,.6,1.6,0,1.2-6.9,5.9-8.4,7.2-19.6,17.8-16.7,37.4-1.1,56.9,1.2,1.6,8.1,8.5,8.2,9.1.5,1.6-.9,6.6-1.3,8.5-5,24-18.1,51.5-33.2,70.8-19.8,25.2-49,46.8-78.3,60.3-3.2,1.5-17.6,8-20,7.6s-4.5-1.8-5.6-2.3c-11.5-4.8-27.5-13.6-37.8-20.5ZM272.1,75.8l-22.1-27.8c-16.3,10.3-39.2,3.6-40.4-17.6-.2-3,.6-5.8.3-8.7-35.8-16.1-80.3-16.3-116.9-2.2,3.9,20.5-11.8,34.8-32.1,29s-5.7-2.8-8.8-3.9l-22.6,26c2.1,2.6,5.1,4.8,7.5,7.4,16.7,18.6,13.7,38.3-.3,57.5l230.4-56.6,5-3.1ZM259.8,87L30,143.6c-1.5.9-3.9,2.5-3.9,4.4,0,3.2,2.5,12.5,3.5,16.1s5.1,17.9,6.3,18.2l217.7-60.2c-2.1-8.6-2.7-17.2.8-25.6l5.3-9.5ZM262.5,138.9l-219,60.9,9,15.3h1.7s217.5-60.7,217.5-60.7c1-.5,1.2-2.3.7-3.3s-4.9-5.3-5.9-6.4-3.7-5.5-4-5.7ZM265.9,175.1l-201.3,56.6c2.2,1.9,12.4,14.2,14.1,14.1l177.1-49.4c.9-.2,1.5-.6,2-1.3,1.3-1.5,8.9-19.3,8.1-20.1ZM94.7,259.9c1.7,2.2,4.3,3.9,6.5,5.5s11.3,7.9,12.7,7.9,4.5-1,5.9-1.4c34.2-8,68.3-20.2,102.5-28.6,8.1-7.2,15.1-15.6,21.3-24.4l-148.9,41ZM182.8,273.2l-45,12.2c-2.5.9.4,1.2,1.3,1.6,2.1,1,6.4,3.7,8.6,3.3,3.7-.7,13-5.3,16.9-7.1s7.1-3.7,10.8-5.4l7.4-4.6Z"/>
  <path class="st0" d="M272.1,75.8l-5,3.1-230.4,56.6c14-19.1,16.9-38.8.3-57.5-2.3-2.6-5.4-4.8-7.5-7.4l22.6-26c3.1,1.1,5.6,3,8.8,3.9,20.3,5.8,36-8.5,32.1-29,36.5-14.1,81-13.9,116.9,2.2.2,2.9-.5,5.6-.3,8.7,1.1,21.2,24.1,27.9,40.4,17.6l22.1,27.8ZM149.4,17.2l-30.1-1.1c-.6,3.4,1.1,1.7,3,2.8,2.7,1.6,1,11.5,1.5,14.5-11.7.8-39.6,9.1-39.6,23.7s25.8,23.8,37.4,25.4c-1.2,3.5.6,10.1-2.8,12.5s-5.3.3-2.4,3c2.2-.5,16.3,1.3,16.9.6s0-2.1,0-2.2c-.1-.1-2.2,0-3.3-.9-2.2-1.9-2.2-11.9-.8-12,8.2,1.6,16.6,1.6,25,2.3.8.3,3.2,6.4,4.3,8,2.9,4.4,7.4,8,13,7.4s14.8-10.7,13.9-17.1l26.2-7.9c-.3-.4-1.1-2.2-1.4-2.3-.8,0-8.1,3-9.8,3.5-12.6,3.7-25.6,5.5-38.8,4.8-1.6-1-1.4-24.6-1.2-28.1.1-2.1,2.2-17.5,2.9-18,3.8-.2,7.6,0,11.3.6s9.3,1.6,10.6,2.3,1.3,4.4,1.5,6c2.4,0,1.5-2.6,1.7-4.2s-.2-1.1.8-.8c6.4,1.9,13.2,6.4,17,12l3.9.3-1.7-18.4c-1.3.5-3.9-.6-4.7-.5s-.8,1.3-1.6,1.8c-3.8,2.4-9.5,1.6-13.8.9l1.1-18.9h-2.2c0,9.8-2.2,4.7-6.2,2-8.9-6.1-16.2.9-20.7,8.2s-2,4.6-2.2,4.7c-1.5.9-6.8-1.1-8.8-.5l.6-14.5Z"/>
  <path class="st0" d="M259.8,87l-5.3,9.5c-3.5,8.4-2.9,17-.8,25.6l-217.7,60.2c-1.2-.4-5.7-15.8-6.3-18.2-.9-3.6-3.5-12.9-3.5-16.1s2.4-3.5,3.9-4.4l229.8-56.6ZM237.4,102.1c-12.1,1.3-10.4,19.2,2.5,17s7.8-18.2-2.5-17ZM226.9,105.4c-1.9.4-14.5,2.7-15,3.3s.8,3,.6,3.9l5.6-1.1c.3,1.9,2,11.3,3.1,11.7s3.2-.7,4.7-.5c.4-.4-2.9-9.7-2.8-11.4.2-2.8,6.9,0,3.9-5.8ZM210.2,109.3l-13.4,3.4c.5,2,3.1,14.8,3.9,15.4s13-2,13.4-2.6-.4-3.8-.5-3.9c-.3-.3-7.6,2.2-8.9,2.2l-.6-3.3c2.2-.5,7.3-.3,7.3-3.1,0-4-6,.3-8.4-.3-.6-5.7,10.1-.9,7.2-7.8ZM199,129.3c.3-1.9-6.1-6-6.1-6.4s3.7-1.9,1.8-6.3c-2.1-4.9-11.2-.4-15,.4,0,1.9,3,14.9,3.6,15.4s3.8-.3,4.8-.9l-.9-6.7c.8-.9,5.4,5.2,6.5,5.4s3.7-1.4,5.2-1ZM172.3,136c.3-.3-1.6-4.3-1.1-5.8s7.2-1.2,7.2-6.2c0-8.5-10.3-4.3-15.1-3.1,1.1,2.8,2.3,13.3,3.6,15s3.8-.2,5.3,0ZM145.9,125c-13.8,1.7-7.5,23.1,5.9,15.9s4.1-17.1-5.9-15.9ZM129.9,125.4c-1.5-.7-1.7,1-2,1.1-2.6.5-5.5-1.1-5.2,3.4,1.5.7,1.6-1,2-1.1,2.9-.5,5.8,1.5,5.2-3.4ZM129.8,129.4c-.2-.1-5.4,1.2-5.5,1.4l-2.2,16.9c-2.4-1.4-3-4.8-6.1-5,1.8-2.1,3-3.6,1.8-6.5-2.1-5.3-11.2-.3-15.2-.1l3.9,16.2,5-1.1-1.7-6.7c3.7-.8,4.6,5,7.5,5s9.4-2,9.7-2.4-.1-2.7,1.1-3.2,4.6-1.2,4.8-1.1c.5,0,.6,1.8,1.8,2.2s3.9-.4,4.4-1c-1.1-2-8.4-13.9-9.3-14.4ZM99.2,137.1c-.2-.2-4.9.9-5.1,1.5s2.9,15.2,3.7,15.3,4.6-.3,4.7-.9l-3.4-15.8ZM91.3,142.7c.5-.8.2-3.2-1.3-3.3-3-.2-9,3.1-12.6,2.8l3.9,16.2c.5.4,12.7-2.7,13.1-3.3.6-.9.5-3-.7-3.3-1.8-.6-7.8,3-8.5.7-1-3.2,5.1-3.1,7.2-3.6,0-6.1-3.6-2.2-7-2.2s-2.7-1.7-1.6-2.3,6.9-1.1,7.4-1.7ZM74.1,151.6c-.3-.4,2.4-3.3.6-5.9s-11.1.7-14.5.9l3.9,16.2c4.4-1.6,16.1-1.6,13.7-9s-3.4-2-3.7-2.2ZM56.8,147.7l-5.1,1.5,3.9,15.8,5-1.1-3.9-16.2ZM47.9,160c-.6-.8,4-3.5,1.1-7.5s-4.8-1.6-7.7-1-6.5,1.3-6.8,2.2c-.7,2.1,3.7,12.2,3.3,15.3l5-.6-1.1-6.7c3.2-1.1,4.6,4.5,6.5,4.9s3.6-1.2,5.2-1c.4-.5-3.9-6.2-5.6-5.6Z"/>
  <path class="st0" d="M262.5,138.9c.3.2,3.3,4.8,4,5.7s5.6,5.8,5.9,6.4c.4,1,.3,2.8-.7,3.3l-217.5,60.7h-1.7s-9-15.3-9-15.3l219-60.9Z"/>
  <path class="st0" d="M265.9,175.1c.8.8-6.8,18.6-8.1,20.1s-1.1,1.1-2,1.3l-177.1,49.4c-1.8,0-12-12.3-14.1-14.1l201.3-56.6Z"/>
  <path class="st0" d="M94.7,259.9l148.9-41c-6.3,8.8-13.3,17.2-21.3,24.4-34.2,8.4-68.3,20.6-102.5,28.6-1.4.3-4.9,1.4-5.9,1.4s-10.8-6.5-12.7-7.9-4.8-3.3-6.5-5.5Z"/>
  <path class="st0" d="M182.8,273.2l-7.4,4.6c-3.6,1.7-7.1,3.7-10.8,5.4s-13.2,6.4-16.9,7.1-6.4-2.2-8.6-3.3-3.8-.7-1.3-1.6l45-12.2Z"/>
  <path class="st1" d="M149.4,17.2l-.6,14.5c2-.6,7.4,1.4,8.8.5s1.7-3.9,2.2-4.7c4.5-7.3,11.8-14.4,20.7-8.2s6.3,7.8,6.2-2h2.2s-1.1,18.9-1.1,18.9c4.2.7,10,1.5,13.8-.9s1-1.7,1.6-1.8c.8-.2,3.4,1,4.7.5l1.7,18.4-3.9-.3c-3.8-5.6-10.6-10.1-17-12s-.7.2-.8.8c-.2,1.6.8,4.2-1.7,4.2-.2-1.6,0-5.3-1.5-6s-8.7-2-10.6-2.3c-3.7-.5-7.5-.8-11.3-.6-.7.6-2.7,15.9-2.9,18-.2,3.5-.3,27.1,1.2,28.1,13.2.7,26.2-1.1,38.8-4.8,1.8-.5,9-3.6,9.8-3.5s1.1,1.8,1.4,2.3l-26.2,7.9c1,6.4-7.8,16.5-13.9,17.1s-10-3-13-7.4-3.4-7.7-4.3-8c-8.3-.7-16.8-.7-25-2.3-1.4.1-1.4,10,.8,12s3.2.8,3.3.9.1,2.1,0,2.2c-.6.6-14.8-1.1-16.9-.6-2.8-2.7.6-1.7,2.4-3,3.4-2.4,1.6-9,2.8-12.5-11.6-1.6-37.4-11.2-37.4-25.4s27.9-22.9,39.6-23.7c-.5-3,1.2-13-1.5-14.5s-3.6.6-3-2.8l30.1,1.1ZM140.2,21.7c-2.5-.4-6,.3-8.6,0l-.6,10.6c5.4.3,10.7-1,16.2-.6-.3-4.5-1.9-9.2-7-10ZM185.1,35.6c-.6-12.4-13.4-19.2-19.7-6.1-.5,1.1-1.8,3,0,3.3,6.6,1,13.3,1.1,19.8,2.8ZM156.1,35.6c-8.5-.2-17.2.2-25.4,2.8l-.8,14.5c8.4,2.5,12.4-1.8,12.2-10h1.7c0,9.5-1.1,19-1.1,28.5h-1.7c.3-7.8-1.9-14.1-11.1-12.2-.9.8-.7,15.7-1.1,18.3,8,2.2,16.1,4.2,24.5,4.5-2.9-15.6-1.9-31.2,2.8-46.3ZM123.2,41.2c-11.7,3.2-19.9,13.8-11.4,25s6.9,6.9,9.4,7.3.7,0,.8-.8l1.1-31.5ZM183.4,84.7c-.6-.5-8.8,1-10.3,1.1-3.2.2-7-.4-10,0s-1.1-.2-.8.8,3.3,5.7,4.4,6.7c7,6.4,14.2-2.3,16.7-8.7Z"/>
  <path class="st1" d="M129.8,129.4c.9.5,8.2,12.5,9.3,14.4-.5.6-3.6,1.3-4.4,1-1.3-.4-1.3-2.1-1.8-2.2s-4.6,1-4.8,1.1c-1.2.5-.6,2.7-1.1,3.2s-9,2.4-9.7,2.4c-2.9,0-3.8-5.9-7.5-5l1.7,6.7-5,1.1-3.9-16.2c4-.2,13.1-5.1,15.2.1s0,4.4-1.8,6.5c3.2.2,3.7,3.7,6.1,5l2.2-16.9c.1-.2,5.3-1.6,5.5-1.4ZM131,139.9c.4-.4-2.4-5.2-3.3-5.6v6.1s3.3-.6,3.3-.6ZM108.7,141.1c3.2,1.1,6.8-3.1,2.5-3.4s-2.7,1-2.5,3.4Z"/>
  <path class="st1" d="M74.1,151.6c.2.2,2.9-.2,3.7,2.2,2.4,7.3-9.3,7.3-13.7,9l-3.9-16.2c3.5-.2,12.1-4.3,14.5-.9s-.9,5.5-.6,5.9ZM67.2,148.4c-1.4.5-1.3,2.9,0,3.2,3.9,1.1,5.2-4.9,0-3.2ZM68,157.8c1.7.1,6.1-.3,4.8-2.8s-4.3-.9-4.7-.5,0,2.6,0,3.3Z"/>
  <path class="st1" d="M199,129.3c-1.5-.4-4.1,1.2-5.2,1s-5.7-6.4-6.5-5.4l.9,6.7c-1.1.6-3.9,1.5-4.8.9s-3.6-13.5-3.6-15.4c3.8-.8,12.9-5.3,15-.4,1.9,4.4-1.8,5.8-1.8,6.3s6.5,4.5,6.1,6.4ZM190,120.9c1.8-3-3.2-3-4.9-2.2l.6,3.3c.4.4,4.2-.9,4.4-1.2Z"/>
  <path class="st1" d="M47.9,160c1.7-.6,6,5.1,5.6,5.6-1.5-.2-3.9,1.3-5.2,1s-3.3-6-6.5-4.9l1.1,6.7-5,.6c.3-3-4-13.2-3.3-15.3s5.5-2,6.8-2.2c2.9-.6,5.6-2,7.7,1s-1.7,6.7-1.1,7.5ZM40.7,158.3c6.1-.1,5.6-5.1-.6-3.3l.6,3.3Z"/>
  <path class="st1" d="M145.9,125c10-1.2,12.8,12.1,5.9,15.9-13.3,7.2-19.7-14.2-5.9-15.9ZM146.4,128.9c-5.2.2-3.6,10.2,1.5,9.3s2.3-9.5-1.5-9.3Z"/>
  <path class="st1" d="M237.4,102.1c10.3-1.1,13.2,15.2,2.5,17s-14.6-15.7-2.5-17ZM236.2,106.6c-3.9,1.1-1.9,11.1,3.9,8.4s1.9-10.1-3.9-8.4Z"/>
  <path class="st1" d="M91.3,142.7c-.4.7-6.3,1.3-7.4,1.7s-.3,2.2,1.6,2.3c3.4,0,7-3.9,7,2.2-2.1.5-8.2.4-7.2,3.6s6.7-1.3,8.5-.7,1.2,2.5.7,3.3-12.6,3.7-13.1,3.3l-3.9-16.2c3.5.3,9.5-3,12.6-2.8s1.9,2.4,1.3,3.3Z"/>
  <path class="st1" d="M210.2,109.3c2.9,6.9-7.9,2.1-7.2,7.8,2.5.6,8.4-3.7,8.4.3,0,2.8-5.1,2.6-7.3,3.1l.6,3.3c1.3,0,8.6-2.5,8.9-2.2s.7,3.7.5,3.9c-.5.5-12.7,3-13.4,2.6s-3.3-13.3-3.9-15.4l13.4-3.4Z"/>
  <path class="st1" d="M172.3,136c-1.5-.2-4.3,1.4-5.3,0s-2.5-12.2-3.6-15c4.7-1.3,15.1-5.4,15.1,3.1,0,5-6.8,5-7.2,6.2s1.4,5.5,1.1,5.8ZM169.5,122.6c-1.2,7.2,6.3,2.2,3.4.3s-2.4-.2-3.4-.3Z"/>
  <path class="st1" d="M226.9,105.4c3.1,5.9-3.7,3-3.9,5.8s3.2,11,2.8,11.4c-1.4-.2-3.3,1-4.7.5s-2.9-9.8-3.1-11.7l-5.6,1.1c.3-.9-.9-3.6-.6-3.9.5-.6,13.1-2.9,15-3.3Z"/>
  <polygon class="st1" points="56.8 147.7 60.7 163.9 55.7 165 51.7 149.2 56.8 147.7"/>
  <path class="st1" d="M99.2,137.1l3.4,15.8c-.2.6-4,1.1-4.7.9s-3.9-14.5-3.7-15.3,4.9-1.7,5.1-1.5Z"/>
  <path class="st1" d="M129.9,125.4c.6,4.9-2.3,2.8-5.2,3.4s-.5,1.8-2,1.1c-.3-4.4,2.6-2.9,5.2-3.4s.5-1.8,2-1.1Z"/>
  <path class="st0" d="M156.1,35.6c-4.7,15.1-5.7,30.7-2.8,46.3-8.3-.4-16.5-2.3-24.5-4.5.4-2.6.2-17.5,1.1-18.3,9.2-1.9,11.4,4.4,11.1,12.2h1.7c0-9.5,1.1-18.9,1.1-28.5h-1.7c.1,8.3-3.8,12.5-12.2,10l.8-14.5c8.2-2.6,16.9-3,25.4-2.8Z"/>
  <path class="st0" d="M123.2,41.2l-1.1,31.5c-.1.7.3,1-.8.8-2.6-.4-7.9-5.2-9.4-7.3-8.5-11.3-.3-21.8,11.4-25Z"/>
  <path class="st0" d="M185.1,35.6c-6.5-1.7-13.2-1.8-19.8-2.8s-.5-2.2,0-3.3c6.4-13.2,19.1-6.3,19.7,6.1Z"/>
  <path class="st0" d="M183.4,84.7c-2.6,6.4-9.8,15.1-16.7,8.7s-4-5.3-4.4-6.7.2-.7.8-.8c3-.4,6.9.2,10,0s9.8-1.6,10.3-1.1Z"/>
  <path class="st0" d="M140.2,21.7c5.1.8,6.6,5.5,7,10-5.4-.4-10.7.8-16.2.6l.6-10.6c2.7.3,6.1-.4,8.6,0Z"/>
  <path class="st0" d="M108.7,141.1c-.2-2.4-.2-3.6,2.5-3.4,4.3.3.7,4.4-2.5,3.4Z"/>
  <path class="st0" d="M131,139.9l-3.3.6v-6.1c.9.4,3.7,5.2,3.3,5.6Z"/>
  <path class="st0" d="M68,157.8c.1-.7-.2-3,0-3.3.4-.4,4-.9,4.7.5,1.3,2.5-3.1,2.9-4.8,2.8Z"/>
  <path class="st0" d="M67.2,148.4c5.2-1.7,3.8,4.3,0,3.2-1.3-.4-1.4-2.8,0-3.2Z"/>
  <path class="st0" d="M190,120.9c-.2.3-4,1.6-4.4,1.2l-.6-3.3c1.7-.9,6.8-.8,4.9,2.2Z"/>
  <path class="st0" d="M40.7,158.3l-.6-3.3c6.2-1.8,6.7,3.2.6,3.3Z"/>
  <path class="st0" d="M146.4,128.9c3.9-.2,6.1,8.6,1.5,9.3s-6.7-9.1-1.5-9.3Z"/>
  <path class="st0" d="M236.2,106.6c5.8-1.7,6.5,7.2,3.9,8.4-5.8,2.7-7.8-7.2-3.9-8.4Z"/>
  <path class="st0" d="M169.5,122.6c1,0,2.6-.3,3.4.3,2.9,2-4.6,7-3.4-.3Z"/>
</svg>