<?xml version="1.0" encoding="UTF-8"?>
<!DOCTYPE svg PUBLIC "-//W3C//DTD SVG 1.1//EN" "http://www.w3.org/Graphics/SVG/1.1/DTD/svg11.dtd">
<svg xmlns="http://www.w3.org/2000/svg" version="1.1" width="500px" height="500px" style="shape-rendering:geometricPrecision; text-rendering:geometricPrecision; image-rendering:optimizeQuality; fill-rule:evenodd; clip-rule:evenodd" xmlns:xlink="http://www.w3.org/1999/xlink">
<g><path style="opacity:0.004" fill="#090909" d="M 499.5,72.5 C 499.5,78.8333 499.5,85.1667 499.5,91.5C 495.612,115.45 491.445,139.783 487,164.5C 467.8,264.763 421.634,349.929 348.5,420C 325.761,441.188 302.094,461.188 277.5,480C 271.5,483.667 265.5,487.333 259.5,491C 251.5,494.333 243.5,494.333 235.5,491C 230.833,488.333 226.167,485.667 221.5,483C 201.286,468.055 181.62,452.388 162.5,436C 157.934,431.524 153.601,426.857 149.5,422C 144.748,419.252 140.581,415.752 137,411.5C 129.371,402.203 121.371,393.203 113,384.5C 70.4984,330.933 40.9984,273.766 24.5,213C 12.9771,175.048 5.31048,137.048 1.5,99C 0.901085,97.3775 0.234419,95.8775 -0.5,94.5C -0.5,87.5 -0.5,80.5 -0.5,73.5C 0.739286,68.5446 3.40595,64.3779 7.5,61C 106.53,12.1106 212.863,-5.22278 326.5,9C 383.509,17.6645 438.175,34.6645 490.5,60C 494.391,63.651 497.391,67.8176 499.5,72.5 Z M 228.5,5.5 C 317.829,2.93207 402.829,20.7654 483.5,59C 493.183,64.1884 497.849,72.3551 497.5,83.5C 492.707,129.633 483.873,174.967 471,219.5C 447.087,294.674 406.921,359.507 350.5,414C 325.152,438.191 298.486,460.691 270.5,481.5C 256.154,492.883 241.487,493.383 226.5,483C 182.567,452.07 143.4,415.903 109,374.5C 56.2966,305.141 22.9633,227.141 9,140.5C 5.6119,121.95 3.1119,103.283 1.5,84.5C 1.29182,75.9498 4.29182,68.7831 10.5,63C 79.1946,29.1584 151.861,9.99174 228.5,5.5 Z"/></g>
<g><path style="opacity:0.996" fill="#dcf5f7" d="M 227.5,17.5 C 318.208,14.0122 404.208,32.3455 485.5,72.5C 481.387,134.561 467.887,194.561 445,252.5C 424.243,300.382 396.243,343.382 361,381.5C 327.376,416.995 290.542,448.328 250.5,475.5C 182.989,431.489 128.156,375.156 86,306.5C 46.4754,233.562 24.3088,155.729 19.5,73C 85.347,41.0399 154.68,22.5399 227.5,17.5 Z"/></g>
<g><path style="opacity:1" fill="#9ab9db" d="M 27.5,82.5 C 28.889,87.2688 29.5557,92.2688 29.5,97.5C 27.9692,92.7498 27.3025,87.7498 27.5,82.5 Z"/></g>
<g><path style="opacity:1" fill="#21a2ce" d="M 271.5,89.5 C 318.152,92.1971 363.486,101.364 407.5,117C 395.582,214.165 353.582,296.165 281.5,363C 272.979,370.098 264.646,377.431 256.5,385C 254.595,386.421 252.595,387.588 250.5,388.5C 250.5,388.167 250.5,387.833 250.5,387.5C 250.5,347.833 250.5,308.167 250.5,268.5C 249.209,268.737 248.209,268.404 247.5,267.5C 249.565,267.517 251.565,267.85 253.5,268.5C 253.167,297.174 253.5,325.841 254.5,354.5C 255.107,354.376 255.44,354.043 255.5,353.5C 271.165,334.998 286.665,316.332 302,297.5C 312.829,282.512 323.162,267.179 333,251.5C 340.866,238.831 343.866,225.164 342,210.5C 354.122,200.388 363.122,188.054 369,173.5C 372.677,161.997 373.343,150.33 371,138.5C 366.918,126.864 358.751,120.031 346.5,118C 320.412,112.44 294.079,108.607 267.5,106.5C 263.03,105.514 258.363,105.181 253.5,105.5C 253.5,120.5 253.5,135.5 253.5,150.5C 252.833,150.5 252.167,150.5 251.5,150.5C 251.5,130.167 251.5,109.833 251.5,89.5C 258.167,89.5 264.833,89.5 271.5,89.5 Z"/></g>
<g><path style="opacity:1" fill="#0796c8" d="M 251.5,88.5 C 258.354,88.176 265.021,88.5093 271.5,89.5C 264.833,89.5 258.167,89.5 251.5,89.5C 251.5,109.833 251.5,130.167 251.5,150.5C 237.986,155.086 224.986,161.086 212.5,168.5C 212.167,169.833 211.833,171.167 211.5,172.5C 212.959,183.782 213.626,195.116 213.5,206.5C 213.47,220.921 212.637,235.254 211,249.5C 221.626,258.563 233.793,264.563 247.5,267.5C 248.209,268.404 249.209,268.737 250.5,268.5C 250.5,308.167 250.5,347.833 250.5,387.5C 196.964,346.396 155.797,295.396 127,234.5C 110.713,196.673 99.8799,157.507 94.5,117C 145.01,97.6652 197.344,88.1652 251.5,88.5 Z"/></g>
<g><path style="opacity:1" fill="#6d89c3" d="M 236.5,39.5 C 236.5,53.8333 236.5,68.1667 236.5,82.5C 239.833,82.5 243.167,82.5 246.5,82.5C 246.5,82.8333 246.5,83.1667 246.5,83.5C 242.833,83.5 239.167,83.5 235.5,83.5C 235.171,68.6572 235.504,53.9905 236.5,39.5 Z"/></g>
<g><path style="opacity:1" fill="#f7f8fb" d="M 236.5,39.5 C 237.167,39.5 237.833,39.5 238.5,39.5C 243.511,39.3341 248.511,39.5007 253.5,40C 259.109,43.2769 260.942,48.1103 259,54.5C 256.896,57.7577 257.23,60.7577 260,63.5C 260.81,68.2574 260.476,72.9241 259,77.5C 256.113,81.9939 251.946,83.6606 246.5,82.5C 243.167,82.5 239.833,82.5 236.5,82.5C 236.5,68.1667 236.5,53.8333 236.5,39.5 Z"/></g>
<g><path style="opacity:1" fill="#5c7bbb" d="M 251.5,65.5 C 249.167,65.5 246.833,65.5 244.5,65.5C 244.5,68.1667 244.5,70.8333 244.5,73.5C 243.523,70.7131 243.19,67.7131 243.5,64.5C 246.385,64.1936 249.052,64.5269 251.5,65.5 Z"/></g>
<g><path style="opacity:1" fill="#083597" d="M 251.5,65.5 C 253.857,71.9186 251.524,74.5853 244.5,73.5C 244.5,70.8333 244.5,68.1667 244.5,65.5C 246.833,65.5 249.167,65.5 251.5,65.5 Z"/></g>
<g><path style="opacity:1" fill="#103999" d="M 243.5,48.5 C 245.857,48.3367 248.19,48.5034 250.5,49C 251.833,51 251.833,53 250.5,55C 248.19,55.4966 245.857,55.6633 243.5,55.5C 243.5,53.1667 243.5,50.8333 243.5,48.5 Z"/></g>
<g><path style="opacity:1" fill="#9fbdde" d="M 301.5,28.5 C 306.453,28.1228 311.119,28.7895 315.5,30.5C 310.647,30.1873 305.98,29.5206 301.5,28.5 Z"/></g>
<g><path style="opacity:1" fill="#083597" d="M 222.5,27.5 C 232.167,27.5 241.833,27.5 251.5,27.5C 251.5,31.1667 251.5,34.8333 251.5,38.5C 246.968,38.1818 242.634,38.5151 238.5,39.5C 237.833,39.5 237.167,39.5 236.5,39.5C 235.504,53.9905 235.171,68.6572 235.5,83.5C 239.167,83.5 242.833,83.5 246.5,83.5C 248.167,83.5 249.833,83.5 251.5,83.5C 251.5,85.1667 251.5,86.8333 251.5,88.5C 197.344,88.1652 145.01,97.6652 94.5,117C 99.8799,157.507 110.713,196.673 127,234.5C 155.797,295.396 196.964,346.396 250.5,387.5C 250.5,387.833 250.5,388.167 250.5,388.5C 250.831,413.339 250.498,438.006 249.5,462.5C 189.61,424.11 140.11,375.11 101,315.5C 71.4906,266.801 51.1572,214.468 40,158.5C 35.9096,138.221 32.4096,117.888 29.5,97.5C 29.5557,92.2688 28.889,87.2688 27.5,82.5C 27.281,81.325 27.6143,80.325 28.5,79.5C 89.6303,49.3823 154.297,32.049 222.5,27.5 Z"/></g>
<g><path style="opacity:1" fill="#6c84c1" d="M 209.5,70.5 C 210.709,74.6181 211.376,78.9515 211.5,83.5C 212.833,83.5 214.167,83.5 215.5,83.5C 214.081,84.4511 212.415,84.7845 210.5,84.5C 210.002,79.8478 209.669,75.1811 209.5,70.5 Z"/></g>
<g><path style="opacity:1" fill="#f4f6fa" d="M 126.5,54.5 C 136.347,52.3381 142.847,56.0047 146,65.5C 149.217,72.8675 150.217,80.5342 149,88.5C 147.542,90.96 145.709,93.1266 143.5,95C 138.828,96.501 134.161,98.001 129.5,99.5C 125.578,85.5536 121.911,71.5536 118.5,57.5C 121.443,57.0198 124.11,56.0198 126.5,54.5 Z"/></g>
<g><path style="opacity:1" fill="#183a9a" d="M 128.5,63.5 C 130.857,63.3367 133.19,63.5034 135.5,64C 140.399,70.3665 142.232,77.5331 141,85.5C 139.005,87.747 136.505,88.747 133.5,88.5C 132.309,80.0712 130.643,71.7378 128.5,63.5 Z"/></g>
<g><path style="opacity:1" fill="#f4f6fa" d="M 159.5,46.5 C 169.665,45.8053 176.165,50.472 179,60.5C 181.514,69.4585 180.848,78.1251 177,86.5C 165.609,93.6513 157.943,90.6513 154,77.5C 151.95,70.6203 151.284,63.6203 152,56.5C 153.306,52.1991 155.806,48.8658 159.5,46.5 Z"/></g>
<g><path style="opacity:1" fill="#133899" d="M 162.5,55.5 C 167.696,56.1925 170.863,59.1925 172,64.5C 172.667,69.1667 172.667,73.8333 172,78.5C 169,82.5 166,82.5 163,78.5C 158.754,70.7004 158.587,63.0337 162.5,55.5 Z"/></g>
<g><path style="opacity:1" fill="#758ec6" d="M 189.5,43.5 C 190.274,42.8529 191.274,42.5195 192.5,42.5C 194.03,42.6399 195.03,43.3065 195.5,44.5C 193.621,43.6586 191.621,43.3253 189.5,43.5 Z"/></g>
<g><path style="opacity:1" fill="#f4f6fa" d="M 215.5,83.5 C 214.167,83.5 212.833,83.5 211.5,83.5C 211.376,78.9515 210.709,74.6181 209.5,70.5C 209.657,69.1266 209.49,67.7932 209,66.5C 208.444,72.8349 207.944,79.1682 207.5,85.5C 204.833,85.5 202.167,85.5 199.5,85.5C 194.784,64.0405 193.451,64.3739 195.5,86.5C 193.167,86.5 190.833,86.5 188.5,86.5C 187.065,72.1802 185.732,57.8469 184.5,43.5C 186.167,43.5 187.833,43.5 189.5,43.5C 191.621,43.3253 193.621,43.6586 195.5,44.5C 197.428,50.4521 199.261,56.4521 201,62.5C 202.085,55.4826 203.252,48.4826 204.5,41.5C 207.823,40.2429 211.156,40.2429 214.5,41.5C 216.638,55.4083 217.971,69.4083 218.5,83.5C 217.5,83.5 216.5,83.5 215.5,83.5 Z"/></g>
<g><path style="opacity:1" fill="#214ba3" d="M 222.5,27.5 C 248.706,26.0274 275.04,26.3607 301.5,28.5C 305.98,29.5206 310.647,30.1873 315.5,30.5C 371.627,38.4331 425.294,54.4331 476.5,78.5C 471.445,136.608 458.612,192.942 438,247.5C 418.826,293.292 392.492,334.292 359,370.5C 326.219,405.806 290.053,436.806 250.5,463.5C 249.893,463.376 249.56,463.043 249.5,462.5C 250.498,438.006 250.831,413.339 250.5,388.5C 252.595,387.588 254.595,386.421 256.5,385C 264.646,377.431 272.979,370.098 281.5,363C 353.582,296.165 395.582,214.165 407.5,117C 363.486,101.364 318.152,92.1971 271.5,89.5C 265.021,88.5093 258.354,88.176 251.5,88.5C 251.5,86.8333 251.5,85.1667 251.5,83.5C 249.833,83.5 248.167,83.5 246.5,83.5C 246.5,83.1667 246.5,82.8333 246.5,82.5C 251.946,83.6606 256.113,81.9939 259,77.5C 260.476,72.9241 260.81,68.2574 260,63.5C 257.23,60.7577 256.896,57.7577 259,54.5C 260.942,48.1103 259.109,43.2769 253.5,40C 248.511,39.5007 243.511,39.3341 238.5,39.5C 242.634,38.5151 246.968,38.1818 251.5,38.5C 251.5,34.8333 251.5,31.1667 251.5,27.5C 241.833,27.5 232.167,27.5 222.5,27.5 Z"/></g>
<g><path style="opacity:1" fill="#f5f7fb" d="M 366.5,54.5 C 378.249,52.5124 384.249,57.3457 384.5,69C 384.657,79.0612 381.324,87.7278 374.5,95C 361.471,100.014 354.804,95.347 354.5,81C 354.628,70.2553 358.628,61.422 366.5,54.5 Z"/></g>
<g><path style="opacity:1" fill="#274fa4" d="M 368.5,63.5 C 374.326,62.3295 376.993,64.6628 376.5,70.5C 376.114,75.8252 374.614,80.8252 372,85.5C 369.633,88.9318 366.966,89.2652 364,86.5C 361.266,77.981 362.766,70.3143 368.5,63.5 Z"/></g>
<g><path style="opacity:1" fill="#7f97ca" d="M 321.5,49.5 C 322.477,52.2869 322.81,55.2869 322.5,58.5C 319.615,58.8064 316.948,58.4731 314.5,57.5C 316.833,57.5 319.167,57.5 321.5,57.5C 321.5,54.8333 321.5,52.1667 321.5,49.5 Z"/></g>
<g><path style="opacity:1" fill="#f4f6fa" d="M 337.5,47.5 C 349.352,46.353 354.352,51.6863 352.5,63.5C 350.167,63.5 347.833,63.5 345.5,63.5C 346.038,58.0132 343.705,55.8466 338.5,57C 333.78,63.762 332.28,71.262 334,79.5C 335.133,81.2112 336.633,81.7112 338.5,81C 340.46,78.8939 342.294,76.7272 344,74.5C 349.854,76.4332 350.854,79.7666 347,84.5C 341.186,91.5544 334.853,92.2211 328,86.5C 327.333,85.1667 326.667,83.8333 326,82.5C 322.797,68.2765 326.63,56.6098 337.5,47.5 Z"/></g>
<g><path style="opacity:1" fill="#f4f6fa" d="M 321.5,49.5 C 321.5,52.1667 321.5,54.8333 321.5,57.5C 319.167,57.5 316.833,57.5 314.5,57.5C 314.836,52.9999 312.836,51.1666 308.5,52C 307.167,53.6667 307.167,55.3333 308.5,57C 322.266,63.619 324.266,72.9523 314.5,85C 300.899,88.2431 294.899,82.7431 296.5,68.5C 299.167,68.5 301.833,68.5 304.5,68.5C 304.02,71.6852 304.686,74.5185 306.5,77C 311,77.8333 312.833,76 312,71.5C 310.269,69.3834 308.102,67.8834 305.5,67C 297.171,58.4938 297.505,50.4938 306.5,43C 313.541,40.8606 318.541,43.0273 321.5,49.5 Z"/></g>
<g><path style="opacity:1" fill="#f4f6fa" d="M 275.5,39.5 C 285.312,39.1417 291.145,43.8084 293,53.5C 294.445,62.2989 293.111,70.6323 289,78.5C 277.258,88.4643 269.591,85.7977 266,70.5C 265.333,64.5 265.333,58.5 266,52.5C 267.488,46.8584 270.655,42.5251 275.5,39.5 Z"/></g>
<g><path style="opacity:1" fill="#2c51a6" d="M 276.5,49.5 C 280.49,48.6155 283.323,49.9489 285,53.5C 286.14,60.1196 285.473,66.453 283,72.5C 280.333,75.1667 277.667,75.1667 275,72.5C 271.206,64.4294 271.706,56.7627 276.5,49.5 Z"/></g>
<g><path style="opacity:1" fill="#fdfefe" d="M 267.5,106.5 C 294.079,108.607 320.412,112.44 346.5,118C 358.751,120.031 366.918,126.864 371,138.5C 373.343,150.33 372.677,161.997 369,173.5C 363.122,188.054 354.122,200.388 342,210.5C 343.866,225.164 340.866,238.831 333,251.5C 323.162,267.179 312.829,282.512 302,297.5C 286.665,316.332 271.165,334.998 255.5,353.5C 254.833,325.167 254.167,296.833 253.5,268.5C 251.565,267.85 249.565,267.517 247.5,267.5C 233.793,264.563 221.626,258.563 211,249.5C 212.637,235.254 213.47,220.921 213.5,206.5C 213.626,195.116 212.959,183.782 211.5,172.5C 211.833,171.167 212.167,169.833 212.5,168.5C 224.986,161.086 237.986,155.086 251.5,150.5C 252.167,150.5 252.833,150.5 253.5,150.5C 254.496,136.01 254.829,121.343 254.5,106.5C 258.833,106.5 263.167,106.5 267.5,106.5 Z"/></g>
<g><path style="opacity:1" fill="#fbfdfe" d="M 240.5,328.5 C 240.826,337.349 240.493,346.016 239.5,354.5C 179.689,291.373 138.022,217.54 114.5,133C 121.03,128.567 128.03,124.9 135.5,122C 170.29,110.864 205.956,106.03 242.5,107.5C 242.5,113.833 242.5,120.167 242.5,126.5C 207.978,124.575 174.311,128.909 141.5,139.5C 161.173,209.861 194.173,272.861 240.5,328.5 Z"/></g>
<g><path style="opacity:1" fill="#75c5e1" d="M 267.5,106.5 C 263.167,106.5 258.833,106.5 254.5,106.5C 254.829,121.343 254.496,136.01 253.5,150.5C 253.5,135.5 253.5,120.5 253.5,105.5C 258.363,105.181 263.03,105.514 267.5,106.5 Z"/></g>
<g><path style="opacity:1" fill="#acbcdc" d="M 73.5,124.5 C 68.4635,124.413 63.4635,124.746 58.5,125.5C 61.1864,124.009 64.1864,123.343 67.5,123.5C 69.6965,123.505 71.6965,123.838 73.5,124.5 Z"/></g>
<g><path style="opacity:1" fill="#f0f3f9" d="M 73.5,124.5 C 85.8451,127.678 88.5118,134.512 81.5,145C 72.8382,150.071 63.8382,150.738 54.5,147C 45.5649,137.767 46.8982,130.6 58.5,125.5C 63.4635,124.746 68.4635,124.413 73.5,124.5 Z"/></g>
<g><path style="opacity:1" fill="#22a3ce" d="M 276.5,129.5 C 294.444,131.992 312.444,134.158 330.5,136C 346.452,138.944 351.952,148.11 347,163.5C 344.867,170.231 342.534,176.898 340,183.5C 333.038,194.037 323.372,198.37 311,196.5C 308.794,175.114 297.627,160.447 277.5,152.5C 276.503,144.862 276.169,137.196 276.5,129.5 Z"/></g>
<g><path style="opacity:1" fill="#0e3798" d="M 61.5,130.5 C 66.2675,130.191 70.9342,130.691 75.5,132C 78.6696,136.454 77.6696,139.787 72.5,142C 68.1667,142.667 63.8333,142.667 59.5,142C 55.0569,137.154 55.7235,133.32 61.5,130.5 Z"/></g>
<g><path style="opacity:1" fill="#f2f4f9" d="M 424.5,131.5 C 435.54,129.879 444.706,133.212 452,141.5C 453.51,151.161 449.344,156.161 439.5,156.5C 439.326,154.139 438.993,151.806 438.5,149.5C 443.575,149.82 445.408,147.486 444,142.5C 438.349,138.946 432.182,137.78 425.5,139C 422.374,143.745 423.707,146.579 429.5,147.5C 428.445,153.695 425.445,154.861 420.5,151C 414.211,142.824 415.545,136.324 424.5,131.5 Z"/></g>
<g><path style="opacity:1" fill="#f4f6fa" d="M 75.5,160.5 C 76.0431,160.44 76.3764,160.107 76.5,159.5C 68.8622,158.503 61.1955,158.169 53.5,158.5C 52.5386,156.735 52.2053,154.735 52.5,152.5C 64.751,152.654 76.9177,153.321 89,154.5C 89.7581,156.769 89.5914,158.936 88.5,161C 78.3749,166.397 68.0416,171.231 57.5,175.5C 56.6669,173.248 56.6669,171.081 57.5,169C 63.4008,165.882 69.4008,163.049 75.5,160.5 Z"/></g>
<g><path style="opacity:1" fill="#a8b8db" d="M 53.5,158.5 C 61.1955,158.169 68.8622,158.503 76.5,159.5C 76.3764,160.107 76.0431,160.44 75.5,160.5C 68.1667,159.833 60.8333,159.167 53.5,158.5 Z"/></g>
<g><path style="opacity:1" fill="#f2f4f9" d="M 416.5,158.5 C 419.187,158.336 421.854,158.503 424.5,159C 432.147,160.995 439.814,162.829 447.5,164.5C 447.167,166.5 446.833,168.5 446.5,170.5C 438.303,169.784 430.303,168.117 422.5,165.5C 417.329,166.357 416.329,168.857 419.5,173C 427.423,175.481 435.423,177.647 443.5,179.5C 443.92,181.326 443.92,183.326 443.5,185.5C 433.095,183.9 423.095,181.067 413.5,177C 410.091,172.553 409.591,167.719 412,162.5C 413.667,161.267 415.167,159.933 416.5,158.5 Z"/></g>
<g><path style="opacity:1" fill="#eceff7" d="M 90.5,170.5 C 91.5,170.5 92.5,170.5 93.5,170.5C 93.9926,172.806 94.3259,175.139 94.5,177.5C 83.1667,180.167 71.8333,182.833 60.5,185.5C 59.6669,183.248 59.6669,181.081 60.5,179C 70.7108,176.468 80.7108,173.634 90.5,170.5 Z"/></g>
<g><path style="opacity:1" fill="#0c98c9" d="M 249.5,171.5 C 250.833,171.5 252.167,171.5 253.5,171.5C 253.5,197.167 253.5,222.833 253.5,248.5C 251.5,248.5 249.5,248.5 247.5,248.5C 242.284,246.637 237.784,243.637 234,239.5C 233.678,227.792 234.178,216.126 235.5,204.5C 235.64,197.085 234.974,189.752 233.5,182.5C 233.982,180.08 235.315,178.247 237.5,177C 241.133,174.35 245.133,172.517 249.5,171.5 Z"/></g>
<g><path style="opacity:1" fill="#6fc3df" d="M 249.5,171.5 C 250.919,170.549 252.585,170.216 254.5,170.5C 254.5,196.833 254.5,223.167 254.5,249.5C 251.941,249.802 249.607,249.468 247.5,248.5C 249.5,248.5 251.5,248.5 253.5,248.5C 253.5,222.833 253.5,197.167 253.5,171.5C 252.167,171.5 250.833,171.5 249.5,171.5 Z"/></g>
<g><path style="opacity:1" fill="#28a4cf" d="M 278.5,174.5 C 285.033,179.553 289.033,186.22 290.5,194.5C 286.366,195.485 282.032,195.818 277.5,195.5C 277.175,188.313 277.509,181.313 278.5,174.5 Z"/></g>
<g><path style="opacity:1" fill="#76c5e1" d="M 278.5,174.5 C 277.509,181.313 277.175,188.313 277.5,195.5C 282.032,195.818 286.366,195.485 290.5,194.5C 291.043,194.56 291.376,194.893 291.5,195.5C 286.544,196.494 281.544,196.827 276.5,196.5C 276.169,188.804 276.503,181.138 277.5,173.5C 278.107,173.624 278.44,173.957 278.5,174.5 Z"/></g>
<g><path style="opacity:1" fill="#f1f3f9" d="M 406.5,184.5 C 417.833,187.5 429.167,190.5 440.5,193.5C 440.528,195.582 439.861,197.416 438.5,199C 427.609,197.319 416.942,194.486 406.5,190.5C 405.306,188.484 405.306,186.484 406.5,184.5 Z"/></g>
<g><path style="opacity:1" fill="#eff1f8" d="M 93.5,186.5 C 97.8008,186.233 99.6342,188.233 99,192.5C 90.9922,195.391 82.8255,197.891 74.5,200C 73.7089,202.75 73.7089,205.583 74.5,208.5C 72.139,208.674 69.8056,209.007 67.5,209.5C 66.0066,203.186 64.0066,197.019 61.5,191C 62.6321,188.931 64.4654,187.765 67,187.5C 68.8843,189.45 70.2176,191.784 71,194.5C 78.817,192.498 86.317,189.831 93.5,186.5 Z"/></g>
<g><path style="opacity:1" fill="#f3f5fa" d="M 403.5,192.5 C 412.675,199.502 422.008,206.335 431.5,213C 432.45,215.432 432.45,217.932 431.5,220.5C 419.152,219.748 406.819,218.748 394.5,217.5C 395.167,215.833 395.833,214.167 396.5,212.5C 399.428,211.516 402.428,211.183 405.5,211.5C 405.462,208.819 406.129,206.319 407.5,204C 405.977,202.146 404.144,200.646 402,199.5C 401.761,197.041 402.261,194.707 403.5,192.5 Z"/></g>
<g><path style="opacity:1" fill="#f1f3f9" d="M 98.5,198.5 C 100.649,199.59 101.982,201.424 102.5,204C 99.3403,208.655 96.007,213.155 92.5,217.5C 92.8333,218.167 93.1667,218.833 93.5,219.5C 97.5,217.833 101.5,216.167 105.5,214.5C 107.725,215.946 108.558,217.946 108,220.5C 97.762,224.691 87.4287,228.691 77,232.5C 72.4228,227.005 70.4228,220.672 71,213.5C 75.9637,207.378 81.6304,206.378 88,210.5C 91.3362,206.332 94.8362,202.332 98.5,198.5 Z"/></g>
<g><path style="opacity:1" fill="#4362af" d="M 413.5,208.5 C 422.978,212.951 422.645,214.284 412.5,212.5C 412.433,211.041 412.766,209.708 413.5,208.5 Z"/></g>
<g><path style="opacity:1" fill="#203e9c" d="M 79.5,214.5 C 83.8767,215.218 86.2101,217.885 86.5,222.5C 84.1944,222.993 81.861,223.326 79.5,223.5C 78.4116,220.444 78.4116,217.444 79.5,214.5 Z"/></g>
<g><path style="opacity:1" fill="#9ad5e9" d="M 276.5,220.5 C 281.348,219.186 286.348,219.186 291.5,220.5C 291.376,221.107 291.043,221.44 290.5,221.5C 286.03,220.514 281.363,220.181 276.5,220.5 Z"/></g>
<g><path style="opacity:1" fill="#24a3ce" d="M 276.5,220.5 C 281.363,220.181 286.03,220.514 290.5,221.5C 288.945,230.288 284.611,237.288 277.5,242.5C 276.508,235.352 276.175,228.019 276.5,220.5 Z"/></g>
<g><path style="opacity:1" fill="#2ca5cf" d="M 309.5,219.5 C 312.862,219.07 315.695,220.07 318,222.5C 318.738,226.261 318.405,229.928 317,233.5C 304.836,255.162 291.169,275.829 276,295.5C 275.333,285.167 275.333,274.833 276,264.5C 294.458,254.914 305.624,239.914 309.5,219.5 Z"/></g>
<g><path style="opacity:1" fill="#f4f5fa" d="M 392.5,220.5 C 403.588,225.033 414.588,229.867 425.5,235C 423.553,240.17 421.22,245.17 418.5,250C 412.067,252.89 406.9,251.39 403,245.5C 394.851,247.512 389.685,244.512 387.5,236.5C 389.171,231.154 390.838,225.821 392.5,220.5 Z"/></g>
<g><path style="opacity:1" fill="#f4f6fa" d="M 97.5,227.5 C 112.708,226.179 117.875,232.512 113,246.5C 104.623,254.308 95.1227,256.475 84.5,253C 78.3006,244.924 79.3006,237.924 87.5,232C 90.8153,230.17 94.1486,228.67 97.5,227.5 Z"/></g>
<g><path style="opacity:1" fill="#2c52a6" d="M 397.5,229.5 C 399.297,230.73 401.297,231.396 403.5,231.5C 403.921,236.926 401.588,239.426 396.5,239C 395.135,235.679 395.469,232.513 397.5,229.5 Z"/></g>
<g><path style="opacity:1" fill="#153999" d="M 99.5,233.5 C 105.873,232.729 108.706,235.396 108,241.5C 103.196,246.435 97.363,248.601 90.5,248C 87.7928,246.136 86.9595,243.636 88,240.5C 91.5136,237.5 95.3469,235.167 99.5,233.5 Z"/></g>
<g><path style="opacity:1" fill="#3658a9" d="M 410.5,235.5 C 417.715,237.154 418.215,240.154 412,244.5C 410.118,244.312 408.952,243.312 408.5,241.5C 409.178,239.484 409.844,237.484 410.5,235.5 Z"/></g>
<g><path style="opacity:1" fill="#aadbec" d="M 276.5,220.5 C 276.175,228.019 276.508,235.352 277.5,242.5C 277.44,243.043 277.107,243.376 276.5,243.5C 275.18,235.677 275.18,228.01 276.5,220.5 Z"/></g>
<g><path style="opacity:1" fill="#f2f4f9" d="M 382.5,243.5 C 391.443,251.271 400.276,259.271 409,267.5C 409.855,270.819 408.688,273.152 405.5,274.5C 394.281,272.223 383.114,269.89 372,267.5C 371.86,265.744 372.36,264.078 373.5,262.5C 376.482,262.287 379.482,261.953 382.5,261.5C 384.251,259.028 385.085,256.361 385,253.5C 383.478,251.978 381.978,250.478 380.5,249C 381.32,247.2 381.986,245.366 382.5,243.5 Z"/></g>
<g><path style="opacity:1" fill="#f1f3f9" d="M 100.5,255.5 C 103.649,255.211 106.649,255.711 109.5,257C 111.712,259.043 113.712,261.209 115.5,263.5C 118.833,261.833 122.167,260.167 125.5,258.5C 128.092,260.161 128.759,262.328 127.5,265C 117.708,269.965 108.041,275.132 98.5,280.5C 94.8216,276.142 92.4883,271.142 91.5,265.5C 91.577,263.701 92.077,262.034 93,260.5C 95.4256,258.548 97.9256,256.881 100.5,255.5 Z"/></g>
<g><path style="opacity:1" fill="#3a5bab" d="M 391.5,260.5 C 398.403,265.628 397.736,266.628 389.5,263.5C 390.193,262.482 390.859,261.482 391.5,260.5 Z"/></g>
<g><path style="opacity:1" fill="#113899" d="M 101.5,262.5 C 105.06,261.891 107.06,263.391 107.5,267C 106.103,268.786 104.27,269.952 102,270.5C 98.9869,267.958 98.8203,265.292 101.5,262.5 Z"/></g>
<g><path style="opacity:1" fill="#70c4e0" d="M 253.5,268.5 C 254.167,296.833 254.833,325.167 255.5,353.5C 255.44,354.043 255.107,354.376 254.5,354.5C 253.5,325.841 253.167,297.174 253.5,268.5 Z"/></g>
<g><path style="opacity:1" fill="#f1f3f9" d="M 122.5,269.5 C 133.653,268.486 138.487,273.486 137,284.5C 135.627,287.561 133.46,289.394 130.5,290C 126.818,287.654 126.652,285.154 130,282.5C 130.833,278 129,276.167 124.5,277C 124.183,281.41 124.017,285.91 124,290.5C 121.193,296.777 116.36,299.277 109.5,298C 102.48,292.528 101.814,286.528 107.5,280C 110.548,279.365 112.215,280.699 112.5,284C 109.283,288.375 110.283,290.708 115.5,291C 115.836,285.919 116.002,280.752 116,275.5C 118.063,273.266 120.229,271.266 122.5,269.5 Z"/></g>
<g><path style="opacity:1" fill="#ebeff7" d="M 411.5,269.5 C 414.015,271.182 416.015,273.348 417.5,276C 416.888,278.058 415.888,279.891 414.5,281.5C 411.084,278.031 410.084,274.031 411.5,269.5 Z"/></g>
<g><path style="opacity:1" fill="#f1f3f9" d="M 140.5,285.5 C 145.402,290.425 149.735,295.925 153.5,302C 144.283,308.879 134.783,315.379 125,321.5C 120.691,316.891 116.858,311.891 113.5,306.5C 114.579,304.457 116.246,303.124 118.5,302.5C 121.56,305.607 124.394,308.941 127,312.5C 128.771,311.696 130.271,310.529 131.5,309C 129.045,305.922 126.711,302.756 124.5,299.5C 126.204,297.959 128.037,296.625 130,295.5C 132.432,298.688 135.099,301.688 138,304.5C 140.475,304.016 142.308,302.683 143.5,300.5C 141.037,297.069 138.703,293.569 136.5,290C 138.018,288.649 139.351,287.149 140.5,285.5 Z"/></g>
<g><path style="opacity:1" fill="#f2f4f9" d="M 357.5,308.5 C 360.624,308.943 362.957,310.61 364.5,313.5C 360.784,318.967 356.618,323.967 352,328.5C 349.833,327.667 348.333,326.167 347.5,324C 350.673,318.674 354.007,313.507 357.5,308.5 Z"/></g>
<g><path style="opacity:1" fill="#f1f3f9" d="M 158.5,312.5 C 159.822,312.33 160.989,312.663 162,313.5C 165.308,318.308 168.808,322.975 172.5,327.5C 163.81,334.851 154.81,341.851 145.5,348.5C 140.822,343.821 136.489,338.821 132.5,333.5C 133.945,331.937 135.611,330.604 137.5,329.5C 140.959,332.415 143.959,335.748 146.5,339.5C 148.167,338.5 149.5,337.167 150.5,335.5C 148.549,332.214 146.215,329.214 143.5,326.5C 145.047,324.806 146.88,323.473 149,322.5C 152.015,325.182 154.681,328.182 157,331.5C 159.308,330.359 161.141,328.692 162.5,326.5C 160.213,322.878 157.547,319.545 154.5,316.5C 155.549,314.784 156.882,313.451 158.5,312.5 Z"/></g>
<g><path style="opacity:1" fill="#f3f5fa" d="M 168.5,333.5 C 171.518,333.335 174.518,333.502 177.5,334C 181,337.5 184.5,341 188,344.5C 188.667,345.167 188.667,345.833 188,346.5C 179.942,354.394 171.442,361.727 162.5,368.5C 157.246,364.805 153.579,359.971 151.5,354C 152.865,348.133 156.532,344.966 162.5,344.5C 162.34,342.801 162.506,341.134 163,339.5C 165.04,337.63 166.873,335.63 168.5,333.5 Z"/></g>
<g><path style="opacity:1" fill="#1c3e9c" d="M 170.5,340.5 C 179.131,342.038 180.131,345.371 173.5,350.5C 171.659,348.489 169.992,346.322 168.5,344C 168.978,342.697 169.645,341.531 170.5,340.5 Z"/></g>
<g><path style="opacity:1" fill="#78c7e1" d="M 240.5,328.5 C 241.822,337.342 241.822,346.342 240.5,355.5C 239.893,355.376 239.56,355.043 239.5,354.5C 240.493,346.016 240.826,337.349 240.5,328.5 Z"/></g>
<g><path style="opacity:1" fill="#f4f6fa" d="M 312.5,348.5 C 320.768,356.774 328.768,365.44 336.5,374.5C 334.5,377.167 332.167,379.5 329.5,381.5C 324.49,377.184 319.157,373.684 313.5,371C 317.21,376.25 320.544,381.75 323.5,387.5C 321.5,390.167 319.167,392.5 316.5,394.5C 308.294,386.462 300.627,377.962 293.5,369C 294.292,367.04 295.625,365.54 297.5,364.5C 301.52,367.686 305.02,371.353 308,375.5C 306.196,370.802 304.03,366.136 301.5,361.5C 302.071,359.259 303.404,357.592 305.5,356.5C 309.676,359.088 313.676,361.921 317.5,365C 318.167,365.667 318.833,365.667 319.5,365C 315.964,361.799 312.797,358.299 310,354.5C 309.333,353.5 309.333,352.5 310,351.5C 311.045,350.627 311.878,349.627 312.5,348.5 Z"/></g>
<g><path style="opacity:1" fill="#1f3f9d" d="M 160.5,350.5 C 163.624,350.943 165.957,352.61 167.5,355.5C 166.5,357.167 165.167,358.5 163.5,359.5C 161.833,357.5 160.167,355.5 158.5,353.5C 159.193,352.482 159.859,351.482 160.5,350.5 Z"/></g>
<g><path style="opacity:1" fill="#f1f3f9" d="M 189.5,352.5 C 201.4,353.001 205.234,358.668 201,369.5C 194.957,375.878 188.624,381.878 182,387.5C 180.04,386.708 178.54,385.375 177.5,383.5C 183.459,378.042 189.292,372.376 195,366.5C 196.477,362.002 194.977,359.835 190.5,360C 184.017,365.649 177.683,371.483 171.5,377.5C 169.625,376.46 168.292,374.96 167.5,373C 174.364,365.635 181.697,358.802 189.5,352.5 Z"/></g>
<g><path style="opacity:1" fill="#f0f2f8" d="M 206.5,365.5 C 211.808,369.174 216.808,373.341 221.5,378C 213.655,386.677 205.655,395.177 197.5,403.5C 195.216,402.418 194.05,400.752 194,398.5C 199.846,391.988 205.68,385.488 211.5,379C 208.673,376.339 206.006,373.505 203.5,370.5C 204.26,368.64 205.26,366.973 206.5,365.5 Z"/></g>
<g><path style="opacity:1" fill="#f2f4f9" d="M 282.5,376.5 C 283.239,376.369 283.906,376.536 284.5,377C 290.316,383.65 296.316,390.15 302.5,396.5C 304.204,394.959 306.037,393.625 308,392.5C 311.273,393.545 312.439,395.545 311.5,398.5C 306.833,402.833 302.167,407.167 297.5,411.5C 295.5,410.167 293.833,408.5 292.5,406.5C 295.099,405.101 296.599,403.101 297,400.5C 290.98,393.981 285.147,387.315 279.5,380.5C 280.524,379.148 281.524,377.815 282.5,376.5 Z"/></g>
<g><path style="opacity:1" fill="#f0f3f9" d="M 221.5,383.5 C 234.65,384.155 238.483,390.488 233,402.5C 228.09,411.535 220.59,415.701 210.5,415C 204.891,411.723 203.058,406.89 205,400.5C 205.519,399.484 206.353,398.818 207.5,398.5C 209.135,399.046 210.801,399.38 212.5,399.5C 211.477,402.393 211.477,405.226 212.5,408C 217.233,408.962 221.066,407.462 224,403.5C 231.708,392.987 229.542,389.654 217.5,393.5C 217.617,391.516 216.95,389.85 215.5,388.5C 217.162,386.348 219.162,384.682 221.5,383.5 Z"/></g>
</svg>
