<?xml version="1.0" encoding="UTF-8"?>
<!DOCTYPE svg PUBLIC "-//W3C//DTD SVG 1.1//EN" "http://www.w3.org/Graphics/SVG/1.1/DTD/svg11.dtd">
<svg xmlns="http://www.w3.org/2000/svg" version="1.1" width="336px" height="338px" style="shape-rendering:geometricPrecision; text-rendering:geometricPrecision; image-rendering:optimizeQuality; fill-rule:evenodd; clip-rule:evenodd" xmlns:xlink="http://www.w3.org/1999/xlink">
<g><path style="opacity:0.986" fill="#bc1e18" d="M 228.5,13.5 C 228.5,14.5 228.5,15.5 228.5,16.5C 227.5,16.5 226.5,16.5 225.5,16.5C 164.98,-3.63719 109.98,6.19614 60.5,46C 5.64067,98.9477 -8.85933,161.448 17,233.5C 41.6464,286.802 82.813,319.302 140.5,331C 211.569,339.54 267.069,314.373 307,255.5C 324.354,226.241 332.52,194.575 331.5,160.5C 331.66,156.764 332.493,156.764 334,160.5C 334.383,159.944 334.883,159.611 335.5,159.5C 335.5,168.167 335.5,176.833 335.5,185.5C 328.383,243.446 299.717,287.279 249.5,317C 228.681,327.997 206.681,334.831 183.5,337.5C 172.833,337.5 162.167,337.5 151.5,337.5C 77.1094,326.53 28.276,285.197 5,213.5C 2.50021,202.126 0.66688,190.793 -0.5,179.5C -0.5,173.167 -0.5,166.833 -0.5,160.5C 5.02923,99.4935 34.0292,53.3268 86.5,22C 128.376,0.571691 172.043,-3.76164 217.5,9C 221.468,10.0377 225.135,11.5377 228.5,13.5 Z"/></g>
<g><path style="opacity:1" fill="#fcf5f5" d="M 225.5,16.5 C 278.296,38.6295 312.296,77.2962 327.5,132.5C 328.946,141.956 330.279,151.289 331.5,160.5C 332.52,194.575 324.354,226.241 307,255.5C 267.069,314.373 211.569,339.54 140.5,331C 82.813,319.302 41.6464,286.802 17,233.5C -8.85933,161.448 5.64067,98.9477 60.5,46C 109.98,6.19614 164.98,-3.63719 225.5,16.5 Z"/></g>
<g><path style="opacity:1" fill="#bd1f18" d="M 245.5,31.5 C 245.351,32.552 245.517,33.552 246,34.5C 249,36.1667 251.333,38.5 253,41.5C 254.009,43.0249 254.509,44.6916 254.5,46.5C 252.983,46.4894 251.816,45.8228 251,44.5C 249.204,47.927 247.037,51.0937 244.5,54C 240.333,55.1667 238.833,53.6667 240,49.5C 242.029,46.9708 243.862,44.3041 245.5,41.5C 244.086,40.376 242.586,39.376 241,38.5C 236.704,42.7344 234.371,47.7344 234,53.5C 240.898,61.8219 247.065,61.4886 252.5,52.5C 254.906,55.1658 257.239,57.8324 259.5,60.5C 256.482,60.3354 253.482,60.502 250.5,61C 248.993,61.8373 248.493,63.0039 249,64.5C 253.022,68.0233 257.189,71.3566 261.5,74.5C 263.101,73.9653 263.601,72.9653 263,71.5C 260.555,70.0229 258.388,68.1896 256.5,66C 258.473,65.5045 260.473,65.3379 262.5,65.5C 268.58,71.9892 273.414,79.3225 277,87.5C 279.185,88.9284 281.185,90.5951 283,92.5C 288.087,100.341 293.42,108.008 299,115.5C 305.907,129.354 314.74,141.687 325.5,152.5C 329.599,219.47 303.599,270.97 247.5,307C 194.998,335.192 142.332,335.526 89.5,308C 43.3157,280.176 16.8157,239.342 10,185.5C 6.13939,117.713 32.9727,66.2127 90.5,31C 134.154,8.3863 179.154,5.3863 225.5,22C 232.314,24.9076 238.981,28.0743 245.5,31.5 Z"/></g>
<g><path style="opacity:1" fill="#f9eae8" d="M 149.5,15.5 C 154.238,15.6016 154.238,16.935 149.5,19.5C 148.708,18.3002 148.708,16.9669 149.5,15.5 Z"/></g>
<g><path style="opacity:1" fill="#fbf2f2" d="M 147.5,20.5 C 149.5,20.5 151.5,20.5 153.5,20.5C 153.921,26.202 154.588,31.8687 155.5,37.5C 153.738,37.3573 152.071,37.6906 150.5,38.5C 148.845,32.6333 147.845,26.6333 147.5,20.5 Z"/></g>
<g><path style="opacity:1" fill="#fdfbfb" d="M 173.5,32.5 C 173.5,33.8333 173.5,35.1667 173.5,36.5C 168.833,36.5 164.167,36.5 159.5,36.5C 159.5,30.8333 159.5,25.1667 159.5,19.5C 161.167,19.5 162.833,19.5 164.5,19.5C 164.5,23.8333 164.5,28.1667 164.5,32.5C 167.5,32.5 170.5,32.5 173.5,32.5 Z"/></g>
<g><path style="opacity:1" fill="#fcf7f7" d="M 177.5,20.5 C 179.5,20.5 181.5,20.5 183.5,20.5C 183.468,26.1886 183.134,31.8552 182.5,37.5C 180.833,37.5 179.167,37.5 177.5,37.5C 177.5,31.8333 177.5,26.1667 177.5,20.5 Z"/></g>
<g><path style="opacity:1" fill="#fcf5f5" d="M 192.5,22.5 C 197.715,21.7024 202.215,23.0358 206,26.5C 208.605,36.4505 204.771,40.9505 194.5,40C 185.853,35.2313 185.186,29.398 192.5,22.5 Z"/></g>
<g><path style="opacity:1" fill="#fbf1f1" d="M 134.5,22.5 C 138.164,21.9999 141.164,23.1666 143.5,26C 142.335,27.0836 141.002,27.9169 139.5,28.5C 133.38,26.1185 131.213,28.1185 133,34.5C 136.51,37.5856 138.677,36.919 139.5,32.5C 146.437,31.8265 147.437,33.9932 142.5,39C 131.781,43.2421 126.614,39.7421 127,28.5C 128.707,25.4096 131.207,23.4096 134.5,22.5 Z"/></g>
<g><path style="opacity:1" fill="#be241c" d="M 195.5,26.5 C 201.749,27.0986 203.082,30.0986 199.5,35.5C 195.951,37.131 193.951,35.9643 193.5,32C 193.758,29.9907 194.425,28.1573 195.5,26.5 Z"/></g>
<g><path style="opacity:1" fill="#fbf4f3" d="M 115.5,28.5 C 119.789,27.4832 122.122,29.1498 122.5,33.5C 122.471,35.0293 121.804,36.196 120.5,37C 123.236,38.3622 125.569,40.1956 127.5,42.5C 125.997,43.557 124.33,44.2237 122.5,44.5C 120.041,42.6968 117.374,41.3635 114.5,40.5C 114.586,42.677 115.253,44.677 116.5,46.5C 114.724,48.4468 112.724,48.7801 110.5,47.5C 109.028,43.0827 107.361,38.7494 105.5,34.5C 105.833,33.8333 106.167,33.1667 106.5,32.5C 109.601,31.1432 112.601,29.8099 115.5,28.5 Z"/></g>
<g><path style="opacity:1" fill="#fbf4f3" d="M 222.5,30.5 C 224.842,30.5041 226.842,31.3375 228.5,33C 226.548,36.3539 224.881,39.8539 223.5,43.5C 225.245,45.4587 227.411,46.792 230,47.5C 230.783,49.3185 230.283,50.6518 228.5,51.5C 224.024,50.0974 220.024,47.9308 216.5,45C 218.927,40.3168 220.927,35.4835 222.5,30.5 Z"/></g>
<g><path style="opacity:1" fill="#c02d23" d="M 112.5,33.5 C 113.833,33.5 115.167,33.5 116.5,33.5C 115.622,37.6249 113.955,38.1249 111.5,35C 112.056,34.6174 112.389,34.1174 112.5,33.5 Z"/></g>
<g><path style="opacity:1" fill="#fbf2f1" d="M 98.5,35.5 C 99.8366,36.3149 100.837,37.4815 101.5,39C 98.3975,40.2807 95.7308,42.1141 93.5,44.5C 94.365,45.5827 95.365,45.7494 96.5,45C 98.3333,43.8333 100.167,42.6667 102,41.5C 102.5,42.5 103,43.5 103.5,44.5C 100.991,45.9213 98.6572,47.5879 96.5,49.5C 97,50.5 97.5,51.5 98,52.5C 100.498,50.583 103.165,48.9164 106,47.5C 106.87,48.1079 107.37,48.9412 107.5,50C 103.623,53.1939 99.4564,56.0273 95,58.5C 91.7816,53.897 88.9482,49.0637 86.5,44C 90.6615,41.3296 94.6615,38.4962 98.5,35.5 Z"/></g>
<g><path style="opacity:1" fill="#d87874" d="M 173.5,32.5 C 174.451,33.9187 174.784,35.5853 174.5,37.5C 169.305,37.8205 164.305,37.4872 159.5,36.5C 164.167,36.5 168.833,36.5 173.5,36.5C 173.5,35.1667 173.5,33.8333 173.5,32.5 Z"/></g>
<g><path style="opacity:1" fill="#fbf3f3" d="M 254.5,46.5 C 255.108,48.6841 254.441,50.6841 252.5,52.5C 247.065,61.4886 240.898,61.8219 234,53.5C 234.371,47.7344 236.704,42.7344 241,38.5C 242.586,39.376 244.086,40.376 245.5,41.5C 243.862,44.3041 242.029,46.9708 240,49.5C 238.833,53.6667 240.333,55.1667 244.5,54C 247.037,51.0937 249.204,47.927 251,44.5C 251.816,45.8228 252.983,46.4894 254.5,46.5 Z"/></g>
<g><path style="opacity:1" fill="#fcf5f4" d="M 151.5,41.5 C 211.422,37.8659 255.588,62.1993 284,114.5C 304.251,162.909 298.918,208.242 268,250.5C 232.202,291.209 187.702,305.709 134.5,294C 80.9292,277.094 49.4292,240.927 40,185.5C 35.776,128.106 58.276,84.9392 107.5,56C 121.584,49.027 136.251,44.1936 151.5,41.5 Z"/></g>
<g><path style="opacity:1" fill="#c43732" d="M 245.5,31.5 C 285.441,55.0004 311.107,89.3337 322.5,134.5C 321.504,134.586 320.671,134.252 320,133.5C 314.214,125.588 309.214,117.255 305,108.5C 295.328,95.978 285.995,82.6447 277,68.5C 275.574,66.2342 273.74,64.5676 271.5,63.5C 271.611,62.8826 271.944,62.3826 272.5,62C 268.352,58.6863 264.352,55.1863 260.5,51.5C 258.717,52.3482 258.217,53.6815 259,55.5C 261.124,56.6217 262.957,58.1217 264.5,60C 262.866,60.4935 261.199,60.6602 259.5,60.5C 257.239,57.8324 254.906,55.1658 252.5,52.5C 254.441,50.6841 255.108,48.6841 254.5,46.5C 254.509,44.6916 254.009,43.0249 253,41.5C 251.333,38.5 249,36.1667 246,34.5C 245.517,33.552 245.351,32.552 245.5,31.5 Z"/></g>
<g><path style="opacity:0.989" fill="#c8433e" d="M 228.5,13.5 C 283.064,35.6121 317.397,75.2788 331.5,132.5C 330.836,133.648 330.669,134.981 331,136.5C 330.051,134.907 328.885,133.574 327.5,132.5C 312.296,77.2962 278.296,38.6295 225.5,16.5C 226.5,16.5 227.5,16.5 228.5,16.5C 228.5,15.5 228.5,14.5 228.5,13.5 Z"/></g>
<g><path style="opacity:1" fill="#fbf3f2" d="M 79.5,47.5 C 84.1071,51.1135 88.1071,55.4469 91.5,60.5C 89.8513,61.6477 88.3513,62.981 87,64.5C 84.715,58.7264 81.8817,58.2264 78.5,63C 79.5,64.6667 80.5,66.3333 81.5,68C 80.3867,69.3943 79.0534,70.561 77.5,71.5C 73.953,66.9082 70.2864,62.4082 66.5,58C 68.286,57.2155 69.786,56.0488 71,54.5C 72.3513,56.019 73.8513,57.3523 75.5,58.5C 80.3831,56.7151 80.7164,54.2151 76.5,51C 77.7101,49.9609 78.7101,48.7942 79.5,47.5 Z"/></g>
<g><path style="opacity:1" fill="#bf281f" d="M 159.5,45.5 C 208.913,44.6182 247.08,64.6182 274,105.5C 296.555,146.826 297.222,188.492 276,230.5C 248.162,275.505 207.662,296.338 154.5,293C 96.3554,283.857 60.1887,250.691 46,193.5C 37.7594,132.815 60.2594,87.6481 113.5,58C 128.279,51.3078 143.612,47.1412 159.5,45.5 Z"/></g>
<g><path style="opacity:1" fill="#fefdfd" d="M 160.5,48.5 C 221.761,49.2974 262.928,78.2974 284,135.5C 295.808,184.454 283.641,226.288 247.5,261C 203.882,295.042 157.216,299.709 107.5,275C 56.2535,240.963 37.7535,193.796 52,133.5C 70.8152,82.8353 106.982,54.502 160.5,48.5 Z"/></g>
<g><path style="opacity:1" fill="#fbf3f3" d="M 271.5,63.5 C 268.39,64.0885 265.39,64.7552 262.5,65.5C 260.473,65.3379 258.473,65.5045 256.5,66C 258.388,68.1896 260.555,70.0229 263,71.5C 263.601,72.9653 263.101,73.9653 261.5,74.5C 257.189,71.3566 253.022,68.0233 249,64.5C 248.493,63.0039 248.993,61.8373 250.5,61C 253.482,60.502 256.482,60.3354 259.5,60.5C 261.199,60.6602 262.866,60.4935 264.5,60C 262.957,58.1217 261.124,56.6217 259,55.5C 258.217,53.6815 258.717,52.3482 260.5,51.5C 264.352,55.1863 268.352,58.6863 272.5,62C 271.944,62.3826 271.611,62.8826 271.5,63.5 Z"/></g>
<g><path style="opacity:1" fill="#c12b26" d="M 271.5,63.5 C 273.74,64.5676 275.574,66.2342 277,68.5C 285.995,82.6447 295.328,95.978 305,108.5C 309.214,117.255 314.214,125.588 320,133.5C 320.671,134.252 321.504,134.586 322.5,134.5C 323.871,140.428 324.871,146.428 325.5,152.5C 314.74,141.687 305.907,129.354 299,115.5C 293.42,108.008 288.087,100.341 283,92.5C 281.185,90.5951 279.185,88.9284 277,87.5C 273.414,79.3225 268.58,71.9892 262.5,65.5C 265.39,64.7552 268.39,64.0885 271.5,63.5 Z"/></g>
<g><path style="opacity:1" fill="#bd1f18" d="M 112.5,71.5 C 119.5,71.5 126.5,71.5 133.5,71.5C 133.667,134.168 133.5,196.834 133,259.5C 125.294,253.461 118.627,246.461 113,238.5C 112.5,210.169 112.333,181.835 112.5,153.5C 107.833,153.5 103.167,153.5 98.5,153.5C 98.6666,174.503 98.5,195.503 98,216.5C 90.0093,202.522 83.676,187.855 79,172.5C 78.1668,146.827 78.3335,121.16 79.5,95.5C 85.5,92.1667 91.5,88.8333 97.5,85.5C 98.4991,98.4829 98.8325,111.483 98.5,124.5C 103.167,124.5 107.833,124.5 112.5,124.5C 112.5,106.833 112.5,89.1667 112.5,71.5 Z"/></g>
<g><path style="opacity:1" fill="#bc1a15" d="M 139.5,71.5 C 146.5,71.5 153.5,71.5 160.5,71.5C 160.333,133.168 160.5,194.834 161,256.5C 163,258.5 165,260.5 167,262.5C 167.667,269.833 167.667,277.167 167,284.5C 156.856,279.028 147.856,272.028 140,263.5C 139.5,199.501 139.333,135.501 139.5,71.5 Z"/></g>
<g><path style="opacity:1" fill="#bd1f18" d="M 210.5,71.5 C 210.5,76.8333 210.5,82.1667 210.5,87.5C 204.167,87.5 197.833,87.5 191.5,87.5C 191.5,105.167 191.5,122.833 191.5,140.5C 196.167,140.5 200.833,140.5 205.5,140.5C 205.5,147.5 205.5,154.5 205.5,161.5C 200.833,161.5 196.167,161.5 191.5,161.5C 191.667,196.835 191.5,232.168 191,267.5C 185.271,274.064 178.771,279.73 171.5,284.5C 171.5,213.5 171.5,142.5 171.5,71.5C 184.5,71.5 197.5,71.5 210.5,71.5 Z"/></g>
<g><path style="opacity:1" fill="#bc1c16" d="M 234.5,103.5 C 234.44,102.957 234.107,102.624 233.5,102.5C 233.167,116.167 232.833,129.833 232.5,143.5C 232.491,157.574 232.825,170.907 233.5,183.5C 237.925,178.486 240.925,172.653 242.5,166C 247.833,165.333 253.167,165.333 258.5,166C 249.307,195.564 234.807,222.064 215,245.5C 214.5,187.168 214.333,128.834 214.5,70.5C 219.844,70.334 225.177,70.5006 230.5,71C 242.387,83.433 252.054,97.433 259.5,113C 253.833,113.667 248.167,113.667 242.5,113C 239.998,109.667 237.332,106.501 234.5,103.5 Z"/></g>
<g><path style="opacity:1" fill="#eec5c3" d="M 234.5,103.5 C 233.502,129.995 233.169,156.661 233.5,183.5C 232.825,170.907 232.491,157.574 232.5,143.5C 232.833,129.833 233.167,116.167 233.5,102.5C 234.107,102.624 234.44,102.957 234.5,103.5 Z"/></g>
<g><path style="opacity:1" fill="#d46c69" d="M 210.5,71.5 C 197.5,71.5 184.5,71.5 171.5,71.5C 171.5,142.5 171.5,213.5 171.5,284.5C 170.501,213.335 170.167,142.002 170.5,70.5C 184.01,70.1711 197.344,70.5044 210.5,71.5 Z"/></g>
<g><path style="opacity:1" fill="#faeceb" d="M 24.5,141.5 C 28.2082,142.387 31.8749,142.554 35.5,142C 39.4957,147.036 38.6623,151.203 33,154.5C 31.3745,153.711 29.8745,152.711 28.5,151.5C 24.7053,153.054 22.7053,151.721 22.5,147.5C 22.6113,145.286 23.278,143.286 24.5,141.5 Z"/></g>
<g><path style="opacity:1" fill="#faefee" d="M 305.5,141.5 C 309.338,142.662 312.338,144.995 314.5,148.5C 309.368,150.526 304.035,151.526 298.5,151.5C 298.5,150.167 298.5,148.833 298.5,147.5C 301.609,147.345 304.609,146.678 307.5,145.5C 306.37,144.378 305.703,143.044 305.5,141.5 Z"/></g>
<g><path style="opacity:1" fill="#bc1d17" d="M 25.5,145.5 C 28.9571,145.667 29.2904,146.667 26.5,148.5C 25.6143,147.675 25.281,146.675 25.5,145.5 Z"/></g>
<g><path style="opacity:1" fill="#c23226" d="M 32.5,145.5 C 36.402,148.442 35.902,149.442 31,148.5C 30.7613,147.212 31.2613,146.212 32.5,145.5 Z"/></g>
<g><path style="opacity:0.991" fill="#c3312c" d="M 327.5,132.5 C 328.885,133.574 330.051,134.907 331,136.5C 330.669,134.981 330.836,133.648 331.5,132.5C 333.28,139.856 334.613,147.19 335.5,154.5C 335.5,156.167 335.5,157.833 335.5,159.5C 334.883,159.611 334.383,159.944 334,160.5C 332.493,156.764 331.66,156.764 331.5,160.5C 330.279,151.289 328.946,141.956 327.5,132.5 Z"/></g>
<g><path style="opacity:1" fill="#faefef" d="M 307.5,155.5 C 313.74,155.294 316.24,158.294 315,164.5C 311.867,167.877 308.034,169.044 303.5,168C 299.876,165.839 298.709,162.672 300,158.5C 301.58,155.746 302.746,155.912 303.5,159C 301.599,162.701 302.599,164.367 306.5,164C 303.815,160.883 304.148,158.05 307.5,155.5 Z"/></g>
<g><path style="opacity:1" fill="#fbf2f2" d="M 21.5,158.5 C 26.482,159.053 31.482,159.387 36.5,159.5C 36.5,160.833 36.5,162.167 36.5,163.5C 33.1501,163.335 29.8168,163.502 26.5,164C 27.3366,165.011 27.67,166.178 27.5,167.5C 26.325,167.719 25.325,167.386 24.5,166.5C 22.5065,164.184 21.5065,161.518 21.5,158.5 Z"/></g>
<g><path style="opacity:1" fill="#bc1e17" d="M 308.5,159.5 C 311.166,159.066 312.333,160.066 312,162.5C 308.403,164.066 307.237,163.066 308.5,159.5 Z"/></g>
<g><path style="opacity:1" fill="#f9e9e8" d="M 24.5,171.5 C 32.8102,169.337 36.6435,172.337 36,180.5C 35.2904,181.973 34.1238,182.64 32.5,182.5C 32.3573,180.738 32.6906,179.071 33.5,177.5C 32.6518,175.717 31.3185,175.217 29.5,176C 32.1667,178.333 32.1667,180.667 29.5,183C 23.989,184.984 20.989,183.151 20.5,177.5C 20.8662,174.744 22.1995,172.744 24.5,171.5 Z"/></g>
<g><path style="opacity:1" fill="#faeceb" d="M 308.5,172.5 C 309.822,172.33 310.989,172.663 312,173.5C 313.715,175.935 314.882,178.602 315.5,181.5C 310.12,181.676 304.787,181.342 299.5,180.5C 299.5,179.167 299.5,177.833 299.5,176.5C 302.85,176.665 306.183,176.498 309.5,176C 308.663,174.989 308.33,173.822 308.5,172.5 Z"/></g>
<g><path style="opacity:1" fill="#be241d" d="M 23.5,176.5 C 25.1667,176.5 26.8333,176.5 28.5,176.5C 28.5,177.5 28.5,178.5 28.5,179.5C 26.8333,179.5 25.1667,179.5 23.5,179.5C 23.5,178.5 23.5,177.5 23.5,176.5 Z"/></g>
<g><path style="opacity:1" fill="#fbf0ef" d="M 300.5,185.5 C 303.547,184.855 305.713,185.855 307,188.5C 309,187.167 311,187.167 313,188.5C 313.893,191.916 313.393,195.083 311.5,198C 307.476,196.576 303.309,196.076 299,196.5C 297.076,192.523 297.576,188.856 300.5,185.5 Z"/></g>
<g><path style="opacity:1" fill="#faf0f0" d="M 35.5,187.5 C 37.256,188.552 37.9227,190.219 37.5,192.5C 34.3926,192.351 31.3926,192.851 28.5,194C 30.6454,195.818 30.6454,197.318 28.5,198.5C 27.103,196.394 25.2696,194.727 23,193.5C 22.3162,192.216 22.4829,191.049 23.5,190C 27.6993,189.472 31.6993,188.639 35.5,187.5 Z"/></g>
<g><path style="opacity:1" fill="#be251e" d="M 301.5,189.5 C 302.5,189.5 303.5,189.5 304.5,189.5C 304.5,190.833 304.5,192.167 304.5,193.5C 301.046,193.733 300.046,192.4 301.5,189.5 Z"/></g>
<g><path style="opacity:1" fill="#bc1a15" d="M 307.5,191.5 C 308.5,191.5 309.5,191.5 310.5,191.5C 309.754,195.31 308.754,195.31 307.5,191.5 Z"/></g>
<g><path style="opacity:1" fill="#fcf8f8" d="M 272.5,255.5 C 273.995,255.415 274.995,256.081 275.5,257.5C 273.885,260.45 271.885,263.116 269.5,265.5C 269.808,266.308 270.308,266.975 271,267.5C 273.333,265.167 275.667,262.833 278,260.5C 278.833,261.333 279.667,262.167 280.5,263C 277.93,265.067 275.93,267.567 274.5,270.5C 275.035,272.101 276.035,272.601 277.5,272C 279.683,269.65 282.016,267.483 284.5,265.5C 285.646,266.145 286.646,266.978 287.5,268C 283.333,272.167 279.167,276.333 275,280.5C 270.625,275.957 266.125,271.624 261.5,267.5C 265.189,263.48 268.855,259.48 272.5,255.5 Z"/></g>
<g><path style="opacity:1" fill="#fbf0f0" d="M 65.5,258.5 C 69.0355,262.355 72.7021,266.188 76.5,270C 75.646,271.022 74.646,271.855 73.5,272.5C 71.1394,270.806 69.1394,268.806 67.5,266.5C 66.5,266.833 65.8333,267.5 65.5,268.5C 66.982,270.483 68.6487,272.316 70.5,274C 69.5342,275.678 68.2009,276.345 66.5,276C 64.9825,274.315 63.3159,272.815 61.5,271.5C 59.5171,272.982 57.6837,274.649 56,276.5C 54.5,275 53,273.5 51.5,272C 56.062,267.269 60.7287,262.769 65.5,258.5 Z"/></g>
<g><path style="opacity:1" fill="#fcf6f5" d="M 126.5,299.5 C 125.842,300.398 125.176,301.398 124.5,302.5C 121.357,301.065 118.19,299.732 115,298.5C 114.626,299.416 114.126,300.25 113.5,301C 116.787,302.304 119.787,303.97 122.5,306C 122.387,307.28 121.72,308.113 120.5,308.5C 117.686,306.895 114.686,305.895 111.5,305.5C 111.5,306.833 111.5,308.167 111.5,309.5C 115.325,309.594 118.325,311.094 120.5,314C 120.387,315.28 119.72,316.113 118.5,316.5C 113.21,314.739 108.21,312.406 103.5,309.5C 104.776,305.338 106.443,301.338 108.5,297.5C 106.772,295.774 104.772,294.441 102.5,293.5C 99.8465,297.463 97.1798,301.463 94.5,305.5C 92.6675,304.752 91.0009,303.752 89.5,302.5C 91.7185,298.781 93.7185,294.948 95.5,291C 93.9205,289.277 92.4205,287.444 91,285.5C 88.872,288.63 86.372,291.463 83.5,294C 73.6505,295.477 68.8172,291.31 69,281.5C 71.1386,278.061 73.6386,274.894 76.5,272C 79.1249,271.277 80.7916,272.277 81.5,275C 79.3475,277.822 77.1808,280.656 75,283.5C 74.0126,287.506 75.5126,289.339 79.5,289C 82.4532,285.592 85.2865,282.092 88,278.5C 93.5766,282.706 99.4099,286.54 105.5,290C 112.728,292.899 119.728,296.065 126.5,299.5 Z"/></g>
<g><path style="opacity:1" fill="#fcf7f7" d="M 258.5,270.5 C 262.791,270.93 264.458,273.097 263.5,277C 270.351,277.247 272.185,280.413 269,286.5C 265.642,289.358 262.142,292.025 258.5,294.5C 254.155,290.153 250.155,285.486 246.5,280.5C 250.227,276.767 254.227,273.434 258.5,270.5 Z"/></g>
<g><path style="opacity:1" fill="#c23328" d="M 256.5,276.5 C 260.399,278.134 260.232,279.8 256,281.5C 252.748,279.564 252.915,277.897 256.5,276.5 Z"/></g>
<g><path style="opacity:1" fill="#fcf6f6" d="M 243.5,281.5 C 244.496,281.414 245.329,281.748 246,282.5C 247.413,285.661 249.08,288.661 251,291.5C 252.569,296.625 251.069,300.459 246.5,303C 242.121,306.478 237.954,306.311 234,302.5C 232.287,298.905 230.453,295.405 228.5,292C 229.169,290.153 230.503,288.986 232.5,288.5C 235.44,291.533 237.774,295.033 239.5,299C 244.1,300.583 245.934,299.083 245,294.5C 243.421,291.006 241.587,287.673 239.5,284.5C 240.901,283.479 242.235,282.479 243.5,281.5 Z"/></g>
<g><path style="opacity:1" fill="#bf2a20" d="M 261.5,281.5 C 262.995,281.415 263.995,282.081 264.5,283.5C 263.5,285.167 262.167,286.5 260.5,287.5C 259.5,287.167 258.833,286.5 258.5,285.5C 259.524,284.148 260.524,282.815 261.5,281.5 Z"/></g>
<g><path style="opacity:1" fill="#fcf5f5" d="M 215.5,295.5 C 216.978,295.238 218.311,295.571 219.5,296.5C 221.076,300.65 222.909,304.65 225,308.5C 227.543,306.895 230.209,305.562 233,304.5C 234.084,305.665 234.917,306.998 235.5,308.5C 230.798,310.79 225.964,312.79 221,314.5C 217.589,309.505 215.089,304.005 213.5,298C 214.056,296.989 214.722,296.156 215.5,295.5 Z"/></g>
<g><path style="opacity:1" fill="#fcf5f5" d="M 126.5,299.5 C 132.616,299.777 138.282,301.444 143.5,304.5C 143.931,305.293 144.265,306.127 144.5,307C 143.711,308.626 142.711,310.126 141.5,311.5C 144.197,314.634 143.864,317.467 140.5,320C 134.702,320.913 129.202,320.079 124,317.5C 124.499,311.493 125.332,305.493 126.5,299.5 Z"/></g>
<g><path style="opacity:1" fill="#fcf6f5" d="M 202.5,299.5 C 204.857,299.337 207.19,299.503 209.5,300C 213.486,302.26 213.152,304.094 208.5,305.5C 200.23,304.097 198.396,307.097 203,314.5C 206.795,315.851 208.962,314.518 209.5,310.5C 211.5,310.5 213.5,310.5 215.5,310.5C 215.21,314.961 212.877,317.795 208.5,319C 198.073,320.573 193.573,316.073 195,305.5C 196.707,302.41 199.207,300.41 202.5,299.5 Z"/></g>
<g><path style="opacity:1" fill="#be261f" d="M 132.5,304.5 C 135.588,304.197 137.254,305.53 137.5,308.5C 135.833,308.5 134.167,308.5 132.5,308.5C 132.5,307.167 132.5,305.833 132.5,304.5 Z"/></g>
<g><path style="opacity:1" fill="#fcf6f6" d="M 149.5,304.5 C 153.182,304.335 156.848,304.501 160.5,305C 167.241,309.493 168.241,315.16 163.5,322C 159.289,323.534 154.956,323.867 150.5,323C 142.872,317.322 142.539,311.155 149.5,304.5 Z"/></g>
<g><path style="opacity:1" fill="#fbf1f1" d="M 168.5,304.5 C 170.5,304.5 172.5,304.5 174.5,304.5C 174.54,309.193 174.873,313.859 175.5,318.5C 178.833,318.5 182.167,318.5 185.5,318.5C 185.5,320.167 185.5,321.833 185.5,323.5C 180.435,323.219 175.435,323.552 170.5,324.5C 169.749,323.624 169.249,322.624 169,321.5C 168.501,315.843 168.334,310.176 168.5,304.5 Z"/></g>
<g><path style="opacity:1" fill="#bf261d" d="M 153.5,308.5 C 160.974,309.539 162.307,313.039 157.5,319C 155.299,319.825 153.466,319.325 152,317.5C 151.068,314.177 151.568,311.177 153.5,308.5 Z"/></g>
<g><path style="opacity:1" fill="#c02b22" d="M 130.5,311.5 C 132.5,311.833 134.5,312.167 136.5,312.5C 136.67,313.822 136.337,314.989 135.5,316C 133.893,315.981 132.226,315.815 130.5,315.5C 130.5,314.167 130.5,312.833 130.5,311.5 Z"/></g>
</svg>
