<svg id="Layer_1" data-name="Layer 1" xmlns="http://www.w3.org/2000/svg" viewBox="0 0 500 500"><defs><style>.cls-1{fill:#ed3137;}.cls-2{fill:#fff;}</style></defs><title>itapirense</title><path class="cls-1" d="M490,174c-6.72,8.65-13.56,17.23-20.16,26q-68.5,91-136.94,182.11-38.75,51.51-77.51,103c-1.2,1.6-2.26,3.29-3.39,4.94h-2c-8.74-11.72-17.39-23.5-26.22-35.15Q140.68,345.22,57.52,235.63q-22-29-44.15-58A48.11,48.11,0,0,0,10,174V10H490ZM251.22,472.54c1.5-1.86,2.66-3.24,3.74-4.67q21.33-28.35,42.64-56.72,89.34-118.8,178.58-237.67a15.38,15.38,0,0,0,2.72-8.66c.17-45.83.05-91.66.23-137.49,0-5-1.39-6.51-6.47-6.5Q250,21,27.23,20.84c-4.72,0-6.33,1.26-6.31,6.15.16,46.16,0,92.32.21,138.49a14.49,14.49,0,0,0,2.8,8.12q44.22,58.65,88.73,117.07Q180,379.41,247.41,468.16C248.48,469.56,249.73,470.83,251.22,472.54Z"/><path class="cls-2" d="M251.22,472.54c-1.49-1.71-2.74-3-3.81-4.38Q180,379.42,112.66,290.67,68.25,232.17,23.93,173.6a14.49,14.49,0,0,1-2.8-8.12C21,119.31,21.08,73.15,20.92,27c0-4.89,1.59-6.16,6.31-6.15q222.72.16,445.43,0c5.08,0,6.49,1.46,6.47,6.5-.18,45.83-.06,91.66-.23,137.49a15.38,15.38,0,0,1-2.72,8.66Q387,292.42,297.6,411.15,276.27,439.5,255,467.87C253.88,469.3,252.72,470.68,251.22,472.54ZM33.65,171.25l171.59,226v-226ZM294.38,396.69l.94.47L465,171.47H294.38ZM471.76,159.54v-6.67q0-57.49,0-115c0-8.93,1.48-8.5-8.64-8.5q-141,0-281.91-.05c-49,0-98,.07-146.95-.07-4.81,0-6.13,1.44-6.1,6.25.2,39.33.11,78.65.13,118,0,1.95.18,3.9.29,6Z"/><path class="cls-1" d="M33.65,171.25H205.24v226Z"/><path class="cls-1" d="M294.38,396.69V171.47H465L295.32,397.16Z"/><path class="cls-1" d="M471.76,159.54H28.57c-.11-2.14-.29-4.09-.29-6,0-39.33.07-78.65-.13-118,0-4.81,1.29-6.26,6.1-6.25,49,.14,98,.06,147,.07q141,0,281.91.05c10.12,0,8.64-.43,8.64,8.5q0,57.49,0,115ZM250,154.2q105,0,210,.09c4.71,0,6.25-1.14,6.23-6.07q-.3-53.49,0-107c0-4.81-1.37-6.24-6.19-6.23q-210,.16-420,0c-4.74,0-6.27,1.3-6.24,6.18.2,35.34.11,70.68.12,106,0,7,0,7,7.09,7Z"/><path class="cls-2" d="M250,154.2H41c-7.07,0-7.09,0-7.09-7,0-35.33.08-70.67-.12-106C33.77,36.28,35.3,35,40,35q210,.17,420,0c4.82,0,6.22,1.42,6.19,6.23q-.27,53.51,0,107c0,4.93-1.52,6.08-6.23,6.07Q355,154.08,250,154.2Zm-6.46-95.47c7.75,0,14.9-.16,22,0,10.66.29,16.09,4.46,19.54,14.59,2.85,8.37,2.86,8.17,11.61,8.39,4,.1,5.65-1,5.53-5.24-.26-8.65-.28-17.33,0-26,.16-4.52-1.52-5.5-5.79-5.48-30.82.18-61.63.1-92.44.09h-5.32c-.13,2.74-.07,5-.38,7.31-.63,4.7,1.1,6.47,6,6.3,5.86-.2,7,1.14,7,7.1q.15,28.23.07,56.47c0,7-.66,7.54-7.55,8.36-1.73.2-4.73.66-4.85,1.38a30.2,30.2,0,0,0-.09,10.3c.15.84,3.68,1.48,5.66,1.49q45.72.15,91.44.06c2.1,0,4.21-.22,6.79-.37,0-12.59.06-24.72-.11-36.84a3.86,3.86,0,0,0-2.52-2.8c-4.22-.31-8.48-.14-12.13-.14-1.48,6.28-2.47,11.52-4,16.6-1.66,5.58-5.54,9.28-11.47,9.65-8.47.52-17,.63-25.45.53-1.26,0-3.54-2.06-3.58-3.23-.33-8.32-.31-16.66-.11-25A4.44,4.44,0,0,1,246,99c6.92-1.59,12,2,13.33,9,.24,1.31.52,2.62.64,3.94.58,6,5.19,3.07,8.11,3.59,3.14.55,3.84-1.44,3.79-4.26-.13-7.83,0-15.66,0-23.49V71.38h-11.3c-2.14,13.63-6.21,17-17,14.25ZM128.77,48.88a3,3,0,0,1-.82,0c-1.86-.69-3.72-1.42-5.59-2.1-13.78-5-27.82-6.43-42.12-2.57-14.64,4-23.82,15.26-24.45,29.79-.57,13.22,6.66,22.88,21.64,28.18,8,2.82,16.23,4.9,24.25,7.61a61,61,0,0,1,12.74,5.52c5.64,3.52,5.57,10.34,0,14a17.57,17.57,0,0,1-7.84,2.78c-15.17,1.46-26.79-5.7-33-19.71-.75-1.7-2.48-3.85-4-4.13-3.5-.62-7.19-.19-11-.19v36.33c5.65-.52,11.54,2.39,15.66-3.84.44-.67,2.7-.58,3.92-.22,4.93,1.47,9.69,3.7,14.7,4.72,14.65,3,29.17,3.16,42.62-4.71,10.24-6,15-15.16,14.69-27-.25-11.27-5.39-19.57-15.44-24.25-7-3.27-14.54-5.63-22-8-6.48-2.06-13.2-3.34-19.69-5.35-3.74-1.16-7.12-3.3-7.08-8s3.33-7.1,7.11-8.75c11.8-5.16,28.34.34,33.2,12.19,2.78,6.77,6.62,8.22,12.82,7.22a8.35,8.35,0,0,1,2,0c3,.22,4.22-1.22,4.2-4.14,0-8.66.06-17.32-.09-26,0-1.23-.81-3.06-1.79-3.56C139.35,42.76,131.76,45,128.77,48.88Zm227.67,9.43c1.22.13,1.87.24,2.52.26,9.53.33,10.2,1,10.21,10.39q0,26,0,52c0,8.27-.54,8.69-8.86,9.89-1.51.22-3.79,1.7-4,2.9-.57,3.15-.2,6.47-.2,10.23h7.22c14.31,0,28.63,0,42.95,0,9.11,0,8.07,1.1,8.35-8.32.1-3.29-.85-4.68-4.4-5-8.45-.65-9-1.16-9-9.61-.16-17.65-.13-35.3,0-52.95.07-8.31,1-9.21,9.11-9.39,3.31-.07,4.57-1.23,4.29-4.41a17,17,0,0,1,0-3.49c.52-4.21-.92-5.83-5.5-5.74-15.31.28-30.62.11-45.94.12h-6.73Zm-174.7,65.84c-6.3,0-11.76-.18-17.2.15-1.1.07-2.87,2-3,3.2a70.47,70.47,0,0,0,0,12.91c.13,1.34,2,3.46,3.25,3.57a86,86,0,0,0,13.9,0,4.17,4.17,0,0,0,2.88-2.85C181.9,135.74,181.74,130.3,181.74,124.15Zm242.56,0c0,6.2-.19,11.53.16,16.82.07,1.13,2,2.95,3.21,3.05a69.27,69.27,0,0,0,13,0,5.13,5.13,0,0,0,3.55-3.42,67.49,67.49,0,0,0,.19-12.95c-.1-1.23-1.94-3.24-3.09-3.31C435.85,124,430.38,124.18,424.3,124.18Zm-105.37.21c.35,6.69.67,12.91,1,19.12l14.84.73c.49,0,1.15.15,1.47-.1,1-.82,2.74-1.75,2.78-2.71.27-5.59.13-11.21.13-17Z"/><path class="cls-1" d="M243.54,58.73v26.9c10.78,2.77,14.85-.62,17-14.25h11.3V87.83c0,7.83-.09,15.66,0,23.49.05,2.82-.65,4.81-3.79,4.26-2.92-.52-7.53,2.39-8.11-3.59-.12-1.32-.4-2.63-.64-3.94-1.29-7-6.41-10.61-13.33-9a4.44,4.44,0,0,0-2.55,3.3c-.2,8.32-.22,16.66.11,25,0,1.17,2.32,3.22,3.58,3.23,8.48.1,17,0,25.45-.53,5.93-.37,9.81-4.07,11.47-9.65,1.51-5.08,2.5-10.32,4-16.6,3.65,0,7.91-.17,12.13.14a3.86,3.86,0,0,1,2.52,2.8c.17,12.12.11,24.25.11,36.84-2.58.15-4.69.37-6.79.37q-45.72,0-91.44-.06c-2,0-5.51-.65-5.66-1.49a30.2,30.2,0,0,1,.09-10.3c.12-.72,3.12-1.18,4.85-1.38,6.89-.82,7.54-1.38,7.55-8.36q0-28.25-.07-56.47c0-6-1.14-7.3-7-7.1-4.89.17-6.62-1.6-6-6.3.31-2.26.25-4.57.38-7.31H204c30.81,0,61.62.09,92.44-.09,4.27,0,5.95,1,5.79,5.48-.3,8.65-.28,17.33,0,26,.12,4.26-1.49,5.34-5.53,5.24-8.75-.22-8.76,0-11.61-8.39-3.45-10.13-8.88-14.3-19.54-14.59C258.44,58.57,251.29,58.73,243.54,58.73Z"/><path class="cls-1" d="M128.77,48.88c3-3.89,10.58-6.12,14.63-4.08,1,.5,1.77,2.33,1.79,3.56.15,8.66.05,17.32.09,26,0,2.92-1.21,4.36-4.2,4.14a8.35,8.35,0,0,0-2,0c-6.2,1-10-.45-12.82-7.22-4.86-11.85-21.4-17.35-33.2-12.19-3.78,1.65-7.07,4-7.11,8.75s3.34,6.81,7.08,8c6.49,2,13.21,3.29,19.69,5.35,7.42,2.36,14.92,4.72,22,8,10,4.68,15.19,13,15.44,24.25.27,11.88-4.45,21-14.69,27-13.45,7.87-28,7.72-42.62,4.71-5-1-9.77-3.25-14.7-4.72-1.22-.36-3.48-.45-3.92.22-4.12,6.23-10,3.32-15.66,3.84V108.16c3.81,0,7.5-.43,11,.19,1.57.28,3.3,2.43,4,4.13,6.25,14,17.87,21.17,33,19.71a17.57,17.57,0,0,0,7.84-2.78c5.53-3.71,5.6-10.53,0-14a61,61,0,0,0-12.74-5.52c-8-2.71-16.26-4.79-24.25-7.61-15-5.3-22.21-15-21.64-28.18.63-14.53,9.81-25.84,24.45-29.79,14.3-3.86,28.34-2.45,42.12,2.57,1.87.68,3.73,1.41,5.59,2.1A3,3,0,0,0,128.77,48.88Z"/><path class="cls-1" d="M356.44,58.31V45.16h6.73c15.32,0,30.63.16,45.94-.12,4.58-.09,6,1.53,5.5,5.74a17,17,0,0,0,0,3.49c.28,3.18-1,4.34-4.29,4.41-8.15.18-9,1.08-9.11,9.39-.13,17.65-.16,35.3,0,53,.08,8.45.59,9,9,9.61,3.55.28,4.5,1.67,4.4,5-.28,9.42.76,8.27-8.35,8.32-14.32.07-28.64,0-42.95,0h-7.22c0-3.76-.37-7.08.2-10.23.21-1.2,2.49-2.68,4-2.9,8.32-1.2,8.85-1.62,8.86-9.89q0-26,0-51.95c0-9.42-.68-10.06-10.21-10.39C358.31,58.55,357.66,58.44,356.44,58.31Z"/><path class="cls-1" d="M181.74,124.15c0,6.15.16,11.59-.14,17a4.17,4.17,0,0,1-2.88,2.85,86,86,0,0,1-13.9,0c-1.24-.11-3.12-2.23-3.25-3.57a70.47,70.47,0,0,1,0-12.91c.1-1.19,1.87-3.13,3-3.2C170,124,175.44,124.15,181.74,124.15Z"/><path class="cls-1" d="M424.3,124.18c6.08,0,11.55-.19,17,.16,1.15.07,3,2.08,3.09,3.31a67.49,67.49,0,0,1-.19,12.95,5.13,5.13,0,0,1-3.55,3.42,69.27,69.27,0,0,1-13,0c-1.2-.1-3.14-1.92-3.21-3.05C424.11,135.71,424.3,130.38,424.3,124.18Z"/><path class="cls-1" d="M318.93,124.39h20.21c0,5.83.14,11.45-.13,17,0,1-1.75,1.89-2.78,2.71-.32.25-1,.12-1.47.1l-14.84-.73C319.6,137.3,319.28,131.08,318.93,124.39Z"/></svg>