<?xml version="1.0" encoding="utf-8"?>
<!-- Generator: Adobe Illustrator 23.0.1, SVG Export Plug-In . SVG Version: 6.00 Build 0)  -->
<svg version="1.1" id="Layer_1" xmlns="http://www.w3.org/2000/svg" xmlns:xlink="http://www.w3.org/1999/xlink" x="0px" y="0px"
	 viewBox="0 0 600 600" style="enable-background:new 0 0 600 600;" xml:space="preserve">
<style type="text/css">
	.st0{fill:#1C3D9C;}
	.st1{fill:#FFFFFF;}
</style>
<g>
	<path class="st0" d="M41.3,139c4.5-6.4,9.1-12.9,13.7-19.3c22-31,44.1-62,66-93.1c1.6-2.2,3.1-2.8,5.7-2.6
		c17.8,1.6,35.7,3.2,53.6,4.5c15.4,1.2,30.7,2.4,46.1,2.8c35.2,1,70.3,2.2,105.5,1.9c28.7-0.2,57.4-2.1,86.1-4.1
		c17.5-1.2,34.9-3.7,52.4-5.8c2.3-0.3,3,1,4,2.4c17.5,25.1,35,50.2,52.4,75.2c8.3,11.9,16.6,23.8,24.8,35.6c0.8,1.1,1.5,2.3,2.9,4.3
		c-1.1,0.7-2.3,1.2-3.1,2.1c-4.6,4.7-9.4,9.2-13.5,14.2c-20.7,25.3-23.8,52.7-9,81.8c3.9,7.6,8.7,14.9,13.8,21.7
		c11,14.4,21.1,29.3,28.2,46c13.1,31.2,11.2,61.9-2.2,92.6c-10.5,24.1-26.1,44.5-44.3,63.1c-33.3,34.1-72,60.6-114.4,82
		c-35.5,18-72.4,32.1-110.4,43.6c-1.4,0.4-3.3,0.7-4.6,0.2c-51.7-17.3-102.1-37.8-148.9-66.2c-32.8-19.9-62.8-43.4-87.5-73.1
		c-16.7-20-30.7-41.6-38.3-66.8c-8.1-26.6-6.6-52.6,5.3-77.8c2.5-5.4,6.1-10.2,9.3-15.3C45,273,55.4,257,65.1,240.7
		c6.6-11.1,10.5-23.2,10.6-36.3C75.8,184,67.4,167,54,152.2C50,147.8,45.8,143.6,41.3,139z M46.9,306.9c0.2,0.2,0.4,0.4,0.6,0.6
		c131.4-86.6,262.8-173.2,394.1-259.8c-11.3,0.2-22.3,1.5-33.3,2.1c-28,1.4-56,3-84,3.3c-27,0.3-54-0.5-81-1.3
		c-17.3-0.5-34.7-1.6-52-2.8c-18.7-1.3-37.3-3-56-4.4c-1.4-0.1-3.4,0.8-4.2,1.9c-21,29.3-41.9,58.8-62.8,88.2
		c-1.2,1.7-1.1,2.8,0.2,4.4c3.6,4.3,7.2,8.7,10.4,13.3c11.9,17.3,17.4,36.4,16,57.6c-1,14.4-5.4,27.8-12.6,40
		c-10.1,17.1-21,33.8-31.5,50.6C49.6,302.7,48.2,304.8,46.9,306.9z M399.2,527.5c1.2-0.4,1.7-0.6,2.2-0.8
		c30.9-15.8,60.1-34.2,86.3-57.1c1.2-1.1,2.1-3.3,2.2-5c0.4-95.7,0.8-191.5,1.1-287.2c0-1-0.2-2-0.3-3.5c-1.7,1-2.9,1.8-4.1,2.6
		c-27.9,18.5-55.7,37-83.7,55.3c-3.2,2.1-4.2,4.3-4.2,8.1c0.2,94.5,0.4,189,0.5,283.5C399.2,524.5,399.2,525.8,399.2,527.5z
		 M325.9,283.1c-1.8,1.1-2.7,1.6-3.5,2.1c-28.6,19-57.2,38-85.9,56.9c-2.1,1.4-2.8,2.8-2.8,5.3c0.5,30.5,0.9,60.9,1.3,91.4
		c0.4,33.4,0.8,66.9,0.9,100.3c0,4.6,1.2,7.1,5.9,8.7c17.5,6.2,34.9,12.9,52.3,19.2c1.9,0.7,4.3,0.6,6.2,0.1
		c7.7-2.3,15.2-5.1,22.9-7.4c2.8-0.9,3.7-2.2,3.7-5.1c-0.2-21.5-0.3-43-0.4-64.5c-0.2-58.6-0.4-117.3-0.5-175.9
		C325.9,304.1,325.9,294,325.9,283.1z M81.6,445c11.6,16,66.1,58.6,79.8,62.9c0-38.3,0-76.7,0-116.1
		C134.3,409.9,108.1,427.4,81.6,445z M437.6,109.4c2.6-1.6,4.6-3.1,6.9-4.1c6.4-2.8,9.8-7,7.4-14.4c-0.3-1,0-2.3-0.2-3.4
		c-1.1-5.1-1.6-10.5-3.5-15.3c-2.4-6.3-7.8-7.9-13.9-4.8c-2.2,1.1-4.3,2.6-6.2,4.3c-12.1,10.4-18.5,23.3-18.1,39.6
		c0.6,24,0.7,48,1,72.1c0,1.8,0.2,3.7,0.6,5.5c1.3,6.2,5.6,9.4,11.9,9c5.2-0.3,9.3-3.1,12.7-6.8c15.1-16.1,16.9-35.7,15.2-56.3
		c0-0.2-0.3-0.3-0.7-0.9c-3.6,2.4-7.5,4.6-11,7.3c-1.2,0.9-2.2,2.7-2.3,4.1c-0.4,4.7,0,9.5-0.5,14.1c-0.4,3.6-1.3,7.2-2.9,10.4
		c-0.6,1.3-3.5,2.1-5.2,2c-1,0-2-2.3-2.7-3.7c-0.4-0.8-0.4-1.8-0.4-2.7c0-19.9-0.1-39.8,0.1-59.7c0-3.6,0.7-7.3,1.8-10.7
		c0.6-1.7,3-2.7,4.6-4.1c1.3,1.6,2.7,3.1,3.9,4.8c0.3,0.4,0.2,1.1,0.3,1.7C436.8,101.1,437.2,104.9,437.6,109.4z M285.6,286.9
		c4.3-2.9,7.9-5.7,11.8-8c2.4-1.4,2.9-3.1,2.6-5.7c-1.2-8.6-2.2-17.3-3.2-26c-2.6-22.3-5.2-44.7-7.8-67c-0.5-4.3-1.1-8.5-1.8-13.4
		c-6.5,4.6-12.4,8.7-18.2,13c-0.8,0.6-1.3,2.1-1.4,3.3c-1.7,16.7-3.3,33.4-4.9,50.1c-2,20.8-4.1,41.6-6.1,62.4
		c-0.4,3.8-0.6,7.7-1,12.5c4.7-3.3,8.5-6.2,12.5-8.8c2.1-1.3,2.8-3,3-5.4c0.4-6.2,0.9-12.4,1.4-18.6c0.1-0.9,0.4-2.2,1-2.7
		c3.1-2.5,6.3-4.8,10-7.6C284.1,272.5,284.8,279.3,285.6,286.9z M154.1,253.8c-4.6,3.3-8.4,6.3-12.5,9c-2.4,1.6-3.2,3.4-3.1,6.3
		c0.4,28.6,0.7,57.2,0.9,85.9c0,3.1,0,6.3-0.7,9.2c-0.3,1.4-2.2,2.5-3.4,3.7c-0.9-1.4-2.5-2.7-2.7-4.2c-0.5-3.9-0.4-7.8-0.5-11.7
		c0-1.1,0-2.1,0-4c-4.8,2.9-8.9,5.3-12.9,8c-0.7,0.5-1.2,1.7-1.2,2.6c-0.1,4.8-0.4,9.7,0.2,14.5c0.5,4,1.5,8.2,3.1,11.8
		c2.6,5.6,7.9,7.3,13.6,4.9c5.3-2.2,9.1-6.2,12.2-10.9c5.3-8,7.4-17.1,7.4-26.5c0.1-31.8,0-63.7-0.1-95.5
		C154.3,256.2,154.2,255.4,154.1,253.8z M211.5,307.4c-0.4-0.1-0.8-0.2-1.2-0.3c-2.6,1.8-5.3,3.5-7.9,5.3c-7.2,5-7.2,5-6.7,13.8
		c0.4,6.1,0.8,12.3,1.2,19.2c3-2.1,5.1-4.1,7.6-5.4c6.1-3.1,8-7.7,7.1-14.5C210.9,319.5,211.5,313.4,211.5,307.4z M365.6,207.1
		c-0.5-0.2-1-0.3-1.6-0.5c-3.8,2.8-7.5,5.6-11.3,8.2c-1.8,1.3-2.4,2.7-2.4,4.9c0.2,7.3,0.3,14.7,0.5,22c0,0.7,0.2,1.4,0.5,2.5
		c4.6-2.9,8.9-5.5,13.1-8.2c0.6-0.4,1.2-1.5,1.2-2.2C365.6,224.9,365.6,216,365.6,207.1z"/>
	<path class="st1" d="M46.9,306.9c1.4-2.1,2.7-4.2,4.1-6.3c10.5-16.8,21.4-33.5,31.5-50.6c7.2-12.2,11.6-25.6,12.6-40
		c1.4-21.1-4.1-40.2-16-57.6c-3.2-4.6-6.8-9-10.4-13.3c-1.4-1.6-1.5-2.7-0.2-4.4c21-29.4,41.8-58.8,62.8-88.2c0.8-1.1,2.8-2,4.2-1.9
		c18.7,1.4,37.3,3.1,56,4.4c17.3,1.2,34.6,2.3,52,2.8c27,0.8,54,1.6,81,1.3c28-0.4,56-2,84-3.3c11-0.5,21.9-1.9,33.3-2.1
		C310.3,134.3,178.9,220.9,47.5,307.5C47.3,307.3,47.1,307.1,46.9,306.9z M166.5,192.9c33.1,0,59.9-26.6,60-59.6
		c0-32.9-26.6-59.6-59.5-59.7c-33.2-0.1-60,26.5-60.1,59.5C106.8,166.2,133.4,192.8,166.5,192.9z"/>
	<path class="st1" d="M399.2,527.5c0-1.7,0-3,0-4.2c-0.2-94.5-0.3-189-0.5-283.5c0-3.7,1-5.9,4.2-8.1c28-18.3,55.8-36.8,83.7-55.3
		c1.2-0.8,2.4-1.5,4.1-2.6c0.1,1.6,0.3,2.5,0.3,3.5c-0.3,95.7-0.6,191.5-1.1,287.2c0,1.7-0.9,3.9-2.2,5
		c-26.3,22.8-55.4,41.3-86.3,57.1C400.9,526.9,400.3,527,399.2,527.5z"/>
	<path class="st1" d="M325.9,283.1c0,10.9,0,21,0,31.1c0.2,58.6,0.3,117.3,0.5,175.9c0.1,21.5,0.2,43,0.4,64.5
		c0,2.9-0.9,4.3-3.7,5.1c-7.7,2.4-15.2,5.1-22.9,7.4c-1.9,0.6-4.4,0.6-6.2-0.1c-17.5-6.3-34.8-13.1-52.3-19.2
		c-4.6-1.6-5.8-4.1-5.9-8.7c-0.2-33.5-0.6-66.9-0.9-100.3c-0.4-30.5-0.8-60.9-1.3-91.4c0-2.5,0.7-3.9,2.8-5.3
		c28.7-18.9,57.3-37.9,85.9-56.9C323.2,284.7,324.1,284.2,325.9,283.1z"/>
	<path class="st1" d="M81.6,445c26.4-17.6,52.6-35.1,79.8-53.2c0,39.4,0,77.8,0,116.1C147.7,503.7,93.3,461,81.6,445z"/>
	<path class="st1" d="M437.6,109.4c-0.4-4.5-0.8-8.3-1.1-12.1c-0.1-0.6,0-1.3-0.3-1.7c-1.2-1.6-2.6-3.2-3.9-4.8
		c-1.6,1.3-4,2.4-4.6,4.1c-1.2,3.4-1.8,7.1-1.8,10.7c-0.2,19.9-0.1,39.8-0.1,59.7c0,0.9,0,2,0.4,2.7c0.7,1.4,1.8,3.7,2.7,3.7
		c1.8,0.1,4.6-0.7,5.2-2c1.5-3.2,2.5-6.9,2.9-10.4c0.5-4.7,0.1-9.4,0.5-14.1c0.1-1.4,1.1-3.2,2.3-4.1c3.5-2.6,7.4-4.9,11-7.3
		c0.5,0.5,0.7,0.7,0.7,0.9c1.7,20.6-0.1,40.3-15.2,56.3c-3.5,3.7-7.5,6.5-12.7,6.8c-6.3,0.4-10.6-2.9-11.9-9
		c-0.4-1.8-0.6-3.6-0.6-5.5c-0.3-24-0.4-48-1-72.1c-0.4-16.3,6-29.2,18.1-39.6c1.9-1.6,4-3.1,6.2-4.3c6-3.1,11.4-1.5,13.9,4.8
		c1.9,4.8,2.4,10.2,3.5,15.3c0.2,1.1-0.2,2.4,0.2,3.4c2.4,7.4-1,11.5-7.4,14.4C442.2,106.4,440.2,107.9,437.6,109.4z"/>
	<path class="st1" d="M285.6,286.9c-0.8-7.6-1.4-14.4-2.2-21.9c-3.7,2.8-7,5.1-10,7.6c-0.7,0.5-0.9,1.8-1,2.7
		c-0.5,6.2-1,12.4-1.4,18.6c-0.1,2.3-0.9,4-3,5.4c-4,2.6-7.8,5.5-12.5,8.8c0.4-4.8,0.7-8.6,1-12.5c2-20.8,4.1-41.6,6.1-62.4
		c1.6-16.7,3.2-33.4,4.9-50.1c0.1-1.2,0.6-2.7,1.4-3.3c5.8-4.3,11.7-8.4,18.2-13c0.6,4.9,1.3,9.1,1.8,13.4c2.6,22.3,5.2,44.7,7.8,67
		c1,8.7,2.1,17.3,3.2,26c0.3,2.6-0.2,4.3-2.6,5.7C293.5,281.2,289.8,284,285.6,286.9z M278.2,203c-0.2,0-0.4,0.1-0.6,0.1
		c-1.2,15.3-2.5,30.6-3.7,46.4c2.1-1.3,3.7-2.4,5.4-3.2c2.2-1.1,2.8-2.6,2.5-5C280.5,228.6,279.4,215.8,278.2,203z"/>
	<path class="st1" d="M154.1,253.8c0.1,1.6,0.3,2.4,0.3,3.2c0.1,31.8,0.2,63.7,0.1,95.5c0,9.4-2.1,18.5-7.4,26.5
		c-3.1,4.7-6.9,8.7-12.2,10.9c-5.8,2.4-11,0.8-13.6-4.9c-1.7-3.7-2.7-7.8-3.1-11.8c-0.5-4.8-0.2-9.6-0.2-14.5c0-0.9,0.5-2.2,1.2-2.6
		c4-2.6,8.1-5.1,12.9-8c0,1.8,0,2.9,0,4c0.1,3.9,0,7.8,0.5,11.7c0.2,1.5,1.8,2.8,2.7,4.2c1.2-1.2,3.1-2.3,3.4-3.7
		c0.7-3,0.7-6.1,0.7-9.2c-0.2-28.6-0.5-57.2-0.9-85.9c0-2.8,0.7-4.7,3.1-6.3C145.6,260.1,149.5,257.1,154.1,253.8z"/>
	<path class="st1" d="M211.5,307.4c0,6-0.6,12.1,0.2,18.1c0.9,6.8-1,11.4-7.1,14.5c-2.5,1.3-4.6,3.3-7.6,5.4
		c-0.4-6.9-0.8-13-1.2-19.2c-0.5-8.8-0.5-8.8,6.7-13.8c2.6-1.8,5.2-3.6,7.9-5.3C210.7,307.1,211.1,307.3,211.5,307.4z"/>
	<path class="st1" d="M365.6,207.1c0,8.9,0,17.8-0.1,26.7c0,0.8-0.5,1.8-1.2,2.2c-4.2,2.8-8.5,5.4-13.1,8.2
		c-0.2-1.1-0.4-1.8-0.5-2.5c-0.2-7.3-0.2-14.7-0.5-22c-0.1-2.2,0.6-3.6,2.4-4.9c3.8-2.7,7.5-5.5,11.3-8.2
		C364.5,206.8,365,206.9,365.6,207.1z"/>
	<path class="st0" d="M166.5,192.9c-33.1,0-59.7-26.7-59.7-59.9c0-33,26.9-59.6,60.1-59.5c32.9,0.1,59.6,26.8,59.5,59.7
		C226.4,166.3,199.7,192.9,166.5,192.9z M135.7,98.2c-1.3,0-2.6,0.2-3.8,0c-3.8-0.7-6.1,1.1-8.2,4.1c-6.2,8.8-9.3,18.5-10.1,29.2
		c-0.3,3.9,0.6,6.9,4,9.1c1.9,1.2,3.6,2.8,5.3,4.4c1.5,1.4,2.7,1.6,4.4,0.3c7.2-5,14.5-9.8,21.6-14.7c1-0.7,2-1.9,2.4-3.1
		c2.5-7.4,3.3-14.7-2.5-21.1c-0.2-0.2-0.3-0.4-0.4-0.6C146.2,99.9,142.5,96.4,135.7,98.2z M169.9,162.8c-3.1,9.2,1.2,15,8.7,19.5
		c2,1.2,3.6,1.9,5.6,0.8c5.6-3.2,11.2-6.2,16.6-9.6c5.1-3.2,6.9-7.3,5-13.6c-1.3-4.2-2.5-7.5-6.6-9.6c-3.4-1.8-6.8-3.9-9.8-6.4
		c-3.5-2.9-6.1-2.2-9.9-0.1C171.7,148.1,166.7,153.3,169.9,162.8z M203,103.7c-2.8,0.5-6.6,0-8.2,1.6c-5.8,5.9-13.4,11.5-9.7,21.8
		c0.3,0.8,0.2,1.8,0.2,2.7c0.1,2.4,1,4,3.2,5.2c4.2,2.4,8.6,4.6,12.2,7.7c5.6,4.8,10.6,4.6,15.9-0.1c0.2-0.1,0.5-0.2,0.6-0.4
		c0.7-1.1,1.9-2.1,2-3.3c0.9-9.9-0.2-19.5-4.8-28.5C210,101.9,211.9,103.8,203,103.7z M151.3,139c-7.4,5.2-14.5,10.2-21.5,15.4
		c-0.8,0.6-1.4,1.8-1.5,2.9c-0.4,2.8-0.9,5.7-0.7,8.6c0.1,1.6,0.7,3.8,1.9,4.7c5.3,4,10.8,7.6,16.3,11.3c2.2,1.5,4.4,1.1,6.6-0.5
		c2.8-2,6-3.4,8.7-5.5c1.2-0.9,2.2-2.6,2.3-4c0.3-6.2,0.3-12.4,0.2-18.6c0-1.2-0.3-2.6-1-3.4C159,146.2,155.2,142.8,151.3,139z
		 M169.1,111.9c2.9-0.3,6.7,0.5,8.6-1c7-5.6,15.1-11.1,11.1-22.4c-0.2-0.5,0-1.2-0.3-1.7c-0.6-1-1.3-2.3-2.2-2.6
		c-11-4.4-22.2-5.2-33.6-1.9c-1,0.3-2.2,1.6-2.4,2.7c-1,6.2-1.3,12.3,3.9,17.1c0.7,0.7,1.3,1.6,1.8,2.5
		C158.7,110,162.5,113.5,169.1,111.9z"/>
	<path class="st0" d="M278.2,203c1.2,12.8,2.3,25.6,3.6,38.4c0.2,2.4-0.4,3.9-2.5,5c-1.7,0.8-3.3,1.9-5.4,3.2
		c1.3-15.9,2.5-31.2,3.7-46.4C277.8,203.1,278,203.1,278.2,203z"/>
	<path class="st1" d="M135.7,98.2c6.8-1.8,10.5,1.7,12.8,7.6c0.1,0.2,0.2,0.4,0.4,0.6c5.8,6.4,5,13.7,2.5,21.1
		c-0.4,1.2-1.4,2.4-2.4,3.1c-7.2,5-14.5,9.7-21.6,14.7c-1.8,1.2-3,1.1-4.4-0.3c-1.6-1.6-3.4-3.2-5.3-4.4c-3.4-2.2-4.3-5.2-4-9.1
		c0.8-10.7,3.9-20.4,10.1-29.2c2.1-3,4.4-4.8,8.2-4.1C133.1,98.4,134.4,98.2,135.7,98.2z"/>
	<path class="st1" d="M169.9,162.8c-3.2-9.6,1.7-14.7,9.6-19.1c3.8-2.1,6.4-2.8,9.9,0.1c3,2.5,6.4,4.6,9.8,6.4
		c4,2.1,5.3,5.4,6.6,9.6c1.9,6.3,0.1,10.5-5,13.6c-5.4,3.4-11,6.5-16.6,9.6c-2,1.1-3.6,0.5-5.6-0.8
		C171.2,177.8,166.8,172,169.9,162.8z"/>
	<path class="st1" d="M203,103.7c8.8,0.1,7-1.8,11.4,6.8c4.5,8.9,5.7,18.6,4.8,28.5c-0.1,1.1-1.3,2.2-2,3.3
		c-0.1,0.2-0.4,0.2-0.6,0.4c-5.3,4.7-10.3,4.9-15.9,0.1c-3.6-3.1-8-5.3-12.2-7.7c-2.2-1.2-3.1-2.9-3.2-5.2c0-0.9,0.1-1.9-0.2-2.7
		c-3.7-10.3,3.9-15.9,9.7-21.8C196.5,103.7,200.3,104.2,203,103.7z"/>
	<path class="st1" d="M151.3,139c4,3.8,7.7,7.2,11.2,10.8c0.7,0.8,1,2.3,1,3.4c0,6.2,0.1,12.4-0.2,18.6c-0.1,1.4-1.1,3.2-2.3,4
		c-2.7,2-5.9,3.5-8.7,5.5c-2.2,1.6-4.4,2-6.6,0.5c-5.5-3.7-11-7.3-16.3-11.3c-1.2-0.9-1.8-3.1-1.9-4.7c-0.1-2.8,0.3-5.7,0.7-8.6
		c0.2-1,0.7-2.3,1.5-2.9C136.8,149.2,143.9,144.2,151.3,139z"/>
	<path class="st1" d="M169.1,111.9c-6.6,1.6-10.4-1.9-13.1-7.3c-0.5-0.9-1-1.8-1.8-2.5c-5.2-4.8-4.9-11-3.9-17.1
		c0.2-1,1.4-2.4,2.4-2.7c11.4-3.3,22.7-2.5,33.6,1.9c0.9,0.4,1.6,1.7,2.2,2.6c0.3,0.4,0.1,1.1,0.3,1.7c3.9,11.2-4.2,16.8-11.1,22.4
		C175.8,112.4,172,111.6,169.1,111.9z"/>
</g>
</svg>
