<?xml version="1.0" encoding="utf-8"?>
<!-- Generator: Adobe Illustrator 27.9.0, SVG Export Plug-In . SVG Version: 6.00 Build 0)  -->
<svg version="1.1" id="Layer_1" xmlns="http://www.w3.org/2000/svg" xmlns:xlink="http://www.w3.org/1999/xlink" x="0px" y="0px"
	 viewBox="0 0 850.4 850.4" style="enable-background:new 0 0 850.4 850.4;" xml:space="preserve">
<style type="text/css">
	.st0{fill-rule:evenodd;clip-rule:evenodd;fill:#014E06;}
	.st1{fill-rule:evenodd;clip-rule:evenodd;fill:#FDFA00;}
	.st2{fill-rule:evenodd;clip-rule:evenodd;fill:#FEFB00;}
	.st3{fill-rule:evenodd;clip-rule:evenodd;fill:#7D911F;}
	.st4{fill-rule:evenodd;clip-rule:evenodd;fill:#FBFCFB;}
	.st5{fill-rule:evenodd;clip-rule:evenodd;fill:#0F5411;}
	.st6{fill-rule:evenodd;clip-rule:evenodd;fill:#0E5411;}
	.st7{fill-rule:evenodd;clip-rule:evenodd;fill:#135614;}
	.st8{fill-rule:evenodd;clip-rule:evenodd;fill:#F4F7F4;}
	.st9{fill-rule:evenodd;clip-rule:evenodd;fill:#F6F8F6;}
	.st10{fill-rule:evenodd;clip-rule:evenodd;fill:#F2F6F2;}
	.st11{fill-rule:evenodd;clip-rule:evenodd;fill:#0F5512;}
	.st12{fill-rule:evenodd;clip-rule:evenodd;fill:#0D5310;}
	.st13{fill-rule:evenodd;clip-rule:evenodd;fill:#105512;}
	.st14{fill-rule:evenodd;clip-rule:evenodd;fill:#0C530F;}
	.st15{fill-rule:evenodd;clip-rule:evenodd;fill:#0B530F;}
	.st16{fill-rule:evenodd;clip-rule:evenodd;fill:#94B597;}
	.st17{fill-rule:evenodd;clip-rule:evenodd;fill:#DBE6DC;}
	.st18{fill-rule:evenodd;clip-rule:evenodd;fill:#0A520E;}
	.st19{fill-rule:evenodd;clip-rule:evenodd;fill:#0E5410;}
	.st20{fill-rule:evenodd;clip-rule:evenodd;fill:#9FBBA1;}
	.st21{fill-rule:evenodd;clip-rule:evenodd;fill:#93B395;}
	.st22{fill-rule:evenodd;clip-rule:evenodd;fill:#F1F5F2;}
	.st23{fill-rule:evenodd;clip-rule:evenodd;fill:#A1BDA3;}
	.st24{fill-rule:evenodd;clip-rule:evenodd;fill:#D8E4D9;}
	.st25{fill-rule:evenodd;clip-rule:evenodd;fill:#0F5511;}
	.st26{fill-rule:evenodd;clip-rule:evenodd;fill:#ECF1EC;}
	.st27{fill-rule:evenodd;clip-rule:evenodd;fill:#115513;}
	.st28{fill-rule:evenodd;clip-rule:evenodd;fill:#065006;}
	.st29{fill-rule:evenodd;clip-rule:evenodd;fill:#065007;}
	.st30{fill-rule:evenodd;clip-rule:evenodd;fill:#085007;}
	.st31{fill-rule:evenodd;clip-rule:evenodd;fill:#FBF802;}
	.st32{fill-rule:evenodd;clip-rule:evenodd;fill:#F5F8F5;}
	.st33{fill-rule:evenodd;clip-rule:evenodd;fill:#115613;}
	.st34{fill-rule:evenodd;clip-rule:evenodd;fill:#165816;}
	.st35{fill-rule:evenodd;clip-rule:evenodd;fill:#94B598;}
	.st36{fill-rule:evenodd;clip-rule:evenodd;fill:#8DB091;}
	.st37{fill-rule:evenodd;clip-rule:evenodd;fill:#0B530E;}
	.st38{fill-rule:evenodd;clip-rule:evenodd;fill:#89AD8D;}
	.st39{fill-rule:evenodd;clip-rule:evenodd;fill:#F0F5F1;}
	.st40{fill-rule:evenodd;clip-rule:evenodd;fill:#0B520E;}
	.st41{fill-rule:evenodd;clip-rule:evenodd;fill:#135715;}
	.st42{fill-rule:evenodd;clip-rule:evenodd;fill:#7B9B1A;}
	.st43{fill-rule:evenodd;clip-rule:evenodd;fill:#08520C;}
	.st44{fill-rule:evenodd;clip-rule:evenodd;fill:#FCFA00;}
	.st45{fill-rule:evenodd;clip-rule:evenodd;fill:#9CBA9E;}
	.st46{fill-rule:evenodd;clip-rule:evenodd;fill:#FCF900;}
	.st47{fill-rule:evenodd;clip-rule:evenodd;fill:#FBF900;}
	.st48{fill-rule:evenodd;clip-rule:evenodd;fill:#BAB359;}
	.st49{fill-rule:evenodd;clip-rule:evenodd;fill:#BBB45C;}
	.st50{fill-rule:evenodd;clip-rule:evenodd;fill:#BBB771;}
	.st51{fill-rule:evenodd;clip-rule:evenodd;fill:#FAF800;}
</style>
<g>
	<g>
		<path class="st0" d="M680.3-2.5c0.9,0,1.7,0,2.6,0c32.3,0.9,64.8,1.1,97.4,0.9c0,109.9,0,219.9,0,329.8
			c-5.5,48.3-15.9,95.6-31.2,141.8c-18.1,49.4-41.7,96.1-70.9,140.1c-41.7,60-90.5,113.7-146.5,161.1c-5.7,5.1-11.4,10.2-17.1,15.4
			c-28.4,22-56.5,44-84.6,66.2c-2.6,0-5.1,0-7.7,0c-2.7-2.8-5.5-5.5-8.5-8.1C355.1,803.2,300.5,756.7,250,705
			c-7-9.6-15-18.4-23.9-26.5c-5.6-8.7-12.2-16.7-19.7-23.9c-2.2-4.7-5.3-8.7-9.4-12c-4.9-7.8-10-15.5-15.4-23.1
			c-3.1-2.8-5.5-6.2-7.3-10.3c-1.4-1-2.7-2.1-3.8-3.4c-0.9-3.9-2.9-7-6-9.4c-3.7-7.1-7.4-14.3-11.1-21.4c-4.1-4.7-7.5-9.8-10.3-15.4
			c-0.3-1.4-0.6-2.8-0.9-4.3c-6.4-10.2-12.1-20.7-17.1-31.6c-4.3-9-8-18.4-11.1-28.2c-2.4-2.3-3.5-5.2-3.4-8.5
			c-13.4-32.4-23.1-66-29.1-100.8c-2.2-6-3.4-12.3-3.4-18.8c-1.4-2.7-1.8-5.4-1.3-8.1c-2.4-18.5-4.7-36.8-6.8-55.1
			c0-102,0-203.9,0-305.9c35.6-0.1,71.2,0,106.8,0.4c9.8,13.2,20.6,25.8,32.5,37.6c4.8,3.4,9.4,7.1,13.7,11.1
			c9,5.6,18.4,10.5,28.2,14.5c23.7,4.8,45.9,1.1,66.6-11.1c21.1-13.1,38.9-29.8,53.4-50c1-1.2,2.3-1.9,3.8-2.1
			c34.7-0.6,69.5-0.6,104.2,0c15.2,20.6,33.5,38,54.7,52.1c20.9,13,43.4,16.7,67.5,11.1c23.1-9.1,42.1-23.5,57.3-43.2
			c1.2-1,2.5-1.8,3.8-2.6c4-4.9,7.7-10,11.1-15.4C675.8-0.8,677.9-1.9,680.3-2.5z"/>
	</g>
	<g>
		<path class="st1" d="M114.6,24.9c6.8-0.1,13.7,0,20.5,0.4c1.3,1.3,2.6,2.6,3.8,3.8c43.1,61.2,86.2,122.3,129.5,183.3
			c-4.2,3.9-8.6,7.5-13.2,10.7c-1.1-0.2-1.9-0.8-2.6-1.7c-45.2-65.1-91.1-129.8-137.6-194C114.6,26.6,114.5,25.8,114.6,24.9z"/>
	</g>
	<g>
		<path class="st2" d="M434.2,24.9c4.9-0.1,9.7,0,14.5,0.4c0.8,0.3,1.5,0.7,2.1,1.3c0.6,43.6,0.6,87.2,0,130.7
			c-1.2,0.5-2.5,0.8-3.8,0.9c-4.5-0.4-8.9-1-13.2-1.7C433,112.5,433.2,68.7,434.2,24.9z"/>
	</g>
	<g>
		<path class="st1" d="M753.7,27.4c1.1,4.7,1.7,9.6,1.7,15c0.1,5.6-0.3,11.2-1.3,16.7c-44.2,61.6-88.1,123.4-131.6,185.4
			c-1,1.6-2.2,2.3-3.8,2.1c-3.5-3.9-7-7.8-10.7-11.5c-0.3-1.2,0-2.3,0.9-3.4C657.6,163.9,705.9,95.8,753.7,27.4z"/>
	</g>
	<g>
		<path class="st2" d="M376.1,37.7c1.5-0.1,2.4,0.6,2.6,2.1c-0.7,40.3-1.1,80.6-1.3,120.9c-23.2,5.6-45.6,13.7-67.1,24.4
			c-7.2,4.2-14.5,8.4-21.8,12.4c-1.4-0.5-2.5-1.4-3.4-2.6C251.2,146.7,217.2,98.5,183,50.5c0.4-0.9,1-1,1.7-0.4
			c54.1,52.9,110.8,55.7,170,8.5c4.3-3.7,8.5-7.4,12.8-11.1C370.9,44.6,373.7,41.3,376.1,37.7z"/>
	</g>
	<g>
		<path class="st2" d="M667.4,51.4c0.6,0,0.9,0.3,0.9,0.9c-34.1,48.3-68.2,96.6-102.5,144.8c-1.1,0.6-2.3,0.6-3.4,0
			c-26.5-17-55.3-28.7-86.3-35c-0.6-40.4-1.1-80.9-1.7-121.3c0.2-1.7,1.1-2.2,2.6-1.7c20.7,22.5,45.5,38.7,74.3,48.7
			c23.2,6.6,46,5.4,68.4-3.4c8.6-3.9,16.9-8.5,24.8-13.7C652.5,64.6,660.2,58.2,667.4,51.4z"/>
	</g>
	<g>
		<path class="st3" d="M668.3,52.2c0-0.6-0.3-0.9-0.9-0.9c0.8-1.2,1.8-2.4,3-3.4C670.4,49.6,669.6,51,668.3,52.2z"/>
	</g>
	<g>
		<path class="st2" d="M753.7,99.2c1.1,33.5,1.7,67.2,1.7,101.3c13.6,171.4-34.5,322.2-144.4,452.4c-11.7-15-23-30.4-33.8-46.1
			c-0.6-1.1-0.6-2.3,0-3.4c77.5-63,109.1-144.2,94.8-243.5c-6.6-33.1-18.9-63.7-37.2-91.9C674.7,211.8,714.3,155.6,753.7,99.2z"/>
	</g>
	<g>
		<path class="st2" d="M257.3,588.8c0.9,1.8,2.4,2.9,4.3,3.4c4.2,4.1,8.6,8.1,13.2,12c0.6,1.1,0.6,2.3,0,3.4
			c-11,15.1-21.9,30.2-32.9,45.3c-87.7-101.8-135.7-220.3-144-355.5c-0.3-65.5-0.6-131-0.9-196.5c0.6-0.8,1.3-1,2.1-0.4
			C138.5,156.6,178.1,212.4,218,268c-42.4,65-52.8,134.9-31.2,209.8C200.6,521,224.1,558.1,257.3,588.8z"/>
	</g>
	<g>
		<path class="st4" d="M594.8,227.4c0.9,2.6,2.6,4.3,5.1,5.1c0.9,0.3,1.4,0.9,1.7,1.7c1.4,2.8,3.4,5.1,6,6.8
			c36.9,39.6,58.1,86.6,63.7,141c5.6,72.5-15.9,135.5-64.5,188.8c-2.6,0.9-4.3,2.6-5.1,5.1c-0.3,0.9-0.9,1.4-1.7,1.7
			c-2.6,0.9-4.3,2.6-5.1,5.1c-61.7,55-133.8,75.6-216.2,61.9c-46-8.9-85.9-29.3-119.6-61.1c-1.8-2.6-4-4.6-6.8-6
			c-0.9-0.3-1.4-0.9-1.7-1.7c-0.9-2.6-2.6-4.3-5.1-5.1c-54.4-60.8-74.8-131.7-61.1-212.8c16.7-75.3,58.7-131.6,126-168.8
			c57.9-29.2,118.2-35.8,181.2-19.7C530.8,180.6,565.3,199.8,594.8,227.4z"/>
	</g>
	<g>
		<path class="st5" d="M427.3,185.5c14.8-0.4,21,6.7,18.4,21.4c-4.8,10-12.4,12.7-22.6,8.1c-7.5-6.8-8.7-14.6-3.8-23.5
			C421.4,188.6,424.1,186.6,427.3,185.5z"/>
	</g>
	<g>
		<path class="st6" d="M456.4,187.2c6.7,0.7,13.2,2,19.7,3.8c4.6,4.6,4.6,9.1,0,13.7c-1.6,0.8-3.3,1.4-5.1,1.7
			c3.3,4.5,5.6,9.5,6.8,15c-2.3,0-4.4-0.5-6.4-1.7c-1.3-4.8-3.5-9.2-6.4-13.2c-2.1-1.1-4.4-1.5-6.8-1.3c-0.4,4-1,8-1.7,12
			c-1.7,0-3.4,0-5.1,0C452.1,207,453.8,197,456.4,187.2z"/>
	</g>
	<g>
		<path class="st7" d="M396.6,187.2c11.6-0.5,15.5,4.6,11.5,15.4c-4.6,2.7-9.6,4.1-15,4.3c0.5,4,1.1,8,1.7,12c-2,0-4,0-6,0
			c-1.2-10-2.4-19.9-3.4-29.9C389.3,188.6,393,188,396.6,187.2z"/>
	</g>
	<g>
		<path class="st8" d="M429,189.8c4.7-0.1,8.3,1.9,10.7,6c0.6,3.7,0.6,7.4,0,11.1c-4.2,6.7-9.3,7.6-15.4,2.6
			C420.3,201.4,421.9,194.8,429,189.8z"/>
	</g>
	<g>
		<path class="st9" d="M392.3,192.4c3.7-0.3,7.4,0,11.1,0.9c1.6,3.1,1,5.5-1.7,7.3c-3.1,0.9-6.2,1.4-9.4,1.3
			C391.6,198.5,391.6,195.4,392.3,192.4z"/>
	</g>
	<g>
		<path class="st10" d="M460.7,192.4c4.6-0.2,8.7,0.9,12.4,3.4c0.8,2.2,0.3,4-1.3,5.6c-4,0.4-8,0.3-12-0.4
			C459.7,198,460,195.1,460.7,192.4z"/>
	</g>
	<g>
		<path class="st6" d="M486.3,194.1c7.6,1.5,15,3.7,22.2,6.4c1.4,1.2,2,2.8,1.7,4.7c-3.2-0.2-6.2-1-9-2.6c-0.7,0.1-1.2,0.4-1.7,0.9
			c-2.7,7.6-5.1,15.3-7.3,23.1c-1.7-0.3-3.4-0.6-5.1-0.9c2-8.4,4.6-16.7,7.7-24.8c-2.5-1.2-5-2.2-7.7-3
			C486.4,196.7,486.1,195.5,486.3,194.1z"/>
	</g>
	<g>
		<path class="st11" d="M364.1,194.1c3.9-0.4,7.7,0.3,11.1,2.1c1.5,1.6,2.3,3.4,2.6,5.6c-3.1,1.8-5.4,1-6.8-2.1
			c-3-0.7-5.8-0.4-8.5,0.9c-2.2,2-2.2,4,0,6c5.1,0.3,10.3,0.6,15.4,0.9c4,2.8,5.3,6.6,3.8,11.5c-4.4,5.8-10.2,8-17.5,6.4
			c-3.5-1.7-5.5-4.4-6-8.1c1.3,0,2.6-0.3,3.8-0.9c4.5,5.4,9.3,5.6,14.5,0.9c0.7-1.9,0.3-3.5-1.3-4.7c-4.8-0.3-9.7-0.6-14.5-0.9
			c-1.4-0.6-2.6-1.3-3.8-2.1c-1.3-3-1.6-6.2-0.9-9.4C358.1,197.1,360.9,195.2,364.1,194.1z"/>
	</g>
	<g>
		<path class="st12" d="M341.9,202.6c3.1-0.1,4,1.3,3,4.3c-4.9,2.2-9.6,4.7-14.1,7.7c1,2,2,4,3,6c4.6-2.4,9.3-4.6,14.1-6.8
			c1.7,1.5,1.9,3.2,0.9,5.1c-4.1,2.1-8.2,4.1-12.4,6c0.7,2.5,1.4,5.1,2.1,7.7c5.4-1.9,10.6-4.2,15.8-6.8c1.6,0.6,2.6,1.7,3,3.4
			c-6.5,3.8-13.4,7.3-20.5,10.3c-4.6-8.8-8.9-17.8-12.8-26.9c0.1-0.7,0.4-1.2,0.9-1.7C330.7,208.2,336.4,205.5,341.9,202.6z"/>
	</g>
	<g>
		<path class="st13" d="M517.1,204.3c1.8,0.5,3.5,1.2,5.1,2.1c-3.9,9.3-8.3,18.3-13.2,26.9c-1.7-0.3-2.9-1.2-3.8-2.6
			C509.3,222.1,513.3,213.2,517.1,204.3z"/>
	</g>
	<g>
		<path class="st14" d="M528.2,208.6c2.8,0.2,4.5,1.6,5.1,4.3c-1.4,7.7-2.6,15.4-3.8,23.1c6.1-5,12.2-10,18.4-15
			c2-0.4,3.7,0.1,5.1,1.7c-8.4,6.9-16.9,13.6-25.6,20.1c-2.3-0.7-3.4-2.3-3.4-4.7C525.3,228.2,526.7,218.4,528.2,208.6z"/>
	</g>
	<g>
		<path class="st15" d="M301.7,224c2.5,1.1,3.4,2.8,2.6,5.1c-4.4,2.8-8.7,5.8-12.8,9c1.6,2.1,3.1,4.3,4.7,6.4
			c3.6-3.3,7.5-6.3,11.5-9c2.5,0,3.5,1.3,3,3.8c-4.1,2.7-7.9,5.7-11.5,9c1.3,1.9,2.6,3.7,3.8,5.6c0.6,0.8,1.3,1,2.1,0.4
			c4.3-3.3,8.5-6.6,12.8-9.8c3.4,2,3.4,4.2,0,6.4c-4.8,3.6-9.7,7.1-14.5,10.7c-6.7-7.6-12.9-15.6-18.8-23.9
			C290.4,233.1,296.1,228.5,301.7,224z"/>
	</g>
	<g>
		<path class="st16" d="M594.8,227.4c2,1.4,3.7,3.1,5.1,5.1C597.4,231.7,595.7,229.9,594.8,227.4z"/>
	</g>
	<g>
		<path class="st6" d="M561.5,230.8c2.7-0.3,4.7,0.7,6,3c-2.8,9.8-5.5,19.6-8.1,29.5c-2.7,1-4.6,0-5.6-3c0.8-2.5,1.6-4.9,2.6-7.3
			c-2.6-2.8-5.6-5.1-9-6.8c-2.8,1-5.4,2.4-7.7,4.3c-1.7-0.7-3-1.8-3.8-3.4C544.5,241.6,553,236.2,561.5,230.8z"/>
	</g>
	<g>
		<path class="st0" d="M412,231.7c9.7-0.1,19.4,0,29.1,0.4c5.8,0.1,11.5,1,17.1,2.6c1.2,1.8,1.8,3.8,1.7,6
			c-0.8,9.9-2.1,19.7-3.8,29.5c-0.6,2.8-0.6,5.7,0,8.5c0.7,0.7,1.4,1.4,2.1,2.1c11.8,4.6,23.5,9.5,35,14.5c1.6,0.6,2.9,0.2,3.8-1.3
			c7.6-10.8,15.7-21.2,24.4-31.2c1.7-0.6,3.4-0.6,5.1,0c16,10.9,29.8,24.1,41.4,39.7c3.1,4.3,2.7,8.1-1.3,11.5
			c-4.9,4-10,7.7-15.4,11.1c-5.1,4.1-9.9,8.4-14.5,12.8c5.3,12,10.3,24.1,15,36.3c0.5,1.4,1.4,2.5,2.6,3.4c10-1.9,20.1-3.5,30.3-4.7
			c4-0.6,8-0.6,12,0c1.3,1.3,2,2.8,2.1,4.7c3.1,20,2.8,39.9-0.9,59.8c-0.4,0.4-0.9,0.9-1.3,1.3c-2.3,0.1-4.6,0.3-6.8,0.4
			c-12.3-1.3-24.5-2.6-36.7-3.8c-5.5,12.9-10.9,25.9-16.2,38.9c10.4,8.8,21.1,17.4,32,25.6c1.6,2.8,1.6,5.7,0,8.5
			c-11.9,15.6-25.7,29.1-41.4,40.6c-2.7,0.7-5.2,0.4-7.7-0.9c-7.5-11.2-15.9-21.6-25.2-31.2c-12.8,4.9-25.4,10-38,15.4
			c-0.5,1.7-0.8,3.4-0.9,5.1c2.4,12.7,3.7,25.5,3.8,38.5c-0.8,1-1.8,1.7-3,2.1c-20.9,4.2-41.7,3.9-62.4-0.9
			c-1.3-1.6-1.9-3.4-1.7-5.6c2.1-12.8,3.7-25.6,4.7-38.5c-12.9-6-26-11.7-39.3-17.1c-8.4,10.7-16.8,21.4-25.2,32
			c-2.2,1.2-4.4,1.5-6.8,0.9c-16.7-11.6-30.8-25.7-42.3-42.3c-1.2-3.8-0.2-6.7,3-9c10.1-7.7,20.1-15.5,29.9-23.5
			c-5.5-12.4-10.8-24.9-15.8-37.6c-0.7-1.1-1.7-1.7-3-1.7c-9.4,1.4-18.8,2.7-28.2,3.8c-4.3,0.6-8.5,0.6-12.8,0
			c-1.9-1.3-2.9-3.2-3-5.6c-1.7-18.2-1.7-36.5,0-54.7c0.4-2.2,1.4-4,3-5.6c4-0.6,8-0.6,12,0c9.9,1.2,19.8,2.8,29.5,4.7
			c1.5-1.2,2.6-2.6,3.4-4.3c4.9-12,9.9-23.9,15-35.9c-10.4-8.6-21.1-16.8-32-24.8c-1.7-3.1-1.7-6.3,0-9.4
			c11.9-15.6,25.7-29.1,41.4-40.6c2.4-0.6,4.7-0.4,6.8,0.9c7.3,9.5,14.5,19.1,21.8,28.6c1.2,1.5,2.6,2.6,4.3,3.4
			c12.4-5.1,24.8-10.4,37.2-15.8c1.1-0.7,1.7-1.7,1.7-3c-1.5-10.8-3.1-21.7-4.7-32.5c-0.6-2.6-0.6-5.1,0-7.7c1-1.3,2.3-2.3,3.8-3
			C401.8,233.2,407,232.4,412,231.7z"/>
	</g>
	<g>
		<path class="st16" d="M601.6,234.2c2.6,1.8,4.6,4,6,6.8C605,239.3,603,237,601.6,234.2z"/>
	</g>
	<g>
		<path class="st17" d="M559.8,237.6c0.5,0.2,0.8,0.6,0.9,1.3c-1,3-2,6-3,9c-1.8-1.7-3.6-3.2-5.6-4.7
			C554.6,241.1,557.1,239.3,559.8,237.6z"/>
	</g>
	<g>
		<path class="st18" d="M272.7,276.1c-2.8-3.4-6-6.6-9.4-9.4c-1.1-0.9-2.3-1.7-3.4-2.6c-0.1-0.9,0-1.8,0.4-2.6
			c3.4-3.3,6.7-6.7,9.8-10.3c4.2-2.1,8.5-2.2,12.8-0.4c6.2,3.3,9.6,8.5,10.3,15.4c0.1,2.7-0.6,5.1-2.1,7.3
			c-2.8,3.8-6.1,7.2-9.8,10.3C278.4,281.2,275.5,278.6,272.7,276.1z"/>
	</g>
	<g>
		<path class="st9" d="M279.5,274.4c-4-4.3-8-8.5-12-12.8c6.2-9,12.6-9,19.2,0c2.2,2.7,2.5,5.6,0.9,8.5c-1.9,1.9-3.7,3.7-5.6,5.6
			C280.8,276.2,279.9,275.7,279.5,274.4z"/>
	</g>
	<g>
		<path class="st19" d="M589.7,254.7c4.8,3.8,8.9,8.4,12.4,13.7c0.1,11.4-5.6,18.2-17.1,20.5c-2.3-0.4-4.4-1.1-6.4-2.1
			c-4-3.7-7.7-7.7-11.1-12C575.1,268.3,582.5,261.6,589.7,254.7z"/>
	</g>
	<g>
		<path class="st20" d="M270.1,251.3c-3.1,3.5-6.4,6.9-9.8,10.3c-0.4,0.8-0.6,1.7-0.4,2.6c-0.9-0.9-1.1-2.1-0.4-3.4
			C262.6,257.1,266.2,253.9,270.1,251.3z"/>
	</g>
	<g>
		<path class="st21" d="M267.5,261.6c4,4.3,8,8.5,12,12.8c-4.5-3.2-8.6-6.9-12.4-11.1C266.5,262.5,266.7,261.9,267.5,261.6z"/>
	</g>
	<g>
		<path class="st22" d="M588.8,262.4c3.3,0.8,5.7,2.8,7.3,6c0.7,8.3-3.2,13.4-11.5,15.4c-4-1.6-7.2-4.3-9.4-8.1
			C579.6,271.1,584.1,266.7,588.8,262.4z"/>
	</g>
	<g>
		<path class="st23" d="M263.3,266.7c3.4,2.8,6.6,6,9.4,9.4C268.7,273.8,265.6,270.7,263.3,266.7z"/>
	</g>
	<g>
		<path class="st14" d="M246.2,278.7c10.5,2.1,21.1,4.1,31.6,6c0.3,2.7-0.7,4.7-3,6c-2.7-0.9-5.4-1.8-8.1-2.6
			c-2.3,2.7-4.5,5.5-6.4,8.5c0.9,3.1,2.5,5.9,4.7,8.5c-0.9,1.1-1.7,2.3-2.6,3.4c-6.2-7.9-12.1-16.2-17.5-24.8
			C244.6,281.9,245,280.2,246.2,278.7z"/>
	</g>
	<g>
		<path class="st14" d="M611,282.1c1.8,0.1,3.1,0.9,3.8,2.6c2.9,5.5,6.2,10.8,9.8,15.8c-1.1,1-2.4,1.8-3.8,2.1
			c-3.5-3.8-6.3-8.1-8.5-12.8c-1.3-0.9-2.6-0.7-3.8,0.4c-1.1,0.9-2.3,1.7-3.4,2.6c3,4,5.6,8.3,7.7,12.8c-0.4,1.6-1.4,2.6-3,3
			c-2.9-3.8-5.6-7.8-8.1-12c-3.2-0.6-5.7,0.6-7.7,3.4c3,4.6,5.8,9.3,8.5,14.1c-0.6,1.6-1.7,2.6-3.4,3c-4.3-6-8.3-12.3-12-18.8
			C595.1,292.9,603.1,287.5,611,282.1z"/>
	</g>
	<g>
		<path class="st24" d="M250.5,284.6c0.1-0.5,0.3-0.7,0.9-0.9c3.4,1.3,6.8,2.5,10.3,3.4c-1.2,2.1-2.6,4.1-4.3,6
			C255.3,290,253,287.2,250.5,284.6z"/>
	</g>
	<g>
		<path class="st6" d="M235.1,301.7c22.8,2.4,27.5,12.9,14.1,31.6c-8.7-4-17.2-8.3-25.6-12.8C225,312.8,228.8,306.5,235.1,301.7z"/>
	</g>
	<g>
		<path class="st10" d="M235.1,307.7c6.2-1.1,11.5,0.6,15.8,5.1c0.8,1.3,1.2,2.7,1.3,4.3c-0.7,3-1.8,5.9-3.4,8.5
			c-0.7,0.9-1.6,1.1-2.6,0.4c-5.3-2.6-10.6-5.3-15.8-8.1C230.3,313.8,231.9,310.4,235.1,307.7z"/>
	</g>
	<g>
		<path class="st1" d="M412,318c32.6-3,60.1,7.3,82.5,30.8c20.4,27.2,25.2,57.1,14.5,89.7c-15.9,36-43.5,54.5-82.9,55.5
			c-41.8-1.6-70-22.1-84.6-61.5c-9.8-40.8,1.7-74,34.6-99.5C387.2,325.7,399.1,320.7,412,318z"/>
	</g>
	<g>
		<path class="st18" d="M633.3,323.9c0.9,0,1.7,0,2.6,0c1.9,5.3,3.4,10.7,4.3,16.2c0.1,6-2.9,9.2-9,9.4c-3.3-0.1-5.9-1.5-7.7-4.3
			c-1.4-3.7-3.1-7.1-5.1-10.3c-3.6,1.2-7.1,2.4-10.7,3.4c-0.6-1.8-0.6-3.5,0-5.1C616.3,330.2,624.8,327,633.3,323.9z"/>
	</g>
	<g>
		<path class="st25" d="M218.8,329.9c2,0,3.1,1,3.4,3c-1.3,4.6-2.7,9.2-4.3,13.7c0.1,0.7,0.4,1.2,0.9,1.7c2.3,1,4.6,1.2,6.8,0.4
			c1.8-4.5,3.2-9,4.3-13.7c2.1-0.4,3.5,0.3,4.3,2.1c-1.9,4.9-3.3,9.9-4.3,15c2.3,0.4,4.6,1,6.8,1.7c0.6-0.3,1.1-0.6,1.7-0.9
			c1.8-4.8,3.4-9.6,4.7-14.5c1.5-0.8,3-1.1,4.7-0.9c-2.3,7.7-4.6,15.4-6.8,23.1c-9.2-2.7-18.3-5.5-27.3-8.5c-1-1.6-1.1-3.4-0.4-5.1
			C215.2,341.3,217.1,335.6,218.8,329.9z"/>
	</g>
	<g>
		<path class="st26" d="M629.8,330.8c1.1-0.1,2.1,0.1,3,0.9c1.3,2.8,2.2,5.6,3,8.5c-1.7,4.2-4.4,5.1-8.1,2.6c-1.5-2.9-2.7-5.9-3.8-9
			C625.8,332.4,627.7,331.4,629.8,330.8z"/>
	</g>
	<g>
		<path class="st7" d="M641.8,353.8c1.4,0,2.8,0,4.3,0c0,2,0,4,0,6c-9.9,2.1-19.9,4.1-29.9,6c-0.3-1.7-0.6-3.4-0.9-5.1
			C624.4,359,633.3,356.8,641.8,353.8z"/>
	</g>
	<g>
		<path class="st27" d="M209.4,361.5c9.4,1.8,18.8,3.7,28.2,5.6c2,1.2,2.2,2.8,0.9,4.7c-0.7,0.3-1.4,0.6-2.1,0.9
			c-9-1.9-17.9-3.6-26.9-5.1C209.4,365.5,209.4,363.5,209.4,361.5z"/>
	</g>
	<g>
		<path class="st28" d="M370.9,370.1c10-2,18.1,0.9,24.4,8.5c6.5,11.2,3.5,15.9-9,14.1c-2.6-8.4-7.7-10.7-15.4-6.8
			c-2.4,3.1-1.9,5.6,1.7,7.7c6.4,2.3,12.6,4.9,18.8,7.7c8.7,8.3,10.9,18.1,6.4,29.5c-4.3,8.3-11.1,12.3-20.5,12
			c-15.1-1.5-22.3-9.8-21.8-24.8c7.1-4.7,11.8-3,14.1,5.1c5.6,6.8,11,6.8,16.2,0c1.1-3.5,0.1-6.2-3-8.1c-5.8-1.9-11.5-4.2-17.1-6.8
			c-8.5-6.7-11.2-15.4-8.1-26.1C360.1,375.8,364.5,371.8,370.9,370.1z"/>
	</g>
	<g>
		<path class="st29" d="M456.4,370.9c10.6-0.4,21.1,0.1,31.6,1.3c5.7,3.4,9,8.4,9.8,15c2.5,20.9-6.8,30.7-27.8,29.5
			c-0.4,0.4-0.9,0.9-1.3,1.3c-0.3,7.4-0.6,14.8-0.9,22.2c-3.1,1.7-6.3,2.1-9.8,1.3c-1.6-0.4-2.6-1.4-3-3c-0.6-21.6-0.6-43.3,0-64.9
			C455.5,372.6,456,371.8,456.4,370.9z"/>
	</g>
	<g>
		<path class="st5" d="M630.7,370.1c13.9-1.3,20.4,5,19.2,18.8c-1.3,4-4,6.3-8.1,6.8c0-1.3-0.3-2.6-0.9-3.8c6.8-5.2,6.8-10.4,0-15.4
			c-3.7-0.6-7.4-0.6-11.1,0c-5.4,2.1-7.2,5.9-5.6,11.5c1.4,3.1,3.9,4.5,7.3,4.3c0,2,0,4,0,6c-8.2-1.2-12.2-5.9-12-14.1
			C619.9,376.9,623.6,372.2,630.7,370.1z"/>
	</g>
	<g>
		<path class="st30" d="M408.5,370.9c12.3-0.1,24.5,0,36.7,0.4c3.3,4.3,3.3,8.6,0,12.8c-8.3,0.3-16.5,0.6-24.8,0.9
			c-0.4,0.4-0.9,0.9-1.3,1.3c-0.7,3.6-0.5,7.2,0.4,10.7c8.3,0.1,16.6,0.6,24.8,1.7c2.1,3.7,2.3,7.5,0.4,11.5c-0.6,0.5-1.4,1-2.1,1.3
			c-7.7,0.3-15.4,0.6-23.1,0.9c-1,4.3-1.1,8.8-0.4,13.2c0.4,0.4,0.9,0.9,1.3,1.3c8.8,0.3,17.7,0.6,26.5,0.9c3.2,4.2,3.2,8.5,0,12.8
			c-12.8,0.6-25.6,0.6-38.5,0c-1.3-1.9-2.2-4-2.6-6.4c0.7-20.5,1.1-41,1.3-61.5C407.9,372.2,408.3,371.6,408.5,370.9z"/>
	</g>
	<g>
		<path class="st6" d="M212.9,376.1c1.1,0,2.3,0,3.4,0c-0.1,1.5,0.2,2.9,0.9,4.3c-7.1,3-8.7,7.9-4.7,14.5c4.4,2.5,9.1,3.2,14.1,2.1
			c5.1-1.8,7-5.4,5.6-10.7c-0.9-2.2-2.4-3.6-4.7-4.3c-1.8-3.9-0.6-5.4,3.4-4.7c6.1,5.2,7.7,11.6,4.7,19.2c-7,7.6-15.1,8.8-24.4,3.8
			c-5.3-5.5-6.6-11.9-3.8-19.2C209.1,379.3,210.9,377.6,212.9,376.1z"/>
	</g>
	<g>
		<path class="st31" d="M468.3,385.5c4.4-0.3,8.6,0.1,12.8,1.3c4.6,4.8,4.3,9.3-0.9,13.7c-3.8,1.1-7.5,1.1-11.1,0
			C468.4,395.5,468.1,390.5,468.3,385.5z"/>
	</g>
	<g>
		<path class="st19" d="M629.8,402.6c15.7-1.8,22.7,5,20.9,20.5c-5.6,9.1-13.5,11.5-23.5,7.3c-7.2-6-8.8-13.3-4.7-21.8
			C624.7,406,627.1,404,629.8,402.6z"/>
	</g>
	<g>
		<path class="st8" d="M631.6,407.7c5.4-0.6,10.1,0.8,14.1,4.3c3.1,7.1,0.9,11.8-6.4,14.1c-10.2,1.8-14.9-2.3-14.1-12.4
			C626.6,410.9,628.8,408.9,631.6,407.7z"/>
	</g>
	<g>
		<path class="st5" d="M217.1,409.4c16.8-0.5,22.6,7.2,17.5,23.1c-5.5,5.7-12.2,7.5-20.1,5.6c-8.9-5-11.3-12.3-7.3-21.8
			C210,413,213.3,410.7,217.1,409.4z"/>
	</g>
	<g>
		<path class="st32" d="M216.3,415.4c3.7-0.1,7.4,0,11.1,0.4c6.2,4.4,6.7,9.6,1.7,15.4c-4.4,2-8.9,2.6-13.7,1.7
			c-4.6-2.9-6.1-7-4.7-12.4C212,418.1,213.8,416.4,216.3,415.4z"/>
	</g>
	<g>
		<path class="st33" d="M623.9,436.7c1.7,0,3.4,0,5.1,0c0,1.7,0,3.4,0,5.1c-7.1,0.9-9.8,4.8-8.1,12c2.3,2.3,4.6,2.3,6.8,0
			c1.9-4.9,4.6-9.1,8.1-12.8c4.6-1.3,8.2,0.1,10.7,4.3c1.6,6.5,0.1,12.1-4.7,16.7c-2.2,0.9-4.5,1.3-6.8,1.3c0.1-2,0.4-4,0.9-6
			c3.1,0.7,5.3-0.5,6.4-3.4c0.6-2.3,0.6-4.6,0-6.8c-2.2-1.3-4.2-1-6,0.9c-1.8,4.1-3.9,7.9-6.4,11.5c-4.9,3.4-9,2.7-12.4-2.1
			C614.4,448.6,616.5,441.8,623.9,436.7z"/>
	</g>
	<g>
		<path class="st34" d="M228.2,442.7c9.2-0.2,14.1,4.4,14.5,13.7c0.2,5.6-2.4,9.4-7.7,11.1c-1-0.9-1.6-2-1.7-3.4
			c4.7-4.2,5.4-9,2.1-14.5c-2.1-2.1-4.1-2.1-6,0c-0.3,4.3-0.6,8.5-0.9,12.8c-3,7.9-7.9,9.3-14.5,4.3c-3.2-5.1-3.8-10.5-1.7-16.2
			c1.7-2.5,3.8-3.3,6.4-2.6c1.5,2.8,0.8,4.8-2.1,6c-1,3.7-0.3,7,2.1,9.8c1.1,0.6,2.3,0.6,3.4,0c0.6-5.3,1.3-10.5,2.1-15.8
			C225.5,446,226.8,444.3,228.2,442.7z"/>
	</g>
	<g>
		<path class="st35" d="M245.3,570.9c2.6,0.9,4.3,2.6,5.1,5.1C248.5,574.6,246.8,572.9,245.3,570.9z"/>
	</g>
	<g>
		<path class="st36" d="M606.8,570.9c-1.4,2-3.1,3.7-5.1,5.1C602.5,573.4,604.2,571.7,606.8,570.9z"/>
	</g>
	<g>
		<path class="st15" d="M334.2,576c7,2.1,13.9,4.8,20.5,8.1c5.6,5.6,5.6,11.3,0,17.1c-1.8,1.2-3.8,1.9-6,2.1
			c-5.7-1.1-11.3-2.8-16.7-5.1c-2.8,3.8-4.6,8.1-5.6,12.8c-2.6-0.3-4.8-1.3-6.8-3C324.6,597.4,329.5,586.7,334.2,576z"/>
	</g>
	<g>
		<path class="st37" d="M515.3,576c1.3-0.2,2.4,0.1,3.4,0.9c4.9,10.4,9.8,20.8,14.5,31.2c-2,1-4,2-6,3c-5-10.9-9.8-21.9-14.5-32.9
			C513.7,577.4,514.6,576.7,515.3,576z"/>
	</g>
	<g>
		<path class="st16" d="M252.2,577.7c2.8,1.4,5.1,3.4,6.8,6C256.2,582.3,253.9,580.3,252.2,577.7z"/>
	</g>
	<g>
		<path class="st38" d="M599.9,577.7c-1.4,2-3.1,3.7-5.1,5.1C595.7,580.3,597.4,578.6,599.9,577.7z"/>
	</g>
	<g>
		<path class="st39" d="M337.6,582c4.8,1.6,9.5,3.6,14.1,6c2.4,7,0,10.2-7.3,9.8c-3.8-1.3-7.5-2.9-11.1-4.7
			C335,589.5,336.4,585.8,337.6,582z"/>
	</g>
	<g>
		<path class="st40" d="M495.7,583.7c11.5-0.9,16.2,4.2,14.1,15.4c-1.3,1.3-2.6,2.6-3.8,3.8c-4.9,2.2-9.9,4-15,5.6
			c0.6,4.9,1.6,9.7,3,14.5c-2.3,0.1-4.6,0.3-6.8,0.9c-2.2-11.2-4.7-22.3-7.7-33.3c0.1-0.8,0.4-1.5,0.9-2.1
			C485.7,587.2,490.8,585.7,495.7,583.7z"/>
	</g>
	<g>
		<path class="st41" d="M366.7,587.1c1.7,0.6,3.4,0.8,5.1,0.9c0.1,3.6-1.5,4.7-4.7,3.4C366.7,590,366.5,588.6,366.7,587.1z"/>
	</g>
	<g>
		<path class="st42" d="M257.3,588.8c1.9,0.5,3.3,1.6,4.3,3.4C259.6,591.8,258.2,590.6,257.3,588.8z"/>
	</g>
	<g>
		<path class="st10" d="M494.8,588.8c5.6-1.5,9,0.5,10.3,6c-0.2,1.4-0.8,2.7-1.7,3.8c-4.5,3-9.3,4.3-14.5,3.8
			c-1.3-3.6-2.1-7.3-2.6-11.1C489.3,590.9,492.2,590,494.8,588.8z"/>
	</g>
	<g>
		<path class="st18" d="M365,596.5c1.4,0.5,2.8,0.7,4.3,0.9c-1.6,8-3.4,16-5.6,23.9c-1.2,1.6-2.8,2-4.7,1.3
			c-0.5-0.6-0.8-1.3-0.9-2.1C360.2,612.4,362.5,604.4,365,596.5z"/>
	</g>
	<g>
		<path class="st14" d="M376.9,626.4c-1.1-1.7-2.6-3.1-4.3-4.3c-2.7-9.6,0.1-16.8,8.5-21.8c6.3-1,11.6,0.8,15.8,5.6
			c1,1.6,1.4,3.3,1.3,5.1c-1.7,0-3.4,0-5.1,0c0.1-2.1-0.8-3.6-2.6-4.7c-5-2.4-9.2-1.4-12.4,3c-3.2,11,0.9,15.7,12.4,14.1
			c1-1.4,2.2-2.7,3.4-3.8c1.3,0.7,2.8,1,4.3,0.9c-2.7,6.9-7.8,9.6-15.4,8.1C380.7,628.2,378.7,627.5,376.9,626.4z"/>
	</g>
	<g>
		<path class="st14" d="M440.2,603.4c3.4-0.1,6.8,0,10.3,0.4c2.9,1.3,4.6,3.4,5.1,6.4c-1.3,0-2.6,0.3-3.8,0.9
			c-3.3-3.6-7.1-4.3-11.5-2.1c-1.2,1.7-0.9,3.1,0.9,4.3c4.3,0.7,8.6,1.6,12.8,2.6c6.5,3.9,6.8,8.4,0.9,13.7
			c-6.7,3.2-13.1,2.8-19.2-1.3c-3.2-4.4-1.9-6.4,3.8-6c-0.1,1.1,0.1,2.1,0.9,3c3.6,1.3,7.3,1.6,11.1,0.9c2.7-1.5,3-3.3,0.9-5.1
			c-5-0.7-9.8-1.8-14.5-3.4c-3.2-2.2-4.2-5.2-3-9C435.8,606,437.7,604.3,440.2,603.4z"/>
	</g>
	<g>
		<path class="st43" d="M411.1,603.4c14.7,0,20.2,7.1,16.7,21.4c-4.5,6.5-10.6,8.6-18.4,6.4c-8.4-4.4-10.9-11.1-7.3-20.1
			C404.3,607.3,407.2,604.8,411.1,603.4z"/>
	</g>
	<g>
		<path class="st10" d="M411.1,608.5c10.8-0.7,14.6,4.1,11.5,14.5c-0.4,1.2-1.1,2.2-2.1,3c-10.6,3.3-15.3-0.5-14.1-11.5
			C407.2,611.8,408.8,609.8,411.1,608.5z"/>
	</g>
	<g>
		<path class="st7" d="M475.2,611c0.9,0,1.7,0,2.6,0c0,1.7,0,3.4,0,5.1c-5.1,0.8-10.2,1.4-15.4,1.7c0-1.4,0-2.8,0-4.3
			C466.8,613.2,471.1,612.3,475.2,611z"/>
	</g>
	<g>
		<path class="st44" d="M552.1,618.7c3.2-0.6,5.6,0.6,7.3,3.4c11.4,16,22.8,31.9,34.2,47.9c0.6,1.1,0.6,2.3,0,3.4
			c-3.4,4.2-7.1,8.2-11.1,12c-13.7-18.6-27.1-37.4-40.2-56.4c-0.6-1.1-0.6-2.3,0-3.4C545.8,623.6,549.1,621.3,552.1,618.7z"/>
	</g>
	<g>
		<path class="st45" d="M372.6,622.2c1.7,1.1,3.1,2.6,4.3,4.3C374.6,625.9,373.2,624.4,372.6,622.2z"/>
	</g>
	<g>
		<path class="st46" d="M324.8,633.3c5.8,1.4,11.2,3.7,16.2,6.8c-11.7,18.1-24.1,35.7-37.2,53c-2.8,4.6-5.7,9.1-8.5,13.7
			c-1.5,0.9-3,1.1-4.7,0.4c-3.2-4-6.7-7.8-10.3-11.5C294.6,674.3,309.4,653.5,324.8,633.3z"/>
	</g>
	<g>
		<path class="st47" d="M370.9,647.8c0.1,0.5,0.4,1,0.9,1.3c1.7,0.4,3.4,0.6,5.1,0.4c0.7,0.9,1.1,2.1,1.3,3.4c0.6,43,0.6,86,0,129
			c-0.5,0.4-1,0.7-1.7,0.9c-22.4-17.5-44-36.1-64.9-55.5c-0.6-1.7-0.6-3.4,0-5.1c18.4-24.8,36.2-49.8,53.4-75.2
			C367,646.8,369,647,370.9,647.8z"/>
	</g>
	<g>
		<path class="st2" d="M476,649.5c2.3,0.3,4.3-0.3,6-1.7c1.7-0.9,3.5-0.9,5.1,0c18.3,25.7,36.6,51.5,54.7,77.3
			c-20.8,20.3-42.7,39.3-65.8,56.8c-0.8-0.7-1.4-1.6-1.7-2.6C474.9,736.1,475.5,692.8,476,649.5z"/>
	</g>
	<g>
		<path class="st48" d="M370.9,647.8c2.2,0.2,4.2,0.8,6,1.7c-1.7,0.1-3.4,0-5.1-0.4C371.3,648.7,371,648.3,370.9,647.8z"/>
	</g>
	<g>
		<path class="st49" d="M482,647.8c-1.7,1.4-3.7,2-6,1.7C477.8,648.3,479.8,647.7,482,647.8z"/>
	</g>
	<g>
		<path class="st50" d="M450.4,653.8c-5.4,0-10.8,0.3-16.2,0.9c0.7-0.7,1.5-1.1,2.6-1.3c4.5-0.2,8.9-0.6,13.2-1.3
			C450.4,652.6,450.5,653.1,450.4,653.8z"/>
	</g>
	<g>
		<path class="st51" d="M450.4,653.8c0.6,2.2,1.2,4.4,1.7,6.8c-1.1,45.6-1.1,91.1,0,136.7c-0.4,2.1-1.3,3.9-2.6,5.6
			c-4.5,3.1-8.8,6.5-12.8,10.3c-1.3,0.9-2.7,1.3-4.3,1.3c-0.1-52.1,0-104.2,0.4-156.4c0.2-1.3,0.6-2.5,1.3-3.4
			C439.6,654.1,445,653.8,450.4,653.8z"/>
	</g>
</g>
</svg>
