<?xml version="1.0" encoding="utf-8"?>
<!-- Generator: Adobe Illustrator 27.1.1, SVG Export Plug-In . SVG Version: 6.00 Build 0)  -->
<svg version="1.1" id="Layer_1" xmlns="http://www.w3.org/2000/svg" xmlns:xlink="http://www.w3.org/1999/xlink" x="0px" y="0px"
	 viewBox="0 0 193 193" style="enable-background:new 0 0 193 193;" xml:space="preserve">
<style type="text/css">
	.st0{fill:#FFFFFF;stroke:#FFFFFF;stroke-miterlimit:10;}
	.st1{fill-rule:evenodd;clip-rule:evenodd;fill:#FFFFFF;fill-opacity:0;}
	.st2{fill-rule:evenodd;clip-rule:evenodd;fill:#FF0000;}
	.st3{fill-rule:evenodd;clip-rule:evenodd;fill:#FFFFFF;}
	.st4{fill:#FF0000;}
</style>
<path class="st0" d="M39.2,29.1l23.2-17.1c0,0,15.3,15.5,30.6,15.6s32-9.4,38.8-15.6l21.8,17.1c0,0-19.2,38.8,0,89.5
	c0,0-50.9,35.9-56.8,58.8c0,0-22.2-40.6-59.5-58.4C37.3,119.1,62.9,73,39.2,29.1z"/>
<polygon class="st1" points="0,0 192.8,0 192.8,192.8 0,192.8 "/>
<path class="st2" d="M67.8,87.8c0,2.5-0.3,4.6-0.9,6.5c-0.6,1.8-2,2.7-4.2,2.7c-2.4,0-3.9-0.8-4.7-2.3c-0.7-1.5-1.1-4.2-1.1-8.2
	v-5.3c0-3.5,0.4-5.9,1.3-7.3c0.9-1.4,2.2-2.1,4.1-2.1c2,0,3.4,0.7,4.2,2c0.8,1.3,1.2,3.3,1.2,5.9h-3.3c0-1.5-0.1-2.6-0.4-3.3
	c-0.3-0.7-0.7-1.1-1.3-1.1c-0.8,0-1.4,0.4-1.7,1.1c-0.4,0.7-0.6,1.8-0.7,3.3V88c0,1.9,0.2,3.2,0.5,4.1c0.4,0.9,0.9,1.3,1.7,1.3
	c0.7,0,1.2-0.5,1.5-1.4c0.3-0.9,0.4-2.3,0.4-4.3H67.8L67.8,87.8z"/>
<path class="st2" d="M138.2,89.2c0,0.3,0.1,0.6,0.1,1c0,0.4,0,0.6,0,0.6c0,2-0.6,3.6-1.7,4.8c-1.1,1.2-2.4,1.8-4,1.8
	c-1.5,0-2.8-0.6-3.9-1.9c-1.1-1.3-1.6-3.1-1.6-5.6c0-0.5,0-0.9,0.1-1.5h3.4c0,0.5,0,1,0,1.5c0,1.3,0.2,2.3,0.6,2.9
	c0.4,0.6,0.9,1,1.6,1c0.6,0,1-0.2,1.5-0.7c0.4-0.5,0.6-1.1,0.6-1.8c0-0.6-0.1-1.2-0.4-1.7c-0.3-0.6-0.8-1.2-1.6-2
	c-0.8-0.7-1.6-1.6-2.6-2.5c-1-0.9-1.7-1.9-2.3-3c-0.6-1.1-0.8-2.4-0.8-3.9c0-1.9,0.5-3.5,1.5-4.6c1-1.1,2.2-1.7,3.5-1.7
	c1.5,0,2.8,0.7,4,2.1c1.1,1.4,1.7,3.5,1.7,6.1h-3.2c0-1.5-0.2-2.6-0.6-3.3c-0.4-0.7-0.9-1.1-1.5-1.1c-0.5,0-0.9,0.2-1.3,0.7
	c-0.4,0.5-0.6,1-0.6,1.6c0,0.4,0.1,0.9,0.3,1.3s0.4,0.8,0.7,1.1c0.3,0.3,1.1,1,2.4,2.1c1.3,1.1,2.3,2.1,2.9,3
	C137.6,86.6,138,87.8,138.2,89.2L138.2,89.2L138.2,89.2z"/>
<path class="st2" d="M102.4,153.3c0,0.3,0.1,0.6,0.1,1c0,0.4,0,0.6,0,0.6c0,2-0.6,3.6-1.7,4.8c-1.1,1.2-2.4,1.8-4,1.8
	c-1.5,0-2.8-0.6-3.9-1.9c-1.1-1.3-1.6-3.2-1.6-5.6c0-0.5,0-0.9,0.1-1.5h3.4c0,0.5,0,1,0,1.5c0,1.3,0.2,2.3,0.6,2.9
	c0.4,0.6,0.9,1,1.6,1c0.6,0,1-0.2,1.5-0.7c0.4-0.5,0.6-1.1,0.6-1.8c0-0.6-0.1-1.2-0.4-1.7c-0.3-0.6-0.8-1.2-1.6-2
	c-0.8-0.7-1.7-1.6-2.6-2.5c-1-0.9-1.7-1.9-2.3-3c-0.6-1.1-0.8-2.4-0.8-3.9c0-1.9,0.5-3.5,1.5-4.6c1-1.1,2.2-1.7,3.5-1.7
	c1.5,0,2.8,0.7,4,2.1s1.7,3.5,1.7,6.1h-3.2c0-1.5-0.2-2.6-0.6-3.3c-0.4-0.7-0.9-1.1-1.5-1.1c-0.5,0-0.9,0.2-1.3,0.7
	c-0.4,0.5-0.6,1-0.6,1.6c0,0.4,0.1,0.9,0.3,1.3c0.2,0.4,0.4,0.8,0.7,1.1c0.3,0.3,1.1,1,2.4,2.1c1.3,1.1,2.3,2.1,2.9,3
	C101.8,150.8,102.2,151.9,102.4,153.3L102.4,153.3L102.4,153.3z"/>
<path class="st2" d="M49.1,36.3l10.5-8.6L74.1,47l0.4,6.5l11.8,15.2l-3.6,4.2L70.1,56.8l-6.3-2.3C63.8,54.5,48.5,35.7,49.1,36.3
	L49.1,36.3z"/>
<path class="st2" d="M144.8,36.3l-10.5-8.6L119.8,47l-0.4,6.5l-11.8,15.2l3.6,4.2l12.6-16.1l6.3-2.3
	C130.1,54.5,145.4,35.7,144.8,36.3L144.8,36.3z"/>
<path class="st2" d="M96.8,36.5c3.8,0,6.8,3.1,6.8,6.8s-3.1,6.8-6.8,6.8C93,50.1,90,47,90,43.3S93,36.5,96.8,36.5L96.8,36.5z"/>
<path class="st3" d="M96.7,40.2c1.7,0,3.2,1.4,3.2,3.2s-1.4,3.2-3.2,3.2c-1.7,0-3.2-1.4-3.2-3.2S95,40.2,96.7,40.2L96.7,40.2z"/>
<path class="st2" d="M94.3,49.1v3.7h-8l0,6.5h8v6.9l4.8,0.9l0-7.7h8.4l0-6.5h-8.4V49C99.2,49,94.3,49.3,94.3,49.1L94.3,49.1z"/>
<polygon class="st2" points="82.7,101.3 87,104.6 78.5,115.8 73.8,113.2 "/>
<polygon class="st2" points="69.3,119.1 74,121.8 66.8,131.2 62.4,127.7 "/>
<polygon class="st2" points="106.7,104.6 110.8,101 119.4,113 115.2,115.8 "/>
<path class="st2" d="M120,121.7l4.6-2.6l7.1,8.8l-4.4,3.4C127.4,131.3,119.9,121.6,120,121.7L120,121.7z"/>
<path class="st4" d="M96.7,184.3l2.1-5.8c4.7-9.3,11.3-18.9,20.6-28.5c9.5-9.7,21.8-19.5,37.7-28.9l1.6-1l-0.9-1.7l0,0l0,0
	c-2.1-4-4-8-5.6-12.1c-1.6-4-2.9-8.1-4-12.2c-5.3-20.9-3.3-42.2,8-63.7l0.8-1.5l-1.3-1l-24-18.5l-1.4-1l-1.2,1.2
	c-12,11.6-23.5,16.4-34.6,15.9c-11.1-0.5-22-6.3-32.8-15.9l-1.3-1.1l-1.3,1.1l-22,18.5l-1.1,1l0.6,1.4c7.5,16.3,10.6,31.6,10,46.1
	c-0.6,14.4-4.8,28-12,40.9L34,119l1.5,1c15.9,10.4,29.4,20.7,39.6,30.6c10.1,9.8,17,19.1,19.9,27.9L96.7,184.3L96.7,184.3z
	 M60.6,13.7c11,9.5,22.3,15.3,33.9,15.8c11.8,0.5,23.8-4.3,36.3-15.8l21.4,16.4c-11.1,21.9-13,43.7-7.6,65c1.1,4.2,2.5,8.4,4.1,12.6
	c1.4,3.6,3.1,7.2,4.9,10.8c-15.5,9.3-27.5,18.9-36.9,28.6c-8.5,8.7-14.8,17.4-19.5,25.9c-3.7-8.2-10.3-16.7-19.3-25.4
	c-10.1-9.8-23.3-19.8-38.6-30c7-13,11.1-26.6,11.6-41.1C51.4,62,48.4,46.6,41,30.2L60.6,13.7L60.6,13.7z"/>
<path class="st2" d="M96.7,134.6c1.4-7.8,22.4-11.1,34.5-22.4l2.5,2.4L136,101l-10.1,6l2.2,1.6c-10.4,9.6-25,16.7-29-1.5
	c0.1,0-2.2-0.1-2.4-0.2c-0.2-0.1-2.5,0.1-2.4,0.1c-4.1,18.2-18.6,11.1-29,1.5l2.2-1.6l-10.1-6l2.3,13.5l2.5-2.4
	C74.3,123.4,95.3,126.6,96.7,134.6L96.7,134.6z"/>
<path class="st4" d="M97,65.6L97,65.6c5.8,0,11,2.4,14.8,6.2c3.8,3.8,6.2,9.1,6.2,14.8v0v0c0,5.8-2.4,11-6.2,14.8
	c-3.8,3.8-9.1,6.2-14.8,6.2h0l0,0c-5.8,0-11-2.4-14.8-6.2c-3.8-3.8-6.2-9.1-6.2-14.8v0v0c0-5.8,2.4-11,6.2-14.8S91.2,65.6,97,65.6
	L97,65.6L97,65.6z M92.6,68.1L92.6,68.1L92.6,68.1c-0.7,0.7-1.3,1.4-1.9,2.1c-0.6,0.7-1.1,1.5-1.6,2.2c-2.2,3.4-3.3,7.2-3.1,10.8
	l5.1-0.6c0.7-1.6,1.7-3,2.8-4.2c1.1-1.2,2.5-2.1,4-2.9c0.1-1.6,0.5-3.1,1.1-4.4c0.5-1.1,1.2-2.1,2.1-3.1c-1.3-0.3-2.7-0.5-4.2-0.5h0
	h0C95.5,67.5,94,67.7,92.6,68.1L92.6,68.1L92.6,68.1z M103.3,68.6c-1.1,1-1.9,2.1-2.5,3.3c-0.5,1.1-0.8,2.4-0.9,3.7
	c1.3,0.9,2.4,1.9,3.5,2.9c1.2,1.1,2.2,2.3,3.2,3.5c4,5.2,5.8,10.9,5.7,15.8c2.4-3.2,3.8-7.1,3.8-11.3v0v0c0-5.2-2.1-10-5.6-13.4
	C108.4,71.1,106,69.6,103.3,68.6L103.3,68.6z M110,100.4c0.9-5-0.6-11.4-5-17.1c-0.9-1.1-1.9-2.2-3-3.3c-1-0.9-2.1-1.8-3.2-2.7
	c-1.3,0.6-2.5,1.5-3.5,2.5c-1,1-1.8,2.1-2.4,3.5c0.3,0.3,0.6,0.6,0.8,0.9c0.4,0.5,0.8,1,1.2,1.5c1.9,2.6,3,5.6,3.4,9.1l0,0.3
	c1.2,1.5,2,3.1,2.4,4.8c0.4,1.7,0.5,3.4,0.4,5.3C104.6,104.3,107.6,102.7,110,100.4L110,100.4z M99.2,105.4c0.2-1.8,0.1-3.5-0.3-5.1
	c-0.4-1.6-1.2-3.1-2.4-4.5l-15,1.8c0.6,0.8,1.2,1.6,2,2.3c3.4,3.4,8.2,5.6,13.4,5.6l0,0h0C97.7,105.6,98.5,105.5,99.2,105.4
	L99.2,105.4z M80.4,95.8l15.9-1.9c-0.4-2.7-1.4-5.1-2.9-7.2c-0.3-0.4-0.7-0.9-1.1-1.3c-0.3-0.3-0.6-0.6-0.9-0.9L78,86
	c0,0.2,0,0.4,0,0.6v0v0C77.9,89.9,78.8,93.1,80.4,95.8L80.4,95.8z M78.1,83.9l5.9-0.6c-0.3-4,0.9-8.2,3.4-12.1
	c0.4-0.6,0.8-1.2,1.3-1.8c-1.9,0.9-3.7,2.2-5.2,3.7C80.7,76,78.7,79.7,78.1,83.9L78.1,83.9z M91.1,84.2L91.1,84.2L91.1,84.2
	L91.1,84.2L91.1,84.2z M98.4,76.9C98.4,76.9,98.4,76.9,98.4,76.9C98.4,77,98.4,76.9,98.4,76.9L98.4,76.9z M98.4,77
	C98.4,77,98.4,77,98.4,77C98.4,77,98.4,77,98.4,77L98.4,77z"/>
</svg>
