<svg id="Layer_1" data-name="Layer 1" xmlns="http://www.w3.org/2000/svg" viewBox="0 0 500 500"><defs><style>.cls-1{fill:#13323f;}.cls-2{fill:#44b9b1;}.cls-3{fill:#d5d4d4;}</style></defs><title>Artboard 1</title><path class="cls-1" d="M250.3,4.28C386.45,4.08,497.55,115.58,496,252.92c-1.47,133.91-111,244.34-248.45,243C112.48,494.52,2.85,383.94,4.44,247.12,6,111.7,116.54,4,250.3,4.28Zm26.94,87.64c-.49-.12-.79-.22-1.1-.27a136.07,136.07,0,0,0-17.54-1.88A169.31,169.31,0,0,0,229,90.94a159.35,159.35,0,0,0-101.27,55.44c-23.94,28.33-36.42,61.17-37.94,98.19a155.56,155.56,0,0,0,.84,22.63,152.46,152.46,0,0,0,6.61,31.57c14.09,42.89,41.65,74.29,81.43,95.21a162.49,162.49,0,0,0,25.78,10.39c3.78,1.22,2.71,1.65,4.94-1.6q33.18-48.48,66.32-97,22.94-33.59,45.81-67.2c.3-.43.55-.91,1-1.63H231.6c-.61,0-1.22,0-1.83,0a10.35,10.35,0,0,1-1.28-.3Q266,181.58,303.25,126.78c.88.38,1.59.67,2.29,1A134,134,0,0,1,366,182.22a133.71,133.71,0,0,1,17.47,84.27,129.67,129.67,0,0,1-7.6,30.82q-18,46.43-61.51,70.6a130.6,130.6,0,0,1-58.21,16.23A126,126,0,0,1,242,384a2.18,2.18,0,0,0-2.2,1.08c-5,7.41-10.08,14.78-15.11,22.17a8.49,8.49,0,0,0-.54,1,5,5,0,0,0,.72.24,159,159,0,0,0,21.22,1.95,162.35,162.35,0,0,0,29-1.88,159.35,159.35,0,0,0,97.63-54.94c23.1-27.35,35.61-59,37.74-94.71a157.65,157.65,0,0,0-1.83-34.71,153.93,153.93,0,0,0-15.95-48.18c-21.57-40.4-54.49-67-98.15-80.57a1.35,1.35,0,0,0-1.81.61c-1.09,1.67-2.25,3.31-3.38,5L198.76,233.75q-9.49,13.89-19,27.79c-.32.47-.58,1-1,1.68h70.5c3.89,0,7.78,0,11.66,0s7.7-.14,11.91.13l-75.1,110.17c-.74-.29-1.31-.49-1.85-.74a130.56,130.56,0,0,1-42.28-29.7c-26.31-27.89-38.87-61-37.43-99.44a127.22,127.22,0,0,1,3.15-23.41,134.73,134.73,0,0,1,85.07-96.33,131.6,131.6,0,0,1,32.72-7.41,125.83,125.83,0,0,1,22.13-.32,2.4,2.4,0,0,0,2.42-1.29c4.86-7.17,9.77-14.32,14.66-21.47C276.63,93,276.88,92.51,277.24,91.92ZM209.5,329c-1-.59-1.77-1-2.54-1.46a88.64,88.64,0,0,1-44.09-93c3.82-21.28,14.21-38.83,30.72-52.73a86.68,86.68,0,0,1,32.78-17.24,3.66,3.66,0,0,0,2.31-1.44c6-8.92,12.15-17.8,18.22-26.7a10.6,10.6,0,0,0,.61-1.17c-42.58-.23-93.94,29.3-108.59,86.05s15.68,108.2,55.82,129.26ZM291,171.15c.61.35,1.08.64,1.56.9a88.72,88.72,0,0,1,45.22,92.75A89.08,89.08,0,0,1,275,335.28a3.55,3.55,0,0,0-2.14,1.42q-9.18,13.5-18.41,27a10.76,10.76,0,0,0-.6,1.18c44.63-.33,95-32,108.28-88.42,13.09-55.47-16.35-105.69-56.41-126.91C300.85,156.68,296,163.86,291,171.15Zm-3.46-92.51c1.53-5.93,3-11.71,4.5-17.5a4.28,4.28,0,0,1,.95,1.62c2.15,5.89,4.32,11.78,6.42,17.69a2.41,2.41,0,0,0,1.93,1.75c4,1,8,2,11.94,3,.41.1.84.16,1.62.31-2.85-7.21-5.59-14.13-8.32-21,.23-.17.31-.28.41-.29.66-.09,1.32-.16,2-.23a13.32,13.32,0,0,0,11.15-7.63,23.72,23.72,0,0,0,1.75-4.84A15,15,0,0,0,315.33,35a22.28,22.28,0,0,0-6.83-3q-9.6-2.46-19.2-4.88c-.41-.1-.84-.12-1.23-.18-1.05,2.68-12.31,47.44-12.24,48.72Zm-63-3c2.36.24,32.75-1.52,34.18-2-.18-3.32-.35-6.68-.54-10.26l-21.77,1.13a62.72,62.72,0,0,1-.39-8.94l19.13-1.08c-.19-3.6-.37-7-.56-10.72l-19.33,1c-.16-3.09-.3-6-.44-8.9,7-.54,13.9-.68,20.88-1.25-.2-3.68-.39-7.15-.58-10.58-2.06-.35-31.83,1.32-33.26,1.87Q223.15,50.79,224.54,75.68Zm-94.12.88,9.3-6.82c-2.77-3.15-5.78-5.5-9.7-6.51a13.21,13.21,0,0,0-6.43-.14A18.9,18.9,0,0,0,112,70.89a16.38,16.38,0,0,0,2.5,21.78,12.37,12.37,0,0,0,8,3.37,23.74,23.74,0,0,0,7.73-.94c2.2-.61,4.35-1.36,6.56-1.89a10.53,10.53,0,0,1,3.62-.27,3.9,3.9,0,0,1,3.12,5.1,5.39,5.39,0,0,1-8.32,2.65c-.39-.29-.75-.62-1.22-1l-9.5,7a15.35,15.35,0,0,0,15.91,6.69c6.39-1.26,14.44-7,14.79-17,.27-7.86-6.71-18.11-18.17-15.71-2.6.54-5.09,1.56-7.64,2.3a21.48,21.48,0,0,1-4.35,1,4.11,4.11,0,0,1-4.17-4.83,5.72,5.72,0,0,1,3.87-4.44,4.51,4.51,0,0,1,5,1.21Zm238.5,42.12,1.41-9.2q2.1-13.82,4.19-27.64c.93-6.14,1.84-12.29,2.81-18.43.18-1.13,0-1.95-1.1-2.42-.2-.08-.39-.18-.55-.25-3.88,1.91-48.21,28.54-49.05,29.45a1.09,1.09,0,0,0,.21.26c3.22,2.18,6.45,4.33,9.64,6.54a1.46,1.46,0,0,0,1.82,0c1.3-.82,2.64-1.58,4-2.37l4.81,3.25c3.5,2.35,7,4.73,10.51,7.05a1.79,1.79,0,0,1,.93,2.2c-.24.91-.26,1.87-.45,2.79a1.94,1.94,0,0,0,1,2.34c2.85,1.82,5.63,3.76,8.44,5.65C367.9,118.14,368.34,118.35,368.92,118.68ZM183.63,68.62l17.43-6.2c-1.22-3.46-2.39-6.76-3.6-10.16L180.05,58.4c-1.27-3.38-2.48-6.61-3.51-10l18.86-6.71c-1.25-3.52-2.43-6.84-3.66-10.32-10.28,3.66-20.41,7.18-30.62,10.88,5.64,15.94,11.18,31.66,16.82,47.44l11.64-4.13C187.58,79.86,185.64,74.33,183.63,68.62Zm34.65,392.44c8.07.08,14.15-6,14.22-14.24.06-7.92-6.15-14-14.4-14.13a13.87,13.87,0,0,0-14.18,14.11C203.84,454.94,209.92,461,218.28,461.06Zm-29.22-21c.33-.19.56-.33.79-.45a6.6,6.6,0,0,0,3.83-7.53,7.69,7.69,0,0,0-5.4-6c-2.66-1-5.34-1.87-8-2.8l-2-.68-8.69,25c.61.26,1.06.47,1.52.63q4.55,1.61,9.11,3.18a11.76,11.76,0,0,0,1.93.54c2.95.49,5.58-.14,7.4-2.67a6.81,6.81,0,0,0,.32-7.83C189.57,440.94,189.34,440.51,189.06,440Zm202.08-33.64c3.38-3.27,6.36-6.09,9.26-9a7.42,7.42,0,0,0,1.49-2.38,6.89,6.89,0,0,0-6.4-9.69H393.1c0-.55,0-.93,0-1.3.12-3.46-3.2-6.16-6.07-6.41a8,8,0,0,0-6.66,2.37q-3.42,3.4-6.81,6.85a6.5,6.5,0,0,0-.57.78Zm-26.66-11.54-5.28,3.81c.45.64.75,1.1,1.07,1.54,2.76,3.83,5.53,7.65,8.27,11.49a12.22,12.22,0,0,1,1.35,2.28,3.3,3.3,0,0,1-1.27,4.24c-1.56,1.2-3.13,1.31-4.57.16a10.38,10.38,0,0,1-1.78-2c-2.82-3.85-5.6-7.73-8.39-11.6l-1.14-1.5c-1.79,1.37-3.56,2.45-5.2,3.89,3.69,5.08,7.23,10,10.88,14.94a8.44,8.44,0,0,0,5.26,3.25c5,1,11.09-2.73,12.66-7.83a9.24,9.24,0,0,0-1.59-8.5q-4.23-5.87-8.47-11.74ZM117.83,383c-.24.21-.62.53-1,.87-3.31,3.22-6.6,6.44-9.92,9.64a14.59,14.59,0,0,1-2.43,2,3.3,3.3,0,0,1-4.38-.64,3.42,3.42,0,0,1-.8-4.51,9.93,9.93,0,0,1,1.56-1.93c3.53-3.47,7.08-6.91,10.61-10.36.34-.33.63-.72.91-1l-4.5-4.53L105.28,375q-4.91,4.75-9.8,9.52a9.29,9.29,0,0,0-3.13,7.92,11.17,11.17,0,0,0,4,7.12c4.2,3.79,9.75,4.08,14-.2,3.8-3.82,7.71-7.52,11.57-11.28a10,10,0,0,0,.7-.86Zm22.84,50.46L156.61,442c.91-1.71,1.76-3.29,2.66-5l-10.14-5.46,2.21-4.12,9,4.78,2.67-5c-3-1.76-6-3.14-8.92-4.92.88-1.4,1.28-2.86,2.35-4l9.56,5.1,2.73-5.11L153.22,410C149,417.86,144.89,425.56,140.67,433.43ZM392.92,366c7.28,5.26,14.35,10.39,21.53,15.56L425,366.9l-4.55-3.3-6.77,9.32-3.79-2.73,5.95-8.27-4.6-3.34-6,8.21a20.46,20.46,0,0,1-3.67-2.87l6.33-8.78a56.77,56.77,0,0,0-4.76-3.33Zm-77.15,62c-.21-.24-.27-.35-.36-.4a6.37,6.37,0,0,0-.72-.41A14.66,14.66,0,0,0,305,426c-7.4,1.59-12,7.46-11.66,14.83a14.15,14.15,0,0,0,11,13.05,15.43,15.43,0,0,0,16.17-7.13c.21-.37.35-.78.58-1.27l-5.24-2.72c-.54.7-.94,1.3-1.41,1.83-2.17,2.44-4.85,3.76-8.14,3.19-4-.68-6.63-4.48-6.33-8.9A7.61,7.61,0,0,1,307.4,432a12.82,12.82,0,0,1,5.46,1.12ZM71.82,249c0-.77,0-1.55,0-2.33a9.68,9.68,0,0,0-5.19-8.55A10.71,10.71,0,0,0,60.17,237a9.3,9.3,0,0,0-8.45,7.93,65.63,65.63,0,0,0,0,8.3,4.24,4.24,0,0,0,.3,1.29,10,10,0,0,0,11.34,6.61,9.78,9.78,0,0,0,8.51-9.63C71.86,250.67,71.82,249.84,71.82,249ZM70.47,366.32c1.36,1.91,2.51,3.64,3.81,5.34L82,366.25l5.64,7.93c1.67-1.17,3.19-2.13,4.62-3.33-1-1.43-1.9-2.69-2.79-4s-1.88-2.55-2.73-4l4.5-3.17,6.12,8.64,4.73-3.34c-3.34-4.76-6.58-9.36-9.89-14ZM446,255.65l-.13-.45,1.23-1.31c1.11-1.15,2.3-2.25,3.34-3.48a7.71,7.71,0,0,0,1.44-7.8,8.53,8.53,0,0,0-8.36-5.69,8.67,8.67,0,0,0-8.32,5.77,20.4,20.4,0,0,0-.44,2.18h5.32a14.89,14.89,0,0,1,.83-1.49,3.39,3.39,0,0,1,4.74-.62,3.17,3.17,0,0,1,.38,4.59c-.21.26-.45.49-.68.73q-5.14,5.55-10.29,11.11a12.94,12.94,0,0,0-.88,1.18c2.71.33,16.77.22,18-.13v-4.59ZM31.08,260.4c4.55.39,16.93.22,18.25-.26,0-1.41.3-2.88-.29-4.54H42.62c.65-.73,1-1.14,1.38-1.52,1-1.07,2.12-2.11,3.14-3.21a7.65,7.65,0,0,0,2.12-4.07A8.35,8.35,0,0,0,43,237.17a8.92,8.92,0,0,0-10.68,5.45,16.11,16.11,0,0,0-.41,2.22h5.26a11.55,11.55,0,0,1,.76-1.36,3.24,3.24,0,0,1,3.35-1.35,3.07,3.07,0,0,1,2.6,2.49,3.31,3.31,0,0,1-1.12,3.13q-5.17,5.53-10.31,11.11C32.05,259.29,31.67,259.74,31.08,260.4Zm110.38,149,3.45-4.62-14.85-11.07-3.47,4.64,4.72,3.56-12.39,16.63,5.29,3.94,12.4-16.59Zm111.2,47.29c-.25-7.13-.48-13.92-.72-20.89-2.26.1-4.33.09-6.35.23-.31,2.56.58,25.27,1,26.49l17.49-.57v-5.61Zm71-36.82c4,8,8,15.77,12,23.7l16.13-8.16-2.53-5c-3.48,1.74-6.82,3.42-10.28,5.17l-9.46-18.65Zm140.23-182.1c-.61,0-1.05-.1-1.48-.1-3-.06-3-.06-5.12,2.17l-3.2,3.44,2.34,2.59,2-1.55V250c0,1.72,0,3.43,0,5.15a32.87,32.87,0,0,0,.15,5.25h5.28Z"/><path class="cls-2" d="M277.24,91.92c-.36.59-.61,1.06-.91,1.5-4.89,7.15-9.8,14.3-14.66,21.47a2.4,2.4,0,0,1-2.42,1.29,125.83,125.83,0,0,0-22.13.32,131.6,131.6,0,0,0-32.72,7.41,134.73,134.73,0,0,0-85.07,96.33,127.22,127.22,0,0,0-3.15,23.41c-1.44,38.39,11.12,71.55,37.43,99.44a130.56,130.56,0,0,0,42.28,29.7c.54.25,1.11.45,1.85.74l75.1-110.17c-4.21-.27-8.06-.1-11.91-.13s-7.77,0-11.66,0h-70.5c.41-.71.67-1.21,1-1.68q9.5-13.91,19-27.79l90.63-132.64c1.13-1.65,2.29-3.29,3.38-5a1.35,1.35,0,0,1,1.81-.61c43.66,13.53,76.58,40.17,98.15,80.57a153.93,153.93,0,0,1,15.95,48.18A157.65,157.65,0,0,1,410.51,259c-2.13,35.71-14.64,67.36-37.74,94.71a159.35,159.35,0,0,1-97.63,54.94,162.35,162.35,0,0,1-29,1.88,159,159,0,0,1-21.22-1.95,5,5,0,0,1-.72-.24,8.49,8.49,0,0,1,.54-1c5-7.39,10.09-14.76,15.11-22.17A2.18,2.18,0,0,1,242,384a126,126,0,0,0,14.15.1,130.6,130.6,0,0,0,58.21-16.23q43.53-24.09,61.51-70.6a129.67,129.67,0,0,0,7.6-30.82A133.71,133.71,0,0,0,366,182.22a134,134,0,0,0-60.46-54.45c-.7-.32-1.41-.61-2.29-1q-37.37,54.93-74.76,109.86a10.35,10.35,0,0,0,1.28.3c.61,0,1.22,0,1.83,0h90.91c-.44.72-.69,1.2-1,1.63q-22.9,33.6-45.81,67.2-33.13,48.51-66.32,97c-2.23,3.25-1.16,2.82-4.94,1.6A162.49,162.49,0,0,1,178.67,394c-39.78-20.92-67.34-52.32-81.43-95.21a152.46,152.46,0,0,1-6.61-31.57,155.56,155.56,0,0,1-.84-22.63c1.52-37,14-69.86,37.94-98.19A159.35,159.35,0,0,1,229,90.94a169.31,169.31,0,0,1,29.6-1.17,136.07,136.07,0,0,1,17.54,1.88C276.45,91.7,276.75,91.8,277.24,91.92Z"/><path class="cls-2" d="M209.5,329l-14.76,21.58c-40.14-21.06-70.5-72.44-55.82-129.26s66-86.28,108.59-86.05a10.6,10.6,0,0,1-.61,1.17c-6.07,8.9-12.17,17.78-18.22,26.7a3.66,3.66,0,0,1-2.31,1.44,86.68,86.68,0,0,0-32.78,17.24c-16.51,13.9-26.9,31.45-30.72,52.73a88.64,88.64,0,0,0,44.09,93C207.73,328,208.49,328.4,209.5,329Z"/><path class="cls-2" d="M291,171.15c5-7.29,9.88-14.47,14.78-21.63,40.06,21.22,69.5,71.44,56.41,126.91-13.32,56.46-63.65,88.09-108.28,88.42a10.76,10.76,0,0,1,.6-1.18q9.21-13.49,18.41-27a3.55,3.55,0,0,1,2.14-1.42,89.08,89.08,0,0,0,62.72-70.48,88.72,88.72,0,0,0-45.22-92.75C292.05,171.79,291.58,171.5,291,171.15Z"/><path class="cls-2" d="M71.82,249c0,.84,0,1.67,0,2.5a9.78,9.78,0,0,1-8.51,9.63A10,10,0,0,1,52,254.52a4.24,4.24,0,0,1-.3-1.29,65.63,65.63,0,0,1,0-8.3A9.3,9.3,0,0,1,60.17,237a10.71,10.71,0,0,1,6.46,1.12,9.68,9.68,0,0,1,5.19,8.55C71.86,247.45,71.82,248.23,71.82,249Zm-14.94.07h0c0,.89,0,1.78,0,2.66a4.47,4.47,0,0,0,4.38,4.38c2.69.12,4.78-1.44,5-4a32.39,32.39,0,0,0,0-6,4.71,4.71,0,0,0-9.38.31C56.83,247.29,56.88,248.18,56.88,249.07Z"/><path class="cls-2" d="M446,255.65h6.18v4.59c-1.23.35-15.29.46-18,.13a12.94,12.94,0,0,1,.88-1.18q5.13-5.56,10.29-11.11c.23-.24.47-.47.68-.73a3.17,3.17,0,0,0-.38-4.59,3.39,3.39,0,0,0-4.74.62,14.89,14.89,0,0,0-.83,1.49h-5.32a20.4,20.4,0,0,1,.44-2.18,8.67,8.67,0,0,1,8.32-5.77,8.53,8.53,0,0,1,8.36,5.69,7.71,7.71,0,0,1-1.44,7.8c-1,1.23-2.23,2.33-3.34,3.48l-1.23,1.31Z"/><path class="cls-2" d="M31.08,260.4c.59-.66,1-1.11,1.37-1.54q5.14-5.56,10.31-11.11a3.31,3.31,0,0,0,1.12-3.13,3.07,3.07,0,0,0-2.6-2.49,3.24,3.24,0,0,0-3.35,1.35,11.55,11.55,0,0,0-.76,1.36H31.91a16.11,16.11,0,0,1,.41-2.22A8.92,8.92,0,0,1,43,237.17a8.35,8.35,0,0,1,6.26,9.63,7.65,7.65,0,0,1-2.12,4.07c-1,1.1-2.1,2.14-3.14,3.21-.38.38-.73.79-1.38,1.52H49c.59,1.66.26,3.13.29,4.54C48,260.62,35.63,260.79,31.08,260.4Z"/><path class="cls-3" d="M287.51,78.64l-11.68-3c-.07-1.28,11.19-46,12.24-48.72.39.06.82.08,1.23.18q9.6,2.43,19.2,4.88a22.28,22.28,0,0,1,6.83,3,15,15,0,0,1,6.51,16.53,23.72,23.72,0,0,1-1.75,4.84A13.32,13.32,0,0,1,308.94,64c-.66.07-1.32.14-2,.23-.1,0-.18.12-.41.29,2.73,6.88,5.47,13.8,8.32,21-.78-.15-1.21-.21-1.62-.31-4-1-7.95-2.06-11.94-3a2.41,2.41,0,0,1-1.93-1.75c-2.1-5.91-4.27-11.8-6.42-17.69a4.28,4.28,0,0,0-.95-1.62C290.52,66.93,289,72.71,287.51,78.64Zm9.93-38.54c-1.08,3.63-1.93,7.19-2.81,10.89,3.51.87,6.82,1.75,10.15,2.51a3.36,3.36,0,0,0,2.78-.86,6.25,6.25,0,0,0,2.47-6.3,4.75,4.75,0,0,0-2.64-3.61,6.74,6.74,0,0,0-1.42-.46C303.19,41.55,300.41,40.85,297.44,40.1Z"/><path class="cls-3" d="M224.54,75.68Q223.16,50.83,221.86,26c1.43-.55,31.2-2.22,33.26-1.87.19,3.43.38,6.9.58,10.58-7,.57-13.84.71-20.88,1.25.14,3,.28,5.81.44,8.9l19.33-1c.19,3.67.37,7.12.56,10.72L236,55.63a62.72,62.72,0,0,0,.39,8.94l21.77-1.13c.19,3.58.36,6.94.54,10.26C257.29,74.16,226.9,75.92,224.54,75.68Z"/><path class="cls-3" d="M130.42,76.56l-.74-.69a4.51,4.51,0,0,0-5-1.21,5.72,5.72,0,0,0-3.87,4.44A4.11,4.11,0,0,0,125,83.93a21.48,21.48,0,0,0,4.35-1c2.55-.74,5-1.76,7.64-2.3,11.46-2.4,18.44,7.85,18.17,15.71-.35,10.07-8.4,15.77-14.79,17a15.35,15.35,0,0,1-15.91-6.69l9.5-7c.47.38.83.71,1.22,1A5.39,5.39,0,0,0,143.45,98a3.9,3.9,0,0,0-3.12-5.1,10.53,10.53,0,0,0-3.62.27c-2.21.53-4.36,1.28-6.56,1.89a23.74,23.74,0,0,1-7.73.94,12.37,12.37,0,0,1-8-3.37A16.38,16.38,0,0,1,112,70.89a18.9,18.9,0,0,1,11.63-7.8,13.21,13.21,0,0,1,6.43.14c3.92,1,6.93,3.36,9.7,6.51Z"/><path class="cls-3" d="M368.92,118.68c-.58-.33-1-.54-1.42-.8-2.81-1.89-5.59-3.83-8.44-5.65a1.94,1.94,0,0,1-1-2.34c.19-.92.21-1.88.45-2.79a1.79,1.79,0,0,0-.93-2.2c-3.52-2.32-7-4.7-10.51-7.05l-4.81-3.25c-1.32.79-2.66,1.55-4,2.37a1.46,1.46,0,0,1-1.82,0c-3.19-2.21-6.42-4.36-9.64-6.54a1.09,1.09,0,0,1-.21-.26c.84-.91,45.17-27.54,49.05-29.45.16.07.35.17.55.25,1.11.47,1.28,1.29,1.1,2.42-1,6.14-1.88,12.29-2.81,18.43q-2.1,13.81-4.19,27.64Zm-6.53-36.1-.34-.24-11.45,7c2.5,2.18,8.48,6,9.62,6.17Q361.3,89,362.39,82.58Z"/><path class="cls-3" d="M183.63,68.62c2,5.71,4,11.24,6,16.9l-11.64,4.13c-5.64-15.78-11.18-31.5-16.82-47.44,10.21-3.7,20.34-7.22,30.62-10.88,1.23,3.48,2.41,6.8,3.66,10.32l-18.86,6.71c1,3.43,2.24,6.66,3.51,10l17.41-6.14c1.21,3.4,2.38,6.7,3.6,10.16Z"/><path class="cls-3" d="M218.28,461.06c-8.36-.08-14.44-6.12-14.36-14.26a13.87,13.87,0,0,1,14.18-14.11c8.25.11,14.46,6.21,14.4,14.13C232.43,455.05,226.35,461.14,218.28,461.06ZM210.42,447c.1,4.28,2.6,7.19,6.82,7.79a7.37,7.37,0,0,0,8.28-5.62,11.11,11.11,0,0,0,.35-2.14,7.48,7.48,0,0,0-6-7.91,7.31,7.31,0,0,0-8.71,4.67A26.31,26.31,0,0,0,210.42,447Z"/><path class="cls-3" d="M189.06,440c.28.49.51.92.75,1.34a6.81,6.81,0,0,1-.32,7.83c-1.82,2.53-4.45,3.16-7.4,2.67a11.76,11.76,0,0,1-1.93-.54q-4.56-1.57-9.11-3.18c-.46-.16-.91-.37-1.52-.63l8.69-25,2,.68c2.68.93,5.36,1.83,8,2.8a7.69,7.69,0,0,1,5.4,6,6.6,6.6,0,0,1-3.83,7.53C189.62,439.69,189.39,439.83,189.06,440Zm-11.48,4.19c1.42.49,2.65,1,3.92,1.35a2.14,2.14,0,0,0,2.73-1.26,2.21,2.21,0,0,0-1.16-2.93c-1.24-.56-2.56-.94-4-1.45Zm3.35-9.61c1,.37,1.79.66,2.57.93a4.43,4.43,0,0,0,.8.19,2.36,2.36,0,0,0,1.44-4.45c-1-.47-2.05-.76-3.23-1.19C182,431.64,181.48,433,180.93,434.6Z"/><path class="cls-3" d="M391.14,406.38,373,387.61a6.5,6.5,0,0,1,.57-.78q3.39-3.45,6.81-6.85a8,8,0,0,1,6.66-2.37c2.87.25,6.19,2.95,6.07,6.41,0,.37,0,.75,0,1.3h2.39a6.89,6.89,0,0,1,6.4,9.69,7.42,7.42,0,0,1-1.49,2.38C397.5,400.29,394.52,403.11,391.14,406.38Zm.88-8.86c.53-.49.93-.86,1.32-1.24.55-.55,1.12-1.08,1.61-1.67a2.05,2.05,0,0,0,0-3,2.21,2.21,0,0,0-3.14-.21c-1,.88-1.95,1.91-3,2.95Zm-7.23-7.13a31.21,31.21,0,0,0,2.49-2.56,2.24,2.24,0,0,0-.24-3,2.2,2.2,0,0,0-3-.3,8.52,8.52,0,0,0-2.42,2.55C382.71,388.2,383.72,389.27,384.79,390.39Z"/><path class="cls-3" d="M364.48,394.84l1.8,2.47q4.25,5.87,8.47,11.74a9.24,9.24,0,0,1,1.59,8.5c-1.57,5.1-7.63,8.82-12.66,7.83a8.44,8.44,0,0,1-5.26-3.25c-3.65-4.9-7.19-9.86-10.88-14.94,1.64-1.44,3.41-2.52,5.2-3.89l1.14,1.5c2.79,3.87,5.57,7.75,8.39,11.6a10.38,10.38,0,0,0,1.78,2c1.44,1.15,3,1,4.57-.16a3.3,3.3,0,0,0,1.27-4.24,12.22,12.22,0,0,0-1.35-2.28c-2.74-3.84-5.51-7.66-8.27-11.49-.32-.44-.62-.9-1.07-1.54Z"/><path class="cls-3" d="M117.83,383l4.76,4.28a10,10,0,0,1-.7.86c-3.86,3.76-7.77,7.46-11.57,11.28-4.27,4.28-9.82,4-14,.2a11.17,11.17,0,0,1-4-7.12,9.29,9.29,0,0,1,3.13-7.92q4.89-4.77,9.8-9.52l2.63-2.54,4.5,4.53c-.28.31-.57.7-.91,1-3.53,3.45-7.08,6.89-10.61,10.36a9.93,9.93,0,0,0-1.56,1.93,3.42,3.42,0,0,0,.8,4.51,3.3,3.3,0,0,0,4.38.64,14.59,14.59,0,0,0,2.43-2c3.32-3.2,6.61-6.42,9.92-9.64C117.21,383.5,117.59,383.18,117.83,383Z"/><path class="cls-3" d="M140.67,433.43c4.22-7.87,8.34-15.57,12.55-23.41l15.49,8.31L166,423.44l-9.56-5.1c-1.07,1.11-1.47,2.57-2.35,4,2.92,1.78,5.94,3.16,8.92,4.92l-2.67,5-9-4.78-2.21,4.12L159.27,437c-.9,1.66-1.75,3.24-2.66,5Z"/><path class="cls-3" d="M392.92,366l10.25-14.18a56.77,56.77,0,0,1,4.76,3.33l-6.33,8.78a20.46,20.46,0,0,0,3.67,2.87l6-8.21,4.6,3.34-5.95,8.27,3.79,2.73,6.77-9.32,4.55,3.3-10.59,14.65C407.27,376.38,400.2,371.25,392.92,366Z"/><path class="cls-3" d="M315.77,428l-2.91,5.13A12.82,12.82,0,0,0,307.4,432a7.61,7.61,0,0,0-7.47,6.93c-.3,4.42,2.32,8.22,6.33,8.9,3.29.57,6-.75,8.14-3.19.47-.53.87-1.13,1.41-1.83l5.24,2.72c-.23.49-.37.9-.58,1.27a15.43,15.43,0,0,1-16.17,7.13,14.15,14.15,0,0,1-11-13.05c-.37-7.37,4.26-13.24,11.66-14.83a14.66,14.66,0,0,1,9.73,1.13,6.37,6.37,0,0,1,.72.41C315.5,427.62,315.56,427.73,315.77,428Z"/><path class="cls-3" d="M70.47,366.32,92.17,351c3.31,4.66,6.55,9.26,9.89,14l-4.73,3.34-6.12-8.64-4.5,3.17c.85,1.43,1.83,2.68,2.73,4s1.79,2.54,2.79,4c-1.43,1.2-3,2.16-4.62,3.33L82,366.25l-7.69,5.41C73,370,71.83,368.23,70.47,366.32Z"/><path class="cls-3" d="M141.46,409.42l-4.85-3.51-12.4,16.59-5.29-3.94,12.39-16.63-4.72-3.56,3.47-4.64,14.85,11.07Z"/><path class="cls-3" d="M252.66,456.71l11.45-.35V462l-17.49.57c-.45-1.22-1.34-23.93-1-26.49,2-.14,4.09-.13,6.35-.23C252.18,442.79,252.41,449.58,252.66,456.71Z"/><path class="cls-3" d="M323.63,419.89l5.85-2.95,9.46,18.65c3.46-1.75,6.8-3.43,10.28-5.17l2.53,5-16.13,8.16C331.61,435.66,327.67,427.86,323.63,419.89Z"/><path class="cls-2" d="M463.86,237.79v22.58h-5.28a32.87,32.87,0,0,1-.15-5.25c0-1.72,0-3.43,0-5.15v-5.63l-2,1.55-2.34-2.59,3.2-3.44c2.09-2.23,2.09-2.23,5.12-2.17C462.81,237.69,463.25,237.75,463.86,237.79Z"/><path class="cls-1" d="M297.44,40.1c3,.75,5.75,1.45,8.53,2.17a6.74,6.74,0,0,1,1.42.46A4.75,4.75,0,0,1,310,46.34a6.25,6.25,0,0,1-2.47,6.3,3.36,3.36,0,0,1-2.78.86c-3.33-.76-6.64-1.64-10.15-2.51C295.51,47.29,296.36,43.73,297.44,40.1Z"/><path class="cls-1" d="M362.39,82.58q-1.08,6.47-2.17,12.91c-1.14-.16-7.12-4-9.62-6.17l11.45-7Z"/><path class="cls-1" d="M210.42,447a26.31,26.31,0,0,1,.76-3.21,7.31,7.31,0,0,1,8.71-4.67,7.48,7.48,0,0,1,6,7.91,11.11,11.11,0,0,1-.35,2.14,7.37,7.37,0,0,1-8.28,5.62C213,454.18,210.52,451.27,210.42,447Z"/><path class="cls-1" d="M177.58,444.21l1.5-4.29c1.43.51,2.75.89,4,1.45a2.21,2.21,0,0,1,1.16,2.93,2.14,2.14,0,0,1-2.73,1.26C180.23,445.2,179,444.7,177.58,444.21Z"/><path class="cls-1" d="M180.93,434.6c.55-1.57,1-3,1.58-4.52,1.18.43,2.24.72,3.23,1.19a2.36,2.36,0,0,1-1.44,4.45,4.43,4.43,0,0,1-.8-.19C182.72,435.26,181.94,435,180.93,434.6Z"/><path class="cls-1" d="M392,397.52l-3.18-3.16c1-1,2-2.07,3-2.95a2.21,2.21,0,0,1,3.14.21,2.05,2.05,0,0,1,0,3c-.49.59-1.06,1.12-1.61,1.67C393,396.66,392.55,397,392,397.52Z"/><path class="cls-1" d="M384.79,390.39c-1.07-1.12-2.08-2.19-3.17-3.32a8.52,8.52,0,0,1,2.42-2.55,2.2,2.2,0,0,1,3,.3,2.24,2.24,0,0,1,.24,3A31.21,31.21,0,0,1,384.79,390.39Z"/><path class="cls-1" d="M56.88,249.07c0-.89-.05-1.78,0-2.67a4.71,4.71,0,0,1,9.38-.31,32.39,32.39,0,0,1,0,6c-.24,2.59-2.33,4.15-5,4a4.47,4.47,0,0,1-4.38-4.38c-.05-.88,0-1.77,0-2.66Z"/></svg>