<?xml version="1.0" encoding="utf-8"?>
<!-- Generator: Adobe Illustrator 23.1.0, SVG Export Plug-In . SVG Version: 6.00 Build 0)  -->
<svg version="1.1" id="Layer_1" xmlns="http://www.w3.org/2000/svg" xmlns:xlink="http://www.w3.org/1999/xlink" x="0px" y="0px"
	 viewBox="0 0 500 500" style="enable-background:new 0 0 500 500;" xml:space="preserve">
<style type="text/css">
	.st0{fill:#0A0A0A;}
	.st1{fill:#FBFBFB;}
	.st2{fill:#020203;}
	.st3{fill:#0303F5;}
	.st4{fill:#224369;}
	.st5{fill:#F5F5F5;}
	.st6{fill:#FFFFFF;}
</style>
<g>
	<path class="st0" d="M499.9,273c-2.4,4.5-2,9.5-2.7,14.3c-14.4,99.1-90,182-187.4,205.5c-12,2.9-24.1,4.9-36.4,6.1
		c-0.9,0.1-2.1-0.3-2.5,1c-14.7,0-29.3,0-44,0c-4.6-2.5-9.8-2.1-14.8-2.8C114,483.2,30.1,406.5,7.1,309.3c-2.6-11-4.4-22.2-5.8-33.4
		c-0.1-1,0.4-2.4-1.2-2.9c0-15.3,0-30.7,0-46c2.5-4.5,2-9.5,2.7-14.3C18.2,107.4,101.4,22,206.3,3.9c6.1-1,12.2-1.8,18.3-2.7
		c0.9-0.1,2.1,0.2,2.4-1.2c14.7,0,29.3,0,44,0c5.2,2.2,10.9,1.9,16.3,2.7c105.3,15.4,190.6,98.5,208.7,203.6
		c1,6.1,1.8,12.2,2.7,18.3c0.1,0.9-0.3,2.1,1.2,2.4C499.9,242.3,499.9,257.7,499.9,273z M249.9,8C116.4,8,8.1,116.1,8,249.6
		C7.9,383.3,115.9,491.9,249.1,492C383.9,492.2,492,384.2,492,249.4C492,116.2,383.5,8,249.9,8z"/>
	<path class="st1" d="M249.9,8C383.5,8,492,116.2,492,249.4c0,134.8-108.1,242.7-242.9,242.6C115.9,491.9,7.9,383.3,8,249.6
		C8.1,116.1,116.4,8,249.9,8z M228.8,472.1c14.1,1.7,28.1,1.7,42.2,0c9.5-0.4,18.8-2.2,28-4.3c28.1-6.3,53.9-17.7,77.7-33.9
		c2.4-1.6,3.1-2.6,0.9-5.2c-5.9-7.1-11.3-14.7-16.2-22.5c-8.3-13.4-16-27.1-21.9-41.7c1.3-1.3,2.4-2.4,3.5,0.4
		c1.5,3.8,4.7,5.7,8.7,5.6c3.3-0.1,4.6,1.4,5.9,4.1c8.1,16.4,18.1,31.8,29.2,46.4c2.4,3.2,3.7,2.8,6.4,0.5
		c15.7-13.3,29.3-28.5,41.2-45.3c2.5-3.6,2.5-5.9,0-9.5c-20.5-29-32.8-61.2-36.3-96.5c-5-50.7,7.3-97,36.5-138.8
		c1.8-2.6,1.9-4.3,0.1-6.9c-11.8-16.9-25.4-32.1-41.2-45.3c-4.9-4.1-4.9-4.1-8.7,1c-39.4,52.5-58.2,111.5-56.9,177c0,1.9,0,3.7,0,6
		c-4.6-2.7-8.4-5-12.2-7.3c0-11.3,0.1-22.6,1.2-33.9c2.4-26.3,8.2-51.9,17.7-76.6c10.4-26.9,24-52.1,42.2-74.7
		c1.8-2.2,1.8-3.4-0.7-4.9c-5.6-3.3-10.9-7.1-16.6-10.2c-13.6-7.3-27.6-13.4-42.5-18c-14.8-4.6-29.7-7.9-45-9.5
		c-14.4-1.7-28.8-1.8-43.1-0.1c-38.5,3.2-73.4,16.4-105.3,37.9c-3.2,2.2-1.6,3.6-0.1,5.4c10.2,13,19,26.9,26.7,41.4
		c17.5,32.8,27.9,67.8,32.3,104.6c0.5,5.9,1,11.7,1.5,17.6c0.1,3.8,0.3,7.7,0.4,11.5c-4.1,3-6.7,8-12.4,9.5
		c0.2-18.1-0.9-35.7-3.9-53.2c-7.8-46.2-26.1-87.7-54.7-124.9c-1.9-2.5-3.1-2.4-5.4-0.5c-16.2,13.5-30.3,29-42.4,46.2
		c-2,2.9-2,4.7,0,7.7c21.1,30.3,33.5,63.9,36.3,100.6c3.9,49.8-8.7,95.3-37.4,136.3c-1.8,2.5-1.6,4.1,0,6.5
		c11.9,17.4,26,32.9,42,46.6c2.9,2.5,4.2,2.2,6.4-0.8c11.5-15,21.5-30.8,29.9-47.7c0.8-1.5,1-3.6,3.7-3c3.4,0.8,6.8,1.4,10.2,2
		c-9.5,20-20.8,39-34.6,56.3c-2.1,2.6-1.8,3.8,0.9,5.5c6.8,4.5,13.7,8.9,20.8,12.7C170.6,460.7,198.7,469.7,228.8,472.1z"/>
	<path class="st2" d="M156.9,372c-3.4-0.7-6.9-1.2-10.2-2c-2.7-0.7-3,1.4-3.7,3c-8.4,16.9-18.5,32.7-29.9,47.7
		c-2.2,2.9-3.5,3.3-6.4,0.8c-16-13.7-30.1-29.2-42-46.6c-1.6-2.4-1.8-4,0-6.5c28.7-41,41.3-86.5,37.4-136.3
		c-2.9-36.8-15.2-70.4-36.3-100.6c-2.1-2.9-2-4.8,0-7.7C77.7,106.4,91.8,91,108,77.5c2.3-1.9,3.4-2,5.4,0.5
		c28.5,37.1,46.9,78.7,54.7,124.9c3,17.4,4.1,35,3.9,53.2c5.7-1.6,8.3-6.5,12.4-9.5c1.2-0.1,1.4-1,1.8-2c2.1-5.7,1.8-11.9,3.6-17.8
		c0.9-3.2,2.2-7.8-0.2-10.1c-5.6-5.4-6.6-10.8-3.4-17.6c4.5-9.6,5-21.3,14.6-28.4c0.7-0.5,1.1-1.1,1.4-1.9c3.8-10,11-16.8,20.9-20.8
		c4.2-1.7,6.1-4.8,4.6-9c-1.5-4.4-1.2-8.9-1.5-13.3c-0.3-4.8-0.3-9.5-1.5-14.3c-1.6-6.4,3.2-15.5,12.4-15.3
		c5.8,0.1,11.7,0.4,17.4-0.2c9-0.8,15.4,6.2,13.9,15.2c-1.7,10.1-2.8,20.2-4.3,30.4c-0.5,3.5,0.9,5.5,4.2,6.7
		c7.5,2.8,13.1,7.9,18,14.3c6.3,8.4,7.7,19,13.7,27.8c5,7.4,3.9,17,0.2,25.6c-0.6,1.3-2,2.5-1.3,4.1c2,4.6,0.9,9.6,1.6,14.3
		c0.6,4.2,0.1,9.5,3.1,12c4,3.3,7.5,7.5,12.4,9.7c3.8,2.3,7.7,4.6,12.2,7.3c0-2.3,0-4.2,0-6c-1.4-65.5,17.5-124.6,56.9-177
		c3.8-5.1,3.8-5.1,8.7-1c15.8,13.2,29.4,28.5,41.2,45.3c1.8,2.6,1.7,4.3-0.1,6.9c-29.2,41.8-41.4,88.1-36.5,138.8
		c3.5,35.3,15.7,67.5,36.3,96.5c2.5,3.6,2.5,5.9,0,9.5c-11.9,16.8-25.5,32-41.2,45.3c-2.7,2.3-4,2.7-6.4-0.5
		c-11.1-14.6-21-29.9-29.2-46.4c-1.3-2.6-2.6-4.2-5.9-4.1c-3.9,0.2-7.1-1.8-8.7-5.6c-1.1-2.7-2.2-1.7-3.5-0.4
		c-13.6,10.4-30.2,9.5-43.2-0.9c-2.2-1.8-3.1-2.6-4.4,0.7c-1.4,3.6-4.1,5.9-8.6,5.8c-9.5-0.2-19,0-28.5,0c-6.3,0-9.4-2.4-10.7-8.6
		c-0.7-3.3-1.9-5.3-5.7-5.4c-3.7,0-5.6,1-6.7,4.9c-2,7.6-4.5,9.1-12.4,9.1c-7.8,0-15.7-0.3-23.5,0.1c-6.1,0.3-10.5-1.5-12.7-7.9
		C175.7,370,166.7,371.9,156.9,372z M277,186c3,0,5.8-1,4.8-4.5c-1.7-6.1-4.6-11.7-9.1-16.3c-0.8-0.8-1.9-1.8-3-0.9
		c-1.4,1.2,0.3,1.9,0.9,2.8C274.4,172.9,278.8,178.4,277,186c0,0.2-0.1,0.3-0.2,0.4C276.8,186.3,276.9,186.1,277,186z M286,287
		L286,287c-0.4,3.1-3.9,4.4-4.4,8.3c15-6.4,29.9-12,45.6-17.4c-5.7-4.7-11.4-7.6-16.9-11.1c-2.8-1.8-5.4-2-8.4-0.6
		c-2.6,1.2-5.1,2.7-8.2,2.5c0.3-2,3.4-3.3,1.8-4.9c-1.5-1.4-3.2,0.8-4.6,1.8c-9.2,6.5-18.4,13.1-26.7,20.8c-1,1-3.1,1.8-2.5,3.4
		c0.6,1.9,2.8,1.3,4.4,1.3c1,0,2-0.3,2.9-0.4C274.9,290.2,280.1,287.1,286,287z M207,295c0,0.1,0.1,0.2,0.1,0.3c0,0.1,0.2,0,0.3,0.1
		C207.3,295.2,207.1,295.1,207,295c-0.5-3.2-3.9-4.8-4.7-8.2c8.4,1,16.3,6,26.4,2.8c-8.6-6.9-15.8-13.2-23.6-18.7
		c-4.5-3.2-8.4-7.6-14.1-8.9c0-0.1,0-0.3-0.1-0.4c0-0.1-0.2-0.1-0.3-0.1c0.1,0.1,0.3,0.3,0.4,0.4c1,2,2,4,3.1,5.9l-0.2,0.2
		c-3,0.2-5.5-1.1-8.1-2.2c-1.9-0.9-3.7-1.1-5.7-0.1c-6.5,3.3-12.8,6.9-18.6,11.7c2.6,2,5.7,2.3,8.4,3.4
		C182.3,285.6,194.7,290.3,207,295z M213,267c7.7,6.2,15.4,12.4,23.7,19c0-1.6,0.1-2.2,0-2.8c-1.7-16.2-3.4-32.3-5.4-48.5
		c-0.3-2.4,0.6-5.5-2-7.4c-3.2-2.3-5.8-5.5-9.4-7.2c-4.2-5.4-4.3-12-6.4-18.7c4.1,1.3,7.3,2.4,10.4,3.4c1.1,0.5,2.1,1,3.2,1.4
		c8.8,3.2,9.3,3.2,8.8,12.8c-0.3,6.2,2.1,8.7,8.2,9.3c-0.9-11.9,5.7-24.8-6.8-35.4c10.5,0.7,19.8-0.5,29.3-5.7c-7,0-13-0.4-19,0.1
		c-4.7,0.4-5.7-1.5-5.4-5.6c0.7-9.7,2.6-19,10.2-26.4c-7.7-0.5-14.7,0.4-21.4,2.3c-10.5,2.9-17,9.7-19.3,20.6
		c-0.6,2.6,0,3.9,2.2,5.2c0.9,0.5,3.7,0.4,2.2,3c-2.7-0.8-5.5-1.5-8.1-2.5c-2.3-0.9-3.5-0.7-4.4,1.9c-2,6-4.2,11.8-6.5,17.7
		c-0.7,1.9-0.4,3,1.5,4c3.6,1.8,7,3.8,10.5,5.7c0.8,0.5,2.2,0.8,1.6,2.1c-0.4,1-1.6,0.9-2.5,0.3c-4-2.3-4.6,0.2-5.2,3.5
		c-1.8,10.6-3.7,21.2-5.6,31.8c-0.4,2-0.7,3.7,1.4,5.2C203.6,259.7,208.3,263.4,213,267z M181.1,324.3c0-7.9,0-14.6,0-21.2
		c0-1.1,0.6-2.7-0.6-3.2c-3-1-6.3-0.8-9.4-0.2c-2.7,0.5-1.3,3.3-1.3,5.1c-0.3,12.5,0.5,25-0.5,37.4c-0.5,5.9-3.2,8.5-8.7,9
		c-8.1,0.8-12.6-3-12.8-11.4c-0.3-10.8-0.2-21.6-0.2-32.4c0-8.8,0-8.7-8.8-7.9c-1.7,0.2-2.8,0.4-2.8,2.5c0.4,15-1.1,30,1,44.9
		c1,7.3,5.5,12,12.5,14.1c5.7,1.7,11.5,1.7,17.3,0.3c7.5-1.8,12.1-6.5,13.5-14.2C181.7,339,180.8,331,181.1,324.3z M265.8,360.6
		c0.5-1.8-0.6-3.2-1.1-4.7c-6.5-17.6-13.3-35.1-19.4-52.8c-2-5.7-6.1-2.9-9.4-3.6c-3.1-0.6-4.7,0.7-5.7,3.8c-3,9-6.3,17.8-9.5,26.7
		c-3.6,10.1-7.2,20.2-10.9,30.5c11.8,1.5,11.8,1.5,15.1-8.7c0.2-0.6,0.4-1.3,0.5-1.9c0.4-2.5,1.9-3,4.2-3c5,0.1,10,0.3,15,0
		c3.6-0.2,5.2,1.1,6.3,4.5c3.3,10.2,3.5,10.2,14.4,9.4C265.4,360.8,265.6,360.7,265.8,360.6z M292.6,330.2c0,5.2,0.5,10.3,2.4,15.2
		c4,10.4,12.8,16.6,23.7,16.5c10.7,0,18.1-5.3,21.9-15.5c0.8-2.2,2.5-5.2-1.7-5.3c-3-0.1-7-6.4-9.3,1.3c-1.8,6.1-6.2,8.9-11.8,8.8
		c-5.6-0.1-9.9-3.3-11.7-9.1c-2.4-7.8-2.5-15.7-0.1-23.6c1.7-5.6,5.6-9,11.6-9.4c5.8-0.4,9.9,2.3,12.2,7.6c0.4,1,0.4,2.6,2.1,2.2
		c3.2-0.8,7.2-0.9,9.3-2.9c1.5-1.5-1-5.1-2.4-7.5c-2.3-4-5.8-6.8-10.1-8.5c-13.9-5.4-28.6,1.5-33.6,15.5
		C293.2,320.3,292.6,325.2,292.6,330.2z M244.2,150.1c2.9-0.2,5.6,0.9,6.1-3.1c1.7-11.8,3.8-23.6,5.6-35.4c0.2-1.4,0.5-3.6-1.6-3.5
		c-3.7,0.2-7.9-3.3-11.1,1.3c-0.2,0.3-1,0.6-1,0.6c-1.4-1.6-3.1-3.3-4.8-1.1c-1.3,1.7-0.4,4.2-0.2,6.3c0.9,9.9,2,19.8,2.6,29.7
		C240,148.7,240.6,151,244.2,150.1z M267.5,220c-2.3,2.1-4.7,4.1-7,6.2c-1.7,1.6-3.2,3-3.5,5.7c-2.1,18.1-4.4,36.3-6.8,55.1
		c3.7-2.7,7.1-4.5,7.1-9.7c0-6,0.7-12,1.8-17.8C261.8,246.5,258.2,232,267.5,220z M277.4,265.2c10.5-4.5,13.7-10.6,12.1-21.2
		c-1.5-9.8-2.4-19.7-3.5-29.6c-0.2-1.6-0.4-3.1,1.1-4.6c3.4-3.2,4.4-10,2.5-13.9c-0.5-1-1.1-1.7-2.3-1.6c-1,0.1-1.3,1-1.3,1.9
		c0.1,4.3,0.3,8.6-4.2,11.3c-0.6,0.3-0.7,1.8-0.6,2.8c1.1,11.7,2.3,23.4,3.5,35.1c0.5,4.8,0.5,9.2-4.1,12.4
		C278.3,259.5,277.6,262.3,277.4,265.2z M283.1,355.6c0.6-4.1,0.6-7-5.1-6.7c-4.4,0.2-6,1.2-5.7,5.8c0.2,3.9-0.2,6.9,5.5,6.5
		C282,360.8,284.5,360.4,283.1,355.6z M351.9,355.1c-0.6,3.8-0.5,6.3,4.7,6.1c4.4-0.2,6.5-0.6,6.2-5.8c-0.3-4-0.1-6.6-5.6-6.5
		C352,349,350.9,350.9,351.9,355.1z M203.9,355.5c0.5-3.9,0.8-7.1-4.9-6.5c-3.8,0.4-6.7,0.1-6,5.4c0.5,3.8-0.7,7.4,5.6,6.8
		C203.1,360.8,205.2,360,203.9,355.5z"/>
	<path class="st3" d="M315.8,255.8c-4.9-2.2-8.4-6.4-12.4-9.7c-3-2.5-2.5-7.8-3.1-12c-0.7-4.7,0.4-9.7-1.6-14.3
		c-0.7-1.6,0.7-2.8,1.3-4.1c3.7-8.6,4.8-18.2-0.2-25.6c-6-8.8-7.3-19.4-13.7-27.8c-4.8-6.4-10.4-11.5-18-14.3
		c-3.3-1.2-4.7-3.2-4.2-6.7c1.5-10.1,2.5-20.3,4.3-30.4c1.6-8.9-4.9-15.9-13.9-15.2c-5.7,0.5-11.6,0.3-17.4,0.2
		c-9.2-0.2-14,9-12.4,15.3c1.2,4.8,1.2,9.5,1.5,14.3c0.3,4.5,0,8.9,1.5,13.3c1.4,4.2-0.4,7.3-4.6,9c-9.9,4-17,10.8-20.9,20.8
		c-0.3,0.8-0.8,1.4-1.4,1.9c-9.6,7-10.1,18.7-14.6,28.4c-3.2,6.8-2.1,12.2,3.4,17.6c2.4,2.3,1.2,7,0.2,10.1
		c-1.8,5.9-1.5,12-3.6,17.8c-0.4,1-0.6,1.9-1.8,2c-0.1-3.8-0.3-7.7-0.4-11.5c-0.6-5.9,1.3-11.9-1.5-17.6
		c-4.4-36.9-14.8-71.8-32.3-104.6c-7.8-14.5-16.5-28.4-26.7-41.4c-1.5-1.9-3.1-3.2,0.1-5.4c31.9-21.5,66.8-34.7,105.3-37.9
		c14.4,0,28.8,0,43.1,0.1c15.4,1.5,30.2,4.9,45,9.5c14.9,4.6,28.9,10.7,42.5,18c5.7,3,11,6.9,16.6,10.2c2.5,1.5,2.5,2.7,0.7,4.9
		c-18.1,22.6-31.8,47.8-42.2,74.7c-9.5,24.6-15.3,50.2-17.7,76.6C315.9,233.2,315.8,244.5,315.8,255.8z M263.2,71.3
		c-0.8,7.3-2.1,8-7.7,4.3c-1.6-1-3.5-0.7-4.7,0.2c-1.7,1.2-0.1,2.7,0.6,3.8c3.1,5.1,11.6,4.8,15.4-0.3c3.8-5.3,4.2-17.4,0.6-22.9
		c-2.5-3.7-6.1-5.1-10.4-4.3c-3.9,0.7-6.3,3.2-7.3,7.1C247.4,68.2,253.6,73.9,263.2,71.3z M239.5,71.1c-1.1,7.7-2.3,8.3-7.7,4.6
		c-1.5-1-3.4-0.7-4.7,0.2c-1.9,1.2-0.2,2.7,0.4,3.8c1.7,3.2,4.8,3.8,8.1,3.6c4-0.3,7-2.3,8.5-6c2.5-6.4,2.5-12.9,0.1-19.3
		c-1.3-3.5-4.1-5.5-8-5.9c-4.2-0.4-7.6,1.1-9.5,4.9c-2,3.9-2,8.1,0.7,11.8C230.5,73,234.6,72.9,239.5,71.1z M282,77.3
		c3.4-4.7,7.7-7.1,9.9-11.3c2.5-4.7,1.6-10-2.2-12.5c-4.1-2.7-11.5-1.9-14.1,1.8c-1.2,1.6-3.1,3.9-0.8,5.5c1.6,1.1,4.4,1.6,5.4-2
		c0.7-2.3,3.1-2.4,5.1-1.6c2,0.8,2.3,2.6,2,4.6c-0.4,2.5-2.3,4-3.8,5.7c-3.4,3.6-7.4,6.5-9.7,11.2c-1.4,2.9-1.3,4.1,2.1,4.1
		c4.8,0,9.6-0.1,14.5,0c2,0,3.1-0.4,3.1-2.7c0-2.1-0.8-3-2.9-2.9C288,77.4,285.6,77.3,282,77.3z M211.1,61.1c0,6.8,0,12.7,0,18.7
		c0,2,0.5,3,2.8,3.1c2.4,0,3.2-0.7,3.2-3.1c-0.1-8.3,0-16.6-0.1-25c0-1.1,0.4-2.6-1.3-2.7c-1.2-0.1-2.8-0.7-3.7,0.7
		c-1.7,2.8-4.1,4.7-6.9,6.3c-2.2,1.2-1.9,3.4-1.1,4.8c1,1.8,2.5-0.2,3.7-0.6C208.7,62.8,209.4,62.2,211.1,61.1z"/>
	<path class="st3" d="M156.9,372c9.7-0.1,18.8-2.1,26.3-9.7c2.2,6.3,6.6,8.2,12.7,7.9c7.8-0.4,15.7-0.1,23.5-0.1
		c7.9,0,10.4-1.6,12.4-9.1c1-3.9,3-4.9,6.7-4.9c3.8,0,5,2,5.7,5.4c1.3,6.2,4.4,8.6,10.7,8.6c9.5,0.1,19-0.1,28.5,0
		c4.5,0.1,7.1-2.2,8.6-5.8c1.3-3.4,2.2-2.5,4.4-0.7c13,10.3,29.6,11.3,43.2,0.9c6,14.6,13.6,28.3,21.9,41.7
		c4.9,7.9,10.2,15.4,16.2,22.5c2.1,2.5,1.5,3.5-0.9,5.2c-23.7,16.3-49.6,27.6-77.7,33.9c-9.2,2.1-18.5,3.9-28,4.2
		c-14.1,0-28.1,0-42.2,0c-30.1-2.4-58.2-11.4-84.8-25.5c-7.2-3.8-14-8.2-20.8-12.7c-2.6-1.7-3-2.9-0.9-5.5
		C136.2,411,147.5,392.1,156.9,372z"/>
	<path class="st4" d="M272,28c-14.4,0-28.8,0-43.1-0.1C243.3,26.2,257.7,26.3,272,28z"/>
	<path class="st4" d="M182.4,217.4c2.8,5.7,0.9,11.7,1.5,17.6C183.4,229.1,182.9,223.2,182.4,217.4z"/>
	<path class="st1" d="M224,204.9c-3.1-1-6.3-2-10.4-3.4c2.1,6.7,2.2,13.3,6.4,18.7c-0.1,2.8,1.8,4.9,2.8,7.3c1.3,3,3.6,5.9,4,9
		c1.1,9.8,1.5,19.7,2.3,29.5c0.3,3.5-1.2,4.4-4.4,3.6c-3.8-1-7.7-1.8-11.5-2.7c-4.7-3.6-9.4-7.3-14.2-10.8c-2.1-1.5-1.8-3.2-1.4-5.2
		c1.9-10.6,3.8-21.2,5.6-31.8c0.5-3.2,1.1-5.7,5.2-3.5c0.9,0.5,2.1,0.7,2.5-0.3c0.5-1.2-0.8-1.6-1.6-2.1c-3.5-2-6.9-4-10.5-5.7
		c-1.9-1-2.2-2.1-1.5-4c2.2-5.9,4.5-11.8,6.5-17.7c0.9-2.6,2-2.9,4.4-1.9c2.6,1.1,5.4,1.7,8.1,2.5c0.2,1.6,0.5,3.3,0.6,4.9
		C216.8,197.1,221.8,200.2,224,204.9z"/>
	<path class="st5" d="M224,204.9c-2.2-4.7-7.2-7.8-7.4-13.6c-0.1-1.6-0.4-3.3-0.6-4.9c1.5-2.5-1.3-2.5-2.2-3
		c-2.2-1.3-2.7-2.6-2.2-5.2c2.3-10.9,8.8-17.6,19.3-20.6c6.7-1.9,13.7-2.8,21.4-2.3c-7.6,7.4-9.5,16.7-10.2,26.4
		c-0.3,4.1,0.7,6,5.4,5.6c5.9-0.5,11.9-0.1,19-0.1c-9.5,5.2-18.8,6.3-29.3,5.7c12.5,10.6,5.9,23.5,6.8,35.4c-6-0.6-8.5-3.2-8.2-9.3
		c0.5-9.5,0.1-9.5-8.8-12.8C226.1,205.9,225.1,205.4,224,204.9z"/>
	<path class="st5" d="M181.1,324.3c-0.3,6.7,0.6,14.7-0.9,22.6c-1.4,7.7-5.9,12.4-13.5,14.2c-5.8,1.4-11.6,1.4-17.3-0.3
		c-7-2.1-11.5-6.8-12.5-14.1c-2.1-14.9-0.6-29.9-1-44.9c-0.1-2.1,1-2.3,2.8-2.5c8.8-0.8,8.8-0.8,8.8,7.9c0,10.8-0.1,21.6,0.2,32.4
		c0.2,8.4,4.7,12.2,12.8,11.4c5.5-0.5,8.2-3.2,8.7-9c1-12.5,0.2-24.9,0.5-37.4c0-1.7-1.4-4.6,1.3-5.1c3-0.6,6.3-0.8,9.4,0.2
		c1.2,0.4,0.6,2.1,0.6,3.2C181.2,309.8,181.1,316.4,181.1,324.3z"/>
	<path class="st5" d="M265.8,360.6c-0.2,0.1-0.3,0.2-0.5,0.2c-10.9,0.7-11.1,0.8-14.4-9.4c-1.1-3.4-2.6-4.8-6.3-4.5
		c-5,0.3-10,0.2-15,0c-2.3-0.1-3.8,0.5-4.2,3c-0.1,0.7-0.3,1.3-0.5,1.9c-3.3,10.2-3.3,10.2-15.1,8.7c3.6-10.2,7.3-20.3,10.9-30.5
		c3.2-8.9,6.5-17.8,9.5-26.7c1-3.1,2.6-4.4,5.7-3.8c3.3,0.7,7.4-2.1,9.4,3.6c6.2,17.7,13,35.2,19.4,52.8
		C265.2,357.4,266.2,358.9,265.8,360.6z M237.5,313.9c-2.8,8.2-5.1,15.2-7.6,22.7c4.7,0,8.8-0.1,12.9,0c2.3,0,2.4-0.9,1.8-2.8
		C242.3,327.7,240.2,321.4,237.5,313.9z"/>
	<path class="st5" d="M292.6,330.2c0.1-5,0.6-9.9,2.3-14.7c5-14.1,19.7-20.9,33.6-15.5c4.3,1.7,7.8,4.5,10.1,8.5
		c1.4,2.4,4,6,2.4,7.5c-2,2-6.1,2.2-9.3,2.9c-1.6,0.4-1.6-1.2-2.1-2.2c-2.3-5.3-6.3-8-12.2-7.6c-6,0.4-9.8,3.9-11.6,9.4
		c-2.4,7.8-2.3,15.8,0.1,23.6c1.8,5.8,6.2,9,11.7,9.1c5.6,0.1,10-2.7,11.8-8.8c2.3-7.7,6.3-1.4,9.3-1.3c4.2,0.1,2.5,3.1,1.7,5.3
		c-3.8,10.3-11.2,15.5-21.9,15.5c-10.9,0-19.7-6.1-23.7-16.5C293.1,340.5,292.6,335.4,292.6,330.2z"/>
	<path class="st4" d="M194.1,267.9c-1-2-2-4-3.1-5.9l0,0c5.7,1.3,9.6,5.7,14.1,8.9c7.8,5.5,15.1,11.8,23.6,18.7
		c-10.1,3.2-18-1.9-26.4-2.8c0.8,3.4,4.2,5,4.6,8.3l0,0c-12.3-4.7-24.7-9.4-37-14.1c-2.7-1.1-5.8-1.4-8.4-3.4
		c5.8-4.8,12.1-8.3,18.6-11.7c2-1,3.7-0.8,5.7,0.1c2.5,1.2,5.1,2.5,8.1,2.2c0.2,0.1,0.4,0.2,0.6,0.4
		C194.4,268.3,194.2,268.1,194.1,267.9z"/>
	<path class="st4" d="M286,287c-5.9,0.1-11.2,3.2-17,3.5c-1,0.1-2,0.4-2.9,0.4c-1.6,0-3.8,0.6-4.4-1.3c-0.5-1.5,1.5-2.4,2.5-3.4
		c8.3-7.6,17.5-14.3,26.7-20.8c1.4-1,3.1-3.2,4.6-1.8c1.7,1.6-1.4,2.9-1.8,4.9c3.1,0.2,5.7-1.3,8.2-2.5c3-1.4,5.6-1.2,8.4,0.6
		c5.4,3.4,11.2,6.4,16.9,11.1c-15.7,5.5-30.6,11.1-45.6,17.4C282.1,291.4,285.6,290.1,286,287c0-0.2,0.1-0.3,0.2-0.4
		C286.1,286.7,286.1,286.9,286,287z"/>
	<path class="st4" d="M244.2,150.1c-3.6,0.9-4.2-1.4-4.4-5c-0.6-9.9-1.7-19.8-2.6-29.7c-0.2-2.1-1.1-4.6,0.2-6.3
		c1.7-2.3,3.4-0.6,4.8,1.1c0,0.1,0.8-0.3,1-0.6c3.2-4.6,7.4-1.1,11.1-1.3c2.1-0.1,1.8,2.1,1.6,3.5c-1.8,11.8-3.9,23.6-5.6,35.4
		C249.8,151,247.2,149.9,244.2,150.1z"/>
	<path class="st5" d="M213,267c3.8,0.9,7.7,1.7,11.5,2.7c3.2,0.8,4.7-0.1,4.4-3.6c-0.7-9.8-1.1-19.7-2.3-29.5c-0.4-3.1-2.6-6-4-9
		c-1.1-2.4-2.9-4.5-2.8-7.3c3.7,1.7,6.2,4.9,9.4,7.2c2.6,1.9,1.7,5,2,7.4c2,16.1,3.6,32.3,5.4,48.5c0.1,0.6,0,1.2,0,2.8
		C228.5,279.4,220.7,273.2,213,267z"/>
	<path class="st5" d="M267.5,220c-9.3,12-5.7,26.5-8.3,39.5c-1.2,5.8-1.8,11.9-1.8,17.8c0,5.2-3.4,6.9-7.1,9.7
		c2.3-18.8,4.7-37,6.8-55.1c0.3-2.7,1.8-4.2,3.5-5.7C262.8,224.1,265.1,222.1,267.5,220z"/>
	<path class="st4" d="M277.4,265.2c0.2-3,0.9-5.8,3.3-7.4c4.6-3.2,4.6-7.6,4.1-12.4c-1.2-11.7-2.4-23.4-3.5-35.1
		c-0.1-0.9,0-2.4,0.6-2.8c4.5-2.7,4.3-7,4.2-11.3c0-0.9,0.3-1.7,1.3-1.9c1.1-0.1,1.8,0.6,2.3,1.6c1.9,3.9,0.8,10.7-2.5,13.9
		c-1.5,1.5-1.2,3-1.1,4.6c1.1,9.9,2,19.8,3.5,29.6C291.2,254.6,288,260.7,277.4,265.2z"/>
	<path class="st5" d="M283.1,355.6c1.4,4.8-1.1,5.2-5.4,5.5c-5.7,0.4-5.2-2.6-5.5-6.5c-0.3-4.6,1.3-5.5,5.7-5.8
		C283.6,348.6,283.6,351.5,283.1,355.6z"/>
	<path class="st5" d="M351.9,355.1c-1-4.2,0.1-6.1,5.3-6.2c5.5-0.1,5.3,2.4,5.6,6.5c0.4,5.2-1.8,5.6-6.2,5.8
		C351.4,361.4,351.3,358.9,351.9,355.1z"/>
	<path class="st5" d="M203.9,355.5c1.3,4.5-0.8,5.3-5.3,5.7c-6.3,0.5-5.2-3-5.6-6.8c-0.6-5.3,2.2-5,6-5.4
		C204.7,348.4,204.4,351.6,203.9,355.5z"/>
	<path class="st4" d="M277,186c1.8-7.6-2.6-13.2-6.4-18.9c-0.6-0.8-2.3-1.6-0.9-2.8c1.1-0.9,2.2,0,3,0.9c4.5,4.6,7.4,10.2,9.1,16.3
		C282.8,185,280,186,277,186L277,186z"/>
	<path class="st4" d="M207,295c0.1,0.1,0.3,0.2,0.4,0.4c-0.1,0-0.2,0-0.3-0.1C207.1,295.2,207.1,295.1,207,295
		C207,295,207,295,207,295z"/>
	<path class="st4" d="M191,262c-0.1-0.1-0.3-0.3-0.4-0.4c0.1,0,0.2,0,0.3,0.1C191,261.7,191,261.9,191,262C191,262,191,262,191,262z
		"/>
	<path class="st4" d="M277,186c-0.1,0.1-0.2,0.3-0.2,0.4C276.8,186.3,276.9,186.2,277,186C277,186,277,186,277,186z"/>
	<path class="st5" d="M263.2,71.3c-9.6,2.6-15.8-3.1-13.5-12c1-3.9,3.5-6.4,7.3-7.1c4.3-0.8,7.9,0.6,10.4,4.3
		c3.6,5.4,3.2,17.6-0.6,22.9c-3.7,5.2-12.2,5.4-15.4,0.3c-0.7-1.1-2.3-2.6-0.6-3.8c1.3-0.9,3.2-1.2,4.7-0.2
		C261.1,79.3,262.4,78.6,263.2,71.3z M258.7,58c-3.3-0.7-3.6,1.7-3.6,4.2c0,2.8,0.6,5.6,4,5.7c3.2,0.1,3.9-2.5,3.9-5.2
		C263,60,262.5,57.6,258.7,58z"/>
	<path class="st5" d="M239.5,71.1c-4.9,1.8-9,1.9-12.1-2.3c-2.7-3.7-2.7-7.9-0.7-11.8c1.9-3.8,5.3-5.3,9.5-4.9
		c3.8,0.4,6.6,2.3,8,5.9c2.4,6.4,2.4,13-0.1,19.3c-1.5,3.7-4.5,5.7-8.5,6c-3.3,0.2-6.4-0.5-8.1-3.6c-0.6-1.1-2.3-2.6-0.4-3.8
		c1.3-0.8,3.2-1.2,4.7-0.2C237.3,79.4,238.5,78.8,239.5,71.1z M239.2,62.9c-0.2-2.9-0.6-5-4.2-5c-3.4,0-3.8,2-3.8,4.4
		c0.1,2.7,0.6,5.6,4.1,5.6C238.6,67.9,239.1,65.3,239.2,62.9z"/>
	<path class="st5" d="M282,77.3c3.6,0,6,0.1,8.5,0c2.2-0.1,2.9,0.8,2.9,2.9c0,2.3-1.1,2.8-3.1,2.7c-4.8-0.1-9.6,0-14.5,0
		c-3.4,0-3.5-1.2-2.1-4.1c2.2-4.7,6.3-7.6,9.7-11.2c1.6-1.7,3.4-3.2,3.8-5.7c0.3-2,0-3.8-2-4.6c-2-0.8-4.4-0.7-5.1,1.6
		c-1,3.5-3.8,3.1-5.4,2c-2.3-1.6-0.4-3.9,0.8-5.5c2.7-3.7,10.1-4.6,14.1-1.8c3.8,2.5,4.7,7.8,2.2,12.5
		C289.7,70.1,285.4,72.5,282,77.3z"/>
	<path class="st5" d="M211.1,61.1c-1.7,1.1-2.5,1.7-3.4,2c-1.2,0.5-2.7,2.4-3.7,0.6c-0.8-1.4-1.1-3.6,1.1-4.8
		c2.8-1.5,5.2-3.5,6.9-6.3c0.8-1.4,2.4-0.8,3.7-0.7c1.7,0.1,1.3,1.7,1.3,2.7c0,8.3,0,16.6,0.1,25c0,2.4-0.9,3.2-3.2,3.1
		c-2.3,0-2.8-1.1-2.8-3.1C211.2,73.9,211.1,67.9,211.1,61.1z"/>
	<path class="st0" d="M237.5,313.9c2.6,7.5,4.8,13.8,7,20c0.7,1.8,0.5,2.8-1.8,2.8c-4.1-0.1-8.2,0-12.9,0
		C232.4,329.1,234.8,322.1,237.5,313.9z"/>
	<path class="st2" d="M194.1,267.9c0.1,0.2,0.3,0.4,0.4,0.5c-0.2-0.1-0.4-0.2-0.6-0.4C193.9,268.1,194.1,267.9,194.1,267.9z"/>
	<path class="st2" d="M286,287c0.1-0.1,0.1-0.3,0.2-0.4C286.1,286.7,286,286.8,286,287C286,287,286,287,286,287z"/>
	<path class="st3" d="M258.7,58c3.8-0.4,4.3,2,4.3,4.7c0,2.7-0.7,5.3-3.9,5.2c-3.4-0.1-4-2.9-4-5.7C255.1,59.7,255.4,57.3,258.7,58z
		"/>
	<path class="st3" d="M239.2,62.9c-0.1,2.4-0.7,5-3.9,5c-3.5,0-4-2.9-4.1-5.6c0-2.4,0.4-4.4,3.8-4.4C238.6,57.9,239.1,60,239.2,62.9
		z"/>
</g>
<g>
	<path class="st6" d="M160.8,428.1c0.2-0.4,0.6-0.7,0.7-1.1c0.8-2.2,3.9-4.9,6.4-4.6c0.6,0.1,1.3,0,1.9,0c2.8-0.1,4.6,1.6,6,3.8
		c0.5,0.7,0.2,1.4-0.7,1.8c-0.3,0.1-0.6,0.3-0.9,0.4c-1.1,0.4-1.8,0.2-2.4-0.8c-0.8-1.3-1.9-2-3.5-1.8c-1.4,0.2-3.1,1.6-3.3,3
		c-0.2,1.8-0.2,3.7,0,5.5c0.1,1.5,2,2.8,3.6,2.9c1.4,0.1,2.8-0.9,3.3-2.4c0.3-0.9,0.9-1.2,1.7-1c0.7,0.2,1.5,0.4,2,0.9
		c0.3,0.3,0.4,1.2,0.2,1.6c-1.8,3.9-6.2,5.4-9.8,4c-2.3-0.9-3.8-2.4-4.7-4.7c-0.1-0.4-0.4-0.7-0.5-1.1
		C160.8,432.4,160.8,430.2,160.8,428.1z"/>
	<path class="st6" d="M203.8,428.5c1.7-1.5,3.7-1.7,5.4-0.9c1.3,0.6,2.1,0.6,3.4,0c1.8-0.8,3.9-0.8,5.5,0.9c0.3,0.4,0.6,0.9,0.6,1.3
		c0.1,3.1,0.2,6.1,0.2,9.2c0,1.1-0.7,1.4-2.3,1.4c-0.9-0.1-1.4-0.5-1.4-1.5c0-2.3,0-4.5,0-6.8c0-1-0.8-2-1.6-2c-0.8,0-2,1-2.1,1.8
		c-0.1,2.2-0.1,4.3-0.1,6.5c0,1.4-0.4,1.9-1.8,2c-1.5,0-2.2-0.4-2.2-1.8c-0.1-2.2,0-4.4-0.1-6.6c0-0.9-0.2-1.7-1.2-1.8
		c-0.9-0.1-1.7,0.4-2,1.2c-0.3,0.8-0.5,1.6-0.5,2.4c-0.1,1.7,0,3.3,0,5c0,1.3-0.5,1.7-1.7,1.7c-1.5,0-1.9-0.4-1.9-1.7
		c0-3.4-0.1-6.8-0.1-10.1c0-0.7,0.3-1.1,1-1.2C202,427.4,203.2,427.1,203.8,428.5z"/>
	<path class="st6" d="M250.4,407.7c-0.6,0-1.2,0.1-1.7,0c-1.5-0.2-2.1,0.6-2.5,1.9c-0.6,1.9-2,2.6-3.8,2c-0.6-0.2-0.8-0.6-0.6-1.2
		c0.4-1.2,0.8-2.4,1.3-3.6c0.5-1.4,1.1-2.9,1.7-4.3c1-2.6,2.1-5.2,3.1-7.8c0.1-0.2,0.3-0.4,0.5-0.5c1.7-1,4-0.3,4.7,1.5
		c1.1,2.9,2.2,5.8,3.3,8.6c0.8,2,1.6,3.9,2.4,5.9c0.4,0.9,0.1,1.4-0.9,1.5c-0.1,0-0.1,0-0.2,0c-2.5,0.1-3.1-0.3-3.7-2.8
		c-0.2-0.8-0.6-1.2-1.5-1.2C251.8,407.8,251.1,407.7,250.4,407.7C250.4,407.7,250.4,407.7,250.4,407.7z M248.3,403.8
		c1.1,0.6,2.1,0.5,3.1,0.4c0.2,0,0.5-0.6,0.4-0.8c-0.4-1.3-0.9-2.5-1.3-3.7C248.8,400.6,249.2,402.5,248.3,403.8z"/>
	<path class="st6" d="M186.4,401.3c0,1.8-0.1,3.6,0,5.4c0.2,2.6-2.2,4.8-4.4,5.1c-2,0.3-3.9,0.2-5.8-0.2c-1.5-0.3-3-2-3.4-3.6
		c-1-4.2-0.5-8.5-0.6-12.7c0-0.4,0.5-1.1,0.9-1.2c0.7-0.2,1.5-0.2,2.3-0.1c0.7,0.1,0.8,0.8,0.8,1.4c0,3.2,0,6.4,0,9.6
		c0,3.4,2.6,4,5,3.1c1.2-0.4,1.4-1.9,1.4-3c0.1-3.1,0-6.1,0-9.2c0-1.8,1.6-2.8,3.2-1.8c0.4,0.2,0.6,0.9,0.6,1.3c0.1,2,0,4,0,6
		C186.5,401.3,186.4,401.3,186.4,401.3z"/>
	<path class="st6" d="M281.4,431.4c0,2.5,0,4.9,0,7.4c0,0.5-0.3,1.3-0.7,1.4c-0.7,0.2-1.7,0.4-2.2,0c-0.9-0.8-1.5-0.4-2.3-0.1
		c-0.6,0.3-1.2,0.6-1.9,0.7c-2.1,0.4-4.9-2.1-5.4-4c-0.6-2.2-0.5-4.2,0.1-6.3c0.4-1.6,2.4-3.2,4.4-3.3c0.9,0,1.9,0.1,2.8,0.4
		c0.8,0.2,1.1-0.1,1.2-0.8c0-0.7-0.1-1.4,0-2.1c0.1-0.7,0.2-1.8,0.6-1.9c0.8-0.3,1.9-0.2,2.8-0.1c0.2,0,0.5,0.8,0.5,1.3
		C281.4,426.5,281.4,429,281.4,431.4C281.4,431.4,281.4,431.4,281.4,431.4z M277.4,433.6c0-0.3,0-0.7-0.1-1.2
		c-0.1-1.2-1.1-2.2-2.1-2.3c-0.9-0.1-2.4,1-2.6,2c-0.3,1.7-0.5,3.4,0.9,4.9c0.7,0.8,2,0.9,2.9,0.2
		C277.4,436.2,277.4,435,277.4,433.6z"/>
	<path class="st6" d="M189,434.3c0.1,1.9,0.2,3.3,0.3,4.8c0.1,1-0.3,1.5-1.3,1.4c-0.7,0-1.3-0.4-2-0.4c-0.7,0-1.4,0-2,0.3
		c-1.9,1-3.7,0.6-5.3-0.6c-1.7-1.3-1.6-5.4,0.6-6.1c1.1-0.4,2.3-0.7,3.4-1.1c0.5-0.2,1.1-0.2,1.5-0.5c0.3-0.2,0.7-0.7,0.7-1
		c0-0.3-0.5-0.7-0.8-0.9c-1.2-0.6-2.1,0.3-3,0.9c-0.3,0.2-0.8,0.5-1.1,0.4c-0.7-0.2-1.5-0.4-1.9-0.9c-0.6-0.7,0.2-1.4,0.7-1.9
		c0.7-0.8,1.5-1.4,2.6-1.4c1.5,0,3-0.1,4.5,0.1c1.9,0.1,2.6,1.1,3,3.3C189.2,432,189,433.4,189,434.3z M182.7,437.9
		c0.7-0.2,1.1-0.2,1.4-0.4c0.7-0.3,1.2-1.4,0.9-2.1c-0.3-0.9-1-0.6-1.6-0.4c-0.4,0.1-0.8,0.2-1.2,0.5c-0.6,0.3-1.3,0.8-0.8,1.5
		C181.6,437.4,182.3,437.7,182.7,437.9z"/>
	<path class="st6" d="M217.1,410.7c-1.5,1.1-3.1,1.4-4.8,1.1c-3.1-0.5-4-3.4-2.6-5.9c0.5-0.8,1.7-1.3,2.7-1.7
		c1.1-0.4,2.3-0.6,3.4-0.9c0.3-0.1,0.8-0.6,0.7-0.7c-0.2-0.4-0.5-1-0.8-1c-0.9-0.2-1.8-0.2-2.5,0.6c-0.6,0.8-2.6,0.8-3.3,0.1
		c-0.2-0.2-0.3-0.8-0.2-1.1c0.7-1.8,2.3-2.4,3.9-2.8c1.7-0.3,3.4-0.1,5,0.8c1.1,0.6,1.8,1.6,1.8,2.9c0,1.8,0,3.6,0,5.5
		c0,1,0.1,2,0.3,3c0.1,0.7-0.2,1-0.8,1.1C219,411.7,217.9,412,217.1,410.7z M216.6,406.6c-0.2-0.1-0.5-0.6-0.8-0.6
		c-0.6,0-1.2,0.3-1.7,0.5c-1,0.3-1.3,1.2-0.8,1.9c0.5,0.7,1.1,0.9,1.8,0.6C216,408.8,216.6,408,216.6,406.6z"/>
	<path class="st6" d="M324.4,405.5c0.2,1.6,0.3,3.2,0.5,4.8c0.1,0.9-0.1,1.4-1.1,1.4c-0.8,0-1.5-0.2-2.3-0.3c-0.6,0-1.2-0.1-1.7,0.1
		c-1.9,0.8-4.8,0.5-5.9-0.8c-0.6-0.7-1.4-1.8-1.3-2.6c0-0.9,0.9-1.9,1.5-2.7c1.2-1.5,3.3-1.1,4.9-1.9c0.2-0.1,0.4,0,0.6-0.2
		c0.3-0.2,0.7-0.5,1-0.8c-0.4-0.4-0.7-0.9-1.1-1c-0.9-0.3-1.8-0.1-2.5,0.6c-0.7,0.7-2.3,0.8-3.1,0.2c-0.5-0.4-0.5-1.2,0-1.9
		c2.4-3,6.7-2.7,9.1-1.1c0.5,0.4,1,1.1,1.1,1.7c0.3,1.4,0.3,2.9,0.5,4.3C324.6,405.4,324.5,405.4,324.4,405.5z M320.7,405.8
		c-1.1,0.3-1.9,0.6-2.7,0.7c-0.8,0.1-1,0.6-1,1.3c0,0.6,0.3,1.1,1,1.3c1.2,0.3,1.9-0.4,2.5-1.2C320.8,407.5,320.6,406.6,320.7,405.8
		z"/>
	<path class="st6" d="M247.3,426.9c1.3,0.4,2.8,0.5,4,1.2c1.4,0.8,1.4,2.5,1.5,3.9c0.2,2.2,0.1,4.5,0.3,6.7c0.1,1.5-0.7,2.1-2.6,1.5
		c-1.2-0.4-2.1-0.2-3.2,0.2c-2.8,1.1-5.9-0.4-6.1-3.7c-0.1-1.3,0.5-2.7,1.9-3.3c1.1-0.4,2.3-0.7,3.4-1.1c0.6-0.2,1.3-0.3,1.8-0.6
		c0.7-0.4,0.7-1,0-1.4c-0.8-0.5-1.5-0.6-2.4-0.1c-0.8,0.5-1.4,1.5-2.6,1.1c-0.5-0.2-1.3-0.5-1.4-0.9c-0.2-0.5,0.1-1.2,0.4-1.7
		c1.2-1.7,3-1.6,4.8-1.7C247.2,427.1,247.3,427,247.3,426.9z M246.6,438.1c0.7-0.5,1.5-0.7,1.9-1.2c0.3-0.4,0.2-1.2,0.2-1.8
		c-0.5,0-1-0.2-1.4-0.1c-0.5,0.1-1,0.3-1.4,0.5c-0.6,0.3-1.1,0.9-0.7,1.5C245.4,437.4,246,437.7,246.6,438.1z"/>
	<path class="st6" d="M233.9,433.8c0.4,4.3-3,7-6.4,7c-4,0-6.8-2.6-7-6.7c-0.1-3.6,2.4-7,6.7-7C231,427.2,234.1,429.6,233.9,433.8z
		 M224.6,434c0.1,0.6,0.1,1.2,0.3,1.8c0.7,1.7,2.8,2.6,4.2,1c1.2-1.4,1.3-3,0.7-4.6c-0.5-1.3-1.7-2-3.1-1.6
		C225.2,431,224.6,431.9,224.6,434z"/>
	<path class="st6" d="M280.9,406.5c-0.9,0-1.8,0-2.6,0c-0.9,0-1.2,0.4-0.9,1.3c0.5,1.2,2,1.7,3.1,0.8c0.8-0.6,1.5-1.5,2.8-1.2
		c1.1,0.2,1.8,1,1.2,2c-0.5,0.8-1.3,1.7-2.1,2c-2.6,1-5.2,1-7.5-1c-0.6-0.6-1.1-1.4-1.4-2.2c-0.6-1.9-0.7-3.9,0-5.8
		c0.9-2.7,3.5-4.3,6-4.1c2.1,0.2,5.1,1.8,5.4,4.4c0.1,0.7,0.4,1.4,0.5,2c0.1,1.2-0.2,1.6-1.4,1.7
		C282.9,406.5,281.9,406.4,280.9,406.5C280.9,406.4,280.9,406.4,280.9,406.5z M279.3,403.9C279.3,403.9,279.3,403.9,279.3,403.9
		c0.3,0,0.7,0,1,0c0.7-0.1,1-0.6,0.8-1.3c-0.4-1.1-2.4-1.6-3.2-0.8c-0.3,0.3-0.5,1-0.5,1.4c0,0.3,0.7,0.5,1.2,0.6
		C278.8,404,279.1,403.9,279.3,403.9z"/>
	<path class="st6" d="M331,435.1c-0.9,0-1.8,0-2.7,0c-0.9,0-1.4,0.6-0.9,1.3c0.4,0.5,1.1,1,1.7,1.2c0.7,0.2,1.5,0.1,2-0.8
		c0.7-1.2,2.8-1.2,3.7,0.1c0.1,0.2,0.1,0.5,0.1,0.6c-0.9,2.5-4.9,3.9-7.6,3c-4.5-1.7-5.1-7.2-3.2-10.5c1.2-2.1,3-2.9,5.4-2.9
		c4.3,0,6.1,3.4,5.8,7c-0.1,0.6-0.5,0.9-1.1,0.9C333.1,435.1,332,435.1,331,435.1C331,435.1,331,435.1,331,435.1z M329.1,432.6
		C329.1,432.6,329.1,432.6,329.1,432.6c0.4,0,0.8,0,1.2,0c0.9-0.1,1.2-0.7,0.7-1.4c-0.8-1.3-2.9-1.2-3.6,0.1
		c-0.4,0.7-0.1,1.3,0.7,1.3C328.4,432.6,328.7,432.6,329.1,432.6z"/>
	<path class="st6" d="M222.2,405.3c-0.2-4.3,2.9-6.9,6.5-7c4-0.1,7,3,7,6.7c0,3.9-2.5,6.9-6.7,6.9C225,412,222.1,409.6,222.2,405.3z
		 M231.9,405.2c-0.1,0-0.2-0.1-0.2-0.1c0-0.4,0-0.7-0.1-1.1c-0.2-1.1-1.4-2.3-2.4-2.4c-1-0.1-2.1,0.5-2.6,1.5
		c-0.8,1.4-0.7,2.8,0,4.2c0.7,1.6,3.2,2,4.3,0.5C231.4,407,231.6,406.1,231.9,405.2z"/>
	<path class="st6" d="M290.7,435.1c-1,0-2,0-2.9,0c-0.9,0-1.2,0.6-0.7,1.4c1,1.5,2.4,1.6,3.6,0.3c0.8-0.9,2.7-1,3.5-0.1
		c0.2,0.3,0.3,0.9,0.1,1.3c-0.8,1.6-2.3,2.4-3.9,2.8c-3.1,0.6-6.5-0.9-7.4-4.6c-0.6-2.7-0.2-5.1,1.5-7.2c0.7-0.9,1.7-1.5,2.9-1.6
		c2-0.2,3.9-0.2,5.5,1.2c1.3,1.1,2.4,4.1,1.8,5.7c-0.1,0.4-0.8,0.7-1.2,0.8C292.5,435.2,291.6,435.1,290.7,435.1
		C290.7,435.1,290.7,435.1,290.7,435.1z M291,432.5c-0.1-1.4-0.9-2.1-1.9-2.2c-0.7-0.1-1.4,0.5-2.1,1c-0.3,0.2-0.7,1.1,0.1,1.2
		C288.4,432.6,289.7,432.5,291,432.5z"/>
	<path class="st6" d="M189.2,405.1c0-1.6,0-3.2,0-4.8c0-0.7,0.1-1.3,0.8-1.6c0.8-0.2,1.6-0.6,2.3,0.1c0.6,0.6,1.2,0.3,1.9,0.1
		c0.7-0.2,1.4-0.7,2.2-0.8c2.5-0.2,5.1,1.5,5.1,4.4c0,2.5,0,5,0,7.5c0,1-0.5,1.4-1.4,1.5c-0.4,0-0.7,0-1.1,0
		c-1.2-0.1-1.5-0.4-1.5-1.6c0-2.1,0-4.3,0-6.4c0-1.6-0.5-2.2-1.7-2.2c-1.4,0-2.3,0.9-2.3,2.3c0,2,0,4.1-0.1,6.1
		c0,0.6-0.4,1.5-0.7,1.6c-0.9,0.2-1.9,0.1-2.8-0.1c-0.2,0-0.4-0.8-0.4-1.3C189.1,408.5,189.2,406.8,189.2,405.1
		C189.2,405.1,189.2,405.1,189.2,405.1z"/>
	<path class="st6" d="M296.6,433.8c0-1.7,0-3.3,0-5c0-0.9,0.4-1.4,1.3-1.3c0.7,0.1,1.5,0.3,2.2,0.4c0.4,0.1,0.9,0.1,1.3-0.1
		c1.6-0.7,3.3-0.7,5-0.3c1.3,0.4,2.4,2,2.5,4c0.1,1.6,0,3.2,0,4.9c0,0.6,0,1.3,0,1.9c0,1.9-1.5,2.9-3.3,1.9c-0.4-0.2-0.7-1-0.7-1.5
		c-0.1-2.2,0-4.3-0.1-6.5c0-1.3-0.6-2-1.7-2.1c-0.9-0.1-2.3,1-2.3,2c-0.1,2.1-0.1,4.2-0.1,6.3c0,0.7,0,1.6-0.8,1.8
		c-0.8,0.2-1.8,0.2-2.6,0c-0.3-0.1-0.6-0.9-0.6-1.3C296.5,437.1,296.6,435.5,296.6,433.8C296.6,433.8,296.6,433.8,296.6,433.8z"/>
	<path class="st6" d="M258.5,428.1c1.3-0.3,2.5-0.7,3.6-0.8c2.9-0.3,4.6,1.1,4.8,4c0.2,2.6,0.1,5.1,0.1,7.7c0,1-0.8,1.5-2,1.5
		c-1.4,0-1.9-0.4-1.9-1.6c-0.1-2.3-0.1-4.5-0.1-6.8c0-1.1-0.8-1.9-1.7-2c-0.9,0-2.1,0.8-2.1,1.7c-0.2,2.2-0.3,4.4-0.3,6.7
		c0,1-0.6,1.9-1.5,2c-1.7,0.1-2.4-0.3-2.4-1.7c0-3.4,0-6.8,0-10.1c0-0.8,0.4-1.2,1.1-1.3C257,427.4,257.9,427.3,258.5,428.1z"/>
	<path class="st6" d="M316.1,440.9c-1.9,0.1-3.6-0.6-4.9-1.9c-0.4-0.4-0.7-1-0.9-1.5c-0.1-0.1,0-0.4,0.1-0.6
		c0.5-0.9,2.8-1.1,3.5-0.2c0.8,1.1,2.2,1.5,3.5,1.1c0.3-0.1,0.7-0.6,0.7-0.9c0-0.3-0.4-0.8-0.8-0.9c-1.2-0.4-2.5-0.6-3.7-1
		c-2.6-0.7-3.6-2.5-2.9-5.1c0.4-1.2,1.2-2,2.4-2.3c2-0.5,4-0.4,5.9,0.1c1.1,0.3,1.9,1.2,2.3,2.3c0.1,0.2,0,0.5-0.2,0.7
		c-0.8,0.9-2.5,0.9-3.4,0.1c-0.8-0.7-1.7-0.9-2.7-0.7c-0.3,0.1-0.7,0.4-0.7,0.7c0,0.3,0.3,0.7,0.6,0.8c1.2,0.4,2.5,0.7,3.8,1.1
		c2.4,0.7,3.6,2,3.3,4.5c-0.2,1.3-0.9,2.2-2,2.8c-1.2,0.6-2.6,0.9-3.9,1.3C316.2,441,316.1,441,316.1,440.9z"/>
	<path class="st6" d="M300.2,405.2c-0.1-2.2,0.4-4.2,2.3-5.6c3-2.1,6.9-1.6,9,1.1c0.5,0.7,0.7,1.4,0,2.1c-0.5,0.5-2.2,0.6-2.7,0.2
		c-0.4-0.3-0.7-0.7-1.1-1c-0.8-0.8-2.2-0.6-2.9,0.3c-1.1,1.6-1.1,4.1,0,5.6c0.8,1.2,2.7,1,3.6-0.3c0.9-1.3,2.1-1.5,3.3-0.4
		c0.3,0.2,0.4,0.8,0.3,1.1c-0.5,2.1-2.6,3.6-5.3,3.6c-2.3,0-4.5-0.5-5.6-2.7c-0.6-1.2-0.8-2.7-1.2-4
		C300,405.2,300.1,405.2,300.2,405.2z"/>
	<path class="st6" d="M260.1,405.8c0-0.8,0.1-1.6,0-2.4c-0.1-0.7-0.4-1.3-0.8-1.9c-0.6-0.8-0.6-1.8,0-2.7c0.4-0.5,0.7-1.1,0.8-1.7
		c0.3-1.3,2.1-2.7,3.4-2.4c0.2,0,0.5,0.5,0.6,0.8c0.1,0.6,0,1.2,0.1,1.8c0,0.7,0.3,1.2,1.1,1.3c1,0.1,1,0.9,1,1.7
		c0,0.7-0.3,1.3-1.1,1.3c-0.8,0-1,0.6-1,1.2c0,1.6,0,3.1,0,4.7c0,0.6,0.3,1.1,1,1.1c1.1,0,1.1,0.9,1.2,1.7c0.1,0.8-0.3,1.4-1.1,1.5
		c-0.7,0.1-1.5,0.2-2.2,0.1c-1.8-0.2-2.6-1.2-2.8-2.9C260.2,407.9,260.2,406.9,260.1,405.8C260.1,405.8,260.1,405.8,260.1,405.8z"/>
	<path class="st6" d="M290.1,394.6c0.8,0.4,0.8,1.2,0.8,1.9c-0.1,1.1,0.1,1.9,1.3,2.2c0.7,0.2,1.2,0.9,1.1,1.7
		c-0.1,0.8-0.7,1.1-1.4,1.3c-0.8,0.1-1.1,0.6-1.1,1.4c0,1.3,0,2.5,0,3.7c-0.1,1,0.3,1.6,1.2,1.9c0.3,0.1,0.7,0.3,0.9,0.6
		c0.8,0.9,0.4,2.3-0.8,2.5c-0.9,0.1-1.8,0.2-2.7,0.1c-1.5-0.2-2.2-1.1-2.3-2.5c-0.1-1.9-0.1-3.8-0.1-5.7c0-0.9-0.2-1.6-1-2.1
		c-0.9-0.6-1-1.6-0.2-2.4c0.7-0.7,1.3-1.3,1.4-2.4c0-0.5,0.7-0.9,1.2-1.3C289,395,289.5,394.8,290.1,394.6z"/>
	<path class="st6" d="M235.7,431.5c0-2.5,0-4.9,0-7.4c0-1.3,0.3-1.5,1.7-1.6c1.4-0.1,1.9,0.3,2.1,1.5c0.1,0.4,0,0.7,0,1.1
		c0,4.5,0,8.9,0,13.4c0,1.8-1.8,2.9-3.3,1.9c-0.3-0.2-0.6-0.8-0.6-1.3C235.7,436.5,235.7,434,235.7,431.5
		C235.7,431.5,235.7,431.5,235.7,431.5z"/>
	<path class="st6" d="M271.5,402.7c0,2.5,0,5,0,7.5c0,1.3-0.5,1.6-2.2,1.6c-0.9,0-1.4-0.5-1.4-1.6c0-5,0-9.9,0-14.9
		c0-1.1,0.4-1.5,1.5-1.5c0.2,0,0.5,0,0.7,0c1.1,0,1.4,0.4,1.5,1.5C271.5,397.8,271.5,400.3,271.5,402.7
		C271.5,402.7,271.5,402.7,271.5,402.7z"/>
	<path class="st6" d="M191.2,433.8c0-1.6,0-3.2,0-4.8c0-1.3,0.2-1.5,1.5-1.5c0.6,0,1.2,0.2,1.8,0.3c0.3,0,0.7-0.1,1.1-0.1
		c1-0.1,2-0.3,3-0.3c0.6,0,1.2,0.3,1.1,1.2c-0.1,0.9-0.1,1.8-1.2,2.1c-0.3,0.1-0.5,0.1-0.8,0.1c-1.8,0-2.3,0.4-2.3,2.2
		c-0.1,1.9-0.1,3.8-0.2,5.7c0,1.3-0.6,1.8-2.1,1.8c-1.5,0-1.8-0.3-1.8-1.7C191.1,437.1,191.2,435.4,191.2,433.8z"/>
	<path class="st6" d="M207.4,405.3c0,1.7,0,3.4,0,5.1c0,0.9-0.4,1.4-1.3,1.4c-0.5,0-1,0-1.4,0c-0.7-0.1-1.2-0.5-1.2-1.3
		c0-3.4,0-6.8,0-10.2c0-0.5,0.5-1.1,1-1.3c1.8-0.8,2.9,0,2.9,1.9C207.5,402.2,207.5,403.7,207.4,405.3
		C207.4,405.3,207.4,405.3,207.4,405.3z"/>
	<path class="st6" d="M294.5,405.2c0-1.7,0-3.3,0-5c0-1.2,0.5-1.5,2-1.6c1.2,0,1.9,0.5,1.9,1.6c0,3.4,0,6.8-0.1,10.2
		c0,0.4-0.5,1-0.9,1.1c-0.7,0.2-1.5,0.2-2.2,0c-0.3-0.1-0.7-0.7-0.7-1.1C294.5,408.7,294.6,406.9,294.5,405.2
		C294.6,405.2,294.6,405.2,294.5,405.2z"/>
	<path class="st6" d="M216.9,397.4c-0.6-0.2-1.3-0.3-1.9-0.5c-0.8-0.3-1.4-0.3-2.1,0.1c-0.4,0.2-1.2,0.3-1.5,0.1
		c-0.3-0.3-0.3-1.1-0.2-1.5c0.5-1.5,2.5-2,4-1c0.9,0.6,1.7,0.7,2.5-0.1c0.2-0.2,0.9-0.3,1.3-0.1c0.3,0.1,0.5,0.7,0.5,1.1
		C219.5,396.5,218.4,397.3,216.9,397.4z"/>
	<path class="st6" d="M280.8,393.2c0.5,0.2,1.3,0.4,1.3,0.7c0.1,0.5-0.3,1.1-0.6,1.5c-0.3,0.4-0.6,0.9-1.1,1.2
		c-0.5,0.3-1.1,0.7-1.7,0.7c-1.2,0.1-1.5-0.5-0.9-1.5c0.1-0.2,0.2-0.5,0.3-0.7C278.7,393.7,279.2,393.3,280.8,393.2z"/>
	<path class="st6" d="M296.4,397.3c-1.7,0-1.9-0.2-1.8-1.7c0-1.4,0.3-1.8,1.8-1.7c1.7,0,2.1,0.4,2.1,1.8
		C298.4,397.1,298.1,397.3,296.4,397.3z"/>
	<path class="st6" d="M205.6,397.3c-1.7,0-2-0.3-2.1-1.6c0-1.4,0.4-1.9,2-1.9c1.5,0,1.9,0.3,2,1.7
		C207.5,397.1,207.3,397.3,205.6,397.3z"/>
	<path class="st3" d="M248.3,403.8c0.9-1.4,0.5-3.3,2.2-4.2c0.5,1.3,0.9,2.5,1.3,3.7c0.1,0.2-0.2,0.8-0.4,0.8
		C250.4,404.3,249.4,404.5,248.3,403.8z"/>
	<path class="st3" d="M277.4,433.6c0,1.4,0.1,2.6-1.1,3.5c-0.9,0.7-2.1,0.6-2.9-0.2c-1.3-1.5-1.1-3.2-0.9-4.9c0.2-1,1.7-2,2.6-2
		c1,0.1,2,1.1,2.1,2.3C277.4,432.9,277.4,433.4,277.4,433.6z"/>
	<path class="st3" d="M182.7,437.9c-0.4-0.3-1-0.5-1.3-1c-0.5-0.8,0.2-1.2,0.8-1.5c0.4-0.2,0.8-0.4,1.2-0.5c0.6-0.1,1.3-0.5,1.6,0.4
		c0.2,0.7-0.2,1.8-0.9,2.1C183.7,437.7,183.3,437.7,182.7,437.9z"/>
	<path class="st3" d="M216.6,406.6c0,1.3-0.6,2.2-1.6,2.5c-0.8,0.2-1.4,0.1-1.8-0.6c-0.5-0.7-0.1-1.6,0.8-1.9
		c0.6-0.2,1.2-0.5,1.7-0.5C216.1,406,216.5,406.5,216.6,406.6z"/>
	<path class="st3" d="M320.7,405.8c-0.1,0.8,0.1,1.6-0.3,2.1c-0.5,0.8-1.3,1.5-2.5,1.2c-0.7-0.2-1-0.7-1-1.3c0-0.6,0.2-1.1,1-1.3
		C318.8,406.4,319.6,406.1,320.7,405.8z"/>
	<path class="st3" d="M246.6,438.1c-0.6-0.4-1.2-0.7-1.4-1.1c-0.4-0.7,0.1-1.2,0.7-1.5c0.5-0.2,0.9-0.4,1.4-0.5
		c0.5-0.1,0.9,0.1,1.4,0.1c-0.1,0.6,0.1,1.4-0.2,1.8C248.1,437.4,247.3,437.6,246.6,438.1z"/>
	<path class="st3" d="M224.6,434c0.1-2.1,0.6-3.1,2.1-3.5c1.4-0.4,2.6,0.3,3.1,1.6c0.6,1.7,0.5,3.2-0.7,4.6c-1.4,1.6-3.5,0.7-4.2-1
		C224.7,435.2,224.7,434.6,224.6,434z"/>
	<path class="st3" d="M279.3,403.9c-0.2,0-0.5,0.1-0.7,0c-0.4-0.2-1.1-0.4-1.2-0.6c-0.1-0.4,0.1-1.1,0.5-1.4
		c0.8-0.8,2.7-0.3,3.2,0.8c0.3,0.6-0.1,1.2-0.8,1.3C280,404,279.7,403.9,279.3,403.9C279.3,403.9,279.3,403.9,279.3,403.9z"/>
	<path class="st3" d="M329.1,432.6c-0.3,0-0.7,0-1,0c-0.8,0-1.1-0.6-0.7-1.3c0.7-1.3,2.8-1.4,3.6-0.1c0.5,0.8,0.2,1.4-0.7,1.4
		C329.9,432.6,329.5,432.6,329.1,432.6C329.1,432.6,329.1,432.6,329.1,432.6z"/>
	<path class="st3" d="M231.9,405.2c-0.4,0.9-0.6,1.9-1.1,2.6c-1,1.5-3.5,1.1-4.3-0.5c-0.7-1.5-0.8-2.8,0-4.2c0.6-1,1.7-1.7,2.6-1.5
		c1,0.1,2.2,1.3,2.4,2.4c0.1,0.4,0.1,0.7,0.1,1.1C231.8,405.1,231.8,405.1,231.9,405.2z"/>
	<path class="st3" d="M291,432.5c-1.3,0-2.6,0.1-3.9-0.1c-0.7-0.1-0.4-1-0.1-1.2c0.6-0.5,1.4-1,2.1-1
		C290.1,430.3,290.9,431,291,432.5z"/>
</g>
</svg>
