<?xml version="1.0" encoding="utf-8"?>
<!-- Generator: Adobe Illustrator 27.9.1, SVG Export Plug-In . SVG Version: 6.00 Build 0)  -->
<svg version="1.1" id="Layer_1" xmlns="http://www.w3.org/2000/svg" xmlns:xlink="http://www.w3.org/1999/xlink" x="0px" y="0px"
	 viewBox="0 0 400 400" style="enable-background:new 0 0 400 400;" xml:space="preserve">
<style type="text/css">
	.st0{fill:#024E25;}
	.st1{fill:#D0A415;}
	.st2{fill:#095429;}
	.st3{fill:#D0A414;}
	.st4{fill:#014D23;}
</style>
<g>
	<path class="st0" d="M11.5,248.1c0-15.2,3.7-28.5,8.1-41.6c3.7-11,7.8-21.8,10.3-33.2c4.4-20-0.4-37.7-13-53.6
		c-3.9-4.9-8.1-9.4-12.6-13.7c-1.2-1.1-1.3-1.9-0.4-3.3c17.4-28.4,34.7-56.8,51.9-85.3c1-1.6,1.8-1.6,3.3-1
		C71.9,21,84.6,25.5,97.7,29c22.8,6,44.3,2.3,64.9-8.5c10.8-5.7,21.1-12.4,31-19.6c1.4-1,2.3-1.1,3.8,0
		c10.2,7.8,20.9,14.9,32.4,20.7c20.9,10.6,42.7,13,65.5,7.8c13.2-3,26.2-6.8,39.3-10c1.8-0.4,2.6-0.1,3.6,1.4
		c19.3,28.9,38.6,57.9,57.9,86.7c1.2,1.8,0.6,2.4-0.7,3.4c-8.1,6-15.9,12.3-22,20.5c-8.5,11.4-11.3,24.1-10,38.1
		c1.3,13.7,5.3,26.9,8.3,40.2c2.2,9.9,4,19.9,4.4,30c0.9,23.9-6.8,44.8-21.5,63.3c-14.2,17.9-31.9,31.6-50.9,43.7
		c-29.7,18.9-61.6,33.4-94.1,46.8c-5.1,2.1-10.2,4-15.3,6.1c-1.1,0.4-2.1,0.6-3.2,0.1c-37.9-16.6-75.3-34.2-110-57
		c-16.2-10.7-31.5-22.4-44.5-36.9c-11.4-12.7-20.2-26.9-23.6-44C11.9,256.8,11.3,251.9,11.5,248.1z M20.5,247.7
		c0.1,3.6,0.5,7.9,1.3,12.1c2.9,15.1,10.8,27.7,20.8,39c11.7,13.2,25.4,24,40,33.8c34.1,23,71.1,40.6,108.7,57.2
		c1.1,0.5,2.1,0.3,3.2-0.1c15.6-6.2,31.2-12.7,46.4-19.7c24.3-11.3,48.1-23.7,70-39.2c15.3-10.9,29.4-23.1,40.4-38.6
		c12.2-17.2,17.2-36.4,15.4-57.4c-1-11.5-3.7-22.6-6.4-33.8c-2.9-11.9-5.9-23.8-6.2-36.2c-0.3-11.5,1.9-22.3,7.7-32.4
		c5.5-9.5,13-17.1,21.5-23.8c1.4-1.1,1.4-1.7,0.5-3.1C367,80.7,350.4,55.8,333.9,31c-1-1.5-1.9-1.7-3.4-1.2
		c-5.4,1.5-10.8,2.8-16.1,4.3c-11.8,3.2-23.6,6.1-35.8,7c-12.1,0.8-24-0.6-35.6-4.3c-16.6-5.3-31.4-14.1-45.5-24.3
		c-1.4-1-2.4-1.3-4.1-0.1c-9.8,7-20,13.3-30.9,18.6c-20.3,9.8-41.3,13-63.5,7.8c-12.2-2.9-24.1-6.9-35.9-11
		c-1.5-0.5-2.5-0.6-3.3,1.1c-1,2-2.3,3.9-3.5,5.8c-13.5,22.2-27,44.4-40.6,66.6c-0.9,1.4-1,2.3,0.3,3.5c2.6,2.7,5.1,5.5,7.5,8.5
		c15.4,18.8,20.8,40,15.1,63.9c-2.7,11.3-6.7,22.1-10.4,33.1C24.1,222.1,20.7,234.2,20.5,247.7z"/>
	<path class="st1" d="M20.5,247.7c0.2-13.5,3.6-25.6,7.6-37.6c3.7-11,7.7-21.8,10.4-33.1c5.7-23.9,0.3-45.1-15.1-63.9
		c-2.4-2.9-4.9-5.8-7.5-8.5c-1.2-1.3-1.2-2.1-0.3-3.5c13.6-22.2,27.1-44.4,40.6-66.6c1.2-1.9,2.5-3.8,3.5-5.8
		c0.8-1.7,1.8-1.7,3.3-1.1c11.8,4.2,23.6,8.2,35.9,11c22.2,5.2,43.2,2,63.5-7.8c10.9-5.3,21.1-11.6,30.9-18.6
		c1.7-1.2,2.6-0.9,4.1,0.1c14,10.2,28.8,19,45.5,24.3c11.6,3.7,23.5,5.2,35.6,4.3c12.2-0.8,24-3.8,35.8-7c5.4-1.5,10.8-2.8,16.1-4.3
		c1.6-0.4,2.5-0.2,3.4,1.2c16.5,24.9,33.1,49.7,49.7,74.5c0.9,1.4,0.9,2-0.5,3.1c-8.5,6.7-16,14.3-21.5,23.8
		c-5.8,10-8,20.8-7.7,32.4c0.3,12.4,3.3,24.3,6.2,36.2c2.7,11.2,5.5,22.3,6.4,33.8c1.8,20.9-3.1,40.1-15.4,57.4
		c-11,15.5-25.1,27.7-40.4,38.6c-21.9,15.6-45.7,28-70,39.2c-15.3,7.1-30.8,13.6-46.4,19.7c-1.1,0.4-2.1,0.6-3.2,0.1
		c-37.5-16.6-74.6-34.1-108.7-57.2c-14.5-9.8-28.3-20.6-40-33.8c-10-11.4-17.8-23.9-20.8-39C21,255.5,20.6,251.3,20.5,247.7z
		 M193.2,381.2c0.8-0.3,1.6-0.5,2.3-0.8c19.2-7.7,38.3-15.9,56.8-25.2c25.5-12.8,50-27.1,71.1-46.7c10.1-9.3,18.7-19.8,24.9-32.2
		c9.6-19.4,9.8-39.6,5.5-60.2c-2.8-13.2-6.9-26.1-9.4-39.3c-1.5-7.9-3.1-15.9-1.9-24.1c2.8-19.2,11.6-35,26.8-47
		c1.3-1.1,1.8-1.7,0.7-3.3c-13.7-20.5-27.3-41-40.9-61.5c-0.8-1.2-1.6-1.6-3-1.2c-2.7,0.8-5.5,1.5-8.3,2.2
		c-12.6,3.3-25.2,6.9-38.2,8c-12.1,1-24-0.1-35.6-3.9c-17.1-5.5-32.2-14.6-46.6-25c-1.7-1.2-2.7-1.1-4.3,0
		c-11.1,7.9-22.7,15.1-35.1,20.8c-17.9,8.3-36.4,10.9-55.8,6.7C90.6,46,79.4,42.2,68.2,38.3c-1.9-0.7-2.7-0.3-3.7,1.4
		C52.1,59.3,39.7,78.9,27.3,98.5c-1,1.5-1,2.4,0.3,3.7c4.4,4.5,8.5,9.3,12,14.5c7.7,11.5,12,24.1,11.4,38.2
		c-0.4,9.1-2.5,17.7-5.2,26.3c-4.1,12.9-9.6,25.4-13,38.6c-4.3,16.1-4.7,32,1.9,47.6c5.3,12.8,13.8,23.5,23.5,33.1
		c12.3,12.2,26.2,22.3,40.7,31.6c29.4,18.9,60.7,34.2,92.6,48.4C192.1,380.8,192.6,381,193.2,381.2z"/>
	<path class="st2" d="M193.2,381.2c-0.5-0.2-1.1-0.4-1.6-0.6c-31.9-14.2-63.2-29.6-92.6-48.4c-14.5-9.3-28.4-19.5-40.7-31.6
		c-9.8-9.6-18.2-20.3-23.5-33.1c-6.5-15.7-6.1-31.6-1.9-47.6c3.5-13.1,8.9-25.6,13-38.6c2.7-8.6,4.8-17.2,5.2-26.3
		c0.6-14.1-3.7-26.6-11.4-38.2c-3.5-5.3-7.6-10-12-14.5c-1.3-1.4-1.3-2.2-0.3-3.7c12.5-19.6,24.9-39.2,37.2-58.9
		c1-1.6,1.8-2,3.7-1.4c11.2,3.9,22.5,7.7,34.1,10.3c19.4,4.2,37.9,1.6,55.8-6.7c12.4-5.8,24-12.9,35.1-20.8c1.5-1.1,2.5-1.2,4.3,0
		c14.4,10.4,29.5,19.5,46.6,25c11.6,3.7,23.6,4.9,35.6,3.9c13-1.1,25.6-4.7,38.2-8c2.8-0.7,5.6-1.4,8.3-2.2c1.4-0.4,2.2,0,3,1.2
		c13.6,20.5,27.2,41.1,40.9,61.5c1.1,1.6,0.6,2.2-0.7,3.3c-15.2,12.1-24,27.8-26.8,47c-1.2,8.2,0.4,16.2,1.9,24.1
		c2.5,13.2,6.6,26.1,9.4,39.3c4.3,20.7,4.1,40.9-5.5,60.2c-6.2,12.4-14.8,22.9-24.9,32.2c-21.1,19.6-45.6,33.8-71.1,46.7
		c-18.5,9.3-37.6,17.4-56.8,25.2C194.7,380.7,194,380.9,193.2,381.2z M33,242.9c-0.2,3.6,0.4,8.3,1.4,12.9
		c3.3,15.4,11.6,28.1,22,39.5c13.9,15.2,30.4,27,47.7,37.9c27.8,17.4,57.3,31.5,87.2,44.7c1.3,0.6,2.3,0.4,3.5,0
		c7.2-3,14.5-5.9,21.7-8.9c27.1-11.6,53.7-24.4,78.2-41c16.3-11,31.2-23.4,42.8-39.4c9.3-12.9,14.9-27.1,15.9-43
		c0.8-12.9-1.3-25.5-4.4-38c-3.6-14.7-8.4-29-10-44.2c-1-9.7-0.5-19.4,3-28.6c4.6-11.9,12.6-21.2,22.6-29c1.7-1.3,2-2.2,0.7-4.1
		c-12.6-18.8-25-37.7-37.4-56.6c-1-1.5-1.8-1.8-3.6-1.4c-14.1,3.5-28.1,7.5-42.6,8.7c-12.2,1-24.2,0.2-36-3.2
		c-17.4-5-32.9-13.8-47.4-24.4c-2.2-1.6-3.6-1.6-5.8,0c-11.2,8-22.9,15-35.6,20.4c-17.5,7.5-35.5,9.7-54.2,6.1
		c-11.3-2.2-22.4-5.1-33.2-9.4c-1.9-0.8-2.9-0.6-4.1,1.3C54.3,60.7,43,78.2,31.8,95.8c-2.7,4.3-2.7,4.3,0.7,8
		c1.1,1.2,2.1,2.4,3.1,3.6c15.7,18.3,21.1,39.1,15.7,62.6c-2.9,12.6-7.7,24.7-11.6,37C36,218.3,32.9,229.7,33,242.9z"/>
	<path class="st3" d="M33,242.9c-0.1-13.2,2.9-24.6,6.6-35.9c4-12.3,8.7-24.4,11.6-37c5.4-23.6,0-44.4-15.7-62.6
		c-1-1.2-2-2.4-3.1-3.6c-3.4-3.7-3.4-3.7-0.7-8C43,78.2,54.3,60.7,65.5,43.1c1.2-1.9,2.2-2,4.1-1.3c10.7,4.2,21.9,7.2,33.2,9.4
		c18.7,3.6,36.8,1.4,54.2-6.1c12.7-5.4,24.4-12.4,35.6-20.4c2.2-1.6,3.6-1.6,5.8,0c14.5,10.6,30,19.5,47.4,24.4
		c11.8,3.4,23.8,4.2,36,3.2c14.6-1.2,28.5-5.3,42.6-8.7c1.8-0.4,2.6-0.1,3.6,1.4c12.4,18.9,24.9,37.8,37.4,56.6
		c1.3,1.9,1,2.8-0.7,4.1c-9.9,7.8-18,17.1-22.6,29c-3.5,9.3-4,18.9-3,28.6c1.5,15.1,6.4,29.5,10,44.2c3.1,12.5,5.2,25.1,4.4,38
		c-1,15.9-6.6,30.2-15.9,43c-11.6,16-26.6,28.4-42.8,39.4c-24.5,16.6-51.1,29.4-78.2,41c-7.2,3.1-14.5,5.9-21.7,8.9
		c-1.2,0.5-2.2,0.6-3.5,0c-29.9-13.2-59.4-27.3-87.2-44.7c-17.3-10.8-33.8-22.7-47.7-37.9c-10.5-11.4-18.7-24.1-22-39.5
		C33.4,251.1,32.9,246.4,33,242.9z M213.8,161.3c-4-4-7.3-8.4-10.9-12.7c-1.6-1.9-3.7-3.5-3.9-6.3c0-0.6-0.5-0.9-1.1-0.5
		c-2.1,1.3-4.2,2.5-6.4,3.8c2.8,1,4.3,2.9,5.9,4.8c6,6.9,12.1,13.8,18.1,20.7c1.1,1.2,1.9,1.6,3.2,0.5c0.5-0.4,1.2-0.8,1.8-1.1
		c1.6-0.7,1.9-1.6,1.2-3.3c-2.6-6.4-5.1-12.8-7.4-19.3c-1.5-4.1-4.1-7.9-3.7-12.7c0.1-1.2-0.9-0.7-1.4-0.4c-1.4,0.8-2.7,1.7-4.1,2.4
		c-1.5,0.8-1.9,1.5-0.2,2.7c1.1,0.8,1.5,2.1,2,3.3c2,4.9,4,9.9,6,14.8C213.3,159.2,214,160.2,213.8,161.3L213.8,161.3z M174.8,179.3
		c-4.7-3.6-9.5-7.1-14-11c-2.3-2-4.1-2.2-6.5-0.3c-1.6,1.2-3.2,1.8-0.3,3.3c1.1,0.6,1.7,1.8,2.3,2.8c4,6.7,8,13.3,12.1,20
		c0.9,1.6,2,3.1,1.9,5.1c0,1.1,0.4,1.5,1.4,0.9c1.7-1,3.4-2.1,5.1-3.1c0.7-0.5,0.9-0.8,0-1.5c-5.2-4-6.8-10.3-10.7-15.3
		c1.2-0.3,1.5,0.3,1.9,0.7c4.6,3.6,9.3,7.2,13.9,10.8c0.8,0.7,1.6,1.5,2.8,0.7c1.6-1.1,3.4-1.8,4.9-3.3c-2.6-1.1-3.9-3.3-5.2-5.5
		c-3-5.1-6.2-10.1-9.2-15.3c-1.8-3.1-4.4-5.9-4.2-10.1c-1.6,1-2.9,1.7-4.2,2.4c-3,1.8-3,1.8-0.6,4c0.4,0.4,0.7,0.8,1,1.2
		c2.7,4.4,5.3,8.8,7.9,13.3C175.1,179.1,175,179.2,174.8,179.3z M247.8,132.6c3.7,2.9,7.4,5.8,11.2,8.7c0.5,0.4,0.9,1.3,1.7,0.8
		c0.8-0.5,0.2-1.3,0.1-1.9c-1-5-1.9-10.1-2.9-15.1c3.3,5.6,8.1,10.3,9.4,17c2.5-1.3,4.8-2.6,7.3-4.4c-3.1-1.2-4.4-3.8-5.8-6.1
		c-3.5-5.8-7-11.7-10.6-17.5c-1.3-2.1-2.6-4.1-2.3-6.8c-5.3,1.4-6.1,2.7-5.2,7.6c0.1,0.4,0.2,0.9,0.3,1.3c1,4.7,2,9.5,3.1,14.8
		c-4.8-3.9-9.1-7.3-13.2-11c-2.1-1.9-3.8-2.4-6.2-0.6c-2.5,1.9-2.6,1.6-0.3,3.6c0.5,0.4,0.9,0.8,1.2,1.4c4.7,7.8,9.4,15.5,14.1,23.3
		c0.2,0.3,0.3,0.6,0.4,0.9c0.6,1-0.4,2.9,1,3.1c0.9,0.2,2.1-1,3.2-1.6c0.4-0.2,0.7-0.5,1.1-0.7c2.2-1,3-2,0.2-3.4
		c-0.6-0.3-1-1-1.4-1.5c-2.3-3.8-4.6-7.6-6.8-11.5C247.4,132.9,247.6,132.8,247.8,132.6z M339,116.9c-1.2-0.4-1.6,0.3-2.2,0.6
		c-22.4,13.1-44.9,26.3-67.3,39.4c-49.5,29-98.9,57.9-148.4,86.9c-20.5,12-40.9,24-61.4,36c-1.4,0.8-1.9,1.4-0.7,2.9
		c3.2,3.9,6.3,7.7,9.8,11.3c10.9,11,23,20.4,35.9,28.9c25.1,16.7,52.1,30.1,79.3,43c6.3,3,11.3,3.3,17.7,0.5
		c27.6-12,54.9-24.5,80.2-41.1c17.1-11.2,33-23.9,45.2-40.6c8.8-12.1,14.5-25.5,15.8-40.4c1-12-0.5-23.9-3.2-35.6
		c-3.5-15-8.7-29.7-11.1-45c-1.2-8.1-1.4-16.1,0.1-24.2C330.3,131.2,334,123.9,339,116.9z M44.5,220.4
		c91-55.1,181.6-109.9,272.6-165c-1.3-0.2-2,0-2.7,0.2c-12,3.1-23.8,6.4-36.2,7.7c-12.7,1.4-25.2,0.5-37.5-3
		C224.9,55.7,211,47.7,198,38c-1.9-1.4-3.1-1.6-5.1-0.1c-7.6,5.6-15.6,10.5-24,14.8C147.4,64,125,67.2,101.3,61.6
		c-9.9-2.4-19.6-5.5-29.1-8.9c-1.1-0.4-2-0.8-3,0.7c-9.4,14.9-18.9,29.8-28.5,44.6c-0.8,1.2-0.6,1.8,0.3,2.9
		c2.6,2.9,5.1,5.8,7.4,8.9c12.3,16.3,16.7,34.3,12.7,54.5c-2,9.8-5.1,19.1-8.3,28.5C49.7,201.6,46.6,210.5,44.5,220.4z M76,242.4
		c3.8,2.7,8.4,3.9,11.1,7.8c0.4,0.6,0.8,0.5,1.3,0.2c1.4-0.9,3-1.5,4.4-3c-2.4-0.9-4-2.3-5.8-3.5c-1.8-1.2-3.5-2.7-5.5-3.6
		c-4.5-2.2-7.1-5.4-6.8-10.8c0.2-3.3-0.4-6.7-0.7-10.7c7.3,8.2,14.2,15.7,20.9,23.4c1.9,2.2,3.4,2.7,5.7,0.8c1.3-1.1,4-1.6,1-3.8
		c-0.4-0.3-0.5-0.9-0.7-1.4c-3-7.5-6.1-15-9.1-22.6c-1.5-3.8-3.5-7.7-0.7-11.9c-2.8,1.8-4.1,4.7-6.4,6.7c-0.4,0.3-0.2,0.7,0,1.2
		c2.7,4.8,4.3,10.1,6.4,15.1c1.2,2.7,2.1,5.4,3.2,8.2c-1,0.3-1.2-0.3-1.5-0.6c-4.9-5.8-9.9-11.6-14.8-17.4c-0.5-0.6-0.7-1.3-1.7-0.6
		c-2.1,1.3-4.4,2.6-6.6,3.8c-0.7,0.4-0.9,0.7-0.6,1.6c1,3.4,0.9,6.9,1.4,10.4c0.2,1.6-0.6,1.4-1.5,0.7c-1.2-0.8-2.4-1.5-3.5-2.4
		c-1.7-1.4-4.4-2-4.3-5c0-0.7-0.8-0.7-1.5-0.5c-1.6,0.4-3.2,0.7-4.8,1.1c-5.2,1.4-7.1,7.7-3.3,11.5c1.6,1.7,3.9,1.8,5.1,0.3
		c1-1.2,0.6-2.9-0.8-2.9c-1.4,0-2.2-0.4-2.4-1.8c-0.2-1.1,0.2-2.1,1.1-2.8c1.2-0.9,2.1-0.3,3.1,0.4c3.8,2.5,7.5,5.1,11.4,7.5
		c1.2,0.8,1.7,1.7,1.9,3.2c0.7,6.1,1.8,12.2,2.1,18.6c1.6-0.9,3-1.8,4.4-2.6c0.4-0.3,0.9-0.5,0.5-1.2
		C75.8,251.6,76.7,246.9,76,242.4z M270.3,99.7c-3.6-0.1-6.5,2.2-9.5,4c-2.7,1.6-2.6,1.6-0.4,3.5c0.5,0.4,0.9,0.9,1.2,1.4
		c4.8,7.8,9.4,15.7,14.3,23.5c0.8,1.3-0.7,3.9,1.6,3.9c1.4,0,2.9-1.5,4.3-2.4c1-0.6,1.9-1.2,2.8-1.9c2.3-1.7,4.1-3.8,4.9-6.6
		c1.6-6.1-2.3-12.6-9.1-15.1c-1.4-0.5-2-1-2.1-2.7C278,102.6,274.9,99.7,270.3,99.7z M277,94c3.2,1.4,4.5,3.8,5.8,6.1
		c3.4,5.7,6.9,11.4,10.3,17c1.4,2.3,3,4.5,2.7,7.9c2.7-1.6,5.2-2.8,7.7-4.8c-4-1.4-4.9-5.1-6.9-7.9c-0.6-0.9-0.4-1.6,0.4-2.2
		c0.5-0.4,1-1.3,1.7-0.6c2.4,2.5,6,4.1,7.1,7.8c0.2,0.6,0.4,1.4,1.1,0.9c2.1-1.2,4.3-2.3,6.5-4.2c-1.4-0.5-2.5-0.5-3.3-1.2
		c-2.8-2.6-5.5-5.1-8.3-7.7c-0.7-0.6-0.8-1.2-0.6-2.1c1.2-4.9-0.8-8.9-4-12.4c-2.8-3-6.2-3.7-10-2.4C283.7,89.5,280.7,91.8,277,94z
		 M120.2,231.2c3.5-2.2,6.9-3.7,9.5-6.3c2.8-2.8,4-6.1,3.4-10c-1.1-7.2-4.5-13.2-10-17.9c-3-2.6-6.7-3.6-10.8-2.6
		c-3.6,0.9-6.6,3.1-9.7,5c-0.9,0.5-0.8,1.1,0.1,1.5c1.9,0.9,2.9,2.7,3.9,4.4c3.5,5.7,7,11.5,10.4,17.2
		C118.5,225.1,120.4,227.5,120.2,231.2z M177.8,158.4c1.8,10.2,6.6,18.6,15.5,24.4c2.6,1.7,5.7,1.7,8.4-0.1c2.9-1.9,4-4.8,3.5-8
		c-1.4-9.7-6-17.8-13.8-23.8c-2.7-2.1-5.9-2.6-9.1-0.9C179,151.8,177.7,154.6,177.8,158.4z M328.9,98.5c-1.6-8.4-5.9-16.9-14.4-22.8
		c-2.7-1.9-5.8-2.2-8.9-0.3c-3.2,2-4.5,5-4,8.5c1.5,10,6.5,18.1,14.9,23.7C322.7,111.7,329,107.7,328.9,98.5z M232.6,127.1
		c-1.8-1.1-3.4-2-4.9-2.9c-0.5-0.3-1-0.4-1.5,0c-4,3.3-8.7,5.5-13.1,8.3c-1.3,0.9-1,1.4,0.2,1.9c1.4,0.7,2.2,1.9,3,3.2
		c4.2,6.9,8.3,13.8,12.5,20.7c0.8,1.3,1.5,2.6,1.6,4.1c0.1,1.8,0.7,1.8,2,1c4.1-2.4,8-5.3,12.5-7.2c0.6-0.2,0.9-0.6,0.8-1.2
		c-0.1-2.2-0.2-4.4-0.4-7.2c-3,3.7-6.7,5.3-10,7.4c-0.7,0.5-1.5,1-2.2-0.2c-1.1-2-2.4-3.9-3.4-5.9c-1.1-2.5-0.1-6.5,3.6-6.1
		c1.3,0.1,1.5-0.5,1.4-1.5c0-1,0-1.9,0.1-2.9c0.2-1.5-0.4-2-1.9-1.9c-3.8,0.1-5.9,2.4-7.4,5.8c-1.4-2.3-2.6-4.5-4-6.5
		c-0.9-1.3-0.6-1.9,0.7-2.7C225.6,131.3,228.9,129.3,232.6,127.1z M135.8,196.8c-0.3-0.5-0.7-0.9-0.9-1.3c-1.1-1.9-2.2-3.8-3.4-5.6
		c-0.7-1-0.2-1.6,0.6-2.1c2.3-1.3,4.5-2.7,6.8-4c3.9-2.3,3.9-2.3-0.1-4.6c-0.7-0.4-1.4-1.5-2.5-0.6c-3,2.6-6.6,4.2-9.9,6.4
		c-1.4,0.9-2.8,1.8-4.5,2.9c2,1.1,3.4,2.2,4.4,3.8c4.3,7.2,8.7,14.4,13,21.6c0.6,1.1,1.2,2.1,1.1,3.4c-0.1,1.8,0.4,2.1,2,1.2
		c4.1-2.4,8-5.4,12.5-7.2c0.5-0.2,0.8-0.5,0.8-1c0-2.3,0-4.6,0-6.9c-3.3,3-6.9,4.6-10.2,6.7c-0.6,0.4-1.3,1.1-2,0
		c-1.4-2.4-3.3-4.6-3.9-7.4c-0.6-2.5,1.1-5.2,3.6-4.9c2,0.2,1.9-0.7,1.9-2c0-0.8-0.1-1.6,0-2.4c0.2-1.4-0.4-1.8-1.8-1.8
		C139.8,191.1,137.5,192.8,135.8,196.8z"/>
	<path class="st4" d="M339,116.9c-5,6.9-8.7,14.2-10.3,22.6c-1.5,8.1-1.3,16.2-0.1,24.2c2.3,15.3,7.5,30,11.1,45
		c2.8,11.7,4.3,23.6,3.2,35.6c-1.3,14.9-6.9,28.3-15.8,40.4c-12.2,16.7-28.1,29.3-45.2,40.6c-25.2,16.6-52.6,29.1-80.2,41.1
		c-6.4,2.8-11.5,2.5-17.7-0.5c-27.2-12.9-54.1-26.3-79.3-43c-12.8-8.5-25-17.9-35.9-28.9c-3.5-3.6-6.7-7.4-9.8-11.3
		c-1.2-1.5-0.7-2.1,0.7-2.9c20.5-12,40.9-24,61.4-36c49.5-29,98.9-57.9,148.4-86.9c22.4-13.1,44.9-26.3,67.3-39.4
		C337.4,117.2,337.9,116.6,339,116.9z M267.4,253.3c-0.2,0-0.3,0-0.5,0c0,6.6,0.1,13.1,0,19.7c0,2.4-0.6,4.8-2.8,6.2
		c-3.7,2.3-7.6-0.4-7.6-5.6c0-12.9,0.2-25.7,0.2-38.6c0-1.9,0-3.6,1.7-5c1-0.7,0.8-2,0.5-2.9c-0.3-1.1-1.5-0.6-2.3-0.6
		c-2.8-0.1-5.6-0.1-8.4,0c-0.9,0-2.1-0.5-2.5,0.8c-0.4,1.1-0.2,2.3,0.8,3.1c1,0.9,1.6,2,1.6,3.5c-0.1,8-0.2,15.9-0.2,23.9
		c0,5.9-0.7,11.7,0.3,17.5c0.9,5.6,5.7,9.7,11.5,10.1c5.7,0.3,10.4-3,12.1-8.5c0.7-2.3,0.9-4.6,0.9-7c0.1-11.2,0.1-22.4,0.1-33.6
		c0-2.3-0.2-4.5,2-6.2c0.8-0.6,0.8-1.8,0.5-2.7c-0.4-1.1-1.4-0.8-2.3-0.8c-1.7,0-3.5-0.1-5.2,0c-0.9,0-2.1-0.4-2.5,0.8
		c-0.4,1.1-0.2,2.3,0.8,3.1c1.4,1.1,1.5,2.6,1.5,4.2C267.4,240.9,267.4,247.1,267.4,253.3z M237.9,284.7
		C237.9,284.8,237.9,284.8,237.9,284.7c1.6,0,3.1,0.1,4.7,0c0.8,0,2,0.4,2.2-0.7c0.3-1.1,0.5-2.4-0.7-3.1c-1.5-0.8-1.8-2.2-2.1-3.7
		c-1.5-7.8-3-15.6-4.5-23.4c-1.6-8.5-3.2-17-4.9-25.4c-0.1-0.7-0.1-2.2-1.3-1.8c-2.2,0.7-4.4,1.7-6.4,2.9c-1.4,0.9-0.1,2.4-0.1,3.6
		c0,0.7-0.1,1.4-0.3,2.1c-2.4,11.5-4.6,23.1-7.2,34.6c-0.9,3.9-0.6,8.2-4.1,11.3c-1.5,1.4-0.2,3.4,1.9,3.5c1.8,0.1,3.7,0.1,5.5,0
		c0.9,0,1.9,0.2,2.3-0.8c0.4-1,0.5-2.2-0.5-2.9c-2.4-1.7-2.1-3.9-1.4-6.3c1.5-5.6-0.2-4.7,5.9-4.7c4.8,0,4.8,0,5.7,4.8
		c0.5,2.5,1.2,4.9-1.6,6.7c-0.8,0.5-0.6,1.6-0.4,2.5c0.3,0.9,1.2,0.9,2,0.9C234.5,284.7,236.2,284.7,237.9,284.7z M200.3,254.4
		c-0.1,0-0.1,0-0.2,0c0,6.6,0,13.1,0,19.7c0,1.8-0.3,3.5-0.9,5.1c-0.4,1-1.1,1.6-2.2,1.4c-1.4-0.3-1.3-1.4-1-2.3
		c0.4-1.6,0.3-3-1.1-4c-1.6-1.1-3.3-1.1-4.9,0c-1.7,1.1-2.3,2.8-1.8,4.8c0.9,3.6,5,6.1,9.3,5.5c6.1-0.8,10.6-5.8,11-12.5
		c0.8-12.4,0.3-24.8,0.5-37.2c0-2,0-3.8,1.8-5.2c0.9-0.7,0.9-1.9,0.5-2.9c-0.4-1.1-1.5-0.7-2.3-0.7c-2.8,0-5.6-0.1-8.4,0
		c-0.9,0-2.1-0.5-2.5,0.8c-0.3,1.1-0.4,2.3,0.6,3.1c1.5,1.1,1.5,2.6,1.5,4.2C200.3,240.9,200.3,247.6,200.3,254.4z M221.8,314.9
		c-0.4-1.3,0-3-1.9-2.8c-0.9,0.1-1.4,0.8-1.3,1.7c0.2,1.6,1.5,2.1,2.8,2.2c1.6,0.1,2.8-0.7,3.8-1.9c2.5-3.3,3-12.9,0.9-16.4
		c-1.8-2.8-5.1-2.8-6.7,0.2c-1.1,2.1-1.4,4.3-1,6.6c0.7,3.7,2.2,4.6,5.9,3.3C224.3,310.3,224.6,313,221.8,314.9z M256.2,303.1
		C256.2,303.1,256.3,303.1,256.2,303.1c0.1-1.7,0.1-3.5,0-5.2c0-0.7,0.4-1.7-0.7-2c-1.1-0.3-1.5,0.4-1.9,1.3
		c-1.5,3.6-3.2,7.2-4.7,10.8c-1.4,3.3-1.4,3.3,2.2,3.4c2.1,0.1,2.8,1.1,1.7,2.7c-1.5,2.2,0,1.8,1.2,1.9c1.6,0.1,3.7,0.6,2.1-2.3
		c-0.1-0.2-0.1-0.7,0-0.8c2.3-1.6,0.1-3.2,0-4.8C256.2,306.5,256.2,304.8,256.2,303.1z M235.4,313.3c1.2-3.1,3.5-5.1,5-7.5
		c1.4-2.1,2.3-4.3,1.7-6.9c-0.5-2.3-2.5-3.4-5.3-3.1c-2,0.3-3.1,1.5-3.3,3.5c-0.1,0.8,0.2,1.6,1.1,1.9c0.6,0.2,1.2,0.1,1.7-0.4
		c0.5-0.6,0.6-1.2,0.1-1.9c-0.4-0.5-0.8-1.1,0.1-1.5c0.9-0.4,1.8-0.3,2.3,0.6c0.5,0.9,0.5,2,0.4,3.1c-0.3,2.7-1.8,4.9-3,7.2
		c-0.9,1.7-2,3.3-2.8,5c-0.3,0.7-1.1,2.3,0.7,2.4c2.4,0.2,4.9,0.1,7.3,0.1c0.8,0,1-0.6,1-1.2c-0.1-0.8,0.3-1.8-0.4-2.5
		c-0.3-0.3-0.7-0.1-0.9,0.1C239.6,314.3,237.5,313,235.4,313.3z M209.6,304.8C209.6,304.8,209.6,304.8,209.6,304.8
		c0-2.5,0.1-5.1,0-7.6c0-0.6,0.3-1.6-0.7-1.7c-1.4-0.1-2.9,0.5-3.8,1.5c-0.9,1,0.4,1.1,1.1,1.4c0.7,0.3,0.5,1,0.5,1.6
		c0,4-0.1,8.1-0.1,12.1c0,0.5-0.2,1-0.3,1.5c-0.2,0.6-1.8,0.7-1,1.7c0.5,0.7,1.5,0.3,2.2,0.3c0.5,0,1.1,0.1,1.6,0
		c0.6-0.1,1.5,0.3,1.9-0.5c0.3-0.8-0.6-0.9-1-1.3c-0.5-0.6-0.4-1.3-0.4-2C209.6,309.6,209.6,307.2,209.6,304.8z M257.9,224.4
		c1.7-0.4,3.1,0.4,4.2-0.7c3.1-3.5,6.2-6.9,9.8-10.9c-2.8,0-5.1,0-7.3,0c-0.9,0-1.4,0.4-1.8,1.2
		C261.2,217.3,259.7,220.6,257.9,224.4z"/>
	<path class="st4" d="M44.5,220.4c2.1-9.9,5.2-18.8,8.3-27.8c3.2-9.4,6.3-18.7,8.3-28.5c4.1-20.1-0.3-38.2-12.7-54.5
		c-2.3-3.1-4.8-6-7.4-8.9c-0.9-1-1.1-1.7-0.3-2.9c9.5-14.8,19.1-29.7,28.5-44.6c1-1.6,1.9-1.1,3-0.7c9.6,3.5,19.2,6.6,29.1,8.9
		c23.7,5.6,46.1,2.4,67.6-8.8c8.4-4.4,16.4-9.3,24-14.8c2-1.5,3.2-1.3,5.1,0.1c13,9.7,27,17.7,42.7,22.2c12.3,3.5,24.8,4.4,37.5,3
		c12.3-1.3,24.2-4.6,36.2-7.7c0.7-0.2,1.3-0.4,2.7-0.2C226.1,110.4,135.5,165.3,44.5,220.4z M95.7,136.1
		C95.7,136.1,95.7,136.1,95.7,136.1c2.8,0.1,5.6,0,8.4,0.1c1.1,0,1.6-0.3,1.6-1.5c0-2.6,0-5.3,0-7.9c0-0.7,0.2-1.5-0.9-1.6
		c-1-0.2-1.7,0.2-2.1,1.2c-0.5,1.4-0.9,2.8-1.4,4.2c-0.7,1.7-5.6,3-6.9,1.8c-0.3-0.2-0.4-0.8-0.4-1.2c0-5.1,0-10.2,0-15.2
		c0-1.3,0.7-1.4,1.7-1.2c1.6,0.4,1.8,1.7,2.2,3c0.3,1,0.8,1.7,2.1,1.5c1.2-0.2,0.9-1.1,0.9-1.9c0.1-2,0.2-4,0-6
		c-0.1-1.4,1.1-3.5-1-4.1c-2.3-0.6-1.8,1.8-2.4,2.9c-0.6,1.1-1.6,1.4-2.7,1.2c-1.4-0.2-0.8-1.4-0.8-2.1c0-3.3,0-6.7,0-10
		c0-3.7,1.8-4.9,5.3-3.6c1.9,0.8,2.2,2.6,2.5,4.3c0.2,1.1,0.6,1.5,1.7,1.5c1.1,0,1.2-0.8,1.2-1.6c0-2.1,0-4.2,0.1-6.3
		c0-1.2-0.5-1.7-1.7-1.7c-5.2,0.1-10.3,0-15.5,0c-2,0-2.7,1.1-1.4,2.6c1.3,1.5,1.4,3.1,1.3,4.9c-0.1,10-0.3,20-0.4,29.9
		c0,1.4,0,2.8-1.2,3.9c-0.7,0.6-0.6,1.5-0.4,2.2c0.3,1,1.3,0.7,2.1,0.7C90.4,136.1,93,136.1,95.7,136.1z M125,114.3
		c-0.1-5.6,0.1-11.2,1.5-16.7c0.3-1.3,1.1-2.4,2.6-2.6c1.7-0.2,2.5,0.8,3.3,2.1c0.9,1.6,1.3,3.4,1.9,5.1c0.3,1.1,1,1.3,2,1.2
		c1-0.1,0.8-1,0.8-1.6c0.1-2.5,0.1-5.1,0.2-7.6c0.1-1.5-0.7-2.1-1.9-1.6c-1.3,0.5-2.3,0.1-3.4-0.4c-3.2-1.4-6-0.6-8.4,1.8
		c-2.3,2.2-3.5,5-4.3,8c-1.7,6.7-1.9,13.5-1,20.3c0.6,4.5,1.8,9,5.3,12.2c4,3.7,9.7,2.8,12.5-1.9c0.9-1.6,1.3-3.4,1.7-5.2
		c0.2-1.1,0.2-1.8-1.1-2.1c-1.3-0.3-1.9,0.1-2.2,1.4c-0.3,1.3-0.6,2.5-1.1,3.7c-0.6,1.4-1.5,2.6-3.3,2.5c-1.7-0.1-2.7-1.2-3.3-2.6
		c-0.3-0.8-0.6-1.6-0.8-2.5C125.1,123.4,124.9,118.9,125,114.3z M111.2,136.7c2,0,3.7-1.8,3.6-3.7c-0.1-2-1.9-3.7-3.9-3.5
		c-2.1,0.2-3.3,1.4-3.4,3.7C107.6,135.3,109.1,136.7,111.2,136.7z M147.4,133.2c0-1.9-1.8-3.5-3.8-3.5c-2,0.1-3.4,1.5-3.4,3.5
		c0,2.1,1.6,3.7,3.6,3.7C145.7,137,147.5,135.1,147.4,133.2z"/>
	<path class="st0" d="M76,242.4c0.7,4.6-0.2,9.2,2,13.4c0.4,0.7-0.1,0.9-0.5,1.2c-1.4,0.9-2.8,1.7-4.4,2.6
		c-0.3-6.4-1.4-12.5-2.1-18.6c-0.2-1.5-0.7-2.4-1.9-3.2c-3.8-2.5-7.6-5-11.4-7.5c-1-0.7-1.9-1.2-3.1-0.4c-0.9,0.7-1.3,1.6-1.1,2.8
		c0.2,1.4,1,1.8,2.4,1.8c1.4,0,1.8,1.6,0.8,2.9c-1.2,1.5-3.4,1.3-5.1-0.3c-3.7-3.7-1.9-10.1,3.3-11.5c1.6-0.4,3.2-0.7,4.8-1.1
		c0.7-0.2,1.5-0.1,1.5,0.5c-0.1,3,2.6,3.6,4.3,5c1.1,0.9,2.3,1.6,3.5,2.4c0.9,0.6,1.7,0.9,1.5-0.7c-0.4-3.5-0.3-7-1.4-10.4
		c-0.3-0.9-0.1-1.2,0.6-1.6c2.2-1.2,4.4-2.4,6.6-3.8c1-0.6,1.2,0,1.7,0.6c4.9,5.8,9.8,11.6,14.8,17.4c0.3,0.4,0.5,1,1.5,0.6
		c-1.1-2.7-2.1-5.5-3.2-8.2c-2.2-5-3.7-10.3-6.4-15.1c-0.2-0.4-0.4-0.8,0-1.2c2.3-2,3.7-4.9,6.4-6.7c-2.8,4.2-0.7,8.1,0.7,11.9
		c2.9,7.6,6,15.1,9.1,22.6c0.2,0.5,0.3,1.1,0.7,1.4c2.9,2.2,0.3,2.7-1,3.8c-2.3,1.9-3.7,1.4-5.7-0.8c-6.7-7.7-13.6-15.3-20.9-23.4
		c0.3,4,0.9,7.4,0.7,10.7c-0.4,5.4,2.2,8.5,6.8,10.8c1.9,1,3.6,2.4,5.5,3.6c1.8,1.2,3.5,2.6,5.8,3.5c-1.4,1.5-3,2.1-4.4,3
		c-0.5,0.3-0.8,0.4-1.3-0.2C84.4,246.3,79.8,245.1,76,242.4z"/>
	<path class="st0" d="M247.3,133.1c2.3,3.8,4.5,7.7,6.8,11.5c0.4,0.6,0.8,1.3,1.4,1.5c2.8,1.4,1.9,2.4-0.2,3.4
		c-0.4,0.2-0.7,0.5-1.1,0.7c-1.1,0.6-2.2,1.8-3.2,1.6c-1.4-0.2-0.4-2.1-1-3.1c-0.2-0.3-0.3-0.7-0.4-0.9c-4.7-7.8-9.4-15.6-14.1-23.3
		c-0.3-0.5-0.8-1-1.2-1.4c-2.3-1.9-2.1-1.7,0.3-3.6c2.4-1.9,4.1-1.4,6.2,0.6c4.1,3.7,8.4,7,13.2,11c-1.1-5.4-2.1-10.1-3.1-14.8
		c-0.1-0.4-0.2-0.8-0.3-1.3c-0.9-4.9,0-6.2,5.2-7.6c-0.3,2.7,1,4.7,2.3,6.8c3.5,5.8,7.1,11.7,10.6,17.5c1.4,2.4,2.7,4.9,5.8,6.1
		c-2.5,1.8-4.7,3.1-7.3,4.4c-1.3-6.8-6.1-11.4-9.4-17c1,5,1.9,10.1,2.9,15.1c0.1,0.7,0.7,1.4-0.1,1.9c-0.8,0.5-1.2-0.4-1.7-0.8
		c-3.7-2.9-7.5-5.8-11.2-8.7c-0.3-0.2-0.6-0.4-0.9-0.7c-0.1-0.1-0.1-0.5-0.3-0.1c0.1,0,0.3,0,0.4,0
		C246.6,132.4,247,132.8,247.3,133.1z"/>
	<path class="st0" d="M175.3,179c-2.6-4.4-5.3-8.9-7.9-13.3c-0.3-0.4-0.6-0.8-1-1.2c-2.4-2.3-2.4-2.3,0.6-4c1.3-0.8,2.5-1.5,4.2-2.4
		c-0.2,4.2,2.3,7,4.2,10.1c3,5.1,6.2,10.2,9.2,15.3c1.3,2.2,2.6,4.4,5.2,5.5c-1.5,1.5-3.3,2.2-4.9,3.3c-1.2,0.8-1.9,0-2.8-0.7
		c-4.6-3.6-9.3-7.2-13.9-10.8c-0.4-0.3-0.8-1-1.9-0.7c3.9,5,5.5,11.4,10.7,15.3c0.9,0.7,0.7,1.1,0,1.5c-1.7,1.1-3.4,2.1-5.1,3.1
		c-1,0.6-1.5,0.1-1.4-0.9c0.1-2-0.9-3.5-1.9-5.1c-4-6.7-8-13.3-12.1-20c-0.6-1-1.2-2.3-2.3-2.8c-2.9-1.5-1.3-2.1,0.3-3.3
		c2.4-1.8,4.1-1.7,6.5,0.3c4.5,3.9,9.3,7.4,14,11c0.2,0.1,0.4,0.3,0.6,0.4c0.1,0.1,0,0.6,0.3,0.1c-0.1,0-0.3-0.1-0.4-0.1
		C175.4,179.5,175.3,179.2,175.3,179z"/>
	<path class="st0" d="M270.3,99.7c4.6,0,7.7,2.9,8,7.5c0.1,1.7,0.7,2.2,2.1,2.7c6.8,2.5,10.7,9,9.1,15.1c-0.8,2.9-2.6,4.9-4.9,6.6
		c-0.9,0.7-1.9,1.3-2.8,1.9c-1.4,0.9-2.8,2.4-4.3,2.4c-2.4,0-0.8-2.5-1.6-3.9c-4.9-7.7-9.5-15.6-14.3-23.5c-0.3-0.5-0.7-1-1.2-1.4
		c-2.2-1.9-2.3-1.9,0.4-3.5C263.9,101.9,266.8,99.6,270.3,99.7z M284.5,122.2c-0.1-3.4-4.7-8.1-7.9-8c-1.3,0-3.4,2.7-2.8,3.7
		c1.8,3,3.6,6,5.4,9c0.4,0.6,0.7,1.3,1.6,0.7C282.8,126.3,284.3,124.8,284.5,122.2z M270.4,105.1c-1.2,0.1-2.1,0.4-2.9,1
		c-1.1,0.8-0.1,1.4,0.3,1.9c1.1,1.4,1.3,4.2,3.3,4.1c1.5-0.1,2.5-2.3,2.1-4.2C272.8,106.2,272,105.1,270.4,105.1z"/>
	<path class="st0" d="M277,94c3.7-2.2,6.7-4.5,10.3-5.7c3.8-1.3,7.3-0.6,10,2.4c3.2,3.5,5.2,7.5,4,12.4c-0.2,0.9-0.1,1.5,0.6,2.1
		c2.8,2.5,5.5,5.1,8.3,7.7c0.8,0.7,1.9,0.7,3.3,1.2c-2.1,1.9-4.4,3-6.5,4.2c-0.8,0.5-0.9-0.3-1.1-0.9c-1.2-3.7-4.7-5.3-7.1-7.8
		c-0.7-0.7-1.2,0.2-1.7,0.6c-0.8,0.6-1.1,1.3-0.4,2.2c2,2.8,2.9,6.4,6.9,7.9c-2.5,2-4.9,3.2-7.7,4.8c0.3-3.4-1.3-5.6-2.7-7.9
		c-3.4-5.7-6.9-11.3-10.3-17C281.4,97.7,280.1,95.3,277,94z M296.2,101c0.1-5.4-4.6-9-8.6-7c-1.2,0.6-1.6,1.1-0.8,2.3
		c1.5,2.3,2.8,4.6,4.2,6.9c0.6,1,1,2.8,2.1,2.7c1.5-0.2,2.1-1.9,2.6-3.3C296,102,296.2,101.3,296.2,101z"/>
	<path class="st0" d="M120.2,231.2c0.2-3.7-1.6-6.1-3.2-8.6c-3.5-5.8-6.9-11.5-10.4-17.2c-1-1.7-2-3.5-3.9-4.4c-0.9-0.4-1-1-0.1-1.5
		c3.1-1.9,6.1-4,9.7-5c4.1-1.1,7.7-0.1,10.8,2.6c5.5,4.7,8.8,10.7,10,17.9c0.6,3.9-0.6,7.2-3.4,10C127,227.5,123.7,229,120.2,231.2z
		 M127.9,216.1c-1.3-6.2-4-11.6-9-15.7c-1.8-1.5-4.1-1.3-6.2-0.5c-1.7,0.6-2.2,1.3-1.1,3c3.5,5.5,6.8,11.2,10.2,16.8
		c0.6,1,0.9,2.8,2.2,2.6c1.6-0.2,2.6-1.6,3.3-3.1C127.6,218.2,127.7,217.2,127.9,216.1z"/>
	<path class="st0" d="M177.8,158.4c-0.1-3.7,1.2-6.6,4.5-8.4c3.2-1.7,6.4-1.2,9.1,0.9c7.8,6,12.4,14.1,13.8,23.8
		c0.5,3.1-0.6,6.1-3.5,8c-2.8,1.8-5.8,1.8-8.4,0.1C184.5,177,179.6,168.6,177.8,158.4z M200,175.5c-0.4-4.1-2.1-7.7-4.1-11.2
		c-1.8-3.2-4-6.2-7-8.4c-1.2-0.9-2.5-1.8-4.1-1c-1.7,0.9-1.7,2.5-1.5,4.1c0.1,0.6,0.2,1.2,0.4,1.8c1.8,6.1,5.2,11.2,9.7,15.6
		c0.9,0.8,1.9,1.6,3.1,1.8C198.7,178.6,200,177.6,200,175.5z"/>
	<path class="st0" d="M328.9,98.5c0.1,9.1-6.2,13.1-12.4,9c-8.4-5.5-13.4-13.7-14.9-23.7c-0.5-3.5,0.8-6.5,4-8.5
		c3.1-1.9,6.1-1.6,8.9,0.3C323,81.7,327.3,90.2,328.9,98.5z M323.6,99.2c-1.6-6.6-4.9-13.2-11-18.3c-1.2-1-2.7-1.8-4.3-0.7
		c-1.4,1.1-1.6,2.6-1.2,4.3c1.3,5.8,4.3,10.7,8.1,15c1.2,1.3,2.4,2.6,4,3.4C321.9,104.3,323.6,103.3,323.6,99.2z"/>
	<path class="st0" d="M232.6,127.1c-3.7,2.2-7,4.2-10.3,6.1c-1.3,0.7-1.5,1.4-0.7,2.7c1.4,2,2.5,4.2,4,6.5c1.5-3.4,3.7-5.6,7.4-5.8
		c1.5-0.1,2.1,0.4,1.9,1.9c-0.1,1-0.1,1.9-0.1,2.9c0,1-0.2,1.6-1.4,1.5c-3.7-0.4-4.7,3.6-3.6,6.1c0.9,2.1,2.3,3.9,3.4,5.9
		c0.7,1.2,1.4,0.6,2.2,0.2c3.3-2.1,6.9-3.7,10-7.4c0.2,2.8,0.3,5,0.4,7.2c0,0.6-0.3,0.9-0.8,1.2c-4.4,1.9-8.3,4.8-12.5,7.2
		c-1.4,0.8-2,0.8-2-1c-0.1-1.5-0.8-2.8-1.6-4.1c-4.2-6.9-8.3-13.8-12.5-20.7c-0.8-1.3-1.6-2.5-3-3.2c-1.2-0.5-1.5-1.1-0.2-1.9
		c4.3-2.8,9-5,13.1-8.3c0.5-0.4,1-0.3,1.5,0C229.3,125.1,230.8,126,232.6,127.1z"/>
	<path class="st0" d="M135.8,196.8c1.7-4,4.1-5.7,7.5-5.7c1.4,0,1.9,0.5,1.8,1.8c-0.1,0.8,0,1.6,0,2.4c0,1.3,0.1,2.2-1.9,2
		c-2.5-0.2-4.2,2.4-3.6,4.9c0.7,2.8,2.5,5,3.9,7.4c0.6,1.1,1.4,0.4,2,0c3.3-2.1,6.9-3.7,10.2-6.7c0,2.3,0,4.6,0,6.9
		c0,0.5-0.3,0.8-0.8,1c-4.5,1.8-8.3,4.8-12.5,7.2c-1.7,1-2.1,0.7-2-1.2c0.1-1.3-0.5-2.4-1.1-3.4c-4.3-7.2-8.7-14.3-13-21.6
		c-1-1.7-2.4-2.7-4.4-3.8c1.6-1,3.1-1.9,4.5-2.9c3.3-2.1,6.9-3.7,9.9-6.4c1.1-1,1.8,0.2,2.5,0.6c4,2.3,4,2.3,0.1,4.6
		c-2.3,1.3-4.5,2.7-6.8,4c-0.9,0.5-1.3,1.1-0.6,2.1c1.2,1.8,2.3,3.7,3.4,5.6C135.1,195.9,135.4,196.3,135.8,196.8z"/>
	<path class="st0" d="M213.8,161.4c0.3-1.2-0.5-2.2-0.9-3.2c-2-4.9-4-9.9-6-14.8c-0.5-1.2-0.9-2.6-2-3.3c-1.7-1.2-1.3-1.9,0.2-2.7
		c1.4-0.7,2.7-1.6,4.1-2.4c0.6-0.3,1.5-0.8,1.4,0.4c-0.4,4.7,2.2,8.5,3.7,12.7c2.3,6.5,4.8,12.9,7.4,19.3c0.7,1.7,0.4,2.6-1.2,3.3
		c-0.6,0.3-1.3,0.6-1.8,1.1c-1.3,1.1-2.2,0.8-3.2-0.5c-6-7-12.1-13.8-18.1-20.7c-1.6-1.8-3.1-3.8-5.9-4.8c2.1-1.3,4.2-2.5,6.4-3.8
		c0.6-0.4,1.1-0.1,1.1,0.5c0.2,2.8,2.3,4.4,3.9,6.3C206.5,152.9,209.9,157.4,213.8,161.4c0.1,0.1,0.1,0.5,0.4,0.1
		C214,161.5,213.9,161.4,213.8,161.4z"/>
	<path class="st3" d="M267.4,253.3c0-6.2,0-12.4,0-18.6c0-1.6-0.2-3.1-1.5-4.2c-1-0.8-1.2-2-0.8-3.1c0.4-1.3,1.6-0.8,2.5-0.8
		c1.7,0,3.5,0,5.2,0c0.8,0,1.9-0.3,2.3,0.8c0.3,0.9,0.4,2.1-0.5,2.7c-2.2,1.6-2,3.9-2,6.2c0,11.2-0.1,22.4-0.1,33.6
		c0,2.4-0.2,4.7-0.9,7c-1.7,5.5-6.4,8.8-12.1,8.5c-5.8-0.3-10.6-4.4-11.5-10.1c-0.9-5.8-0.3-11.7-0.3-17.5c0-8,0.1-15.9,0.2-23.9
		c0-1.4-0.5-2.5-1.6-3.5c-1-0.8-1.2-2-0.8-3.1c0.5-1.2,1.6-0.7,2.5-0.8c2.8,0,5.6,0,8.4,0c0.8,0,1.9-0.5,2.3,0.6
		c0.3,1,0.5,2.2-0.5,2.9c-1.7,1.3-1.7,3.1-1.7,5c-0.1,12.9-0.2,25.7-0.2,38.6c0,5.1,3.9,7.9,7.6,5.6c2.2-1.4,2.8-3.8,2.8-6.2
		c0.1-6.6,0-13.1,0-19.7C267.1,253.3,267.2,253.3,267.4,253.3z"/>
	<path class="st3" d="M237.9,284.7c-1.7,0-3.3,0-5,0c-0.8,0-1.7,0.1-2-0.9c-0.3-0.8-0.4-2,0.4-2.5c2.8-1.7,2.1-4.1,1.6-6.7
		c-1-4.7-0.9-4.8-5.7-4.8c-6.1,0-4.5-0.9-5.9,4.7c-0.6,2.4-1,4.6,1.4,6.3c0.9,0.7,0.9,1.9,0.5,2.9c-0.4,1-1.4,0.8-2.3,0.8
		c-1.8,0-3.7,0-5.5,0c-2.2-0.1-3.4-2.1-1.9-3.5c3.5-3.1,3.2-7.4,4.1-11.3c2.6-11.5,4.8-23,7.2-34.6c0.1-0.7,0.2-1.4,0.3-2.1
		c0.1-1.2-1.2-2.8,0.1-3.6c2-1.2,4.2-2.2,6.4-2.9c1.2-0.4,1.1,1.1,1.3,1.8c1.7,8.5,3.2,17,4.9,25.4c1.5,7.8,3,15.6,4.5,23.4
		c0.3,1.5,0.6,2.9,2.1,3.7c1.2,0.7,1,2,0.7,3.1c-0.3,1.2-1.4,0.7-2.2,0.7C241,284.8,239.4,284.8,237.9,284.7
		C237.9,284.8,237.9,284.8,237.9,284.7z M227.5,247c-0.1,0-0.2,0-0.3,0.1c-1.1,5.1-2.2,10.2-3.3,15.3c-0.4,1.9-0.1,2.8,2.2,2.8
		c4.9-0.1,5,0.1,4.1-4.8C229.3,255.8,228.4,251.4,227.5,247z"/>
	<path class="st3" d="M200.3,254.4c0-6.7,0-13.5,0-20.2c0-1.6-0.1-3.1-1.5-4.2c-1.1-0.8-1-2.1-0.6-3.1c0.4-1.3,1.6-0.7,2.5-0.8
		c2.8,0,5.6,0,8.4,0c0.8,0,1.9-0.3,2.3,0.7c0.4,1,0.4,2.2-0.5,2.9c-1.8,1.4-1.8,3.2-1.8,5.2c-0.2,12.4,0.3,24.8-0.5,37.2
		c-0.4,6.7-4.9,11.7-11,12.5c-4.3,0.5-8.4-1.9-9.3-5.5c-0.5-2,0.1-3.7,1.8-4.8c1.6-1.1,3.3-1.1,4.9,0c1.4,1,1.5,2.4,1.1,4
		c-0.2,0.9-0.3,2,1,2.3c1.1,0.2,1.8-0.4,2.2-1.4c0.6-1.7,0.9-3.4,0.9-5.1c0-6.6,0-13.1,0-19.7C200.2,254.4,200.3,254.4,200.3,254.4z
		"/>
	<path class="st1" d="M221.8,314.9c2.8-1.9,2.5-4.6,2.5-7.2c-3.6,1.3-5.2,0.4-5.9-3.3c-0.4-2.3-0.2-4.5,1-6.6c1.6-3,5-3,6.7-0.2
		c2.2,3.5,1.6,13.1-0.9,16.4c-1,1.3-2.2,2-3.8,1.9c-1.4-0.1-2.6-0.6-2.8-2.2c-0.1-0.9,0.3-1.6,1.3-1.7
		C221.8,311.9,221.4,313.6,221.8,314.9z M224.4,302C224.4,302,224.4,302,224.4,302c0-1.2-0.1-2.4-0.4-3.6c-0.1-0.7-0.4-1.4-1.4-1.3
		c-0.7,0.1-0.9,0.7-1,1.4c-0.5,2-0.5,4-0.3,6c0.1,0.9,0.4,1.8,1.6,1.7c1.2-0.1,1.5-0.9,1.5-2.1C224.3,303.4,224.4,302.7,224.4,302z"
		/>
	<path class="st1" d="M256.2,303.1c0,1.7,0,3.3,0,5c0.1,1.6,2.3,3.2,0,4.8c-0.1,0.1-0.1,0.6,0,0.8c1.6,2.9-0.5,2.4-2.1,2.3
		c-1.2,0-2.8,0.3-1.2-1.9c1.1-1.6,0.4-2.6-1.7-2.7c-3.6-0.1-3.6-0.2-2.2-3.4c1.5-3.6,3.2-7.2,4.7-10.8c0.4-0.9,0.8-1.6,1.9-1.3
		c1.1,0.3,0.7,1.3,0.7,2C256.3,299.7,256.3,301.4,256.2,303.1C256.3,303.1,256.2,303.1,256.2,303.1z M253.3,303
		c-0.2,0-0.3-0.1-0.5-0.1c-0.7,1.6-1.5,3.2-2.2,4.9c-0.3,0.6-0.9,1.4-0.3,1.9c0.5,0.4,1.5,0.3,2.2,0.2c1-0.1,0.7-1.1,0.7-1.7
		C253.3,306.5,253.3,304.8,253.3,303z"/>
	<path class="st1" d="M235.4,313.3c2.1-0.4,4.2,1,5.8-1.1c0.2-0.3,0.6-0.5,0.9-0.1c0.7,0.7,0.3,1.7,0.4,2.5c0,0.7-0.2,1.2-1,1.2
		c-2.4,0-4.9,0.1-7.3-0.1c-1.8-0.1-1-1.7-0.7-2.4c0.7-1.8,1.9-3.3,2.8-5c1.2-2.3,2.7-4.5,3-7.2c0.1-1.1,0.1-2.1-0.4-3.1
		c-0.5-0.9-1.4-1-2.3-0.6c-0.9,0.4-0.5,0.9-0.1,1.5c0.5,0.7,0.4,1.3-0.1,1.9c-0.5,0.5-1,0.6-1.7,0.4c-0.9-0.3-1.2-1.1-1.1-1.9
		c0.2-2,1.3-3.2,3.3-3.5c2.8-0.4,4.8,0.7,5.3,3.1c0.6,2.6-0.3,4.8-1.7,6.9C238.9,308.2,236.6,310.3,235.4,313.3z"/>
	<path class="st1" d="M209.6,304.8c0,2.4,0,4.7,0,7.1c0,0.7-0.2,1.4,0.4,2c0.4,0.4,1.3,0.5,1,1.3c-0.3,0.9-1.2,0.5-1.9,0.5
		c-0.5,0.1-1.1,0-1.6,0c-0.8-0.1-1.8,0.3-2.2-0.3c-0.8-1.1,0.8-1.1,1-1.7c0.2-0.5,0.3-1,0.3-1.5c0.1-4,0.1-8.1,0.1-12.1
		c0-0.6,0.2-1.3-0.5-1.6c-0.6-0.3-2-0.4-1.1-1.4c0.9-1,2.3-1.6,3.8-1.5c1,0.1,0.7,1.1,0.7,1.7C209.6,299.8,209.6,302.3,209.6,304.8
		C209.6,304.8,209.6,304.8,209.6,304.8z"/>
	<path class="st3" d="M257.9,224.4c1.8-3.9,3.3-7.1,4.9-10.5c0.4-0.8,0.9-1.2,1.8-1.2c2.2,0.1,4.5,0,7.3,0
		c-3.5,3.9-6.6,7.4-9.8,10.9C261,224.9,259.6,224.1,257.9,224.4z"/>
	<path class="st3" d="M95.7,136.1c-2.6,0-5.3,0-7.9,0c-0.7,0-1.7,0.3-2.1-0.7c-0.2-0.7-0.3-1.6,0.4-2.2c1.2-1.1,1.2-2.4,1.2-3.9
		c0.1-10,0.2-20,0.4-29.9c0-1.8,0-3.4-1.3-4.9C85.1,93,85.7,92,87.7,92c5.2,0,10.3,0,15.5,0c1.3,0,1.8,0.4,1.7,1.7
		c-0.1,2.1-0.1,4.2-0.1,6.3c0,0.8-0.1,1.6-1.2,1.6c-1.1,0-1.5-0.4-1.7-1.5c-0.3-1.7-0.6-3.6-2.5-4.3c-3.5-1.4-5.3-0.2-5.3,3.6
		c0,3.3-0.1,6.7,0,10c0,0.7-0.6,1.9,0.8,2.1c1.1,0.2,2-0.1,2.7-1.2c0.7-1.1,0.2-3.6,2.4-2.9c2.1,0.6,0.8,2.7,1,4.1c0.2,2,0,4,0,6
		c0,0.7,0.3,1.6-0.9,1.9c-1.2,0.2-1.8-0.5-2.1-1.5c-0.3-1.3-0.6-2.6-2.2-3c-1-0.2-1.7-0.1-1.7,1.2c0,5.1,0,10.2,0,15.2
		c0,0.4,0.1,1,0.4,1.2c1.3,1.2,6.2-0.1,6.9-1.8c0.6-1.4,1-2.8,1.4-4.2c0.3-1,1.1-1.3,2.1-1.2c1,0.2,0.9,1,0.9,1.6
		c0,2.6-0.1,5.3,0,7.9c0,1.2-0.5,1.5-1.6,1.5C101.3,136.1,98.5,136.1,95.7,136.1C95.7,136.1,95.7,136.1,95.7,136.1z"/>
	<path class="st3" d="M125,114.3c-0.1,4.6,0.1,9.1,1,13.6c0.2,0.8,0.4,1.7,0.8,2.5c0.6,1.4,1.5,2.6,3.3,2.6c1.8,0.1,2.7-1.1,3.3-2.5
		c0.5-1.2,0.9-2.5,1.1-3.7c0.3-1.3,0.9-1.7,2.2-1.4c1.3,0.3,1.4,1.1,1.1,2.1c-0.4,1.8-0.8,3.6-1.7,5.2c-2.8,4.8-8.4,5.7-12.5,1.9
		c-3.6-3.3-4.7-7.7-5.3-12.2c-0.9-6.8-0.7-13.6,1-20.3c0.8-3,2-5.8,4.3-8c2.4-2.4,5.2-3.2,8.4-1.8c1.1,0.5,2.1,0.8,3.4,0.4
		c1.2-0.4,2,0.2,1.9,1.6c-0.1,2.5-0.1,5.1-0.2,7.6c0,0.7,0.2,1.5-0.8,1.6c-1,0.1-1.7-0.2-2-1.2c-0.5-1.7-1-3.5-1.9-5.1
		c-0.7-1.3-1.6-2.3-3.3-2.1c-1.5,0.2-2.2,1.3-2.6,2.6C125.2,103.1,125,108.7,125,114.3z"/>
	<path class="st3" d="M111.2,136.7c-2.2,0-3.6-1.4-3.6-3.6c0-2.2,1.3-3.4,3.4-3.7c1.9-0.2,3.8,1.5,3.9,3.5
		C114.9,134.9,113.2,136.6,111.2,136.7z"/>
	<path class="st3" d="M147.4,133.2c0,1.9-1.7,3.7-3.6,3.8c-2,0-3.6-1.7-3.6-3.7c0-2,1.4-3.5,3.4-3.5
		C145.6,129.7,147.4,131.3,147.4,133.2z"/>
	<path class="st3" d="M246.9,131.9c0.3,0.2,0.6,0.4,0.9,0.7c-0.2,0.2-0.3,0.3-0.5,0.5C247,132.8,246.6,132.4,246.9,131.9
		L246.9,131.9z"/>
	<path class="st3" d="M246.9,131.9c-0.1,0-0.3,0-0.4,0C246.8,131.4,246.8,131.8,246.9,131.9C246.9,131.9,246.9,131.9,246.9,131.9z"
		/>
	<path class="st3" d="M175.5,179.7c-0.2-0.1-0.4-0.3-0.6-0.4c0.1-0.1,0.3-0.2,0.4-0.3C175.3,179.2,175.4,179.5,175.5,179.7
		L175.5,179.7z"/>
	<path class="st3" d="M175.4,179.8c0.1,0,0.3,0.1,0.4,0.1C175.5,180.3,175.6,179.8,175.4,179.8C175.5,179.7,175.4,179.8,175.4,179.8
		z"/>
	<path class="st3" d="M284.5,122.2c-0.2,2.5-1.7,4.1-3.7,5.4c-0.9,0.6-1.3-0.1-1.6-0.7c-1.8-3-3.6-6-5.4-9c-0.6-1,1.4-3.7,2.8-3.7
		C279.9,114.2,284.5,118.8,284.5,122.2z"/>
	<path class="st3" d="M270.4,105.1c1.6,0,2.4,1.1,2.8,2.7c0.4,2-0.6,4.1-2.1,4.2c-2,0.2-2.1-2.7-3.3-4.1c-0.4-0.5-1.4-1.1-0.3-1.9
		C268.3,105.6,269.2,105.2,270.4,105.1z"/>
	<path class="st3" d="M296.2,101c-0.1,0.3-0.2,1-0.4,1.6c-0.5,1.4-1.1,3.1-2.6,3.3c-1.1,0.1-1.5-1.7-2.1-2.7
		c-1.5-2.3-2.8-4.6-4.2-6.9c-0.8-1.2-0.4-1.8,0.8-2.3C291.6,92,296.3,95.6,296.2,101z"/>
	<path class="st3" d="M127.9,216.1c-0.1,1.2-0.3,2.2-0.7,3.1c-0.7,1.5-1.7,3-3.3,3.1c-1.3,0.1-1.5-1.7-2.2-2.6
		c-3.4-5.6-6.8-11.2-10.2-16.8c-1.1-1.7-0.5-2.4,1.1-3c2.2-0.8,4.4-1,6.2,0.5C123.9,204.4,126.5,209.9,127.9,216.1z"/>
	<path class="st3" d="M200,175.5c0,2.2-1.3,3.2-3.5,2.7c-1.2-0.3-2.2-1-3.1-1.8c-4.6-4.4-7.9-9.5-9.7-15.6c-0.2-0.6-0.3-1.2-0.4-1.8
		c-0.2-1.6-0.1-3.2,1.5-4.1c1.6-0.9,2.9,0.1,4.1,1c3,2.3,5.1,5.2,7,8.4C197.9,167.7,199.6,171.4,200,175.5z"/>
	<path class="st3" d="M323.6,99.2c0,4.1-1.7,5.1-4.4,3.8c-1.6-0.8-2.8-2.1-4-3.4c-3.9-4.4-6.8-9.3-8.1-15c-0.4-1.7-0.2-3.2,1.2-4.3
		c1.6-1.2,3.1-0.4,4.3,0.7C318.7,86,322.1,92.7,323.6,99.2z"/>
	<path class="st3" d="M213.8,161.4c0.1,0,0.3,0.1,0.4,0.1C213.8,161.9,213.9,161.4,213.8,161.4C213.8,161.3,213.8,161.4,213.8,161.4
		z"/>
	<path class="st0" d="M227.5,247c0.9,4.4,1.8,8.8,2.6,13.3c0.9,4.9,0.8,4.8-4.1,4.8c-2.3,0-2.6-0.9-2.2-2.8
		c1.1-5.1,2.2-10.2,3.3-15.3C227.3,247,227.4,247,227.5,247z"/>
	<path class="st2" d="M224.4,302c0,0.7,0,1.4,0,2.1c0.1,1.1-0.3,2-1.5,2.1c-1.1,0.1-1.5-0.9-1.6-1.7c-0.2-2-0.2-4,0.3-6
		c0.1-0.6,0.4-1.3,1-1.4c0.9-0.1,1.2,0.6,1.4,1.3C224.3,299.5,224.3,300.8,224.4,302C224.4,302,224.4,302,224.4,302z"/>
	<path class="st2" d="M253.3,303c0,1.7,0,3.4,0,5.2c0,0.6,0.3,1.5-0.7,1.7c-0.7,0.1-1.7,0.2-2.2-0.2c-0.7-0.5,0-1.3,0.3-1.9
		c0.7-1.6,1.5-3.2,2.2-4.9C252.9,303,253.1,303,253.3,303z"/>
</g>
</svg>
