<?xml version="1.0" encoding="UTF-8"?>
<svg id="Layer_1" xmlns="http://www.w3.org/2000/svg" version="1.1" viewBox="0 0 300 300">
  <!-- Generator: Adobe Illustrator 29.1.0, SVG Export Plug-In . SVG Version: 2.1.0 Build 142)  -->
  <defs>
    <style>
      .st0 {
        fill: #24674e;
      }

      .st1 {
        fill: #fbfbfb;
      }

      .st2 {
        fill: #0f583d;
      }

      .st3 {
        fill: #051b13;
      }

      .st4 {
        fill: #f3f3f3;
      }
    </style>
  </defs>
  <path class="st4" d="M138.2,4.5c37.3-1.7,88.7,5.7,123.9,18.6,3.2,1.2,8.2,2.2,8.4,6.4-2.5,42.3,4.1,89.3-1.9,131-8.1,57-62,111-113,133.6-6.8,3-7.7,1.7-14.2-1.5-56.5-27.8-109.2-82.1-112.2-148-1.8-37.7,1.4-76.7,0-114.5,0-1.3.3-2.2.9-3.2,1.5-2.3,12.5-5.3,15.7-6.2,28.5-8.6,62.6-14.7,92.3-16.1ZM92.1,255.1c13.1,11.3,35.2,26.6,50.5,34,.9.5,7.4,2.8,8.2,2.8,1.6,0,9-4.2,11.1-5.2,32.4-17,67.1-45.9,85.6-77.8,1.4,0,1.6.4,2.5-.7,1.6-2.1,3.9-7.1,5.1-9.7,8.5-18.3,12.4-37.8,13.1-58l-.3-112.4c-26.3-9.1-54.1-15.9-81.8-18.9-47.6-5.2-96.8,1.4-142.4,15.3-2.4.7-8.7,2.2-10.4,3.2s-1,.6-1,1.4c1.2,37.7-1.5,76.3,0,113.9,1.7,41.9,23.1,84.6,55.7,110.9,1.1.9,2.7,2.7,4.2,1.5Z"/>
  <path class="st1" d="M92.1,255.1c-1.5,1.2-3.1-.6-4.2-1.5-32.7-26.3-54-69-55.7-110.9-1.5-37.6,1.2-76.2,0-113.9,0-.8.4-1,1-1.4,1.7-1,8-2.5,10.4-3.2C89.3,10.5,138.5,3.8,186.1,9c27.7,3,55.6,9.8,81.8,18.9l.3,112.4c-.8,20.2-4.6,39.7-13.1,58-1.2,2.6-3.4,7.6-5.1,9.7s-1.2.8-2.5.7c10-17.2,14.9-33,17.2-52.8.7-5.8,1.5-11.6,1.8-17.5V29.3c-26.6-8.8-54.2-15.6-82.1-18.5-50.9-5.3-101.8,3.1-150.2,18.5.7,36.8-1.2,73.8-.1,110.5s.6,6.3.6,9.8-.4,2.9.6,3.6c0,.4,0,.8,0,1.2,2,38,28.9,76.7,56.9,100.8Z"/>
  <path class="st0" d="M150.8,280.6v11.3c-.7,0-7.2-2.3-8.2-2.8-15.3-7.4-37.4-22.7-50.5-34-28-24.1-54.9-62.8-56.9-100.8,1.8,3.3,2.1,7.7,3.1,11.4,14.4,53.9,60.6,97,112.5,114.9Z"/>
  <path class="st3" d="M247.4,208.9c-18.4,31.9-53.1,60.8-85.6,77.8-2,1.1-9.4,5.2-11.1,5.2v-11.3c51.8-19.3,95.1-58.5,110.7-112.5,1.1-3.8,1.3-8.4,3.1-12-2.2,19.8-7.2,35.6-17.2,52.8Z"/>
  <path class="st0" d="M35.2,153.1c-1-.6-.6-2.4-.6-3.6,1.4,1.1.6,2.8.6,3.6Z"/>
  <path class="st1" d="M108.1,248.6c-40.9-29.2-64-66.6-65.8-117.7-.9-25.1,0-50.8.6-75.9s-.2-12.8,0-19.2c16.3-5.5,33.2-10,50.2-12.9,29.3-5.1,57.4-5.5,86.9-3.1s52.1,7.5,77,16.1l1,2c-1.4,33.4,1.7,68.2,0,101.5-.4,6.9-1.7,16.5-3.6,23.1s-.8,3-1.7,3.3c-2.6-22.8-27.5-36.1-48.6-36.8l9.8-2.3c10.9-.7,21.7,1.5,32.2,4.1-1.9-2-5.9-3.3-8.6-4.2-10.8-3.5-23.4-5-34.7-3.5l-.3-5.9c-4.7,4.1-9.6,6.6-16,7.1-16.4,1.3-27,0-42.2,8.8s-10.4,9.4-12.7,10.4-3.3.5-4.8,1.1c-3.1,1.2-6,5.3-7.1,8.3s-.8,5.7-1.7,7.2-6.8,5.1-8.6,6.9c-3.2,3.2-7,8.4-6.8,13.1h3c-1.3,5.6,0,13.3,5.8,15.9s1.8,0,2.4.3,2.3,5.6,3,6.8,1.6,2.1,2.5,3.2,1.3,3.7,3.6,3.6c.4-1.8-.5-13.2,0-13.6s1.8.2,2.6,0,3.1-1.2,3.3-1.3.4-2.8,1.4-.2c1.6,4.2,2,9,6.5,11.6,1.1-2.6,1-10.6,2.1-12.5s5.2,2.6,5.9,3.6c2.7,3.5,8.2,18.7,7.5,22.8s-9,3.3-11.6,3.9-1.7-.5-1.5.9c1.8,2.1,3.8,3.7,6.3,4.9,3.7,1.8,4,2.2,7.3,4.3.3,1.7-2.7,2-3.8,2.4-13.4,4.4-27.4,7.3-40.6,12.4ZM128.3,31.6h-11.9v44.8c0,1.5-7,.7-8.3.9v-44.5l-13,1.8c2,14.9-.6,31.1.6,46,.3,3.6,1.4,8.5,5.7,9.1s16.8.5,20.7,0,6.2-3.7,6.2-6.2V31.6ZM143.4,31.6h-9.8v58.1h12.4v-25.5l9.5,19.2,2,1,10.4-19.6v24.9h12.4V31.6h-9.2c-1.6,0-11.8,26.5-14.2,29.7l-13.6-29.7ZM185.8,32.2v57.5h25.2c3,0,5.8-2.7,6.2-5.7s.5-14.1,0-17.1c-.2-1-.6-2.2-1.4-2.7s-3.4-.5-1.7-1.8,2.7-.3,3.2-3.3.4-15.3-.8-18.1-3-3.9-4.9-4.6c-7.2-2.6-18-2.1-25.6-4.3ZM90.4,35.1l-28.4,5.9.6,10.7,14.2-2.1-15.4,31.4v8.6h30.2v-11.9h-16l14.8-31.7v-11ZM234.4,89.7v-47.7c-3.2-1.6-7.6-2.1-11.3-2.7v50.4h11.3ZM61.3,96.8v10.7c2.9-.4,6.9,1.6,5.9-2.4-1.6-.3-4,1.1-3.6-1.5s5,1.2,3.6-2.7c-1.6-.3-4,1.1-3.6-1.5s4.1,1.6,3.6-2.4-4.9-.1-5.9-.3ZM81.5,98.6c.4-2.6-5.6-2.1-6.3-1.2s-.5,4.8-.2,5.3c.6,1,4.2-.2,4.1,1.6-2.2,2.2-4.9-.9-4.1,3.3,3.4-.4,6.4,1.7,6.5-2.7.2-5.4-3.5-3.2-4.2-3.8s0-2.3,0-2.4c.2-.2,3.3.1,4.1,0ZM89.2,96.8v10.7c0,.1,1.9,0,2.4,0-1.3-5.1,3.3-2.1,4.2-3s0-6.7-.3-7.2c-.8-1.1-4.8-.3-6.3-.6ZM105,96.9c-1.4.5-1.3,9.2-.7,10s5.3.8,6.3.3c1.7-1,1.6-8,.5-9.5s-4.8-1.3-6.1-.8ZM118.8,96.8v10.7c0,.1,1.9,0,2.4,0-.6-5.6,3-5.5,2.4,0h2.4c-.6-2.1.9-10-1-10.6s-4.4.2-6.1,0ZM135.4,99.2c.3.3-.2,7,0,8.3h3v-8.3c0-.1,2.2.2,2.4,0s0-2.3,0-2.4c-.3-.3-6.2.2-7.4,0-1.7,3.6,1.6,1.9,2,2.4ZM148.4,96.8v10.7c1-.2,5.8.4,5.9-.3.6-4.1-3.9-1-4.2-2.4-.6-3.2,4.7.2,4.2-3.6s-3.3-.1-4.2-.3v-1.8c2.1,0,4.6.5,4.2-2.4h-5.9ZM171.6,96.8v10.7c2.9-.5,7.6,1.7,6.5-2.4-.8-.2-3.9.2-4.2,0s.2-4.6,0-5.6c2.4-1.2,4.7,1.3,4.2-2.4s-5.5-.1-6.5-.3ZM188.2,96.8c-.4,0-2.4-.1-2.4,0v10.7c2.9-.4,6.9,1.6,5.9-2.4-.2-.2-3.6.2-3.6,0v-8.3ZM201.8,96.8c-.4,0-2.4-.1-2.4,0v10.1c0,.5,7.1,1.4,7.1-.9v-9.2c0-.1-2.4-.1-2.4,0v8.3c0,.1-2.4.1-2.4,0v-8.3ZM214.2,107.5c1.5-.2,5.5.6,6.3-.6s.3-9.1,0-9.6c-.8-1.1-4.8-.3-6.3-.6v10.7ZM229.1,96.8v10.7c1.5-.2,5.4.6,6.3-.6,2.1-2.9-3.5-1.4-3.9-1.8v-1.8c5.5.6,6.1-3.4,0-2.4v-1.8c8.4-.3,2.4-3.5-2.4-2.4ZM171.6,114H61.3c-.1,0-.1,2.4,0,2.4h110.3c.1,0,0-2.3,0-2.4ZM67.8,133c-3.2.6-7.7-.2-6.5,4.2h3s0,11.9,0,11.9h3.6v-16ZM80.9,148.4v-14.5c0-1.3-9.1-1.3-9.8-.3-.3,6.2-2.5,11,5.9,9.5,2.2,4.7-5.5,2.3-6.2,3v3h8.6c.2,0,.9-.8,1.5-.6ZM92.7,133h-9.2c-1.2,0-1.2,8.1-.6,8.9s4.8.3,6.3.6v3c-3.4.2-7.3-1.5-6.5,3.6h9.8c1.2,0,1.2-7.4.8-8.5-.7-2-4.7-1.6-6.4-1.6v-2.6s5.9-.3,5.9-.3v-3ZM105.2,133c-1.2.1-2.6-.2-3.7,0s-.4,1.1-.8,1.2c-.9.2-2.5-.3-3.1,0s-3.8,9.8-3,11.2c1.1.2,6.3-.2,6.5,0s-.2,3.3,0,3.6,4,.1,4.2,0c.3-.3-.3-3.1,0-3.5s1.6.3,1.8-.4c.8-4.4-1.7-2.9-1.9-3.6-.3-1.4.4-8.2,0-8.6Z"/>
  <path class="st4" d="M152.6,233.8c8.2,5.1,14.1,6.8,23.8,4.6,1.3-.3,13.3-5,12.3-6.3-5.5-1.2-2.8-1.3-.2-2.9s4.6-2.8,6.7-4.6c-11.3-6.4-15.1-12.1-11.5-25.2s2.4-7.5,5-9.5l.3,6.5c2-2.5,9.3-8.2,9.8-11s-6-11.7-8.3-15.1c1.1,0,1.9.6,2.7,1.2,4.2,3.1,13.1,14.7,13.4,19.8s-2.2-.9-3.3-.9c-2,0-11,9.8-12.4,11.9-6.3,10,1.8,9.1,6.4,16.6,14.3,23.1-18.7,40.6-35.8,47.7s-8.8,3.9-10.9,3.9-7.5-2.4-9.8-3.3c-11.7-4.7-22.4-11.4-32.6-18.7,13.2-5.1,27.2-8,40.6-12.4,1.1-.4,4.2-.7,3.8-2.4Z"/>
  <path class="st1" d="M135.4,165.6c.7,3-1.8,4.7-2.7,7.1,1.3-.7,2.5-.7,3.8-1.5,2.1-1.3,3.1-5.5,6-3.6s-2,6.6-3.6,7.7-2.7.5-2.9,1.5c1.4,0,2.8.1,4.2-.3,2.1-.6,5.3-4.5,6.4-1.1,1.7,5.7-7.7,7.5-11.7,7.3l6.8,1.2c3.5.7-1.5,3.3-2.7,3.8-8.1,3.4-14.5.7-21.6,2.1s-2.1,1.9-3.7,2.3c-4.9,1.1-5.9-7.1-5.5-10.6l2.9.3,4.5,3.8c1-.5,3-10.8,6.8-10.7l-1.8,3.9c-.7,2.4,5.3-4.6,5.8-5.4,1.2-2.3,1.2-5.8,1.4-6,.3-.4,6.6-2.4,7.6-1.9Z"/>
  <path class="st1" d="M220.8,219.6c5.1-12.8,4-22.6-.6-35.3-3-8.3-7.4-16.9-13-23.7,6.2,0,13.3,7.5,16.5,12.6,5.1,8.1,10,26.5,8.3,35.9s-5.7,8.6-7.3,10.5-1.4.6-1.4.6l-2.4-.6Z"/>
  <path class="st4" d="M153.2,158.5c.4-1.9,1.8-2.4,2.2-4.6s0-3.7.1-5.5h3s.6,5.3.6,5.3c1-1.6,2.1-9.1.2-9.5-3.4-.8-11.2,5.7-13.9,8s-1.6,3.6-3.5,2.4c4.3-8.1,12.2-18.3,22.7-15,1.9.6,0,1.4-.2,2.6s.7,2.9.4,5.2-1.6,5.2-2.8,7.6c5.1.6,10.4,2.8,13,7.4-2.4.4-4.6-1.1-6.9-1.4s-4.1,0-6.2,0l2.4-2.4h-11.3Z"/>
  <path class="st4" d="M183.4,143.6c3.1-3.7,7.1-6.8,8.3-11.9-2.6.7-6.1,2.6-8.6,3s.2-1.6,0-2.4c-6.1,2-9.9,6.5-13.1,11.8-1.3-6.7,1.8-12,8.3-14.3s13.1-.7,18.7-4.7c.5,7.7-5.4,17.6-13.6,18.4Z"/>
  <path class="st4" d="M164.4,230.8c-.2,1,.2,1.3,1,1.6,2.2,1,7.3,1,9.9,1.3s1.8.3.9,1.2-10.4.8-12.1.5-9.1-3.3-9.8-4.1-.2-1.2.3-1.2c3,.1,5.9-.8,8.6-2.1s8.9-5.2,9.3-5.8c2-2.7-.9-8.5.5-11.7,8.2,10.3,2.1,17-8.6,20.2Z"/>
  <path class="st4" d="M167.4,128.8c-.1.8-1.1,1.1-1.8,1.5-8.9,4.8-17.1,7.9-25.7,14s-5,4.9-8.1,5.8c-.7-.7,4.2-6.3,5-7.1,7.9-8,19.6-12.5,30.5-14.2Z"/>
  <path class="st4" d="M167.4,208.3l-7.2-13.8c-2-2.8-4.4-5.6-7-7.8s-3.7-.8-3-4.4c10.7,3,17,15.6,17.2,26.1Z"/>
  <path class="st4" d="M158.4,194.7c1.7,1.1,2.2,9.7,1.9,11.8l1.8-1.8c1.9,5.1-1.3,12.3-7.1,12.4,2-7.1,4-15.3,1.8-22.5.5,0,1.3-.2,1.7,0Z"/>
  <path class="st4" d="M119.4,205.9c0-2.5-5.4-10.6-1.5-11.3s3.6,8.8,3.8,11.9l-2.4-.6Z"/>
  <path class="st4" d="M111.1,173.9h2.4c-.3,3.3-4.1,2.3-6.5,2.4-1.3-1.1,9.3-11.1,11.3-11.3l-7.1,8.9Z"/>
  <path class="st4" d="M136,191.7v8.6c0,.3-.9,1.3-.6,2.1-.6.7-8-13.1.6-10.7Z"/>
  <path class="st4" d="M168,220.1c.2.2,0,2.4-.3,3-1.4,2.5-9.8.6-11.6-1.5,1.7.4,11.4-1.9,11.8-1.5Z"/>
  <path class="st4" d="M151.7,225.5c.5.2,1.9,2.6,1.5,3-3.6,0-7.9.6-10.1-3,2.2.4,6.7-.6,8.6,0Z"/>
  <path class="st4" d="M128.9,146c.3,1.1-.6,1.4-1.2,2.1-1.3,1.6-3.6,4.1-5.1,5.6s-.9,1.5-2,1.2c-.8-.9,5.4-10.4,8.3-8.9Z"/>
  <path class="st4" d="M153.8,225.5c3.5.7,2-1.4,2.4-1.8s5,1.3,4.7,2.7c-.5,2.5-6.4,1.5-7.1-.9Z"/>
  <path class="st4" d="M148.4,157.9c.8-2.7,2-3.6,0-6.2,4.7-3.3,5.1,6.7,0,6.2Z"/>
  <path class="st4" d="M128.3,191.1c.4,3.6-3,1.9-4.9,2.4s-.3,2.8-2.8-.3c-.4-2,6.4-2.2,7.7-2.1Z"/>
  <path class="st4" d="M223.1,220.1c-.8,1.1-.6,2.8-2.9,4.5-4.7,3.4-.2-3.2.6-5.1l2.4.6Z"/>
  <path class="st2" d="M143.4,31.6l13.6,29.7c2.4-3.1,12.6-29.7,14.2-29.7h9.2v58.1h-12.4v-24.9l-10.4,19.6-2-1-9.5-19.2v25.5h-12.4V31.6h9.8Z"/>
  <path class="st2" d="M185.8,32.2c7.6,2.2,18.4,1.7,25.6,4.3s4,2.7,4.9,4.6c1.2,2.7,1.4,14.8.8,18.1s-1.8,2.2-3.2,3.3.9,1.2,1.7,1.8,1.3,1.8,1.4,2.7c.5,3,.4,14,0,17.1s-3.2,5.7-6.2,5.7h-25.2v-57.5ZM205.3,47l-7.7-.6v9.5c2.6,0,5.2-.2,7.7.6v-9.5ZM205.3,67.7h-7.7v10.1h7.7v-10.1Z"/>
  <path class="st2" d="M128.3,31.6v51.9c0,2.5-3.6,5.9-6.2,6.2-3.9.5-17,.5-20.7,0s-5.4-5.5-5.7-9.1c-1.2-14.9,1.4-31.1-.6-46l13-1.8v44.5c1.3-.2,8.3.6,8.3-.9V31.6h11.9Z"/>
  <polygon class="st2" points="90.4 35.1 90.4 46.1 75.5 77.8 91.5 77.8 91.5 89.7 61.3 89.7 61.3 81.1 76.7 49.7 62.5 51.7 61.9 41.1 90.4 35.1"/>
  <path class="st2" d="M234.4,89.7h-11.3v-50.4c3.7.5,8,1.1,11.3,2.7v47.7Z"/>
  <path class="st0" d="M171.6,114c0,0,.1,2.4,0,2.4H61.3c-.1,0-.1-2.4,0-2.4h110.3Z"/>
  <path class="st2" d="M92.7,133v3s-5.9.3-5.9.3v2.6c1.7,0,5.8-.4,6.4,1.6s.4,8.5-.8,8.5h-9.8c-.8-5,3.1-3.4,6.5-3.6v-3c-1.5-.2-5.5.6-6.3-.6s-.6-8.9.6-8.9h9.2Z"/>
  <path class="st2" d="M80.9,148.4c-.6-.2-1.3.6-1.5.6h-8.6v-3c.6-.7,8.4,1.8,6.2-3-8.4,1.4-6.2-3.3-5.9-9.5.7-1,9.8-.9,9.8.3v14.5ZM77.3,135.9h-3.6c-1.1,6.6,4.6,6.6,3.6,0Z"/>
  <path class="st2" d="M105.2,133c.3.3-.3,7.2,0,8.6s2.7-.8,1.9,3.6-1.5.1-1.8.4c-.4.4.2,3.3,0,3.5s-4,.1-4.2,0c-.2-.2.2-3.3,0-3.6s-5.5.2-6.5,0c-.8-1.4,2.6-10.9,3-11.2s2.2.1,3.1,0,.4-1.1.8-1.2c1.1-.3,2.6.1,3.7,0ZM101,141.9c0-1.5,0-3,0-4.5s.4-2.2-.6-2.1c.3,2.9-4.2,7.5.6,6.5Z"/>
  <path class="st0" d="M214.2,107.5v-10.7c1.5.2,5.5-.6,6.3.6s.3,9.1,0,9.6c-.8,1.1-4.8.3-6.3.6Z"/>
  <path class="st2" d="M67.8,133v16h-3.6v-11.9h-3c-1.1-4.4,3.4-3.5,6.5-4.2Z"/>
  <path class="st0" d="M105,96.9c1.3-.4,5.2-.4,6.1.8s1.1,8.5-.5,9.5-5.7.6-6.3-.3-.7-9.6.7-10ZM108.7,98.6c-4.1-1-1.9,3.6-2.4,6.5,4.1,1,1.9-3.6,2.4-6.5Z"/>
  <path class="st0" d="M118.8,96.8c1.8.3,4.6-.4,6.1,0s.3,8.5,1,10.6h-2.4c.6-5.5-3-5.6-2.4,0-.4,0-2.4.1-2.4,0v-10.7ZM123.5,98.6h-2.4c-.5,4.8,2.9,4.7,2.4,0Z"/>
  <path class="st0" d="M201.8,96.8v8.3c0,.1,2.4.1,2.4,0v-8.3c0-.1,2.4-.1,2.4,0v9.2c0,2.3-7.1,1.4-7.1.9v-10.1c0-.1,1.9,0,2.4,0Z"/>
  <path class="st0" d="M229.1,96.8c4.8-1.1,10.8,2.1,2.4,2.4v1.8c6.1-1,5.5,3,0,2.4v1.8c.4.4,6-1.1,3.9,1.8s-4.8.3-6.3.6v-10.7Z"/>
  <path class="st0" d="M61.3,96.8c1,.2,5.8-.4,5.9.3.6,4-3.3,1.1-3.6,2.4-.4,2.6,2,1.2,3.6,1.5,1.4,3.9-3.4,1.7-3.6,2.7-.4,2.6,2,1.2,3.6,1.5,1,4-3,1.9-5.9,2.4v-10.7Z"/>
  <path class="st0" d="M81.5,98.6c-.8.1-4-.2-4.1,0s0,2.3,0,2.4c.6.6,4.4-1.6,4.2,3.8-.2,4.4-3.2,2.3-6.5,2.7-.8-4.1,2-1.1,4.1-3.3.1-1.7-3.4-.6-4.1-1.6s-.2-4.7.2-5.3c.6-.9,6.7-1.4,6.3,1.2Z"/>
  <path class="st2" d="M148.4,96.8h5.9c.4,2.9-2,2.4-4.2,2.4v1.8c.8.2,4.1-.4,4.2.3.5,3.8-4.7.4-4.2,3.6s4.7-1.7,4.2,2.4-4.9.1-5.9.3v-10.7Z"/>
  <path class="st2" d="M89.2,96.8c1.5.2,5.5-.6,6.3.6s.5,6.9.3,7.2c-.9.9-5.4-2.1-4.2,3-.4,0-2.4.1-2.4,0v-10.7ZM93.9,98.6h-2.4c-.7,5.5,3,5.6,2.4,0Z"/>
  <path class="st0" d="M171.6,96.8c1,.2,6.4-.4,6.5.3.5,3.7-1.7,1.3-4.2,2.4.2,1-.2,5.4,0,5.6s3.3-.2,4.2,0c1,4.1-3.6,1.9-6.5,2.4v-10.7Z"/>
  <path class="st0" d="M135.4,99.2c-.5-.4-3.7,1.2-2-2.4,1.2.2,7.1-.3,7.4,0s0,2.3,0,2.4c-.2.2-2.4-.1-2.4,0v8.3h-3c-.2-1.3.3-8,0-8.3Z"/>
  <path class="st2" d="M188.2,96.8v8.3c0,.2,3.4-.2,3.6,0,1,4-3,1.9-5.9,2.4v-10.7c0-.1,1.9,0,2.4,0Z"/>
  <path class="st2" d="M34.6,149.6c0-3.4-.5-6.5-.6-9.8-1.1-36.8.8-73.8.1-110.5C82.5,13.9,133.4,5.5,184.3,10.8c27.9,2.9,55.5,9.7,82,18.5v109.4c-.2,5.9-1,11.7-1.7,17.5-1.9,3.6-2,8.1-3.1,12-15.6,54.1-58.9,93.3-110.7,112.5-51.9-17.9-98-61-112.5-114.9-1-3.7-1.3-8.1-3.1-11.4,0-.4,0-.8,0-1.2,0-.8.8-2.5-.6-3.6ZM119.4,205.9c-.8-1.1-1.7-1.7-2.5-3.2s-2.7-6.6-3-6.8c-.5-.3-1.7,0-2.4-.3-5.8-2.5-7.1-10.3-5.8-15.9h-3c-.2-4.7,3.6-9.9,6.8-13.1s7.7-5.5,8.6-6.9.9-5,1.7-7.2,4-7.1,7.1-8.3,3.5-.5,4.8-1.1c2.3-1.1,8.4-8,12.7-10.4,15.2-8.8,25.8-7.5,42.2-8.8,6.4-.5,11.2-3,16-7.1l.3,5.9c11.3-1.4,23.9,0,34.7,3.5s6.7,2.1,8.6,4.2c-10.5-2.5-21.3-4.8-32.2-4.1l-9.8,2.3c21.1.7,46,13.9,48.6,36.8,1-.3,1.5-2.4,1.7-3.3,1.9-6.6,3.3-16.2,3.6-23.1,1.7-33.3-1.4-68,0-101.5l-1-2c-24.9-8.5-50.7-14-77-16.1s-57.6-2-86.9,3.1c-17,3-33.9,7.4-50.2,12.9-.3,6.4.1,12.8,0,19.2-.7,25.1-1.5,50.8-.6,75.9,1.8,51.1,24.9,88.5,65.8,117.7,10.2,7.3,20.9,14,32.6,18.7,2.2.9,7.7,3.3,9.8,3.3s8.5-2.9,10.9-3.9c17.2-7.1,50.2-24.6,35.8-47.7s-12.7-6.6-6.4-16.6c1.4-2.2,10.4-11.9,12.4-11.9s3.4,3.4,3.3.9c-.3-5.2-9.2-16.7-13.4-19.8s-1.6-1.3-2.7-1.2c2.3,3.3,9,11.1,8.3,15.1s-7.8,8.5-9.8,11l-.3-6.5c-2.6,2-4.2,6.3-5,9.5-3.6,13.1.3,18.8,11.5,25.2-2.1,1.8-4.4,3.1-6.7,4.6s-5.3,1.6.2,2.9c1,1.3-11,6-12.3,6.3-9.7,2.2-15.7.5-23.8-4.6s-3.5-2.4-7.3-4.3c-2.5-1.2-4.5-2.8-6.3-4.9-.3-1.4.6-.7,1.5-.9,2.6-.6,11-.8,11.6-3.9s-4.8-19.3-7.5-22.8-4.8-5.5-5.9-3.6-1,9.9-2.1,12.5c-4.4-2.7-4.9-7.4-6.5-11.6s-1.3.2-1.4.2c-.2,0-3.1,1.3-3.3,1.3-.7.2-2.4-.2-2.6,0-.5.5.4,11.8,0,13.6-2.2.1-2.8-2.6-3.6-3.6l2.4.6c-.2-3.1,1.5-12.8-3.8-11.9s1.4,8.8,1.5,11.3ZM183.4,143.6c8.2-.8,14.1-10.7,13.6-18.4-5.6,4.1-12.5,2.6-18.7,4.7s-9.5,7.5-8.3,14.3c3.2-5.3,7-9.8,13.1-11.8.2.7-2.2,2.6,0,2.4s6-2.3,8.6-3c-1.2,5.1-5.1,8.1-8.3,11.9ZM167.4,128.8c-10.9,1.7-22.6,6.2-30.5,14.2s-5.7,6.4-5,7.1c3.1-.9,5.4-3.9,8.1-5.8,8.6-6.1,16.8-9.2,25.7-14s1.6-.7,1.8-1.5ZM153.2,158.5h11.3l-2.4,2.4c2,.1,4.1-.2,6.2,0s4.5,1.8,6.9,1.4c-2.6-4.6-7.9-6.8-13-7.4,1.2-2.3,2.5-4.9,2.8-7.6s-.6-3.9-.4-5.2,2.1-2,.2-2.6c-10.5-3.3-18.4,6.9-22.7,15,1.9,1.2,2.4-1.4,3.5-2.4,2.6-2.3,10.5-8.8,13.9-8s.7,7.9-.2,9.5l-.6-5.3h-3c0,1.8.2,3.7-.1,5.5s-1.8,2.7-2.2,4.6ZM128.9,146c-2.9-1.5-9.1,8-8.3,8.9,1.2.3,1.4-.6,2-1.2,1.5-1.5,3.8-4,5.1-5.6s1.4-1,1.2-2.1ZM148.4,157.9c5.1.4,4.7-9.5,0-6.2,2,2.6.8,3.5,0,6.2ZM220.8,219.6c-.7,1.8-5.3,8.5-.6,5.1s2.1-3.4,2.9-4.5,1,0,1.4-.6c1.6-1.9,6.9-8.4,7.3-10.5,1.7-9.4-3.2-27.8-8.3-35.9-3.2-5.1-10.3-12.6-16.5-12.6,5.6,6.9,10,15.4,13,23.7,4.6,12.6,5.6,22.5.6,35.3ZM111.1,173.9l7.1-8.9c-2,.1-12.5,10.1-11.3,11.3,2.4-.1,6.2,1,6.5-2.4h-2.4ZM135.4,165.6c-1.1-.6-7.4,1.5-7.6,1.9s-.1,3.8-1.4,6-6.6,7.8-5.8,5.4l1.8-3.9c-3.9-.1-5.9,10.2-6.8,10.7l-4.5-3.8-2.9-.3c-.4,3.5.6,11.6,5.5,10.6s2.2-2,3.7-2.3c7.1-1.4,13.5,1.3,21.6-2.1s6.2-3.1,2.7-3.8l-6.8-1.2c4,.2,13.5-1.6,11.7-7.3s-4.3.5-6.4,1.1-2.7.3-4.2.3c.3-1,1.9-.8,2.9-1.5,1.6-1.1,6-6.1,3.6-7.7s-3.9,2.3-6,3.6-2.6.8-3.8,1.5c.9-2.4,3.3-4.1,2.7-7.1ZM167.4,208.3c-.2-10.5-6.5-23.1-17.2-26.1-.7,3.7,1,2.7,3,4.4s5,5.1,7,7.8l7.2,13.8ZM128.3,191.1c-1.3,0-8.1.1-7.7,2.1,2.5,3.1,2.3.4,2.8.3,1.9-.5,5.4,1.3,4.9-2.4ZM136,191.7c-8.6-2.4-1.2,11.3-.6,10.7-.3-.8.6-1.7.6-2.1v-8.6ZM158.4,194.7c-.4-.3-1.2,0-1.7,0,2.3,7.2.2,15.5-1.8,22.5,5.8-.1,9-7.4,7.1-12.4l-1.8,1.8c.3-2.1-.2-10.7-1.9-11.8ZM164.4,230.8c10.6-3.1,16.8-9.9,8.6-20.2-1.4,3.2,1.5,9-.5,11.7s-8.1,5.3-9.3,5.8c-2.7,1.2-5.6,2.2-8.6,2.1-.5,0-.4,1.1-.3,1.2.7.8,8.4,3.9,9.8,4.1s11.3.2,12.1-.5,0-1.1-.9-1.2c-2.6-.3-7.7-.4-9.9-1.3s-1.2-.7-1-1.6ZM168,220.1c-.4-.4-10.2,1.9-11.8,1.5,1.8,2.1,10.1,3.9,11.6,1.5s.5-2.8.3-3ZM153.8,225.5c.7,2.4,6.6,3.3,7.1.9s-4.3-3.1-4.7-2.7,1.1,2.5-2.4,1.8ZM151.7,225.5c-1.9-.6-6.4.4-8.6,0,2.2,3.6,6.4,3,10.1,3,.4-.4-1-2.8-1.5-3Z"/>
  <rect class="st1" x="197.6" y="67.7" width="7.7" height="10.1"/>
  <path class="st1" d="M205.3,47v9.5c-2.5-.8-5.1-.6-7.7-.6v-9.5l7.7.6Z"/>
  <path class="st4" d="M77.3,135.9c1.1,6.6-4.6,6.6-3.6,0h3.6Z"/>
  <path class="st4" d="M101,141.9c-4.8,1-.3-3.6-.6-6.5,1-.1.6,1.3.6,2.1,0,1.5,0,3,0,4.5Z"/>
  <path class="st1" d="M108.7,98.6c-.5,2.9,1.7,7.6-2.4,6.5.5-2.9-1.7-7.6,2.4-6.5Z"/>
  <path class="st4" d="M123.5,98.6c.5,4.7-2.9,4.8-2.4,0h2.4Z"/>
  <path class="st4" d="M93.9,98.6c.7,5.6-3,5.5-2.4,0h2.4Z"/>
</svg>